<svg width="25" height="25" viewBox="0 0 25 25" fill="none" xmlns="http://www.w3.org/2000/svg">
<path d="M16.75 17.766H18.25C19.1202 17.766 19.8 17.286 20.2872 16.5583C20.775 15.8299 21 14.9696 21 14.016C21 13.3887 20.8941 12.7936 20.6735 12.2388C20.5052 11.8158 20.2839 11.4385 20 11.1244V11.016C20 9.96753 19.7949 8.96087 19.3849 8.0023C18.9799 7.0555 18.4303 6.22937 17.7335 5.53254C17.0366 4.8357 16.2105 4.28606 15.2637 3.88111C14.3051 3.47111 13.2985 3.26599 12.25 3.26599C11.2015 3.26599 10.1949 3.47111 9.23631 3.88111C8.28951 4.28606 7.46338 4.8357 6.76654 5.53254C6.06971 6.22937 5.52007 7.0555 5.11511 8.0023C4.70512 8.96087 4.5 9.96753 4.5 11.016V11.1244C4.21609 11.4385 3.99476 11.8158 3.82654 12.2388C3.60587 12.7936 3.5 13.3887 3.5 14.016C3.5 14.9696 3.72499 15.8299 4.21276 16.5583C4.56057 17.0777 5.00648 17.4709 5.54971 17.6535C5.67264 18.4199 6.02301 19.0997 6.59467 19.6713C7.32025 20.3969 8.22002 20.766 9.25 20.766H12.25C12.7295 20.766 13.1615 20.5882 13.4983 20.2423C13.8272 19.9045 14 19.4798 14 19.0082C14 18.5361 13.8267 18.1101 13.4913 17.7747C13.153 17.4364 12.723 17.266 12.25 17.266H11.25C10.777 17.266 10.347 17.4364 10.0087 17.7747C9.86108 17.9224 9.74541 18.0875 9.66193 18.266H9.25C8.89697 18.266 8.61634 18.1498 8.36627 17.8997C8.29768 17.8311 8.23917 17.7603 8.19035 17.6862C8.35495 17.6236 8.50406 17.5257 8.63189 17.3979C8.86624 17.1635 9 16.8576 9 16.516V11.516C9 11.1743 8.86624 10.8684 8.63189 10.6341C8.4654 10.4676 8.26281 10.3519 8.03694 10.2988C8.1486 9.26293 8.5104 8.47302 9.08029 7.87894C9.75909 7.17135 10.7753 6.76599 12.25 6.76599C13.7247 6.76599 14.7409 7.17135 15.4197 7.87894C15.9896 8.47302 16.3514 9.26293 16.4631 10.2988C16.2372 10.3519 16.0346 10.4676 15.8681 10.6341C15.6338 10.8684 15.5 11.1743 15.5 11.516V16.516C15.5 16.8576 15.6338 17.1635 15.8681 17.3979C16.1025 17.6322 16.4084 17.766 16.75 17.766Z" stroke="#FF9316" stroke-width="1.5"/>
</svg>
