<svg width="25" height="25" viewBox="0 0 25 25" fill="none" xmlns="http://www.w3.org/2000/svg">
<path d="M10.5001 11.3492H12.5001V12.6826H10.5001V11.3492Z" fill="#FF9316"/>
<path d="M18.1335 9.46249C16.9511 7.52769 15.3382 5.8919 13.4202 4.68249C12.5341 4.12091 11.524 3.78478 10.4782 3.70343C9.43229 3.62209 8.3824 3.798 7.42016 4.21582C6.5785 4.61282 5.84612 5.20873 5.28628 5.95209C4.72644 6.69545 4.35596 7.56392 4.20683 8.48248C4.1535 8.79582 4.1135 9.09582 4.0735 9.38915C3.44933 9.49032 2.88141 9.80999 2.47112 10.2911C2.06082 10.7722 1.83483 11.3835 1.8335 12.0158V16.1025C1.8335 16.4561 1.97397 16.7952 2.22402 17.0453C2.47407 17.2953 2.81321 17.4358 3.16683 17.4358V12.0158C3.16683 11.6622 3.30731 11.3231 3.55735 11.073C3.8074 10.823 4.14654 10.6825 4.50016 10.6825H16.9868C18.2717 10.6842 19.5034 11.1954 20.412 12.104C21.3205 13.0125 21.8317 14.2443 21.8335 15.5292V16.0158H20.5002C20.2186 15.3292 19.6941 14.7703 19.0268 14.4458C18.3594 14.1213 17.5959 14.0538 16.882 14.2563C16.1681 14.4587 15.5537 14.917 15.1561 15.5435C14.7585 16.1701 14.6055 16.9211 14.7263 17.6533C14.8471 18.3855 15.2332 19.0476 15.8111 19.5132C16.3889 19.9788 17.1179 20.2154 17.859 20.1778C18.6002 20.1402 19.3015 19.831 19.8292 19.3093C20.3569 18.7876 20.6741 18.0898 20.7202 17.3492H21.8335C22.1871 17.3492 22.5263 17.2087 22.7763 16.9586C23.0264 16.7086 23.1668 16.3694 23.1668 16.0158V15.5292C23.1641 14.0904 22.6601 12.6976 21.7415 11.5904C20.8228 10.4831 19.547 9.73069 18.1335 9.46249ZM7.8335 9.34915H5.12016C5.12016 9.14249 5.18016 8.92915 5.22016 8.68248C5.33534 7.95012 5.63593 7.25939 6.09334 6.67596C6.55075 6.09253 7.14979 5.63579 7.8335 5.34915V9.34915ZM9.16683 9.34915V5.06915C10.4115 4.90753 11.6737 5.1807 12.7402 5.84248C14.196 6.74927 15.4525 7.94227 16.4335 9.34915H9.16683ZM17.7002 18.9358C17.3705 18.9358 17.0483 18.8381 16.7742 18.6549C16.5001 18.4718 16.2865 18.2115 16.1604 17.907C16.0342 17.6024 16.0012 17.2673 16.0655 16.944C16.1298 16.6207 16.2886 16.3237 16.5217 16.0906C16.7547 15.8576 17.0517 15.6988 17.375 15.6345C17.6983 15.5702 18.0334 15.6032 18.338 15.7294C18.6425 15.8555 18.9028 16.0691 19.0859 16.3432C19.2691 16.6173 19.3668 16.9395 19.3668 17.2692C19.3668 17.7112 19.1912 18.1351 18.8787 18.4477C18.5661 18.7602 18.1422 18.9358 17.7002 18.9358V18.9358Z" fill="#FF9316"/>
<path d="M9.94651 16.0159C9.66495 15.3293 9.14045 14.7704 8.4731 14.4459C7.80575 14.1213 7.04226 14.0538 6.32834 14.2563C5.61442 14.4588 5.00003 14.917 4.60242 15.5436C4.20481 16.1702 4.05181 16.9212 4.17262 17.6534C4.29343 18.3856 4.67959 19.0476 5.25741 19.5133C5.83523 19.9789 6.56427 20.2155 7.30539 20.1778C8.04652 20.1402 8.74786 19.8311 9.27557 19.3093C9.80329 18.7876 10.1204 18.0899 10.1665 17.3492H13.6998V17.1825C13.6867 16.7892 13.7316 16.3961 13.8332 16.0159H9.94651ZM7.16651 18.9359C6.83687 18.9359 6.51464 18.8381 6.24056 18.655C5.96648 18.4719 5.75285 18.2116 5.62671 17.907C5.50056 17.6025 5.46756 17.2674 5.53187 16.9441C5.59617 16.6208 5.75491 16.3238 5.988 16.0907C6.22108 15.8576 6.51806 15.6989 6.84136 15.6346C7.16466 15.5703 7.49977 15.6033 7.80431 15.7294C8.10886 15.8556 8.36916 16.0692 8.55229 16.3433C8.73543 16.6173 8.83317 16.9396 8.83317 17.2692C8.83317 17.7112 8.65758 18.1352 8.34502 18.4477C8.03246 18.7603 7.60854 18.9359 7.16651 18.9359V18.9359Z" fill="#FF9316"/>
</svg>
