<svg width="24" height="25" viewBox="0 0 24 25" fill="none" xmlns="http://www.w3.org/2000/svg">
<path d="M17.2099 3.33295C17.6894 3.33295 18.0782 3.7217 18.0782 4.20125C18.0782 4.68081 17.6894 5.06956 17.2099 5.06956H16.3416V7.67448C17.0325 7.67448 17.695 7.94893 18.1835 8.43745C18.6721 8.92596 18.9465 9.58854 18.9465 10.2794V19.8308C18.9465 20.0611 18.855 20.2819 18.6922 20.4448C18.5293 20.6076 18.3085 20.6991 18.0782 20.6991H5.9219C5.69161 20.6991 5.47075 20.6076 5.30791 20.4448C5.14507 20.2819 5.05359 20.0611 5.05359 19.8308V10.2794C5.05359 9.58854 5.32804 8.92596 5.81655 8.43745C6.30507 7.94893 6.96764 7.67448 7.65851 7.67448V5.06956H6.7902C6.31065 5.06956 5.9219 4.68081 5.9219 4.20125C5.9219 3.7217 6.31065 3.33295 6.7902 3.33295H17.2099ZM16.3416 9.4111H7.65851C7.42822 9.4111 7.20736 9.50258 7.04453 9.66542C6.88169 9.82826 6.7902 10.0491 6.7902 10.2794V18.9625H17.2099V10.2794C17.2099 10.0491 17.1184 9.82826 16.9556 9.66542C16.7927 9.50258 16.5719 9.4111 16.3416 9.4111ZM12 11.1477C12.4796 11.1477 12.8684 11.5365 12.8684 12.016V12.8843H13.7367C14.2162 12.8843 14.605 13.2731 14.605 13.7526C14.605 14.2322 14.2162 14.6209 13.7367 14.6209H12.8675L12.8679 15.4888C12.8682 15.9685 12.4793 16.3576 11.9996 16.3576C11.5202 16.3576 11.1315 15.9691 11.1313 15.4897L11.1309 14.6209H10.2634C9.78388 14.6209 9.39513 14.2322 9.39513 13.7526C9.39513 13.2731 9.78388 12.8843 10.2634 12.8843H11.1317V12.016C11.1317 11.5365 11.5205 11.1477 12 11.1477ZM14.605 5.06956H9.39513V7.67448H14.605V5.06956Z" fill="#FF9316"/>
</svg>
