<svg width="25" height="25" viewBox="0 0 25 25" fill="none" xmlns="http://www.w3.org/2000/svg">
<path d="M3.25 5.26602C3.05109 5.26602 2.86032 5.34504 2.71967 5.48569C2.57902 5.62635 2.5 5.81711 2.5 6.01602C2.5 6.21494 2.57902 6.4057 2.71967 6.54635C2.86032 6.687 3.05109 6.76602 3.25 6.76602H4.915L6.883 14.641C7.05025 15.3085 7.648 15.766 8.33575 15.766H17.6882C18.3655 15.766 18.9408 15.316 19.1185 14.6635L21.0625 7.51602H19.492L17.6875 14.266H8.335L6.36775 6.39102C6.28649 6.06794 6.09916 5.78148 5.83576 5.57751C5.57236 5.37353 5.24813 5.26385 4.915 5.26602H3.25ZM16.75 15.766C15.5162 15.766 14.5 16.7823 14.5 18.016C14.5 19.2498 15.5162 20.266 16.75 20.266C17.9838 20.266 19 19.2498 19 18.016C19 16.7823 17.9838 15.766 16.75 15.766ZM10 15.766C8.76625 15.766 7.75 16.7823 7.75 18.016C7.75 19.2498 8.76625 20.266 10 20.266C11.2338 20.266 12.25 19.2498 12.25 18.016C12.25 16.7823 11.2338 15.766 10 15.766ZM12.25 5.26602V9.01602H10L13 12.016L16 9.01602H13.75V5.26602H12.25ZM10 17.266C10.423 17.266 10.75 17.593 10.75 18.016C10.75 18.439 10.423 18.766 10 18.766C9.577 18.766 9.25 18.439 9.25 18.016C9.25 17.593 9.577 17.266 10 17.266ZM16.75 17.266C17.173 17.266 17.5 17.593 17.5 18.016C17.5 18.439 17.173 18.766 16.75 18.766C16.327 18.766 16 18.439 16 18.016C16 17.593 16.327 17.266 16.75 17.266Z" fill="#FF9316"/>
</svg>
