<svg width="25" height="25" viewBox="0 0 25 25" fill="none" xmlns="http://www.w3.org/2000/svg">
<path d="M9.85765 8.34189L7.35108 12.1026V18.956H17.1488V8.34189H9.85765ZM8.98403 6.70894H17.9652C18.1818 6.70894 18.3894 6.79496 18.5426 6.94808C18.6957 7.1012 18.7817 7.30887 18.7817 7.52541V19.7725C18.7817 19.989 18.6957 20.1967 18.5426 20.3498C18.3894 20.5029 18.1818 20.589 17.9652 20.589H6.53461C6.31807 20.589 6.1104 20.5029 5.95728 20.3498C5.80416 20.1967 5.71814 19.989 5.71814 19.7725V11.6078L8.98403 6.70894ZM13.0664 3.44305H17.1488C17.3653 3.44305 17.573 3.52908 17.7261 3.68219C17.8792 3.83531 17.9652 4.04298 17.9652 4.25953V5.89247H12.2499V4.25953C12.2499 4.04298 12.3359 3.83531 12.4891 3.68219C12.6422 3.52908 12.8498 3.44305 13.0664 3.44305ZM8.98403 12.4242H10.617V17.3231H8.98403V12.4242Z" fill="#FF9316"/>
</svg>
