<svg width="25" height="25" viewBox="0 0 25 25" fill="none" xmlns="http://www.w3.org/2000/svg">
<path d="M21.6563 15.0915C21.8342 14.9339 21.8766 14.6728 21.7576 14.4671L20.9657 13.0971C20.8465 12.8909 20.5984 12.7974 20.3728 12.8736L19.4779 13.176C19.317 13.0624 19.1467 12.9634 18.9674 12.879L18.782 11.9578C18.735 11.7244 18.5299 11.5565 18.2918 11.5565H16.708C16.4699 11.5565 16.2648 11.7244 16.2178 11.9578L16.0324 12.879C15.8531 12.9634 15.6828 13.0624 15.5219 13.176L14.627 12.8736C14.4014 12.7974 14.1533 12.8909 14.0341 13.0971L13.2422 14.4671C13.1232 14.6728 13.1656 14.9339 13.3435 15.0915L14.0475 15.7152C14.0375 15.8092 14.0303 15.91 14.0303 16.016C14.0303 16.122 14.0375 16.2228 14.0475 16.3167L13.3435 16.9404C13.1656 17.0981 13.1232 17.3591 13.2422 17.5649L14.0341 18.9349C14.1533 19.1411 14.4014 19.2346 14.627 19.1584L15.5219 18.8559C15.6828 18.9696 15.8531 19.0686 16.0324 19.153L16.2178 20.0741C16.2648 20.3076 16.4699 20.4755 16.708 20.4755H18.2918C18.5299 20.4755 18.735 20.3076 18.782 20.0741L18.9674 19.153C19.1467 19.0686 19.317 18.9696 19.4779 18.8559L20.3728 19.1584C20.5984 19.2346 20.8465 19.1411 20.9657 18.9349L21.7576 17.5649C21.8766 17.3591 21.8342 17.0981 21.6563 16.9404L20.9523 16.3167C20.9623 16.2228 20.9695 16.122 20.9695 16.016C20.9695 15.91 20.9623 15.8092 20.9523 15.7152L21.6563 15.0915ZM17.4999 17.0998C16.905 17.0998 16.4161 16.6109 16.4161 16.016C16.4161 15.421 16.905 14.9322 17.4999 14.9322C18.0948 14.9322 18.5837 15.421 18.5837 16.016C18.5837 16.6109 18.0948 17.0998 17.4999 17.0998Z" stroke="#FF9316" stroke-linecap="round" stroke-linejoin="round"/>
<circle cx="10.54" cy="8.12407" r="3.51628" stroke="#FF9316" stroke-width="1.5"/>
<path d="M11.4449 19.8276H3.70703C3.70703 19.014 3.70703 17.2206 3.70703 16.5559C3.70703 14.8895 9.81198 13.7744 11.6146 13.6261" stroke="#FF9316" stroke-width="1.5" stroke-linecap="round" stroke-linejoin="round"/>
</svg>
