<svg width="25" height="25" viewBox="0 0 25 25" fill="none" xmlns="http://www.w3.org/2000/svg">
<path d="M12.4998 7.83521C12.7737 7.83521 13.0364 7.7264 13.2301 7.53272C13.4238 7.33904 13.5326 7.07634 13.5326 6.80243C13.5326 6.52852 13.4238 6.26583 13.2301 6.07215C13.0364 5.87846 12.7737 5.76965 12.4998 5.76965C12.2259 5.76965 11.9632 5.87846 11.7695 6.07215C11.5759 6.26583 11.467 6.52852 11.467 6.80243C11.467 7.07634 11.5759 7.33904 11.7695 7.53272C11.9632 7.7264 12.2259 7.83521 12.4998 7.83521Z" fill="#FF9316"/>
<path d="M13.5134 2.95224C13.2269 2.71943 12.8691 2.59235 12.4999 2.59235C12.1308 2.59235 11.7729 2.71943 11.4864 2.95224L4.59845 8.55129C3.76121 9.23292 4.24318 10.5893 5.32278 10.5893H5.61471V16.3729C4.79675 16.7901 4.23767 17.6398 4.23767 18.6216V19.5401C4.23767 19.7227 4.31021 19.8978 4.43933 20.0269C4.56845 20.1561 4.74358 20.2286 4.92619 20.2286H20.0736C20.2562 20.2286 20.4314 20.1561 20.5605 20.0269C20.6896 19.8978 20.7622 19.7227 20.7622 19.5401V18.6216C20.7622 17.6411 20.2031 16.7901 19.3851 16.3729V10.5893H19.677C20.7566 10.5893 21.2386 9.23292 20.4 8.55129L13.5148 2.95224H13.5134ZM12.3567 4.02083C12.3976 3.98774 12.4487 3.96968 12.5013 3.96968C12.5539 3.96968 12.605 3.98774 12.6459 4.02083L19.0285 9.21227H5.96999L12.3567 4.02083ZM18.0081 16.0975H16.631V10.5893H18.0081V16.0975ZM15.254 16.0975H13.1884V10.5893H15.254V16.0975ZM11.8114 16.0975H9.74583V10.5893H11.8114V16.0975ZM18.238 17.4745C18.8715 17.4745 19.3851 17.9881 19.3851 18.6216V18.8516H5.61471V18.6216C5.61471 17.9881 6.12835 17.4745 6.76178 17.4745H18.238ZM8.36879 16.0975H6.99175V10.5893H8.36879V16.0975Z" fill="#FF9316"/>
</svg>
