<svg width="24" height="25" viewBox="0 0 24 25" fill="none" xmlns="http://www.w3.org/2000/svg">
<path d="M3.75 4.51599C3.33579 4.51599 3 4.85178 3 5.26599C3 5.6802 3.33579 6.01599 3.75 6.01599H19.5V18.016H9.75C9.33579 18.016 9 18.3518 9 18.766C9 19.1802 9.33579 19.516 9.75 19.516H21.75C22.1642 19.516 22.5 19.1802 22.5 18.766C22.5 18.3518 22.1642 18.016 21.75 18.016H21V5.51599C21 4.96371 20.5523 4.51599 20 4.51599H3.75ZM6.0015 6.76599C5.20656 6.76876 4.44495 7.08567 3.8827 7.64764C3.32045 8.2096 3.00316 8.97106 3 9.76599C3 11.4152 4.353 12.766 6.0015 12.766C6.79604 12.7628 7.55711 12.4457 8.1188 11.8837C8.68048 11.3218 8.99724 10.5605 9 9.76599C9 8.11824 7.6485 6.76599 6.0015 6.76599ZM11.25 7.51599C10.8358 7.51599 10.5 7.85178 10.5 8.26599C10.5 8.6802 10.8358 9.01599 11.25 9.01599H13.5C13.9142 9.01599 14.25 8.6802 14.25 8.26599C14.25 7.85178 13.9142 7.51599 13.5 7.51599H11.25ZM16.5 7.51599C16.0858 7.51599 15.75 7.85178 15.75 8.26599C15.75 8.6802 16.0858 9.01599 16.5 9.01599H17.25C17.6642 9.01599 18 8.6802 18 8.26599C18 7.85178 17.6642 7.51599 17.25 7.51599H16.5ZM6.0015 8.26599C6.837 8.26599 7.5 8.92824 7.5 9.76599C7.5 10.606 6.83775 11.266 6.0015 11.266C5.1615 11.266 4.5 10.606 4.5 9.76599C4.5 8.92824 5.16225 8.26599 6.0015 8.26599ZM11.25 10.516C10.8358 10.516 10.5 10.8518 10.5 11.266C10.5 11.6802 10.8358 12.016 11.25 12.016H17.25C17.6642 12.016 18 11.6802 18 11.266C18 10.8518 17.6642 10.516 17.25 10.516H11.25ZM4 13.516C3.44772 13.516 3 13.9637 3 14.516V18.766C3 19.1802 3.33579 19.516 3.75 19.516C4.16421 19.516 4.5 19.1802 4.5 18.766V15.016H6.75V18.766C6.75 19.1802 7.08579 19.516 7.5 19.516C7.91421 19.516 8.25 19.1802 8.25 18.766V15.5095L9.798 16.3285C10.2368 16.561 10.764 16.5602 11.202 16.3285V16.33L13.1871 15.2801C13.5531 15.0865 13.6931 14.6331 13.5001 14.2669C13.3067 13.8999 12.8522 13.7595 12.4856 13.9534L10.5015 15.0025L8.1795 13.777C7.85544 13.6058 7.49451 13.5162 7.128 13.516H4Z" fill="#FF9316"/>
</svg>
