<svg width="24" height="25" viewBox="0 0 24 25" fill="none" xmlns="http://www.w3.org/2000/svg">
<path d="M7 19.016C9.20914 19.016 11 17.2251 11 15.016C11 12.8069 9.20914 11.016 7 11.016C4.79086 11.016 3 12.8069 3 15.016C3 17.2251 4.79086 19.016 7 19.016Z" stroke="#FF9316" stroke-width="1.5" stroke-linecap="round" stroke-linejoin="round"/>
<path d="M7 15.016V15.026" stroke="#FF9316" stroke-width="1.5" stroke-linecap="round" stroke-linejoin="round"/>
<path d="M19 19.016C20.1046 19.016 21 18.1206 21 17.016C21 15.9114 20.1046 15.016 19 15.016C17.8954 15.016 17 15.9114 17 17.016C17 18.1206 17.8954 19.016 19 19.016Z" stroke="#FF9316" stroke-width="1.5" stroke-linecap="round" stroke-linejoin="round"/>
<path d="M10.5 17.016H17" stroke="#FF9316" stroke-width="1.5" stroke-linecap="round" stroke-linejoin="round"/>
<path d="M20 15.216V11.016C20 10.7508 19.8946 10.4964 19.7071 10.3089C19.5196 10.1213 19.2652 10.016 19 10.016H13L11 5.01599H5V11.516" stroke="#FF9316" stroke-width="1.5" stroke-linecap="round" stroke-linejoin="round"/>
<path d="M18 5.01599H17C16.7348 5.01599 16.4804 5.12135 16.2929 5.30888C16.1054 5.49642 16 5.75077 16 6.01599V10.016" stroke="#FF9316" stroke-width="1.5" stroke-linecap="round" stroke-linejoin="round"/>
</svg>
