<svg width="25" height="25" viewBox="0 0 25 25" fill="none" xmlns="http://www.w3.org/2000/svg">
<path d="M17.4234 9.5401C17.1977 9.76435 16.8925 9.89022 16.5743 9.89022C16.2561 9.89022 15.9509 9.76435 15.7252 9.5401L14.728 8.54293C14.5036 8.31726 14.3776 8.01191 14.3776 7.69362C14.3776 7.37533 14.5036 7.06999 14.728 6.84432L16.9851 4.58614C16.9895 4.58184 16.9929 4.57651 16.9948 4.57061C16.9967 4.56471 16.9971 4.55844 16.996 4.55234C16.9949 4.54625 16.9923 4.54052 16.9884 4.53568C16.9845 4.53084 16.9795 4.52703 16.9738 4.52459C15.5169 3.90009 13.628 4.21835 12.4286 5.40917C11.2809 6.54821 11.2156 8.26145 11.6359 9.75665C11.6957 9.96918 11.6955 10.1941 11.6355 10.4065C11.5755 10.619 11.458 10.8107 11.2959 10.9606L5.04342 16.6708C4.85894 16.8344 4.70987 17.0339 4.60537 17.2572C4.50087 17.4805 4.44315 17.7228 4.43575 17.9693C4.42835 18.2157 4.47144 18.461 4.56236 18.6902C4.65327 18.9193 4.7901 19.1275 4.96443 19.3018C5.13876 19.4762 5.34691 19.613 5.57607 19.7039C5.80523 19.7948 6.05057 19.8379 6.297 19.8305C6.54343 19.8231 6.78574 19.7654 7.00904 19.6609C7.23233 19.5564 7.4319 19.4073 7.59545 19.2228L13.3698 12.9553C13.5178 12.796 13.7064 12.6799 13.9153 12.6195C14.1242 12.5592 14.3456 12.5568 14.5558 12.6127C16.0397 13.0101 17.7285 12.9354 18.8612 11.8174C20.0805 10.6165 20.3436 8.49376 19.7525 7.27892C19.7499 7.27361 19.746 7.26901 19.7412 7.26549C19.7364 7.26197 19.7309 7.25964 19.725 7.25869C19.7191 7.25774 19.7131 7.25819 19.7075 7.26001C19.7018 7.26183 19.6967 7.26497 19.6925 7.26916L17.4234 9.5401Z" stroke="#FF9316" stroke-width="1.5" stroke-miterlimit="10" stroke-linecap="round"/>
<path d="M6.24428 18.6223C6.57591 18.6223 6.84476 18.3535 6.84476 18.0219C6.84476 17.6902 6.57591 17.4214 6.24428 17.4214C5.91264 17.4214 5.6438 17.6902 5.6438 18.0219C5.6438 18.3535 5.91264 18.6223 6.24428 18.6223Z" fill="#FF9316"/>
</svg>
