<svg width="25" height="25" viewBox="0 0 25 25" fill="none" xmlns="http://www.w3.org/2000/svg">
<path d="M10.625 3.01599C9.73087 3.01915 8.87426 3.37575 8.24201 4.008C7.60976 4.64025 7.25316 5.49686 7.25 6.39099C7.25 6.99099 7.42025 7.54824 7.6955 8.03199C6.34475 8.82249 5.28725 9.94449 4.71875 11.266H4.625C4.57545 11.2671 4.52618 11.2582 4.48017 11.2397C4.43416 11.2213 4.39237 11.1937 4.35732 11.1587C4.32227 11.1236 4.29469 11.0818 4.27625 11.0358C4.2578 10.9898 4.24887 10.9405 4.25 10.891C4.25 10.759 4.3175 10.654 4.41425 10.5865L3.5465 9.36774C3.30077 9.53862 3.1 9.76638 2.96131 10.0316C2.82262 10.2968 2.75012 10.5917 2.75 10.891C2.75 11.8135 3.4385 12.5695 4.3205 12.7195C4.28225 12.982 4.25 13.2437 4.25 13.516C4.25 15.385 5.243 17.005 6.6875 18.2035C6.506 18.9535 6.59675 19.753 7.1795 20.3365C7.60973 20.763 8.19104 21.0023 8.79688 21.0023C9.40271 21.0023 9.98402 20.763 10.4142 20.3365L10.6955 20.0552C11.2812 20.1632 11.87 20.266 12.5 20.266C13.13 20.266 13.7188 20.1632 14.3045 20.0552L14.5858 20.3365C15.016 20.763 15.5973 21.0023 16.2031 21.0023C16.809 21.0023 17.3903 20.763 17.8205 20.3365C18.3912 19.765 18.4768 18.9887 18.3125 18.25C18.9139 17.7615 19.4289 17.1753 19.8358 16.516H21.5V10.516H19.7892C19.5169 10.0739 19.1943 9.66497 18.8278 9.29724L19.25 6.97674V6.01599H18.5C18.5 6.01599 16.6985 6.04599 15.1715 7.18824C14.7706 7.07259 14.3637 6.97845 13.9528 6.90624C13.9827 6.73974 14 6.56649 14 6.39099C14 4.53624 12.4797 3.01599 10.625 3.01599ZM10.625 4.51599C11.6675 4.51599 12.5 5.34849 12.5 6.39099C12.5 6.51999 12.4768 6.64299 12.4528 6.76599C11.243 6.77199 10.1007 7.00599 9.05525 7.39899C8.85611 7.10055 8.74988 6.74978 8.75 6.39099C8.75 5.34849 9.5825 4.51599 10.625 4.51599ZM17.5625 7.65699C17.5745 7.65399 17.5745 7.65924 17.5858 7.65699L17.3045 9.36699L17.2347 9.76599L17.5625 10.0472C18.0633 10.4809 18.4769 11.006 18.7812 11.5945L18.992 12.016H20V15.016H18.992L18.7812 15.4382C18.4152 16.1612 17.8378 16.7972 17.0938 17.3357L16.5545 17.7347L16.883 18.3445C17.0615 18.646 17.0293 19.018 16.7653 19.282C16.6941 19.3562 16.6086 19.4153 16.514 19.4556C16.4194 19.496 16.3176 19.5168 16.2147 19.5168C16.1119 19.5168 16.0101 19.496 15.9155 19.4556C15.8209 19.4153 15.7354 19.3562 15.6642 19.282L15.125 18.742L14.8205 18.4615L14.4215 18.5552C13.8125 18.6955 13.1652 18.766 12.5 18.766C11.8534 18.7683 11.2085 18.6976 10.5778 18.5552L10.1802 18.4615L9.875 18.7427L9.33575 19.2812C9.26455 19.3556 9.17904 19.4148 9.08436 19.4552C8.98969 19.4956 8.88782 19.5164 8.78487 19.5164C8.68193 19.5164 8.58006 19.4956 8.48539 19.4552C8.39071 19.4148 8.3052 19.3556 8.234 19.2812C8.11056 19.1617 8.03167 19.0036 8.01039 18.8331C7.98911 18.6626 8.02673 18.4899 8.117 18.3437L8.4455 17.7347L7.90625 17.3365C6.5495 16.351 5.75 15.007 5.75 13.516C5.75 10.7095 8.6825 8.26599 12.5 8.26599C13.4225 8.26599 14.3015 8.40399 15.1017 8.66424L15.5 8.80524L15.8285 8.52399C16.364 8.04624 17.0262 7.78899 17.5625 7.65699ZM17 12.016C16.5875 12.016 16.25 12.3535 16.25 12.766C16.25 13.1785 16.5875 13.516 17 13.516C17.4125 13.516 17.75 13.1785 17.75 12.766C17.75 12.3535 17.4125 12.016 17 12.016Z" fill="#FF9316"/>
</svg>
