<svg width="24" height="25" viewBox="0 0 24 25" fill="none" xmlns="http://www.w3.org/2000/svg">
<path d="M2.75 12.016C2.75 6.91629 6.90023 2.76605 12.0001 2.76605C17.0999 2.76605 21.25 6.91628 21.25 12.016C21.25 17.1157 17.0999 21.2659 12.0001 21.2659C6.90023 21.2659 2.75 17.1157 2.75 12.016Z" stroke="#FF9316" stroke-width="1.5"/>
<path d="M14.393 16.2065L14.393 16.2065C14.0343 16.5582 13.5734 16.7967 13.0287 16.9192L13.0287 16.9192C12.8486 16.9597 12.7256 17.1136 12.7256 17.293V17.6404C12.7256 17.9442 12.4794 18.1904 12.1756 18.1904H12.0546C11.7508 18.1904 11.5046 17.9442 11.5046 17.6404V17.3101C11.5046 17.1303 11.3745 16.9712 11.1933 16.9347L11.1932 16.9347C10.5652 16.8081 10.0426 16.5402 9.64816 16.133C9.13256 15.6009 8.87856 14.8742 8.87856 13.9903C8.87856 13.8271 9.01081 13.6949 9.17395 13.6949H9.92243C10.0856 13.6949 10.2178 13.8271 10.2178 13.9903C10.2178 14.5741 10.3797 14.9961 10.6961 15.3037L10.6961 15.3038C11.0137 15.6127 11.4566 15.7721 12.0744 15.7721C12.6075 15.7721 13.012 15.6361 13.327 15.3683L13.3271 15.3682C13.6333 15.1083 13.7814 14.7831 13.7814 14.3582C13.7814 13.9748 13.6579 13.6692 13.4212 13.4374L13.4212 13.4374C13.1638 13.1853 12.6763 12.9253 11.9395 12.67C10.9678 12.365 10.2761 12.0002 9.85004 11.544L9.85 11.544C9.4174 11.0805 9.20275 10.4786 9.20275 9.76724C9.20275 9.01935 9.4384 8.39014 9.91171 7.90989L14.393 16.2065ZM14.393 16.2065C14.8788 15.7302 15.1208 15.0996 15.1209 14.3455V14.3455C15.1209 13.8717 15.0287 13.449 14.8404 13.0937L14.8403 13.0935C14.6526 12.7402 14.3698 12.4344 14.0038 12.1837C13.6424 11.9359 13.0951 11.692 12.3412 11.4359C11.6397 11.1976 11.1605 10.9495 10.8971 10.7061C10.663 10.4892 10.5361 10.1747 10.5361 9.75073C10.5361 9.31272 10.6751 8.97327 10.939 8.726L10.9392 8.72584M14.393 16.2065L10.9392 8.72584M11.2252 7.19107L11.2253 7.19105C11.4021 7.1488 11.5233 6.99498 11.5233 6.81838V6.39133C11.5233 6.08758 11.7696 5.84133 12.0733 5.84133H12.2003C12.5041 5.84133 12.7503 6.08758 12.7503 6.39133V6.82696C12.7503 6.9994 12.8687 7.1528 13.0416 7.19768C13.5869 7.33887 14.0394 7.61743 14.3816 8.02731L11.2252 7.19107ZM11.2252 7.19107C10.7028 7.31616 10.2593 7.55708 9.91173 7.90987L11.2252 7.19107ZM10.9392 8.72584C11.208 8.47326 11.5857 8.34066 12.1181 8.34066C12.6225 8.34066 13.009 8.50482 13.2843 8.81714L10.9392 8.72584ZM15.0521 10.1787C15.0521 9.29584 14.832 8.5667 14.3816 8.02733L13.2844 8.81715C13.5716 9.14384 13.7191 9.58256 13.7191 10.1787C13.7191 10.3419 13.8513 10.4741 14.0145 10.4741H14.7567C14.9199 10.4741 15.0521 10.3418 15.0521 10.1787Z" fill="#FF9316" stroke="#FF9316" stroke-width="0.3"/>
</svg>
