<svg width="25" height="25" viewBox="0 0 25 25" fill="none" xmlns="http://www.w3.org/2000/svg">
<path d="M23.2388 11.8885C22.8173 9.54764 21.6338 7.41179 19.8724 5.81335C18.1111 4.21492 15.8708 3.24358 13.5001 3.05049V1.51599H12.0001V3.05049C9.62944 3.24358 7.3891 4.21492 5.62776 5.81335C3.86642 7.41179 2.68288 9.54764 2.26134 11.8885C2.23707 12.0296 2.2537 12.1747 2.30928 12.3067C2.36486 12.4387 2.45706 12.552 2.57498 12.6332C2.6929 12.7145 2.83161 12.7603 2.97473 12.7652C3.11784 12.7701 3.25937 12.7339 3.38259 12.661C3.93375 12.278 4.58004 12.0548 5.25009 12.016C5.88694 12.0314 6.50865 12.2133 7.05339 12.5436C7.59813 12.8738 8.04691 13.341 8.35509 13.8985C8.42662 14.0037 8.52278 14.0898 8.6352 14.1493C8.74763 14.2088 8.87289 14.2399 9.00009 14.2399C9.12729 14.2399 9.25256 14.2088 9.36498 14.1493C9.4774 14.0898 9.57357 14.0037 9.64509 13.8985C9.89665 13.457 10.235 13.0709 10.6397 12.7636C11.0445 12.4563 11.5072 12.2342 12.0001 12.1105V19.141C12.0001 19.6383 11.8025 20.1152 11.4509 20.4668C11.0993 20.8184 10.6224 21.016 10.1251 21.016C9.62781 21.016 9.1509 20.8184 8.79927 20.4668C8.44764 20.1152 8.25009 19.6383 8.25009 19.141V18.766H6.75009V19.141C6.75009 20.0361 7.10567 20.8945 7.73861 21.5275C8.37154 22.1604 9.22999 22.516 10.1251 22.516C11.0202 22.516 11.8786 22.1604 12.5116 21.5275C13.1445 20.8945 13.5001 20.0361 13.5001 19.141V12.1097C13.9931 12.2336 14.4559 12.456 14.8607 12.7635C15.2654 13.0711 15.6037 13.4574 15.8551 13.8992C15.9215 14.0112 16.0159 14.1039 16.129 14.1683C16.2421 14.2327 16.37 14.2665 16.5001 14.2665C16.6302 14.2665 16.7581 14.2327 16.8712 14.1683C16.9843 14.1039 17.0787 14.0112 17.1451 13.8992C17.4532 13.3416 17.9019 12.8743 18.4467 12.5439C18.9914 12.2135 19.6132 12.0315 20.2501 12.016C20.9201 12.0548 21.5664 12.278 22.1176 12.661C22.2408 12.7342 22.3824 12.7705 22.5257 12.7657C22.6689 12.7609 22.8078 12.7151 22.9258 12.6339C23.0439 12.5526 23.1362 12.4392 23.1918 12.3071C23.2474 12.175 23.264 12.0297 23.2396 11.8885H23.2388ZM5.25009 10.516C4.8687 10.516 4.48921 10.5698 4.12284 10.6757C4.63197 9.25759 5.47697 7.98384 6.58558 6.96338C7.6942 5.94293 9.03346 5.20613 10.4888 4.81599C9.00217 6.73263 8.19814 9.09086 8.20434 11.5165C7.35458 10.8706 6.31744 10.5194 5.25009 10.516ZM12.7501 10.516C11.6443 10.5211 10.5726 10.899 9.70809 11.5885C9.73584 9.92349 10.1641 6.72099 12.7501 4.70649C15.3226 6.71424 15.7568 9.91899 15.7891 11.5862C14.9251 10.8981 13.8546 10.5211 12.7501 10.516ZM20.2501 10.516C19.1828 10.5192 18.1457 10.8701 17.2958 11.5157C17.302 9.09011 16.498 6.73188 15.0113 4.81524C16.4668 5.20545 17.8061 5.94236 18.9147 6.96295C20.0234 7.98355 20.8683 9.25745 21.3773 10.6757C21.011 10.5698 20.6315 10.516 20.2501 10.516Z" fill="#FF9316"/>
</svg>
