<svg width="25" height="25" viewBox="0 0 25 25" fill="none" xmlns="http://www.w3.org/2000/svg">
<path d="M12.5 9.5862C14.0036 9.5862 15.4457 10.1835 16.5089 11.2468C17.5722 12.31 18.1695 13.7521 18.1695 15.2557C18.1695 16.7594 17.5722 18.2014 16.5089 19.2647C15.4457 20.3279 14.0036 20.9252 12.5 20.9252C10.9963 20.9252 9.55425 20.3279 8.49101 19.2647C7.42777 18.2014 6.83044 16.7594 6.83044 15.2557C6.83044 13.7521 7.42777 12.31 8.49101 11.2468C9.55425 10.1835 10.9963 9.5862 12.5 9.5862ZM12.5 9.5862C14.8997 9.5862 16.5496 11.2061 16.5496 11.2061V7.15641C16.5496 4.72661 14.9298 3.10675 12.5 3.10675C10.0702 3.10675 8.45031 4.72661 8.45031 7.15641V11.2061C8.45031 11.2061 10.0746 9.5862 12.5 9.5862ZM12.5 14.4458V17.6855M12.5 15.2557C12.7148 15.2557 12.9208 15.1704 13.0727 15.0185C13.2246 14.8666 13.3099 14.6606 13.3099 14.4458C13.3099 14.231 13.2246 14.025 13.0727 13.8731C12.9208 13.7212 12.7148 13.6359 12.5 13.6359C12.2852 13.6359 12.0791 13.7212 11.9273 13.8731C11.7754 14.025 11.69 14.231 11.69 14.4458C11.69 14.6606 11.7754 14.8666 11.9273 15.0185C12.0791 15.1704 12.2852 15.2557 12.5 15.2557Z" stroke="#FF9316" stroke-width="1.5" stroke-linecap="round" stroke-linejoin="round"/>
</svg>
