<svg width="25" height="25" viewBox="0 0 25 25" fill="none" xmlns="http://www.w3.org/2000/svg">
<path d="M13.5625 2.12573L12.9528 2.28923C12.9528 2.28923 9.8305 3.10973 7.68025 4.14098C7.6735 4.14398 7.66225 4.13798 7.65625 4.14098C5.52325 5.09348 2.82775 6.88298 2.82775 6.88298L2.3125 7.23473L2.5705 7.82048C2.5705 7.82048 4.5655 12.2912 5.47675 14.266C5.47975 14.275 5.497 14.281 5.5 14.2892C5.78425 14.9222 6.3025 15.277 6.85975 15.5552C6.92125 16.0795 7.14025 16.6007 7.39825 17.0785C7.8145 17.8547 8.39125 18.5935 8.992 19.258C10.1935 20.5885 11.4767 21.6017 11.4767 21.6017L11.7108 21.7892L12.0153 21.766C12.0153 21.766 13.6413 21.634 15.3903 21.2035C16.2663 20.9897 17.1865 20.7025 17.9688 20.2892C18.751 19.8767 19.4657 19.3285 19.7267 18.4615C20.3972 16.2227 21.9767 11.1955 21.9767 11.1955L22.1642 10.5865L21.5778 10.3052C21.5778 10.3052 18.6453 8.83748 16.258 8.03198C15.2762 5.84948 13.8205 2.68748 13.8205 2.68748L13.5625 2.12573ZM12.742 3.95348C12.9475 4.39298 13.7177 6.04823 14.383 7.49273C12.241 6.97973 10.0233 6.69548 10.0233 6.69548L9.39025 6.62498L9.20275 7.21148L8.89825 8.17223L6.57775 9.74273L7.42225 10.9847L8.21875 10.4455C7.78225 11.863 7.52725 12.7045 7.14025 13.9847C7.003 13.882 6.90325 13.7822 6.85975 13.6802V13.6562C6.0505 11.9072 4.54225 8.57648 4.21075 7.84373C4.72375 7.50998 6.59875 6.25073 8.28925 5.50073C9.96175 4.69448 12.133 4.12073 12.742 3.95348ZM10.4455 8.28923C11.254 8.40398 13.6885 8.74373 15.5545 9.34373C17.5323 9.98273 19.765 11.1017 20.3358 11.3837C20.131 12.0422 19.1875 15.0392 18.508 17.266L18.2733 18.016C18.1945 18.274 17.869 18.634 17.266 18.9535C16.6622 19.273 15.8418 19.5535 15.0385 19.7507C13.5775 20.1107 12.4202 20.1955 12.1795 20.2195C11.977 20.0522 11.11 19.3495 10.117 18.2507C9.5665 17.641 9.03325 16.9525 8.71075 16.3517C8.38825 15.7517 8.3035 15.2792 8.383 15.016C8.998 12.9685 10.2137 9.03623 10.4455 8.28923ZM11.0545 11.899L10.609 13.3285L13.4455 14.2427L13.8903 12.7892L11.0545 11.899ZM15.0392 13.0945L14.5705 14.524L17.3358 15.4375L17.8045 14.008L15.0392 13.0945ZM11.9688 14.992L10.5625 15.508C10.5625 15.508 11.1865 17.2307 12.9767 17.7347V17.758C12.9917 17.764 13.009 17.752 13.0233 17.758C14.7723 18.3122 16.2812 17.1955 16.2812 17.1955L15.4142 15.9767C15.4142 15.9767 14.4003 16.639 13.4688 16.3285H13.4455L13.4215 16.3052C12.4053 16.0382 11.9688 14.9927 11.9688 14.9927V14.992Z" fill="#FF9316"/>
</svg>
