<svg width="24" height="25" viewBox="0 0 24 25" fill="none" xmlns="http://www.w3.org/2000/svg">
<path d="M3.59378 11.4265C3.5949 10.4379 3.9881 9.49019 4.68711 8.79118C5.38612 8.09217 6.33387 7.69897 7.32242 7.69785H10.188C10.2242 7.69763 13.8486 7.64206 17.2994 4.74778C17.5085 4.57222 17.7633 4.45999 18.0339 4.42426C18.3046 4.38853 18.5798 4.4308 18.8272 4.54609C19.0747 4.66138 19.2841 4.8449 19.4308 5.0751C19.5776 5.30529 19.6555 5.57259 19.6556 5.84558V17.0074C19.6573 17.2806 19.5801 17.5484 19.4334 17.7788C19.2866 18.0093 19.0765 18.1925 18.8283 18.3065C18.6374 18.3961 18.4291 18.4428 18.2182 18.4431C17.8816 18.4424 17.5562 18.3227 17.2994 18.1052C15.6656 16.7288 13.7158 15.7792 11.6247 15.3417V17.382C11.6256 17.6485 11.5518 17.9099 11.4117 18.1366C11.2716 18.3634 11.0708 18.5463 10.832 18.6646L9.49414 19.3336C9.30205 19.4297 9.09085 19.4814 8.87613 19.4848C8.6614 19.4883 8.44863 19.4436 8.25353 19.3538C8.05842 19.2641 7.88597 19.1316 7.74889 18.9663C7.61181 18.801 7.5136 18.607 7.46153 18.3987L6.63442 15.0905C5.7804 14.929 5.00944 14.4748 4.4544 13.8059C3.89935 13.1371 3.595 12.2956 3.59378 11.4265ZM17.9348 16.4076V6.44539C16.0908 7.88304 13.9255 8.85165 11.6247 9.26804V13.5849C13.9255 14.0013 16.0908 14.9699 17.9348 16.4076ZM9.04441 17.6345L9.90379 17.2047V15.1551H8.42452L9.04441 17.6345ZM7.32242 13.4342H9.90379V9.41876H7.32242C6.78994 9.41876 6.27926 9.63029 5.90274 10.0068C5.52622 10.3833 5.31469 10.894 5.31469 11.4265C5.31469 11.959 5.52622 12.4696 5.90274 12.8462C6.27926 13.2227 6.78994 13.4342 7.32242 13.4342Z" fill="#FF9316"/>
</svg>
