<svg width="24" height="25" viewBox="0 0 24 25" fill="none" xmlns="http://www.w3.org/2000/svg">
<path d="M18.3999 8.81597H15.4749V7.21597C15.4749 6.33597 14.7549 5.61597 13.8749 5.61597H10.0311C9.15113 5.61597 8.43113 6.33597 8.43113 7.21597V8.81597H5.59988C4.71988 8.81597 3.99988 9.53597 3.99988 10.416V19.2659C3.99988 19.8182 4.44759 20.2659 4.99988 20.2659H18.9999C19.5522 20.2659 19.9999 19.8182 19.9999 19.2659V10.416C19.9999 9.53597 19.2799 8.81597 18.3999 8.81597ZM9.59988 7.79712C9.59988 7.24483 10.0476 6.79712 10.5999 6.79712H13.3999C13.9522 6.79712 14.3999 7.24483 14.3999 7.79712V8.81597H9.59988V7.79712ZM18.7811 17.9221C18.7811 18.4744 18.3334 18.9221 17.7811 18.9221H6.21863C5.66634 18.9221 5.21863 18.4744 5.21863 17.9221V14.416H7.19988V14.716C7.19988 14.9921 7.42374 15.216 7.69988 15.216H8.29988C8.57602 15.216 8.79988 14.9921 8.79988 14.716V14.416H15.1999V14.716C15.1999 14.9921 15.4237 15.216 15.6999 15.216H16.2999C16.576 15.216 16.7999 14.9921 16.7999 14.716V14.416H18.7811V17.9221ZM16.7999 12.816V12.516C16.7999 12.2398 16.576 12.016 16.2999 12.016H15.6999C15.4237 12.016 15.1999 12.2398 15.1999 12.516V12.816H8.79988V12.516C8.79988 12.2398 8.57602 12.016 8.29988 12.016H7.69988C7.42374 12.016 7.19988 12.2398 7.19988 12.516V12.816H5.21863V11.0471C5.21863 10.4948 5.66634 10.0471 6.21863 10.0471H17.7811C18.3334 10.0471 18.7811 10.4948 18.7811 11.0471V12.816H16.7999Z" fill="#FF9316"/>
</svg>
