<svg width="25" height="25" viewBox="0 0 25 25" fill="none" xmlns="http://www.w3.org/2000/svg">
<path d="M19.75 14.266C19.75 14.6802 19.4142 15.016 19 15.016H16C15.5858 15.016 15.25 14.6802 15.25 14.266C15.25 13.8518 15.5858 13.516 16 13.516H19C19.4142 13.516 19.75 13.8518 19.75 14.266Z" fill="#FF9316"/>
<path d="M22.75 20.266C22.75 20.6802 22.4142 21.016 22 21.016H19C18.5858 21.016 18.25 20.6802 18.25 20.266C18.25 19.8518 18.5858 19.516 19 19.516H22C22.4142 19.516 22.75 19.8518 22.75 20.266Z" fill="#FF9316"/>
<path d="M21.25 17.266C21.25 17.6802 20.9142 18.016 20.5 18.016H17.5C17.0858 18.016 16.75 17.6802 16.75 17.266C16.75 16.8518 17.0858 16.516 17.5 16.516H20.5C20.9142 16.516 21.25 16.8518 21.25 17.266Z" fill="#FF9316"/>
<path d="M13.0022 15.016C12.9969 14.3832 12.8281 13.7624 12.5122 13.214C12.1963 12.6657 11.744 12.2083 11.1992 11.8862L16.3757 2.91459C16.5824 2.5563 16.4597 2.09826 16.1016 1.89125C15.7431 1.68404 15.2845 1.80681 15.0775 2.16541L9.76967 11.3605C9.07225 11.2047 8.34689 11.2262 7.65994 11.4232C6.97299 11.6201 6.34638 11.9861 5.83742 12.4877C3.02942 15.196 3.24692 21.5275 3.25742 21.796C3.26517 21.9897 3.3476 22.1728 3.48742 22.307C3.62724 22.4413 3.8136 22.5161 4.00742 22.516H15.2507C15.4081 22.516 15.5615 22.4665 15.6892 22.3744C15.8169 22.2824 15.9124 22.1525 15.9622 22.0032C16.012 21.8538 16.0135 21.6926 15.9666 21.5424C15.9196 21.3921 15.8266 21.2604 15.7007 21.166C13.0457 19.174 13.0022 15.0565 13.0022 15.016ZM9.19742 12.7637C9.7977 12.7703 10.3723 13.0081 10.8017 13.4276C11.2312 13.8471 11.4823 14.416 11.5029 15.016C11.5029 15.0445 11.5044 15.172 11.5157 15.3677L7.09067 13.3997C7.38215 13.1594 7.71851 12.9794 8.08018 12.8702C8.44186 12.761 8.82163 12.7248 9.19742 12.7637ZM11.8374 21.016C11.2379 20.4056 10.8558 19.615 10.7499 18.766H9.24992C9.30364 19.5642 9.55297 20.3369 9.97592 21.016H8.30867C8.00023 20.0427 7.81258 19.0351 7.74992 18.016H6.24992C6.29829 19.0321 6.46568 20.0389 6.74867 21.016H4.74992C4.77317 19.639 4.96742 16.597 6.10217 14.6012L11.7519 17.1137C12.0234 18.5232 12.6021 19.8556 13.4469 21.016H11.8374Z" fill="#FF9316"/>
</svg>
