<svg width="24" height="25" viewBox="0 0 24 25" fill="none" xmlns="http://www.w3.org/2000/svg">
<path d="M11.9999 5.85101L11.7652 5.92226L2.39017 9.06326L1.49647 9.35791C1.10683 9.48638 1.10919 10.0384 1.49992 10.1635V16.726C1.05217 16.9863 0.749917 17.461 0.749917 18.016C0.749917 18.4138 0.907952 18.7954 1.18926 19.0767C1.47056 19.358 1.85209 19.516 2.24992 19.516C2.64774 19.516 3.02927 19.358 3.31058 19.0767C3.59188 18.7954 3.74992 18.4138 3.74992 18.016C3.74992 17.461 3.44767 16.9863 2.99992 16.726V10.681L4.49992 11.1723V15.016C4.49992 15.631 4.87492 16.141 5.32042 16.4935C5.76592 16.8438 6.31942 17.0913 6.98392 17.3133C8.31442 17.7558 10.0679 18.016 11.9999 18.016C13.9319 18.016 15.6854 17.7565 17.0159 17.3125C17.6804 17.0913 18.2339 16.8438 18.6794 16.4928C19.1249 16.141 19.4999 15.631 19.4999 15.016V11.1723L21.6097 10.4688C22.2875 10.2453 22.2867 9.28614 21.6089 9.06251L12.2339 5.92226L11.9999 5.85101ZM11.9999 7.42226L19.0312 9.76601L11.9999 12.1098L4.96867 9.76601L11.9999 7.42226ZM5.99992 11.6883L11.7659 13.6098L11.9999 13.6803L12.2347 13.609L17.9999 11.6875V15.016C17.9999 15.0235 18.0029 15.1105 17.7652 15.2973C17.5282 15.4848 17.1029 15.721 16.5464 15.907C15.4349 16.2768 13.7962 16.516 11.9999 16.516C10.2037 16.516 8.56492 16.2775 7.45267 15.9063C6.89767 15.721 6.47167 15.484 6.23467 15.2973C5.99617 15.1098 5.99992 15.0235 5.99992 15.016V11.6883Z" fill="#FF9316"/>
</svg>
