<svg width="25" height="25" viewBox="0 0 25 25" fill="none" xmlns="http://www.w3.org/2000/svg">
<path d="M12.5 10.516H14V12.016H12.5V10.516Z" fill="#FF9316"/>
<path d="M15.5 10.516H17V12.016H15.5V10.516Z" fill="#FF9316"/>
<path d="M18.5 10.516H20V12.016H18.5V10.516Z" fill="#FF9316"/>
<path d="M12.5 13.516H14V15.016H12.5V13.516Z" fill="#FF9316"/>
<path d="M15.5 13.516H17V15.016H15.5V13.516Z" fill="#FF9316"/>
<path d="M18.5 13.516H20V15.016H18.5V13.516Z" fill="#FF9316"/>
<path d="M12.5 16.516H14V18.016H12.5V16.516Z" fill="#FF9316"/>
<path d="M15.5 16.516H17V18.016H15.5V16.516Z" fill="#FF9316"/>
<path d="M18.5 16.516H20V18.016H18.5V16.516Z" fill="#FF9316"/>
<path d="M12.5 7.51599H20V9.01599H12.5V7.51599Z" fill="#FF9316"/>
<path d="M21.5 4.51599H11V3.76599C10.9996 3.36829 10.8414 2.98699 10.5602 2.70577C10.279 2.42455 9.8977 2.26639 9.5 2.26599H6.5C6.1023 2.26639 5.721 2.42455 5.43978 2.70577C5.15856 2.98699 5.0004 3.36829 5 3.76599V4.51599H3.5C3.1023 4.51639 2.721 4.67455 2.43978 4.95577C2.15856 5.23699 2.0004 5.61829 2 6.01599V19.516C2.0004 19.9137 2.15856 20.295 2.43978 20.5762C2.721 20.8574 3.1023 21.0156 3.5 21.016H21.5C21.8977 21.0156 22.279 20.8574 22.5602 20.5762C22.8414 20.295 22.9996 19.9137 23 19.516V6.01599C22.9996 5.61829 22.8414 5.23699 22.5602 4.95577C22.279 4.67455 21.8977 4.51639 21.5 4.51599ZM6.5 3.76599H9.5V16.516H6.5V3.76599ZM21.5 19.516H3.5V6.01599H5V16.516C5.0004 16.9137 5.15856 17.295 5.43978 17.5762C5.721 17.8574 6.1023 18.0156 6.5 18.016H9.5C9.8977 18.0156 10.279 17.8574 10.5602 17.5762C10.8414 17.295 10.9996 16.9137 11 16.516V6.01599H21.5V19.516Z" fill="#FF9316"/>
</svg>
