<svg width="25" height="25" viewBox="0 0 25 25" fill="none" xmlns="http://www.w3.org/2000/svg">
<path d="M12.25 2.01394C11.3187 2.01182 10.4198 2.35614 9.7283 2.97996C9.03676 3.60378 8.60194 4.46249 8.50841 5.38911C8.41488 6.31573 8.66931 7.24402 9.22223 7.99345C9.77514 8.74289 10.587 9.2599 11.5 9.44394V11.5159H8.24999C7.65325 11.5159 7.08096 11.753 6.659 12.1749C6.23704 12.5969 5.99999 13.1692 5.99999 13.7659V14.5909C5.09069 14.7792 4.28345 15.2979 3.73423 16.0466C3.18501 16.7954 2.93279 17.7211 3.02629 18.645C3.1198 19.5688 3.5524 20.4253 4.24051 21.0488C4.92862 21.6723 5.82341 22.0187 6.75199 22.0209C7.68401 22.0238 8.58375 21.6797 9.27597 21.0556C9.96819 20.4315 10.4033 19.5721 10.4967 18.6447C10.59 17.7174 10.3349 16.7885 9.78094 16.039C9.22699 15.2894 8.41389 14.7729 7.49999 14.5899V13.7649C7.49999 13.566 7.57901 13.3753 7.71966 13.2346C7.86031 13.094 8.05108 13.0149 8.24999 13.0149H16.25C16.4489 13.0149 16.6397 13.094 16.7803 13.2346C16.921 13.3753 17 13.566 17 13.7649V14.5899C16.0907 14.7782 15.2835 15.2969 14.7342 16.0456C14.185 16.7944 13.9328 17.7201 14.0263 18.644C14.1198 19.5678 14.5524 20.4243 15.2405 21.0478C15.9286 21.6713 16.8234 22.0177 17.752 22.0199C18.6831 22.0216 19.5816 21.6769 20.2728 21.0529C20.9639 20.4289 21.3984 19.5702 21.4916 18.6438C21.5849 17.7173 21.3304 16.7893 20.7774 16.04C20.2245 15.2908 19.4128 14.774 18.5 14.5899V13.7649C18.5 13.1682 18.2629 12.5959 17.841 12.1739C17.419 11.752 16.8467 11.5149 16.25 11.5149H13V9.44294C13.9091 9.25469 14.7162 8.73622 15.2655 7.98768C15.8147 7.23914 16.0671 6.31363 15.9738 5.3899C15.8806 4.46618 15.4483 3.60977 14.7606 2.98609C14.0729 2.36241 13.1784 2.01571 12.25 2.01294V2.01394ZM9.99799 5.76594C9.99799 5.16867 10.2353 4.59587 10.6576 4.17354C11.0799 3.7512 11.6527 3.51394 12.25 3.51394C12.8473 3.51394 13.4201 3.7512 13.8424 4.17354C14.2647 4.59587 14.502 5.16867 14.502 5.76594C14.502 6.36321 14.2647 6.93601 13.8424 7.35834C13.4201 7.78068 12.8473 8.01794 12.25 8.01794C11.6527 8.01794 11.0799 7.78068 10.6576 7.35834C10.2353 6.93601 9.99799 6.36321 9.99799 5.76594ZM4.49999 18.2679C4.49999 17.9721 4.55825 17.6792 4.67145 17.4059C4.78465 17.1327 4.95057 16.8843 5.15973 16.6752C5.3689 16.466 5.61721 16.3001 5.8905 16.1869C6.16378 16.0737 6.45669 16.0154 6.75249 16.0154C7.04829 16.0154 7.3412 16.0737 7.61448 16.1869C7.88777 16.3001 8.13608 16.466 8.34525 16.6752C8.55441 16.8843 8.72033 17.1327 8.83353 17.4059C8.94673 17.6792 9.00499 17.9721 9.00499 18.2679C9.00499 18.8653 8.76767 19.4383 8.34525 19.8607C7.92282 20.2831 7.34989 20.5204 6.75249 20.5204C6.15509 20.5204 5.58216 20.2831 5.15973 19.8607C4.73731 19.4383 4.49999 18.8653 4.49999 18.2679ZM17.752 16.0159C18.0477 16.0159 18.3406 16.0742 18.6138 16.1874C18.887 16.3005 19.1353 16.4664 19.3444 16.6755C19.5535 16.8847 19.7194 17.1329 19.8326 17.4061C19.9457 17.6794 20.004 17.9722 20.004 18.2679C20.004 18.5637 19.9457 18.8565 19.8326 19.1297C19.7194 19.403 19.5535 19.6512 19.3444 19.8603C19.1353 20.0695 18.887 20.2353 18.6138 20.3485C18.3406 20.4617 18.0477 20.5199 17.752 20.5199C17.1547 20.5199 16.5819 20.2827 16.1596 19.8603C15.7373 19.438 15.5 18.8652 15.5 18.2679C15.5 17.6707 15.7373 17.0979 16.1596 16.6755C16.5819 16.2532 17.1547 16.0159 17.752 16.0159Z" fill="#FF9316"/>
</svg>
