<svg width="25" height="25" viewBox="0 0 25 25" fill="none" xmlns="http://www.w3.org/2000/svg">
<path d="M20.0833 8.62701L4.75 9.01601V6.68268L20.0833 7.07168V8.62701Z" fill="white"/>
<path d="M10.0833 19.6826H6.75L7.41667 4.3493H9.41667L10.0833 19.6826Z" fill="white"/>
<path d="M14.25 12.3493H20.5833V13.6826H14.25V12.3493Z" fill="white"/>
<path d="M10.0833 20.4326C10.2879 20.4326 10.4836 20.3491 10.6251 20.2013C10.7665 20.0536 10.8415 19.8544 10.8326 19.6501L10.166 4.31673C10.1485 3.91556 9.81821 3.5993 9.41667 3.5993H7.41667C7.01512 3.5993 6.68482 3.91556 6.66737 4.31673L6.00071 19.6501C5.99182 19.8544 6.0668 20.0536 6.20827 20.2013C6.34975 20.3491 6.54544 20.4326 6.75 20.4326H10.0833Z" stroke="#FF9316" stroke-width="1.5" stroke-miterlimit="10" stroke-linecap="round" stroke-linejoin="round"/>
<path d="M7.0835 15.0156H9.75016" stroke="#FF9316" stroke-width="1.5" stroke-miterlimit="10" stroke-linecap="round" stroke-linejoin="round"/>
<path d="M13.75 8.68266V7.01599" stroke="#FF9316" stroke-width="1.5" stroke-miterlimit="10" stroke-linecap="round" stroke-linejoin="round"/>
<path d="M18.2771 15.0893L18.2771 7.01599" stroke="#FF9316" stroke-width="1.5" stroke-miterlimit="10" stroke-linecap="round" stroke-linejoin="round"/>
<path d="M15.8994 14.6888C15.8994 14.1365 16.3471 13.6888 16.8994 13.6888H19.6553C20.2076 13.6888 20.6553 14.1365 20.6553 14.6888V15.8618C20.6553 16.4141 20.2076 16.8618 19.6553 16.8618H16.8994C16.3471 16.8618 15.8994 16.4141 15.8994 15.8618V14.6888Z" fill="#FF9316"/>
<path d="M21.7127 9.37679C22.1208 9.36845 22.4473 9.03519 22.4473 8.62695V7.07162C22.4473 6.66338 22.1208 6.33011 21.7127 6.32177L2.67621 5.93277C2.47468 5.92866 2.27998 6.00583 2.136 6.1469C1.99202 6.28796 1.91089 6.48105 1.91089 6.68262V9.01595C1.91089 9.21752 1.99202 9.4106 2.136 9.55167C2.27998 9.69274 2.47468 9.76991 2.67621 9.76579L21.7127 9.37679Z" stroke="#FF9316" stroke-width="1.5" stroke-miterlimit="10" stroke-linecap="round" stroke-linejoin="round"/>
</svg>
