<svg width="24" height="24" viewBox="0 0 24 24" fill="none" xmlns="http://www.w3.org/2000/svg">
<path d="M20.7281 10.3687L19.5 9.95625V5.25C19.5 4.85218 19.342 4.47064 19.0607 4.18934C18.7794 3.90804 18.3978 3.75 18 3.75H12.75V2.25C12.75 2.05109 12.671 1.86032 12.5303 1.71967C12.3897 1.57902 12.1989 1.5 12 1.5C11.8011 1.5 11.6103 1.57902 11.4697 1.71967C11.329 1.86032 11.25 2.05109 11.25 2.25V3.75H6.00001C5.60218 3.75 5.22065 3.90804 4.93934 4.18934C4.65804 4.47064 4.5 4.85218 4.5 5.25V9.95625L3.27188 10.3687C2.9736 10.4691 2.71442 10.6606 2.53103 10.9164C2.34764 11.1721 2.24932 11.4791 2.25 11.7938V15C2.2501 15.0697 2.25956 15.1391 2.27813 15.2062C3.75 20.3625 10.35 22.1437 11.6625 22.4437C11.8847 22.4937 12.1153 22.4937 12.3375 22.4437C13.65 22.1437 20.25 20.3625 21.7219 15.2062C21.7405 15.1391 21.7499 15.0697 21.75 15V11.7938C21.7507 11.4791 21.6524 11.1721 21.469 10.9164C21.2856 10.6606 21.0264 10.4691 20.7281 10.3687ZM6.00001 5.25H18V9.45938L12.4781 7.62188C12.3393 7.57421 12.1937 7.5489 12.0469 7.54688H11.9531C11.8063 7.5489 11.6608 7.57421 11.5219 7.62188L6.00001 9.45938V5.25ZM20.25 14.8875C19.7063 16.6688 18.3281 18.1875 16.1344 19.3969C14.8297 20.0997 13.4403 20.6322 12 20.9813C10.5598 20.6322 9.17028 20.0997 7.86563 19.3969C5.67188 18.1875 4.29375 16.6688 3.75 14.8875V11.7938L5.475 11.2125L11.25 9.29062V15.75C11.25 15.9489 11.329 16.1397 11.4697 16.2803C11.6103 16.421 11.8011 16.5 12 16.5C12.1989 16.5 12.3897 16.421 12.5303 16.2803C12.671 16.1397 12.75 15.9489 12.75 15.75V9.29062L18.525 11.2125L20.25 11.7938V14.8875Z" fill="#FF5A50"/>
</svg>
