<svg width="24" height="24" viewBox="0 0 24 24" fill="none" xmlns="http://www.w3.org/2000/svg">
<path d="M20 14.75C20 16.938 19.1045 19.0365 17.5104 20.5836C15.9163 22.1308 13.7543 23 11.5 23C9.24566 23 7.08365 22.1308 5.48959 20.5836C3.89553 19.0365 3 16.938 3 14.75C3.00087 13.1424 3.48586 11.5701 4.39532 10.2264C5.30478 8.88284 6.59903 7.82655 8.11889 7.1875L8.45133 7.43867L9.91333 8.5405C8.48221 8.88324 7.21027 9.68061 6.29983 10.8058C5.38939 11.931 4.89274 13.3193 4.88889 14.75C4.88889 18.2883 7.85444 21.1667 11.5 21.1667C15.1456 21.1667 18.1111 18.2883 18.1111 14.75C18.1073 13.3193 17.6106 11.931 16.7002 10.8058C15.7897 9.68061 14.5178 8.88324 13.0867 8.5405L14.8811 7.1875C16.401 7.82655 17.6952 8.88284 18.6047 10.2264C19.5141 11.5701 19.9991 13.1424 20 14.75V14.75ZM11.5 7.41667L16.2222 3.85083L14.3333 1H8.66667L6.77778 3.85083L9.61111 5.99033L11.5 7.41667Z" fill="#FF5A50"/>
</svg>
