<svg width="24" height="24" viewBox="0 0 24 24" fill="none" xmlns="http://www.w3.org/2000/svg">
<path d="M21 8.625L17.0625 12.5625M9.75 5.25L18.75 14.25L16.5 16.5C15.9106 17.0979 15.2087 17.5733 14.4348 17.8988C13.6608 18.2243 12.8301 18.3934 11.9905 18.3964C11.151 18.3994 10.3191 18.2363 9.54281 17.9164C8.76655 17.5964 8.06126 17.1261 7.46758 16.5324C6.8739 15.9387 6.40356 15.2335 6.08365 14.4572C5.76374 13.6809 5.6006 12.849 5.60361 12.0095C5.60663 11.1699 5.77574 10.3392 6.10121 9.56524C6.42668 8.7913 6.90207 8.0894 7.5 7.5L9.75 5.25ZM3 21L7.5 16.5L3 21ZM15.375 3L11.4375 6.9375L15.375 3Z" stroke="#FF5A50" stroke-width="1.6" stroke-linecap="round" stroke-linejoin="round"/>
</svg>
