<svg width="24" height="24" viewBox="0 0 24 24" fill="none" xmlns="http://www.w3.org/2000/svg">
<path d="M2.40039 4.80002C2.40039 4.1635 2.65325 3.55306 3.10333 3.10297C3.55342 2.65288 4.16387 2.40002 4.80039 2.40002H12.0004C12.6369 2.40002 13.2474 2.65288 13.6974 3.10297C14.1475 3.55306 14.4004 4.1635 14.4004 4.80002V6.00002H19.2004C19.8369 6.00002 20.4474 6.25288 20.8974 6.70297C21.3475 7.15306 21.6004 7.7635 21.6004 8.40002V20.4C21.6004 20.7183 21.474 21.0235 21.2489 21.2486C21.0239 21.4736 20.7186 21.6 20.4004 21.6H3.60039C3.28213 21.6 2.97691 21.4736 2.75186 21.2486C2.52682 21.0235 2.40039 20.7183 2.40039 20.4V4.80002ZM14.4004 20.4H16.8004V18H14.4004V20.4ZM18.0004 20.4H20.4004V8.40002C20.4004 8.08176 20.274 7.77654 20.0489 7.5515C19.8239 7.32645 19.5187 7.20002 19.2004 7.20002H12.0004C11.6821 7.20002 11.3769 7.32645 11.1519 7.5515C10.9268 7.77654 10.8004 8.08176 10.8004 8.40002V20.4H13.2004V18C13.2004 17.6818 13.3268 17.3765 13.5519 17.1515C13.7769 16.9265 14.0821 16.8 14.4004 16.8H16.8004C17.1186 16.8 17.4239 16.9265 17.6489 17.1515C17.874 17.3765 18.0004 17.6818 18.0004 18V20.4ZM13.2004 4.80002C13.2004 4.48176 13.074 4.17654 12.8489 3.9515C12.6239 3.72645 12.3187 3.60002 12.0004 3.60002H4.80039C4.48213 3.60002 4.17691 3.72645 3.95186 3.9515C3.72682 4.17654 3.60039 4.48176 3.60039 4.80002V20.4H9.60039V8.40002C9.60039 7.7635 9.85325 7.15306 10.3033 6.70297C10.7534 6.25288 11.3639 6.00002 12.0004 6.00002H13.2004V4.80002ZM14.4004 10.5C14.4004 10.7387 14.3056 10.9676 14.1368 11.1364C13.968 11.3052 13.7391 11.4 13.5004 11.4C13.2617 11.4 13.0328 11.3052 12.864 11.1364C12.6952 10.9676 12.6004 10.7387 12.6004 10.5C12.6004 10.2613 12.6952 10.0324 12.864 9.86363C13.0328 9.69485 13.2617 9.60002 13.5004 9.60002C13.7391 9.60002 13.968 9.69485 14.1368 9.86363C14.3056 10.0324 14.4004 10.2613 14.4004 10.5ZM6.30039 11.4C6.53909 11.4 6.768 11.3052 6.93679 11.1364C7.10557 10.9676 7.20039 10.7387 7.20039 10.5C7.20039 10.2613 7.10557 10.0324 6.93679 9.86363C6.768 9.69485 6.53909 9.60002 6.30039 9.60002C6.0617 9.60002 5.83278 9.69485 5.66399 9.86363C5.49521 10.0324 5.40039 10.2613 5.40039 10.5C5.40039 10.7387 5.49521 10.9676 5.66399 11.1364C5.83278 11.3052 6.0617 11.4 6.30039 11.4ZM7.20039 6.90002C7.20039 7.13872 7.10557 7.36764 6.93679 7.53642C6.768 7.7052 6.53909 7.80002 6.30039 7.80002C6.0617 7.80002 5.83278 7.7052 5.66399 7.53642C5.49521 7.36764 5.40039 7.13872 5.40039 6.90002C5.40039 6.66133 5.49521 6.43241 5.66399 6.26363C5.83278 6.09485 6.0617 6.00002 6.30039 6.00002C6.53909 6.00002 6.768 6.09485 6.93679 6.26363C7.10557 6.43241 7.20039 6.66133 7.20039 6.90002ZM13.5004 15C13.6186 15 13.7356 14.9767 13.8448 14.9315C13.954 14.8863 14.0532 14.82 14.1368 14.7364C14.2204 14.6528 14.2867 14.5536 14.3319 14.4444C14.3771 14.3352 14.4004 14.2182 14.4004 14.1C14.4004 13.9818 14.3771 13.8648 14.3319 13.7556C14.2867 13.6464 14.2204 13.5472 14.1368 13.4636C14.0532 13.3801 13.954 13.3138 13.8448 13.2685C13.7356 13.2233 13.6186 13.2 13.5004 13.2C13.2617 13.2 13.0328 13.2948 12.864 13.4636C12.6952 13.6324 12.6004 13.8613 12.6004 14.1C12.6004 14.3387 12.6952 14.5676 12.864 14.7364C13.0328 14.9052 13.2617 15 13.5004 15ZM7.20039 17.7C7.20039 17.9387 7.10557 18.1676 6.93679 18.3364C6.768 18.5052 6.53909 18.6 6.30039 18.6C6.0617 18.6 5.83278 18.5052 5.66399 18.3364C5.49521 18.1676 5.40039 17.9387 5.40039 17.7C5.40039 17.4613 5.49521 17.2324 5.66399 17.0636C5.83278 16.8948 6.0617 16.8 6.30039 16.8C6.53909 16.8 6.768 16.8948 6.93679 17.0636C7.10557 17.2324 7.20039 17.4613 7.20039 17.7ZM6.30039 15C6.41858 15 6.53561 14.9767 6.64481 14.9315C6.754 14.8863 6.85321 14.82 6.93679 14.7364C7.02036 14.6528 7.08665 14.5536 7.13188 14.4444C7.17711 14.3352 7.20039 14.2182 7.20039 14.1C7.20039 13.9818 7.17711 13.8648 7.13188 13.7556C7.08665 13.6464 7.02036 13.5472 6.93679 13.4636C6.85321 13.3801 6.754 13.3138 6.64481 13.2685C6.53561 13.2233 6.41858 13.2 6.30039 13.2C6.0617 13.2 5.83278 13.2948 5.66399 13.4636C5.49521 13.6324 5.40039 13.8613 5.40039 14.1C5.40039 14.3387 5.49521 14.5676 5.66399 14.7364C5.83278 14.9052 6.0617 15 6.30039 15ZM18.6004 10.5C18.6004 10.7387 18.5056 10.9676 18.3368 11.1364C18.168 11.3052 17.9391 11.4 17.7004 11.4C17.4617 11.4 17.2328 11.3052 17.064 11.1364C16.8952 10.9676 16.8004 10.7387 16.8004 10.5C16.8004 10.2613 16.8952 10.0324 17.064 9.86363C17.2328 9.69485 17.4617 9.60002 17.7004 9.60002C17.9391 9.60002 18.168 9.69485 18.3368 9.86363C18.5056 10.0324 18.6004 10.2613 18.6004 10.5ZM17.7004 15C17.8186 15 17.9356 14.9767 18.0448 14.9315C18.154 14.8863 18.2532 14.82 18.3368 14.7364C18.4204 14.6528 18.4867 14.5536 18.5319 14.4444C18.5771 14.3352 18.6004 14.2182 18.6004 14.1C18.6004 13.9818 18.5771 13.8648 18.5319 13.7556C18.4867 13.6464 18.4204 13.5472 18.3368 13.4636C18.2532 13.3801 18.154 13.3138 18.0448 13.2685C17.9356 13.2233 17.8186 13.2 17.7004 13.2C17.4617 13.2 17.2328 13.2948 17.064 13.4636C16.8952 13.6324 16.8004 13.8613 16.8004 14.1C16.8004 14.3387 16.8952 14.5676 17.064 14.7364C17.2328 14.9052 17.4617 15 17.7004 15Z" fill="#FF5A50"/>
</svg>
