<svg width="24" height="24" viewBox="0 0 24 24" fill="none" xmlns="http://www.w3.org/2000/svg">
<path d="M23.0059 5.74686L18.3747 3.10311H18.3653L18.3184 3.08436H18.2997L18.2528 3.06561H14.9997C14.8008 3.06561 14.61 3.14463 14.4694 3.28528C14.3287 3.42593 14.2497 3.6167 14.2497 3.81561C14.2497 4.41235 14.0126 4.98465 13.5907 5.4066C13.1687 5.82856 12.5964 6.06561 11.9997 6.06561C11.4029 6.06561 10.8307 5.82856 10.4087 5.4066C9.98674 4.98465 9.74968 4.41235 9.74968 3.81561C9.74968 3.6167 9.67067 3.42593 9.53001 3.28528C9.38936 3.14463 9.1986 3.06561 8.99968 3.06561H5.74656L5.69968 3.08436H5.68093L5.63406 3.10311H5.62468L0.993434 5.74686C0.659503 5.93496 0.410854 6.24445 0.299124 6.61107C0.187394 6.97768 0.221168 7.37325 0.393434 7.71561L2.11843 11.175C2.24351 11.4232 2.43511 11.6318 2.67183 11.7775C2.90856 11.9232 3.1811 12.0002 3.45906 12H5.24968V19.5C5.24968 19.8978 5.40772 20.2793 5.68902 20.5607C5.97033 20.842 6.35186 21 6.74968 21H17.2497C17.6475 21 18.029 20.842 18.3103 20.5607C18.5916 20.2793 18.7497 19.8978 18.7497 19.5V12H20.5403C20.8183 12.0002 21.0908 11.9232 21.3275 11.7775C21.5643 11.6318 21.7559 11.4232 21.8809 11.175L23.6059 7.71561C23.7782 7.37325 23.812 6.97768 23.7002 6.61107C23.5885 6.24445 23.3399 5.93496 23.0059 5.74686V5.74686ZM3.45906 10.5L1.73406 7.04999L5.24968 5.04374V10.5H3.45906ZM17.2497 19.5H6.74968V4.49999H8.32468C8.49682 5.3477 8.95673 6.10984 9.62649 6.65727C10.2963 7.2047 11.1347 7.50375 11.9997 7.50375C12.8647 7.50375 13.7031 7.2047 14.3729 6.65727C15.0426 6.10984 15.5025 5.3477 15.6747 4.49999H17.2497V19.5ZM20.5403 10.5H18.7497V5.04374L22.2653 7.04999L20.5403 10.5Z" fill="#FF5A50"/>
</svg>
