<svg width="24" height="24" viewBox="0 0 24 24" fill="none" xmlns="http://www.w3.org/2000/svg">
<path d="M15 1.5C13.8162 1.50143 12.6494 1.78273 11.595 2.32097C10.5405 2.8592 9.62831 3.63911 8.93271 4.59705C8.2371 5.55499 7.77784 6.66383 7.59239 7.83307C7.40695 9.00231 7.50058 10.1988 7.86564 11.325L2.46564 16.7156C2.32635 16.8585 2.24889 17.0505 2.25001 17.25V21C2.25001 21.1989 2.32903 21.3897 2.46968 21.5303C2.61033 21.671 2.8011 21.75 3.00001 21.75H6.75001C6.94893 21.75 7.13969 21.671 7.28034 21.5303C7.421 21.3897 7.50001 21.1989 7.50001 21V19.5H9.00001C9.19893 19.5 9.38969 19.421 9.53034 19.2803C9.671 19.1397 9.75001 18.9489 9.75001 18.75V17.25H11.25C11.4496 17.2511 11.6415 17.1737 11.7844 17.0344L12.675 16.1344C13.7056 16.4685 14.7964 16.5754 15.8723 16.4477C16.9482 16.32 17.9836 15.9607 18.9074 15.3945C19.8311 14.8283 20.6212 14.0687 21.2233 13.168C21.8254 12.2673 22.2253 11.2468 22.3952 10.1768C22.5652 9.10676 22.5014 8.01261 22.2081 6.96962C21.9148 5.92664 21.399 4.95958 20.6962 4.135C19.9934 3.31043 19.1203 2.6479 18.137 2.19302C17.1537 1.73815 16.0835 1.50172 15 1.5V1.5ZM15 15C14.2393 15.0015 13.4853 14.8583 12.7781 14.5781C12.6407 14.518 12.4882 14.501 12.3409 14.5295C12.1935 14.558 12.0583 14.6305 11.9531 14.7375L10.9406 15.75H9.00001C8.8011 15.75 8.61034 15.829 8.46968 15.9697C8.32903 16.1103 8.25001 16.3011 8.25001 16.5V18H6.75001C6.5511 18 6.36034 18.079 6.21968 18.2197C6.07903 18.3603 6.00001 18.5511 6.00001 18.75V20.25H3.75001V17.5594L9.26251 12.0469C9.36952 11.9417 9.44206 11.8065 9.47052 11.6592C9.49898 11.5118 9.48202 11.3593 9.42189 11.2219C8.94656 10.0295 8.86614 8.7162 9.19243 7.47478C9.51872 6.23336 10.2345 5.1293 11.2347 4.32478C12.2349 3.52027 13.4667 3.05771 14.7492 3.00505C16.0317 2.9524 17.2973 3.31242 18.3601 4.03224C19.4228 4.75206 20.2267 5.79372 20.6537 7.00422C21.0806 8.21471 21.1081 9.53023 20.7322 10.7575C20.3562 11.9848 19.5965 13.0592 18.5648 13.8228C17.533 14.5864 16.2836 14.999 15 15ZM18 7.125C18 7.3475 17.934 7.56501 17.8104 7.75002C17.6868 7.93502 17.5111 8.07922 17.3055 8.16436C17.1 8.24951 16.8738 8.27179 16.6555 8.22838C16.4373 8.18498 16.2369 8.07783 16.0795 7.9205C15.9222 7.76316 15.815 7.56271 15.7716 7.34448C15.7282 7.12625 15.7505 6.90005 15.8357 6.69448C15.9208 6.48891 16.065 6.31321 16.25 6.1896C16.435 6.06598 16.6525 6 16.875 6C17.1734 6 17.4595 6.11853 17.6705 6.3295C17.8815 6.54048 18 6.82663 18 7.125Z" fill="#FF5A50"/>
</svg>
