<svg width="24" height="24" viewBox="0 0 24 24" fill="none" xmlns="http://www.w3.org/2000/svg">
<path d="M20.25 19.5H10.8094L18.5344 11.7844L21 9.3094C21.1401 9.17079 21.2512 9.0058 21.3271 8.82396C21.4029 8.64212 21.442 8.44705 21.442 8.25002C21.442 8.053 21.4029 7.85792 21.3271 7.67609C21.2512 7.49425 21.1401 7.32926 21 7.19065L16.8094 3.00003C16.527 2.72177 16.1465 2.5658 15.75 2.5658C15.3536 2.5658 14.973 2.72177 14.6906 3.00003L3.44065 14.25C3.29235 14.3956 3.17723 14.5715 3.10315 14.7656C3.09377 14.7844 3.09377 14.8031 3.0844 14.8219C3.02768 14.9781 2.99911 15.1432 3.00002 15.3094V19.5C3.00002 19.8978 3.15806 20.2794 3.43936 20.5607C3.72067 20.842 4.1022 21 4.50002 21H20.25C20.4489 21 20.6397 20.921 20.7804 20.7803C20.921 20.6397 21 20.4489 21 20.25C21 20.0511 20.921 19.8603 20.7804 19.7197C20.6397 19.579 20.4489 19.5 20.25 19.5ZM7.4344 17.625L15.375 9.6844L16.9407 11.25L9.00002 19.1906L7.4344 17.625ZM12.75 7.0594L14.3156 8.62502L6.37502 16.5656L4.8094 15L12.75 7.0594ZM15.75 4.0594L19.9407 8.25002L18 10.1906L13.8094 6.00002L15.75 4.0594ZM4.50002 16.8094L7.19065 19.5H4.50002V16.8094Z" fill="#FF5A50"/>
</svg>
