<svg width="24" height="24" viewBox="0 0 24 24" fill="none" xmlns="http://www.w3.org/2000/svg">
<path d="M7.87974 6.375C8.9435 6.375 9.80484 7.25588 9.80484 8.34375V19.0312C9.80484 19.5534 9.60202 20.0542 9.24099 20.4234C8.87997 20.7926 8.39031 21 7.87974 21H2.9251C2.41453 21 1.92487 20.7926 1.56385 20.4234C1.20282 20.0542 1 19.5534 1 19.0312V8.34375C1 7.25588 1.86134 6.375 2.9251 6.375H7.87974ZM7.87974 8.0625H2.9251C2.85216 8.0625 2.78221 8.09213 2.73063 8.14488C2.67906 8.19762 2.65008 8.26916 2.65008 8.34375V19.0312C2.65008 19.1865 2.77329 19.3125 2.9251 19.3125H7.87974C7.95268 19.3125 8.02263 19.2829 8.07421 19.2301C8.12578 19.1774 8.15476 19.1058 8.15476 19.0312V8.34375C8.15476 8.26916 8.12578 8.19762 8.07421 8.14488C8.02263 8.09213 7.95268 8.0625 7.87974 8.0625ZM5.67743 16.5C5.88647 16.5001 6.08769 16.5813 6.24043 16.7272C6.39318 16.8732 6.48606 17.073 6.5003 17.2862C6.51455 17.4995 6.44911 17.7104 6.31719 17.8762C6.18527 18.042 5.99672 18.1505 5.78964 18.1796L5.67743 18.1875H5.12741C4.91837 18.1874 4.71715 18.1062 4.56441 17.9603C4.41166 17.8143 4.31878 17.6145 4.30454 17.4013C4.29029 17.188 4.35573 16.9771 4.48765 16.8113C4.61957 16.6455 4.80812 16.537 5.0152 16.5079L5.12741 16.5H5.67743ZM20.5249 3C21.152 2.99992 21.7559 3.24333 22.2143 3.68104C22.6727 4.11875 22.9516 4.71811 22.9945 5.358L23 5.53125V15.0938C23.0001 15.7351 22.7621 16.3526 22.3341 16.8215C21.9061 17.2903 21.32 17.5755 20.6943 17.6194L20.5249 17.625H10.8994V15.9375H20.5249C20.7244 15.9378 20.9173 15.864 21.0678 15.73C21.2183 15.596 21.3162 15.4107 21.3433 15.2085L21.3499 15.0938V5.53125C21.3499 5.32736 21.2777 5.13037 21.1467 4.9767C21.0156 4.82304 20.8346 4.7231 20.6371 4.69537L20.5249 4.6875H7.87424C7.70365 4.68752 7.53726 4.74163 7.39798 4.84237C7.25869 4.9431 7.15337 5.08552 7.09651 5.25H5.41452C5.47872 4.66282 5.74174 4.1171 6.15803 3.7074C6.57432 3.2977 7.11763 3.04983 7.69384 3.00675L7.87424 3H20.5249ZM15.5746 13.125C15.7934 13.125 16.0033 13.2139 16.158 13.3721C16.3127 13.5304 16.3997 13.745 16.3997 13.9688C16.3997 14.1925 16.3127 14.4071 16.158 14.5654C16.0033 14.7236 15.7934 14.8125 15.5746 14.8125H12.8245C12.6057 14.8125 12.3958 14.7236 12.2411 14.5654C12.0864 14.4071 11.9995 14.1925 11.9995 13.9688C11.9995 13.745 12.0864 13.5304 12.2411 13.3721C12.3958 13.2139 12.6057 13.125 12.8245 13.125H15.5746Z" fill="#FF5A50"/>
</svg>
