<svg width="24" height="24" viewBox="0 0 24 24" fill="none" xmlns="http://www.w3.org/2000/svg">
<path d="M21.563 6.63746H21.5536C21.419 6.40925 21.2287 6.21894 21.0005 6.08434L12.7505 1.42496C12.5252 1.3002 12.272 1.23474 12.0145 1.23474C11.757 1.23474 11.5038 1.3002 11.2786 1.42496L3.02858 6.06558C2.79563 6.19719 2.60159 6.38801 2.46608 6.61871C2.46608 6.61994 2.46584 6.62116 2.46537 6.6223C2.4649 6.62344 2.46421 6.62447 2.46333 6.62534C2.46246 6.62621 2.46143 6.6269 2.46029 6.62737C2.45916 6.62784 2.45794 6.62809 2.45671 6.62809V6.64684C2.32545 6.868 2.25735 7.12092 2.25983 7.37809V16.6218C2.2603 16.8891 2.33172 17.1514 2.46679 17.382C2.60185 17.6126 2.79572 17.8032 3.02858 17.9343L11.2786 22.575C11.4863 22.6883 11.7172 22.7524 11.9536 22.7625H12.0848C12.318 22.751 12.5456 22.6869 12.7505 22.575L21.0005 17.9343C21.2309 17.8013 21.4224 17.61 21.5557 17.3796C21.6889 17.1493 21.7593 16.888 21.7598 16.6218V7.37809C21.7612 7.1181 21.6932 6.86245 21.563 6.63746V6.63746ZM12.0098 2.73746L19.4911 6.93746L16.613 8.56871L9.05671 4.39684L12.0098 2.73746ZM12.0942 11.1375L4.54733 6.93746L7.51921 5.26871L15.0848 9.44059L12.0942 11.1375ZM3.75983 8.21246L11.3442 12.4406L11.2692 20.85L3.75983 16.6218V8.21246ZM12.7692 20.8406L12.8442 12.4406L15.8536 10.725V14.2968C15.8536 14.4958 15.9326 14.6865 16.0733 14.8272C16.2139 14.9678 16.4047 15.0468 16.6036 15.0468C16.8025 15.0468 16.9933 14.9678 17.1339 14.8272C17.2746 14.6865 17.3536 14.4958 17.3536 14.2968V9.87184L20.2598 8.22184V16.6218L12.7692 20.8406Z" fill="#FF5A50"/>
</svg>
