<svg width="25" height="25" viewBox="0 0 25 25" fill="none" xmlns="http://www.w3.org/2000/svg">
<path d="M18.8053 8.903H15.8803V7.303C15.8803 6.423 15.1603 5.703 14.2803 5.703H10.4365C9.55652 5.703 8.83652 6.423 8.83652 7.303V8.903H6.00527C5.12527 8.903 4.40527 9.623 4.40527 10.503V19.3529C4.40527 19.9052 4.85299 20.3529 5.40527 20.3529H19.4053C19.9576 20.3529 20.4053 19.9052 20.4053 19.3529V10.503C20.4053 9.623 19.6853 8.903 18.8053 8.903ZM10.0053 7.88415C10.0053 7.33187 10.453 6.88416 11.0053 6.88416H13.8053C14.3576 6.88416 14.8053 7.33187 14.8053 7.88416V8.903H10.0053V7.88415ZM19.1865 18.0092C19.1865 18.5614 18.7388 19.0092 18.1865 19.0092H6.62402C6.07174 19.0092 5.62402 18.5614 5.62402 18.0092V14.503H7.60527V14.803C7.60527 15.0791 7.82913 15.303 8.10527 15.303H8.70527C8.98142 15.303 9.20527 15.0791 9.20527 14.803V14.503H15.6053V14.803C15.6053 15.0791 15.8291 15.303 16.1053 15.303H16.7053C16.9814 15.303 17.2053 15.0791 17.2053 14.803V14.503H19.1865V18.0092ZM17.2053 12.903V12.603C17.2053 12.3269 16.9814 12.103 16.7053 12.103H16.1053C15.8291 12.103 15.6053 12.3269 15.6053 12.603V12.903H9.20527V12.603C9.20527 12.3269 8.98142 12.103 8.70527 12.103H8.10527C7.82913 12.103 7.60527 12.3269 7.60527 12.603V12.903H5.62402V11.1342C5.62402 10.5819 6.07174 10.1342 6.62402 10.1342H18.1865C18.7388 10.1342 19.1865 10.5819 19.1865 11.1342V12.903H17.2053Z" fill="#0B6FC5"/>
</svg>
