<svg width="25" height="25" viewBox="0 0 25 25" fill="none" xmlns="http://www.w3.org/2000/svg">
<g clip-path="url(#clip0_52127_318884-114095)">
<circle cx="4.79504" cy="10.649" r="1.46496" fill="#0B6FC5"/>
<circle cx="9.14269" cy="6.86828" r="1.46496" fill="#0B6FC5"/>
<circle cx="13.963" cy="6.963" r="1.46496" fill="#0B6FC5"/>
<circle cx="18.6886" cy="9.42052" r="1.46496" fill="#0B6FC5"/>
<circle cx="12.4503" cy="17.0763" r="1.84293" fill="#0B6FC5"/>
<path d="M2.20617 8.47231C1.80607 9.20496 1.63477 9.83926 1.63477 10.2789C1.63477 11.3811 1.9105 12.2622 2.38048 12.8513C2.83231 13.4177 3.51792 13.7851 4.52269 13.7851C5.7625 13.7851 6.85458 13.9333 7.64961 14.4313C8.52559 14.9801 8.91109 15.8625 8.91109 16.9668C8.91109 18.9862 10.396 20.4724 12.4052 20.4724C16.2138 20.4724 18.9088 19.4455 20.638 17.989C22.3637 16.5355 23.1752 14.6176 23.1752 12.7111L2.20617 8.47231ZM2.20617 8.47231C2.60017 7.75084 3.19156 6.97992 3.96691 6.27312M2.20617 8.47231L3.96691 6.27312M3.96691 6.27312C5.51474 4.86213 7.765 3.73291 10.586 3.73291M3.96691 6.27312L10.586 3.73291M10.586 3.73291C14.1617 3.73291 17.332 4.33447 19.5851 5.7465M10.586 3.73291L19.5851 5.7465M19.5851 5.7465C21.7847 7.12503 23.175 9.31301 23.1752 12.7111L19.5851 5.7465Z" stroke="#0B6FC5" stroke-width="1.5"/>
</g>
<defs>
<clipPath id="clip0_52127_318884-114095">
<rect width="24" height="24" fill="white" transform="translate(0.405273 0.103027)"/>
</clipPath>
</defs>
</svg>
