<svg width="25" height="25" viewBox="0 0 25 25" fill="none" xmlns="http://www.w3.org/2000/svg">
<path d="M13.7178 2.21277L13.108 2.37627C13.108 2.37627 9.98577 3.19677 7.83552 4.22802C7.82877 4.23102 7.81752 4.22502 7.81152 4.22802C5.67852 5.18052 2.98302 6.97002 2.98302 6.97002L2.46777 7.32177L2.72577 7.90752C2.72577 7.90752 4.72077 12.3783 5.63202 14.353C5.63502 14.362 5.65227 14.368 5.65527 14.3763C5.93952 15.0093 6.45777 15.364 7.01502 15.6423C7.07652 16.1665 7.29552 16.6878 7.55352 17.1655C7.96977 17.9418 8.54652 18.6805 9.14727 19.345C10.3488 20.6755 11.632 21.6888 11.632 21.6888L11.866 21.8763L12.1705 21.853C12.1705 21.853 13.7965 21.721 15.5455 21.2905C16.4215 21.0768 17.3418 20.7895 18.124 20.3763C18.9063 19.9638 19.621 19.4155 19.882 18.5485C20.5525 16.3098 22.132 11.2825 22.132 11.2825L22.3195 10.6735L21.733 10.3923C21.733 10.3923 18.8005 8.92452 16.4133 8.11902C15.4315 5.93652 13.9758 2.77452 13.9758 2.77452L13.7178 2.21277ZM12.8973 4.04052C13.1028 4.48002 13.873 6.13527 14.5383 7.57977C12.3963 7.06677 10.1785 6.78252 10.1785 6.78252L9.54552 6.71202L9.35802 7.29852L9.05352 8.25927L6.73302 9.82977L7.57752 11.0718L8.37402 10.5325C7.93752 11.95 7.68252 12.7915 7.29552 14.0718C7.15827 13.969 7.05852 13.8693 7.01502 13.7673V13.7433C6.20577 11.9943 4.69752 8.66352 4.36602 7.93077C4.87902 7.59702 6.75402 6.33777 8.44452 5.58777C10.117 4.78152 12.2883 4.20777 12.8973 4.04052ZM10.6008 8.37627C11.4093 8.49102 13.8438 8.83077 15.7098 9.43077C17.6875 10.0698 19.9203 11.1888 20.491 11.4708C20.2863 12.1293 19.3428 15.1263 18.6633 17.353L18.4285 18.103C18.3498 18.361 18.0243 18.721 17.4213 19.0405C16.8175 19.36 15.997 19.6405 15.1938 19.8378C13.7328 20.1978 12.5755 20.2825 12.3348 20.3065C12.1323 20.1393 11.2653 19.4365 10.2723 18.3378C9.72177 17.728 9.18852 17.0395 8.86602 16.4388C8.54352 15.8388 8.45877 15.3663 8.53827 15.103C9.15327 13.0555 10.369 9.12327 10.6008 8.37627ZM11.2098 11.986L10.7643 13.4155L13.6008 14.3298L14.0455 12.8763L11.2098 11.986ZM15.1945 13.1815L14.7258 14.611L17.491 15.5245L17.9598 14.095L15.1945 13.1815ZM12.124 15.079L10.7178 15.595C10.7178 15.595 11.3418 17.3178 13.132 17.8218V17.845C13.147 17.851 13.1643 17.839 13.1785 17.845C14.9275 18.3993 16.4365 17.2825 16.4365 17.2825L15.5695 16.0638C15.5695 16.0638 14.5555 16.726 13.624 16.4155H13.6008L13.5768 16.3923C12.5605 16.1253 12.124 15.0798 12.124 15.0798V15.079Z" fill="#0B6FC5"/>
</svg>
