<svg width="25" height="25" viewBox="0 0 25 25" fill="none" xmlns="http://www.w3.org/2000/svg">
<path d="M3.40527 12.103H12.4053V13.603H3.40527V12.103Z" fill="#0B6FC5"/>
<path d="M1.90527 8.35303H9.40527V9.85303H1.90527V8.35303Z" fill="#0B6FC5"/>
<path d="M22.844 12.5575L20.594 7.30753C20.5363 7.17259 20.4402 7.05758 20.3177 6.97678C20.1951 6.89598 20.0516 6.85295 19.9048 6.85303H17.6548V5.35303C17.6548 5.15411 17.5758 4.96335 17.4351 4.8227C17.2945 4.68205 17.1037 4.60303 16.9048 4.60303H4.90479V6.10303H16.1548V15.52C15.813 15.7185 15.514 15.9826 15.2748 16.2972C15.0356 16.6118 14.8611 16.9706 14.7613 17.353H10.0483C9.86575 16.646 9.43162 16.0299 8.82729 15.6201C8.22295 15.2103 7.4899 15.0349 6.76554 15.1269C6.04118 15.2189 5.37524 15.572 4.89255 16.1199C4.40986 16.6677 4.14355 17.3728 4.14355 18.103C4.14355 18.8332 4.40986 19.5383 4.89255 20.0862C5.37524 20.6341 6.04118 20.9871 6.76554 21.0791C7.4899 21.1711 8.22295 20.9958 8.82729 20.586C9.43162 20.1762 9.86575 19.56 10.0483 18.853H14.7613C14.9244 19.4967 15.2976 20.0676 15.8216 20.4754C16.3457 20.8832 16.9908 21.1046 17.6548 21.1046C18.3188 21.1046 18.9639 20.8832 19.488 20.4754C20.012 20.0676 20.3851 19.4967 20.5483 18.853H22.1548C22.3537 18.853 22.5445 18.774 22.6851 18.6334C22.8258 18.4927 22.9048 18.3019 22.9048 18.103V12.853C22.9048 12.7514 22.8842 12.6509 22.844 12.5575ZM7.15479 19.603C6.85812 19.603 6.56811 19.5151 6.32144 19.3502C6.07476 19.1854 5.8825 18.9511 5.76897 18.6771C5.65544 18.403 5.62574 18.1014 5.68361 17.8104C5.74149 17.5194 5.88435 17.2521 6.09413 17.0424C6.30391 16.8326 6.57119 16.6897 6.86216 16.6318C7.15313 16.574 7.45473 16.6037 7.72882 16.7172C8.00291 16.8307 8.23717 17.023 8.402 17.2697C8.56682 17.5163 8.65479 17.8064 8.65479 18.103C8.6544 18.5007 8.49623 18.882 8.21501 19.1632C7.93379 19.4445 7.5525 19.6026 7.15479 19.603ZM17.6548 8.35303H19.4098L21.0178 12.103H17.6548V8.35303ZM17.6548 19.603C17.3581 19.603 17.0681 19.5151 16.8214 19.3502C16.5748 19.1854 16.3825 18.9511 16.269 18.6771C16.1554 18.403 16.1257 18.1014 16.1836 17.8104C16.2415 17.5194 16.3844 17.2521 16.5941 17.0424C16.8039 16.8326 17.0712 16.6897 17.3622 16.6318C17.6531 16.574 17.9547 16.6037 18.2288 16.7172C18.5029 16.8307 18.7372 17.023 18.902 17.2697C19.0668 17.5163 19.1548 17.8064 19.1548 18.103C19.1544 18.5007 18.9962 18.882 18.715 19.1632C18.4338 19.4445 18.0525 19.6026 17.6548 19.603ZM21.4048 17.353H20.5483C20.3831 16.7106 20.0094 16.1412 19.4857 15.734C18.9621 15.3268 18.3181 15.1049 17.6548 15.103V13.603H21.4048V17.353Z" fill="#0B6FC5"/>
</svg>
