<svg width="25" height="25" viewBox="0 0 25 25" fill="none" xmlns="http://www.w3.org/2000/svg">
<path d="M16.9053 17.753H18.4053C19.2331 17.753 19.885 17.2981 20.3594 16.5897C20.8342 15.8806 21.0553 15.0406 21.0553 14.103C21.0553 13.4872 20.9514 12.9048 20.7358 12.3628C20.566 11.9359 20.3422 11.5595 20.0553 11.2503V11.103C20.0553 10.068 19.8528 9.0747 19.4482 8.12866C19.0479 7.19283 18.5053 6.37754 17.818 5.69028C17.1308 5.00303 16.3155 4.46035 15.3796 4.06008C14.4336 3.65545 13.4403 3.45303 12.4053 3.45303C11.3702 3.45303 10.3769 3.65545 9.43091 4.06008C8.49507 4.46035 7.67978 5.00303 6.99253 5.69028C6.30527 6.37754 5.7626 7.19283 5.36233 8.12866C4.9577 9.0747 4.75527 10.068 4.75527 11.103V11.2503C4.46837 11.5595 4.24453 11.9359 4.07473 12.3628C3.85918 12.9048 3.75527 13.4872 3.75527 14.103C3.75527 15.0406 3.97631 15.8806 4.45112 16.5897C4.802 17.1137 5.25003 17.499 5.79451 17.6641C5.90511 18.4348 6.24908 19.1161 6.82065 19.6876C7.52727 20.3943 8.40152 20.753 9.40527 20.753H12.4053C12.8583 20.753 13.2644 20.5857 13.5819 20.2596C13.8927 19.9404 14.0553 19.5408 14.0553 19.0952C14.0553 18.6493 13.8922 18.2488 13.5758 17.9325C13.2569 17.6136 12.8527 17.453 12.4053 17.453H11.4053C10.9578 17.453 10.5536 17.6136 10.2347 17.9325C10.0797 18.0875 9.96215 18.2626 9.88223 18.453H9.40527C9.0257 18.453 8.71964 18.3263 8.45083 18.0575C8.34374 17.9504 8.25919 17.8374 8.19623 17.7162C8.39289 17.6648 8.56953 17.5611 8.71645 17.4142C8.93275 17.1979 9.05527 16.9172 9.05527 16.603V11.603C9.05527 11.2889 8.93275 11.0081 8.71646 10.7918C8.54201 10.6174 8.32564 10.5039 8.08364 10.4666C8.18541 9.36809 8.55855 8.52726 9.1634 7.89675C9.86627 7.16406 10.9119 6.75303 12.4053 6.75303C13.8986 6.75303 14.9443 7.16406 15.6471 7.89675C16.252 8.52726 16.6251 9.36809 16.7269 10.4666C16.4849 10.5039 16.2685 10.6174 16.0941 10.7918C15.8778 11.0081 15.7553 11.2889 15.7553 11.603V16.603C15.7553 16.9172 15.8778 17.1979 16.0941 17.4142C16.3104 17.6305 16.5911 17.753 16.9053 17.753Z" stroke="#0B6FC5" stroke-width="1.3"/>
</svg>
