<svg width="25" height="25" viewBox="0 0 25 25" fill="none" xmlns="http://www.w3.org/2000/svg">
<g clip-path="url(#clip0_52127_318756-520609)">
<path d="M1.07227 16.7698V19.0364C1.07227 19.4962 1.25488 19.937 1.57995 20.2621C1.90501 20.5872 2.34589 20.7698 2.8056 20.7698H21.9656C22.4253 20.7698 22.8662 20.5872 23.1913 20.2621C23.5163 19.937 23.6989 19.4962 23.6989 19.0364V16.7698H1.07227ZM22.4056 19.0364C22.4056 19.1425 22.3635 19.2443 22.2884 19.3193C22.2134 19.3943 22.1117 19.4364 22.0056 19.4364H2.77893C2.67285 19.4364 2.5711 19.3943 2.49609 19.3193C2.42108 19.2443 2.37893 19.1425 2.37893 19.0364V17.7898H9.01227C9.09561 17.9864 9.23473 18.1544 9.41245 18.2728C9.59016 18.3913 9.79868 18.4551 10.0123 18.4564H14.7656C14.9792 18.4551 15.1877 18.3913 15.3654 18.2728C15.5431 18.1544 15.6823 17.9864 15.7656 17.7898H22.4056V19.0364Z" fill="#0B6FC5"/>
<path d="M6.80495 15.3564V7.16969H12.8983C12.9395 7.00633 12.9976 6.84769 13.0716 6.69636L13.4449 6.10303H5.73828V15.3564H6.80495Z" fill="#0B6FC5"/>
<path d="M4.40462 4.76986H14.2113L14.978 3.43652H4.07129C3.80607 3.43652 3.55172 3.54188 3.36418 3.72942C3.17665 3.91695 3.07129 4.17131 3.07129 4.43652V15.4365H4.40462V4.76986Z" fill="#0B6FC5"/>
<path d="M20.4053 10.3695H21.7386V15.4362H20.4053V10.3695Z" fill="#0B6FC5"/>
<path d="M18.3052 0.863066L14.4919 7.4364C14.4031 7.56662 14.3522 7.71886 14.3447 7.87625C14.3372 8.03364 14.3734 8.19004 14.4494 8.3281C14.5253 8.46617 14.638 8.58051 14.7749 8.65846C14.9119 8.73641 15.0677 8.77493 15.2252 8.76973H22.8585C23.016 8.77493 23.1719 8.73641 23.3088 8.65846C23.4457 8.58051 23.5584 8.46617 23.6344 8.3281C23.7103 8.19004 23.7465 8.03364 23.739 7.87625C23.7315 7.71886 23.6806 7.56662 23.5919 7.4364L19.7785 0.863066C19.7033 0.734436 19.5958 0.62774 19.4665 0.553592C19.3373 0.479444 19.1909 0.44043 19.0419 0.44043C18.8929 0.44043 18.7465 0.479444 18.6172 0.553592C18.488 0.62774 18.3804 0.734436 18.3052 0.863066Z" fill="#0B6FC5"/>
</g>
<defs>
<clipPath id="clip0_52127_318756-520609">
<rect width="24" height="24" fill="white" transform="translate(0.405273 0.103027)"/>
</clipPath>
</defs>
</svg>
