<svg width="25" height="25" viewBox="0 0 25 25" fill="none" xmlns="http://www.w3.org/2000/svg">
<path d="M10.4053 11.4363H12.4053V12.7696H10.4053V11.4363Z" fill="#0B6FC5"/>
<path d="M18.0383 9.54952C16.8559 7.61472 15.2429 5.97893 13.3249 4.76952C12.4389 4.20795 11.4288 3.87182 10.3829 3.79047C9.33707 3.70912 8.28719 3.88504 7.32495 4.30285C6.48328 4.69986 5.75091 5.29577 5.19107 6.03913C4.63122 6.78249 4.26074 7.65095 4.11161 8.56952C4.05828 8.88285 4.01828 9.18286 3.97828 9.47619C3.35411 9.57736 2.7862 9.89703 2.3759 10.3782C1.9656 10.8593 1.73962 11.4705 1.73828 12.1029V16.1895C1.73828 16.5431 1.87876 16.8823 2.12881 17.1323C2.37885 17.3824 2.71799 17.5229 3.07161 17.5229V12.1029C3.07161 11.7492 3.21209 11.4101 3.46214 11.16C3.71219 10.91 4.05133 10.7695 4.40495 10.7695H16.8916C18.1765 10.7713 19.4082 11.2825 20.3168 12.191C21.2253 13.0996 21.7365 14.3313 21.7383 15.6162V16.1029H20.4049C20.1234 15.4163 19.5989 14.8574 18.9315 14.5328C18.2642 14.2083 17.5007 14.1408 16.7868 14.3433C16.0729 14.5458 15.4585 15.004 15.0609 15.6306C14.6632 16.2572 14.5103 17.0082 14.6311 17.7404C14.7519 18.4725 15.138 19.1346 15.7159 19.6002C16.2937 20.0659 17.0227 20.3024 17.7638 20.2648C18.505 20.2272 19.2063 19.9181 19.734 19.3963C20.2617 18.8746 20.5789 18.1768 20.6249 17.4362H21.7383C22.0919 17.4362 22.431 17.2957 22.6811 17.0457C22.9311 16.7956 23.0716 16.4565 23.0716 16.1029V15.6162C23.0689 14.1775 22.5649 12.7847 21.6463 11.6774C20.7276 10.5702 19.4518 9.81773 18.0383 9.54952ZM7.73828 9.43619H5.02495C5.02495 9.22952 5.08495 9.01619 5.12495 8.76952C5.24013 8.03716 5.54071 7.34643 5.99812 6.763C6.45553 6.17957 7.05457 5.72282 7.73828 5.43619V9.43619ZM9.07161 9.43619V5.15619C10.3162 4.99456 11.5785 5.26774 12.6449 5.92952C14.1008 6.83631 15.3573 8.02931 16.3383 9.43619H9.07161ZM17.6049 19.0229C17.2753 19.0229 16.9531 18.9251 16.679 18.742C16.4049 18.5588 16.1913 18.2985 16.0651 17.994C15.939 17.6894 15.906 17.3543 15.9703 17.031C16.0346 16.7077 16.1933 16.4108 16.4264 16.1777C16.6595 15.9446 16.9565 15.7859 17.2798 15.7215C17.6031 15.6572 17.9382 15.6902 18.2428 15.8164C18.5473 15.9425 18.8076 16.1562 18.9907 16.4302C19.1739 16.7043 19.2716 17.0266 19.2716 17.3562C19.2716 17.7982 19.096 18.2221 18.7835 18.5347C18.4709 18.8473 18.047 19.0229 17.6049 19.0229Z" fill="#0B6FC5"/>
<path d="M9.85227 16.1029C9.57071 15.4163 9.04621 14.8574 8.37886 14.5329C7.71151 14.2083 6.94803 14.1409 6.2341 14.3433C5.52018 14.5458 4.90579 15.0041 4.50818 15.6306C4.11057 16.2572 3.95757 17.0082 4.07838 17.7404C4.19919 18.4726 4.58535 19.1347 5.16317 19.6003C5.741 20.0659 6.47003 20.3025 7.21116 20.2649C7.95228 20.2273 8.65362 19.9181 9.18133 19.3964C9.70905 18.8747 10.0262 18.1769 10.0723 17.4362H13.6056V17.2696C13.5924 16.8762 13.6373 16.4831 13.7389 16.1029H9.85227ZM7.07227 19.0229C6.74263 19.0229 6.4204 18.9252 6.14632 18.742C5.87224 18.5589 5.65862 18.2986 5.53247 17.994C5.40632 17.6895 5.37332 17.3544 5.43763 17.0311C5.50194 16.7078 5.66067 16.4108 5.89376 16.1777C6.12685 15.9446 6.42382 15.7859 6.74712 15.7216C7.07042 15.6573 7.40553 15.6903 7.71008 15.8164C8.01462 15.9426 8.27492 16.1562 8.45805 16.4303C8.64119 16.7044 8.73894 17.0266 8.73894 17.3562C8.73894 17.7983 8.56334 18.2222 8.25078 18.5348C7.93822 18.8473 7.5143 19.0229 7.07227 19.0229Z" fill="#0B6FC5"/>
</svg>
