<svg width="25" height="25" viewBox="0 0 25 25" fill="none" xmlns="http://www.w3.org/2000/svg">
<path fill-rule="evenodd" clip-rule="evenodd" d="M13.1902 2.29626C13.1902 2.08796 13.1075 1.88819 12.9602 1.7409C12.8129 1.59361 12.6131 1.51086 12.4048 1.51086C12.1965 1.51086 11.9968 1.59361 11.8495 1.7409C11.7022 1.88819 11.6194 2.08796 11.6194 2.29626V3.60526H8.589C8.26961 3.60526 7.95649 3.68904 7.67898 3.84612L6.33019 4.61791C6.29034 4.6407 6.2452 4.65262 6.19929 4.65246H3.85985C3.65155 4.65246 3.45178 4.73521 3.30448 4.8825C3.15719 5.02979 3.07445 5.22956 3.07445 5.43786C3.07445 5.64617 3.15719 5.84594 3.30448 5.99323C3.45178 6.14052 3.65155 6.22326 3.85985 6.22326H4.30805L2.09636 11.1367C2.03103 11.2821 2.01148 11.4439 2.04028 11.6006C2.06908 11.7574 2.14489 11.9016 2.25763 12.0143V12.0153L2.25972 12.0174L2.26182 12.0195L2.2681 12.0258L2.28486 12.0415L2.33198 12.0834C2.55222 12.268 2.79332 12.4261 3.05036 12.5546C3.70979 12.8761 4.43527 13.039 5.16885 13.0301C6.09038 13.0301 6.79829 12.7997 7.28733 12.5546C7.54436 12.4261 7.78547 12.268 8.00571 12.0834L8.05284 12.0415L8.06959 12.0258L8.07587 12.0195L8.07797 12.0174L8.07901 12.0153L7.52505 11.4593L8.08006 12.0143C8.1928 11.9016 8.26861 11.7574 8.29741 11.6006C8.32622 11.4439 8.30666 11.2821 8.24133 11.1367L6.02964 6.22326H6.19929C6.51869 6.22326 6.8318 6.13949 7.10931 5.98241L8.45915 5.21062C8.49869 5.188 8.54345 5.17609 8.589 5.17606H11.6194V21.1245H9.00145C8.79315 21.1245 8.59338 21.2072 8.44608 21.3545C8.29879 21.5018 8.21605 21.7016 8.21605 21.9099C8.21605 22.1182 8.29879 22.3179 8.44608 22.4652C8.59338 22.6125 8.79315 22.6953 9.00145 22.6953H15.8082C16.0165 22.6953 16.2163 22.6125 16.3636 22.4652C16.5109 22.3179 16.5936 22.1182 16.5936 21.9099C16.5936 21.7016 16.5109 21.5018 16.3636 21.3545C16.2163 21.2072 16.0165 21.1245 15.8082 21.1245H13.1902V5.17606H16.2207C16.2662 5.17609 16.311 5.188 16.3505 5.21062L17.7014 5.98136C17.9779 6.14054 18.291 6.22326 18.6104 6.22326H18.7801L16.5684 11.1367C16.503 11.2821 16.4835 11.4439 16.5123 11.6006C16.5411 11.7574 16.6169 11.9016 16.7296 12.0143V12.0153L16.7317 12.0174L16.7338 12.0195L16.7401 12.0258L16.7569 12.0415L16.804 12.0834C17.0242 12.268 17.2653 12.4261 17.5224 12.5546C18.1818 12.8761 18.9073 13.039 19.6408 13.0301C20.5624 13.0301 21.2703 12.7997 21.7593 12.5546C22.0164 12.4262 22.2575 12.268 22.4777 12.0834L22.5248 12.0415L22.5353 12.031L22.5416 12.0258L22.5479 12.0195L22.55 12.0174L22.551 12.0153L21.997 11.4593L22.5521 12.0143C22.6648 11.9016 22.7406 11.7574 22.7694 11.6006C22.7982 11.4439 22.7787 11.2821 22.7133 11.1367L20.5027 6.22326H20.9498C21.1581 6.22326 21.3579 6.14052 21.5052 5.99323C21.6525 5.84594 21.7352 5.64617 21.7352 5.43786C21.7352 5.22956 21.6525 5.02979 21.5052 4.8825C21.3579 4.73521 21.1581 4.65246 20.9498 4.65246H18.6104C18.5648 4.65244 18.5201 4.64053 18.4806 4.61791L17.1297 3.84717C16.8532 3.689 16.5403 3.60563 16.2217 3.60526H13.1902V2.29626ZM3.80225 11.1734C4.1007 11.3148 4.55414 11.4593 5.16885 11.4593C5.78355 11.4593 6.23699 11.3148 6.53544 11.1734L5.16885 8.1365L3.80225 11.1734ZM18.2743 11.1734C18.5727 11.3148 19.0261 11.4593 19.6408 11.4593C20.2556 11.4593 20.709 11.3148 21.0074 11.1734L19.6408 8.1365L18.2743 11.1734Z" fill="#0B6FC5"/>
</svg>
