<svg width="25" height="25" viewBox="0 0 25 25" fill="none" xmlns="http://www.w3.org/2000/svg">
<path d="M14.1013 6.50283L15.5653 8.10283H18.8053V17.7028H6.00527V8.10283H9.24527L10.7093 6.50283H14.1013ZM14.8053 4.90283H10.0053L8.54127 6.50283H6.00527C5.12527 6.50283 4.40527 7.22283 4.40527 8.10283V17.7028C4.40527 18.5828 5.12527 19.3028 6.00527 19.3028H18.8053C19.6853 19.3028 20.4053 18.5828 20.4053 17.7028V8.10283C20.4053 7.22283 19.6853 6.50283 18.8053 6.50283H16.2693L14.8053 4.90283ZM12.4053 10.5028C13.7253 10.5028 14.8053 11.5828 14.8053 12.9028C14.8053 14.2228 13.7253 15.3028 12.4053 15.3028C11.0853 15.3028 10.0053 14.2228 10.0053 12.9028C10.0053 11.5828 11.0853 10.5028 12.4053 10.5028ZM12.4053 8.90283C10.1973 8.90283 8.40527 10.6948 8.40527 12.9028C8.40527 15.1108 10.1973 16.9028 12.4053 16.9028C14.6133 16.9028 16.4053 15.1108 16.4053 12.9028C16.4053 10.6948 14.6133 8.90283 12.4053 8.90283Z" fill="#0B6FC5"/>
</svg>
