<svg width="25" height="25" viewBox="0 0 25 25" fill="none" xmlns="http://www.w3.org/2000/svg">
<path d="M3.99869 11.5135C3.99981 10.5249 4.39301 9.57717 5.09202 8.87815C5.79103 8.17914 6.73878 7.78594 7.72733 7.78482H10.5929C10.6291 7.78461 14.2535 7.72904 17.7043 4.83475C17.9134 4.6592 18.1682 4.54696 18.4388 4.51124C18.7095 4.47551 18.9847 4.51777 19.2321 4.63306C19.4796 4.74835 19.689 4.93188 19.8357 5.16207C19.9825 5.39227 20.0605 5.65956 20.0605 5.93255V17.0944C20.0622 17.3675 19.985 17.6354 19.8383 17.8658C19.6915 18.0962 19.4814 18.2794 19.2332 18.3935C19.0423 18.4831 18.834 18.5297 18.6231 18.5301C18.2865 18.5294 17.9611 18.4097 17.7043 18.1922C16.0705 16.8157 14.1207 15.8662 12.0296 15.4287V17.469C12.0305 17.7355 11.9567 17.9969 11.8166 18.2236C11.6765 18.4503 11.4757 18.6332 11.2369 18.7516L9.89905 19.4206C9.70696 19.5167 9.49576 19.5683 9.28104 19.5718C9.06631 19.5753 8.85354 19.5305 8.65843 19.4408C8.46333 19.351 8.29087 19.2186 8.15379 19.0533C8.01671 18.888 7.91851 18.694 7.86644 18.4857L7.03932 15.1774C6.18531 15.016 5.41435 14.5617 4.8593 13.8929C4.30426 13.2241 3.99991 12.3826 3.99869 11.5135ZM18.3397 16.4946V6.53236C16.4957 7.97001 14.3304 8.93862 12.0296 9.35501V13.6719C14.3304 14.0883 16.4957 15.0569 18.3397 16.4946ZM9.44932 17.7214L10.3087 17.2917V15.2421H8.82943L9.44932 17.7214ZM7.72733 13.5212H10.3087V9.50574H7.72733C7.19485 9.50574 6.68417 9.71726 6.30765 10.0938C5.93113 10.4703 5.7196 10.981 5.7196 11.5135C5.7196 12.0459 5.93113 12.5566 6.30765 12.9331C6.68417 13.3097 7.19485 13.5212 7.72733 13.5212Z" fill="#0B6FC5"/>
</svg>
