<svg width="25" height="25" viewBox="0 0 25 25" fill="none" xmlns="http://www.w3.org/2000/svg">
<path fill-rule="evenodd" clip-rule="evenodd" d="M13.3304 14.6304C13.7769 14.0334 14.5082 13.5431 15.5583 13.5431C16.6541 13.5431 17.3719 14.1323 17.7852 14.7387C17.9876 15.0358 18.1231 15.3427 18.2088 15.6046C18.2899 15.8526 18.3426 16.11 18.3426 16.3138V20.0026H16.8426V16.3138C16.8426 16.3166 16.8424 16.3152 16.8416 16.3098C16.8386 16.2883 16.8267 16.2041 16.7832 16.0711C16.7332 15.9185 16.6551 15.744 16.5456 15.5834C16.335 15.2744 16.0357 15.0431 15.5583 15.0431C15.0354 15.0431 14.7291 15.2647 14.5315 15.5289C14.3082 15.8274 14.2334 16.1744 14.2334 16.3138V20.0026H12.7334V16.3138C12.7334 15.8566 12.9095 15.1931 13.3304 14.6304Z" fill="#0B6FC5"/>
<path fill-rule="evenodd" clip-rule="evenodd" d="M15.4395 8.60303C14.8176 8.60303 14.3135 9.10718 14.3135 9.72908C14.3135 10.351 14.8176 10.8551 15.4395 10.8551C16.0614 10.8551 16.5656 10.351 16.5656 9.72908C16.5656 9.10718 16.0614 8.60303 15.4395 8.60303ZM12.8135 9.72908C12.8135 8.27875 13.9892 7.10303 15.4395 7.10303C16.8899 7.10303 18.0656 8.27875 18.0656 9.72908C18.0656 11.1794 16.8899 12.3551 15.4395 12.3551C13.9892 12.3551 12.8135 11.1794 12.8135 9.72908Z" fill="#0B6FC5"/>
<line x1="3.06348" y1="20.353" x2="22.5635" y2="20.353" stroke="#0B6FC5" stroke-width="1.5" stroke-linecap="round"/>
<line x1="3.78027" y1="20.353" x2="3.78027" y2="13.853" stroke="#0B6FC5" stroke-width="1.5" stroke-linecap="round"/>
<line x1="9.78027" y1="20.353" x2="9.78027" y2="6.85303" stroke="#0B6FC5" stroke-width="1.5" stroke-linecap="round"/>
<line x1="20.7803" y1="20.353" x2="20.7803" y2="6.85303" stroke="#0B6FC5" stroke-width="1.5" stroke-linecap="round"/>
<line x1="15.7803" y1="4.35303" x2="15.7803" y2="2.85303" stroke="#0B6FC5" stroke-width="1.5" stroke-linecap="round"/>
<line x1="8.96918" y1="7.13744" x2="15.5647" y2="4.66412" stroke="#0B6FC5" stroke-width="1.5" stroke-linecap="round"/>
<line x1="2.96918" y1="14.1374" x2="9.56468" y2="11.6641" stroke="#0B6FC5" stroke-width="1.5" stroke-linecap="round"/>
<line x1="0.75" y1="-0.75" x2="7.794" y2="-0.75" transform="matrix(-0.936329 -0.351123 -0.351123 0.936329 22.5303 8.10303)" stroke="#0B6FC5" stroke-width="1.5" stroke-linecap="round"/>
</svg>
