<svg width="25" height="25" viewBox="0 0 25 25" fill="none" xmlns="http://www.w3.org/2000/svg">
<path d="M19.3096 3.38804C17.3369 1.36693 13.7289 1.77288 11.2589 4.30359C9.91009 5.68555 9.13452 7.6462 9.11766 9.01952C9.1008 10.3842 9.33684 12.3794 7.97961 13.77L4.98927 16.8338C4.66447 17.1666 4.66447 17.6978 4.98927 18.0306C5.32543 18.375 5.87925 18.375 6.2154 18.0306L9.17667 14.9965C10.5339 13.6059 12.4812 13.8477 13.8132 13.8305C15.1451 13.8132 17.0672 13.0186 18.416 11.6366C20.8776 9.10589 21.2822 5.40916 19.3096 3.38804ZM11.5539 11.3257C10.2641 10.0042 10.6688 7.3439 12.4475 5.52144C14.2263 3.69898 16.8143 3.28439 18.1125 4.60589C19.4023 5.92739 18.9977 8.58766 17.2189 10.4101C15.4402 12.2326 12.8522 12.6472 11.5539 11.3257ZM18.0282 15.9207C18.475 15.9207 18.9049 16.1021 19.2168 16.4303C19.8744 17.104 19.8744 18.2009 19.2168 18.8746C18.9049 19.1942 18.475 19.3756 18.0282 19.3756C17.5814 19.3756 17.1515 19.1942 16.8396 18.866C16.182 18.1923 16.182 17.0953 16.8396 16.4216C17.1515 16.1021 17.5814 15.9207 18.0282 15.9207ZM18.0282 14.1932C17.3605 14.1919 16.7075 14.3937 16.152 14.7732C15.5964 15.1526 15.1634 15.6926 14.9078 16.3246C14.6523 16.9565 14.5857 17.652 14.7164 18.3229C14.8472 18.9937 15.1696 19.6096 15.6425 20.0925C16.3001 20.7662 17.1683 21.103 18.0282 21.103C18.6959 21.1044 19.3489 20.9025 19.9044 20.5231C20.46 20.1436 20.893 19.6037 21.1486 18.9717C21.4042 18.3397 21.4708 17.6442 21.34 16.9734C21.2092 16.3026 20.8869 15.6866 20.4139 15.2038C20.1006 14.883 19.7286 14.6286 19.3192 14.4552C18.9099 14.2818 18.4712 14.1928 18.0282 14.1932Z" fill="#0B6FC5"/>
</svg>
