<svg width="25" height="25" viewBox="0 0 25 25" fill="none" xmlns="http://www.w3.org/2000/svg">
<path d="M15.0659 10.183C16.6259 10.183 17.5859 7.903 17.5859 6.463C17.5859 5.263 16.9859 3.823 15.7859 3.823C14.2259 3.823 13.2659 6.103 13.2659 7.543C13.2659 8.743 13.8659 10.183 15.0659 10.183ZM9.57254 10.303C10.7725 10.303 11.3725 8.863 11.3725 7.663C11.3725 6.103 10.4125 3.823 8.85254 3.823C7.65254 3.823 7.05254 5.263 7.05254 6.463C6.93254 8.023 7.89254 10.303 9.57254 10.303ZM20.2259 8.983C18.6659 8.983 17.5859 11.143 17.5859 12.703C17.5859 13.783 18.0659 14.863 19.1459 14.863C20.7059 14.863 21.7859 12.703 21.7859 11.143C21.7859 10.063 21.1859 8.983 20.2259 8.983ZM7.05254 12.703C7.05254 11.143 5.85254 8.983 4.41254 8.983C3.33254 8.983 2.85254 10.063 2.85254 11.143C2.85254 12.703 4.05254 14.863 5.49254 14.863C6.57254 14.863 7.05254 13.783 7.05254 12.703ZM12.4057 12.463C10.0057 12.463 6.76567 16.303 6.76567 18.943C6.76567 20.143 7.60567 20.503 8.56567 20.503C10.0057 20.503 11.0857 19.543 12.4057 19.543C13.6057 19.543 14.6857 20.503 16.0057 20.503C16.9657 20.503 18.0457 20.263 18.0457 18.943C18.0457 16.303 14.8057 12.463 12.4057 12.463Z" stroke="#0B6FC5" stroke-width="1.5"/>
</svg>
