<svg width="25" height="25" viewBox="0 0 25 25" fill="none" xmlns="http://www.w3.org/2000/svg">
<path d="M7.94531 12.834V18.4089H13.5202L12.3575 17.2462H9.10796V13.9966L7.94531 12.834Z" fill="#0B6FC5" stroke="#0B6FC5" stroke-width="0.2"/>
<path d="M22.9831 21.484L21.3147 19.7923V21.3154H5.03765V18.9029H6.2003V17.9728H5.03765V14.107H6.2003V13.1769H5.03765V9.45641H6.2003V8.52629H5.03765V5.2767L14.3039 14.4907V12.8513L4.86907 3.46298C4.78776 3.381 4.68388 3.32508 4.57067 3.30237C4.45746 3.27966 4.34005 3.29118 4.23341 3.33545C4.12677 3.37973 4.03573 3.45476 3.9719 3.55098C3.90807 3.6472 3.87434 3.76025 3.87501 3.87572V21.8967C3.87501 22.0509 3.93626 22.1987 4.04528 22.3078C4.15429 22.4168 4.30216 22.478 4.45633 22.478H22.5703C22.6858 22.4787 22.7988 22.445 22.8951 22.3811C22.9913 22.3173 23.0663 22.2263 23.1106 22.1196C23.1549 22.013 23.1664 21.8956 23.1437 21.7824C23.121 21.6691 23.065 21.5653 22.9831 21.484Z" fill="#0B6FC5" stroke="#0B6FC5" stroke-width="0.2"/>
<path d="M16.4046 20.1028H19.0713C19.4249 20.1028 19.764 19.9623 20.0141 19.7123C20.2641 19.4622 20.4046 19.1231 20.4046 18.7695V5.90281L18.8713 3.08281C18.7527 2.87736 18.5814 2.70726 18.3752 2.59007C18.1689 2.47288 17.9352 2.41284 17.698 2.41614C17.4554 2.41807 17.2179 2.48613 17.0112 2.61301C16.8044 2.73988 16.6362 2.92075 16.5246 3.13614L15.0713 5.91614V18.7695C15.0713 19.1231 15.2118 19.4622 15.4618 19.7123C15.7119 19.9623 16.051 20.1028 16.4046 20.1028ZM16.4046 6.23614L17.698 3.72281L19.0713 6.24281V16.1028H16.4046V6.23614ZM16.4046 17.1895H19.0713V18.8161H16.4046V17.1895Z" fill="#0B6FC5"/>
</svg>
