<svg width="25" height="25" viewBox="0 0 25 25" fill="none" xmlns="http://www.w3.org/2000/svg">
<path d="M7.12624 21.6349H4.36927C4.00368 21.6349 3.65305 21.4897 3.39454 21.2312C3.13602 20.9727 2.99079 20.6221 2.99079 20.2565V15.4318C2.62519 15.4318 2.27457 15.2865 2.01605 15.028C1.75754 14.7695 1.6123 14.4189 1.6123 14.0533V9.91782C1.6123 9.36943 1.83015 8.84349 2.21793 8.45572C2.6057 8.06795 3.13164 7.8501 3.68003 7.8501H7.81548C8.36388 7.8501 8.88981 8.06795 9.27759 8.45572C9.66536 8.84349 9.88321 9.36943 9.88321 9.91782V14.0533C9.88321 14.4189 9.73798 14.7695 9.47946 15.028C9.22094 15.2865 8.87032 15.4318 8.50472 15.4318V20.2565C8.50472 20.6221 8.35949 20.9727 8.10098 21.2312C7.84246 21.4897 7.49184 21.6349 7.12624 21.6349ZM3.68003 9.22858C3.58794 9.22249 3.49561 9.23614 3.40923 9.26863C3.32284 9.30111 3.2444 9.35167 3.17914 9.41693C3.11388 9.48219 3.06331 9.56064 3.03083 9.64702C2.99835 9.73341 2.9847 9.82573 2.99079 9.91782V14.0533H4.36927V20.2565H7.12624V14.0533H8.50472V9.91782C8.51082 9.82573 8.49716 9.73341 8.46468 9.64702C8.4322 9.56064 8.38163 9.48219 8.31638 9.41693C8.25112 9.35167 8.17267 9.30111 8.08628 9.26863C7.9999 9.23614 7.90757 9.22249 7.81548 9.22858H3.68003Z" fill="#0B6FC5"/>
<path d="M14.125 21.6349H11.3681C11.0025 21.6349 10.6518 21.4897 10.3933 21.2312C10.1348 20.9727 9.98957 20.6221 9.98957 20.2565V15.4318C9.62397 15.4318 9.27335 15.2865 9.01483 15.028C8.75632 14.7695 8.61108 14.4189 8.61108 14.0533V9.91782C8.61108 9.36943 8.82893 8.84349 9.21671 8.45572C9.60448 8.06795 10.1304 7.8501 10.6788 7.8501H14.8143C15.3627 7.8501 15.8886 8.06795 16.2764 8.45572C16.6641 8.84349 16.882 9.36943 16.882 9.91782V14.0533C16.882 14.4189 16.7368 14.7695 16.4782 15.028C16.2197 15.2865 15.8691 15.4318 15.5035 15.4318V20.2565C15.5035 20.6221 15.3583 20.9727 15.0998 21.2312C14.8412 21.4897 14.4906 21.6349 14.125 21.6349ZM10.6788 9.22858C10.5867 9.22249 10.4944 9.23614 10.408 9.26863C10.3216 9.30111 10.2432 9.35167 10.1779 9.41693C10.1127 9.48219 10.0621 9.56064 10.0296 9.64702C9.99713 9.73341 9.98348 9.82573 9.98957 9.91782V14.0533H11.3681V20.2565H14.125V14.0533H15.5035V9.91782C15.5096 9.82573 15.4959 9.73341 15.4635 9.64702C15.431 9.56064 15.3804 9.48219 15.3152 9.41693C15.2499 9.35167 15.1714 9.30111 15.0851 9.26863C14.9987 9.23614 14.9064 9.22249 14.8143 9.22858H10.6788Z" fill="#0B6FC5"/>
<path d="M20.9473 21.6349H18.1903C17.8247 21.6349 17.4741 21.4897 17.2156 21.2312C16.9571 20.9727 16.8118 20.6221 16.8118 20.2565V15.4318C16.4462 15.4318 16.0956 15.2865 15.8371 15.028C15.5786 14.7695 15.4333 14.4189 15.4333 14.0533V9.91782C15.4333 9.36943 15.6512 8.84349 16.039 8.45572C16.4267 8.06795 16.9527 7.8501 17.5011 7.8501H21.6365C22.1849 7.8501 22.7109 8.06795 23.0986 8.45572C23.4864 8.84349 23.7043 9.36943 23.7043 9.91782V14.0533C23.7043 14.4189 23.559 14.7695 23.3005 15.028C23.042 15.2865 22.6914 15.4318 22.3258 15.4318V20.2565C22.3258 20.6221 22.1805 20.9727 21.922 21.2312C21.6635 21.4897 21.3129 21.6349 20.9473 21.6349ZM17.5011 9.22858C17.409 9.22249 17.3167 9.23614 17.2303 9.26863C17.1439 9.30111 17.0654 9.35167 17.0002 9.41693C16.9349 9.48219 16.8844 9.56064 16.8519 9.64702C16.8194 9.73341 16.8057 9.82573 16.8118 9.91782V14.0533H18.1903V20.2565H20.9473V14.0533H22.3258V9.91782C22.3319 9.82573 22.3182 9.73341 22.2857 9.64702C22.2532 9.56064 22.2027 9.48219 22.1374 9.41693C22.0722 9.35167 21.9937 9.30111 21.9073 9.26863C21.8209 9.23614 21.7286 9.22249 21.6365 9.22858H17.5011Z" fill="#0B6FC5"/>
<path d="M5.74794 7.16091C5.20266 7.16091 4.66963 6.99922 4.21625 6.69628C3.76287 6.39334 3.4095 5.96276 3.20083 5.45899C2.99216 4.95522 2.93756 4.40088 3.04394 3.86608C3.15032 3.33128 3.4129 2.84004 3.79847 2.45447C4.18403 2.0689 4.67528 1.80633 5.21008 1.69995C5.74488 1.59357 6.29921 1.64817 6.80298 1.85684C7.30675 2.0655 7.73733 2.41887 8.04027 2.87225C8.34321 3.32563 8.5049 3.85866 8.5049 4.40394C8.5049 5.13514 8.21444 5.83638 7.69741 6.35341C7.18038 6.87044 6.47913 7.16091 5.74794 7.16091ZM5.74794 3.02546C5.4753 3.02546 5.20878 3.1063 4.98209 3.25777C4.7554 3.40924 4.57872 3.62453 4.47438 3.87642C4.37005 4.1283 4.34275 4.40547 4.39594 4.67287C4.44913 4.94027 4.58042 5.18589 4.7732 5.37868C4.96599 5.57146 5.21161 5.70275 5.47901 5.75594C5.74641 5.80913 6.02357 5.78183 6.27546 5.6775C6.52734 5.57316 6.74263 5.39648 6.8941 5.16979C7.04557 4.9431 7.12642 4.67658 7.12642 4.40394C7.12642 4.03835 6.98119 3.68772 6.72267 3.42921C6.46416 3.17069 6.11353 3.02546 5.74794 3.02546Z" fill="#0B6FC5"/>
<path d="M12.7467 7.16091C12.2014 7.16091 11.6684 6.99922 11.215 6.69628C10.7616 6.39334 10.4083 5.96276 10.1996 5.45899C9.99094 4.95522 9.93634 4.40088 10.0427 3.86608C10.1491 3.33128 10.4117 2.84004 10.7972 2.45447C11.1828 2.0689 11.6741 1.80633 12.2089 1.69995C12.7437 1.59357 13.298 1.64817 13.8018 1.85684C14.3055 2.0655 14.7361 2.41887 15.0391 2.87225C15.342 3.32563 15.5037 3.85866 15.5037 4.40394C15.5037 5.13514 15.2132 5.83638 14.6962 6.35341C14.1792 6.87044 13.4779 7.16091 12.7467 7.16091ZM12.7467 3.02546C12.4741 3.02546 12.2076 3.1063 11.9809 3.25777C11.7542 3.40924 11.5775 3.62453 11.4732 3.87642C11.3688 4.1283 11.3415 4.40547 11.3947 4.67287C11.4479 4.94027 11.5792 5.18589 11.772 5.37868C11.9648 5.57146 12.2104 5.70275 12.4778 5.75594C12.7452 5.80913 13.0224 5.78183 13.2742 5.6775C13.5261 5.57316 13.7414 5.39648 13.8929 5.16979C14.0444 4.9431 14.1252 4.67658 14.1252 4.40394C14.1252 4.03835 13.98 3.68772 13.7215 3.42921C13.4629 3.17069 13.1123 3.02546 12.7467 3.02546Z" fill="#0B6FC5"/>
<path d="M19.569 7.16091C19.0237 7.16091 18.4907 6.99922 18.0373 6.69628C17.5839 6.39334 17.2305 5.96276 17.0219 5.45899C16.8132 4.95522 16.7586 4.40088 16.865 3.86608C16.9714 3.33128 17.2339 2.84004 17.6195 2.45447C18.0051 2.0689 18.4963 1.80633 19.0311 1.69995C19.5659 1.59357 20.1203 1.64817 20.624 1.85684C21.1278 2.0655 21.5584 2.41887 21.8613 2.87225C22.1643 3.32563 22.3259 3.85866 22.3259 4.40394C22.3259 5.13514 22.0355 5.83638 21.5185 6.35341C21.0014 6.87044 20.3002 7.16091 19.569 7.16091ZM19.569 3.02546C19.2963 3.02546 19.0298 3.1063 18.8031 3.25777C18.5764 3.40924 18.3998 3.62453 18.2954 3.87642C18.1911 4.1283 18.1638 4.40547 18.217 4.67287C18.2702 4.94027 18.4015 5.18589 18.5942 5.37868C18.787 5.57146 19.0327 5.70275 19.3001 5.75594C19.5675 5.80913 19.8446 5.78183 20.0965 5.6775C20.3484 5.57316 20.5637 5.39648 20.7151 5.16979C20.8666 4.9431 20.9475 4.67658 20.9475 4.40394C20.9475 4.03835 20.8022 3.68772 20.5437 3.42921C20.2852 3.17069 19.9346 3.02546 19.569 3.02546Z" fill="#0B6FC5"/>
</svg>
