<svg width="25" height="25" viewBox="0 0 25 25" fill="none" xmlns="http://www.w3.org/2000/svg">
<path d="M11.19 3.52332C12.3694 3.52324 13.5253 3.85237 14.5277 4.47365C15.5301 5.09492 16.3392 5.98368 16.8639 7.03987C17.3886 8.09605 17.608 9.27773 17.4975 10.4519C17.387 11.626 16.951 12.746 16.2384 13.6857L21.015 18.4623C21.1681 18.6167 21.2574 18.8231 21.2651 19.0404C21.2727 19.2576 21.1982 19.4698 21.0563 19.6346C20.9144 19.7993 20.7156 19.9045 20.4995 19.9291C20.2835 19.9537 20.0661 19.8959 19.8908 19.7673L19.7941 19.6832L15.0175 14.9067C14.3955 15.3789 13.6849 15.7383 12.9154 15.9548L12.9178 15.7141V14.1315C13.6742 13.8257 14.3359 13.3246 14.8352 12.6793C15.3345 12.034 15.6536 11.2678 15.7598 10.4588C15.8659 9.64986 15.7555 8.82721 15.4396 8.07493C15.1237 7.32265 14.6138 6.66772 13.9619 6.17706C13.3101 5.6864 12.5396 5.3776 11.7293 5.28221C10.919 5.18683 10.0979 5.30829 9.3499 5.63417C8.60191 5.96005 7.95384 6.47867 7.47193 7.13704C6.99001 7.79541 6.69153 8.56992 6.60697 9.38143C6.38583 9.46206 6.1785 9.59567 6.00343 9.77765C5.67928 10.123 5.31052 10.4236 4.9069 10.6715C4.79129 9.77827 4.86746 8.8707 5.13033 8.00928C5.3932 7.14786 5.83673 6.3524 6.43133 5.67594C7.02593 4.99948 7.75793 4.45758 8.57851 4.08639C9.3991 3.71519 10.2894 3.52323 11.19 3.52332Z" fill="#0B6FC5"/>
<path d="M9.10027 12.6101C8.72202 12.449 8.36547 12.2412 8.03896 11.9914C7.76798 11.7848 7.51388 11.5569 7.27906 11.31C7.24047 11.2691 7.19392 11.2365 7.14227 11.2142C7.09062 11.1919 7.03497 11.1804 6.97871 11.1804C6.92246 11.1804 6.86681 11.1919 6.81516 11.2142C6.76351 11.2365 6.71696 11.2691 6.67836 11.31C5.62236 12.4095 4.45492 12.9497 3.15694 12.9497C2.92346 12.9497 2.73242 13.1471 2.73242 13.3912V16.0456L2.73667 16.3279C2.76532 17.1737 2.92133 17.9347 3.20364 18.6097C3.55458 19.4521 4.12482 20.185 4.85504 20.7323C5.41116 21.1568 6.07554 21.5039 6.84499 21.7713C6.93202 21.801 7.02541 21.801 7.11244 21.7713C9.82939 20.8268 11.2229 18.892 11.2229 16.0456V13.3923L11.2144 13.3021C11.1965 13.2043 11.1452 13.1158 11.0694 13.0515C10.9935 12.9873 10.8978 12.9513 10.7984 12.9497C10.2152 12.9527 9.63746 12.8372 9.10027 12.6101Z" fill="#0B6FC5"/>
</svg>
