<svg width="25" height="25" viewBox="0 0 25 25" fill="none" xmlns="http://www.w3.org/2000/svg">
<g clip-path="url(#clip0_52127_318858-018634)">
<path d="M13.2057 3.90303C13.1335 3.90268 13.0625 3.9219 13.0004 3.95867C12.938 3.99557 12.8869 4.04877 12.8524 4.11254C12.818 4.1763 12.8016 4.24824 12.8049 4.32064C12.8081 4.39035 12.8296 4.45794 12.867 4.5167L14.8259 7.95023H8.93728L7.94504 6.30303H9.80508C9.91117 6.30303 10.0129 6.26089 10.0879 6.18587C10.1629 6.11086 10.2051 6.00912 10.2051 5.90303C10.2051 5.79695 10.1629 5.6952 10.0879 5.62019C10.0129 5.54517 9.91117 5.50303 9.80508 5.50303H6.20508C6.09899 5.50303 5.99725 5.54517 5.92224 5.62019C5.84722 5.6952 5.80508 5.79695 5.80508 5.90303C5.80508 6.00912 5.84722 6.11086 5.92224 6.18587C5.99725 6.26089 6.09899 6.30303 6.20508 6.30303H7.01082L8.27384 8.39894L7.20184 10.2909C6.63789 10.0361 6.02555 9.90356 5.40525 9.90303H5.40508C2.97862 9.90303 1.00508 11.8766 1.00508 14.303C1.00508 16.7295 2.97862 18.703 5.40508 18.703C7.68446 18.703 9.55819 16.9604 9.75988 14.703H13.158C13.1528 14.8183 13.141 14.9635 13.1194 15.1105C13.101 15.2353 13.0764 15.3556 13.0452 15.4565C13.0125 15.5621 12.9784 15.6264 12.9519 15.6565L12.9519 15.6565C12.7678 15.8652 12.4501 15.9932 11.9595 15.9932C11.8534 15.9932 11.7517 16.0354 11.6766 16.1104C11.6016 16.1854 11.5595 16.2871 11.5595 16.3932C11.5595 16.4993 11.6016 16.601 11.6766 16.6761C11.7517 16.7511 11.8534 16.7932 11.9595 16.7932C12.6396 16.7932 13.1897 16.599 13.5555 16.1819L13.5555 16.1818C13.8287 15.8699 13.9248 15.3871 13.9604 15.0177C13.9969 14.639 13.9744 14.3213 13.9708 14.2918L13.9706 14.2902C13.958 14.1939 13.9107 14.1055 13.8377 14.0415C13.7647 13.9775 13.671 13.9422 13.5739 13.9422C13.5739 13.9422 13.5738 13.9422 13.5738 13.9422H12.9745L15.4884 9.00522L16.6895 10.8485C15.6665 11.6536 15.0051 12.9008 15.0051 14.303C15.0051 16.7295 16.9786 18.703 19.4051 18.703C21.8315 18.703 23.8051 16.7295 23.8051 14.303C23.8051 11.8766 21.8315 9.90303 19.4051 9.90303C18.6686 9.90303 17.9761 10.0879 17.3664 10.4089L13.9283 4.70303H18.1931C18.1656 4.85483 18.1059 5.02542 17.9834 5.16614C17.8009 5.37526 17.4881 5.50303 17.0051 5.50303C16.899 5.50303 16.7972 5.54518 16.7222 5.62019C16.6472 5.6952 16.6051 5.79695 16.6051 5.90303C16.6051 6.00912 16.6472 6.11086 16.7222 6.18587C16.7972 6.26089 16.899 6.30303 17.0051 6.30303C17.6782 6.30303 18.2231 6.10887 18.5863 5.692L18.5863 5.69195C18.8528 5.38584 18.956 5.03078 18.9935 4.75635C19.0305 4.4862 19.0058 4.28117 19.0012 4.24864M13.2057 3.90303C13.2059 3.90303 13.2062 3.90304 13.2065 3.90304L13.2051 4.10303V3.90303H13.2057ZM13.2057 3.90303H18.6051H18.6052C18.7018 3.9031 18.7952 3.93814 18.8679 4.00166C18.9407 4.06519 18.9881 4.15291 19.0012 4.24864M19.0012 4.24864L18.8031 4.27583M19.0012 4.24864C19.0011 4.2481 19.0011 4.24762 19.001 4.24718L18.8031 4.27583M18.8031 4.27583C18.8075 4.30623 18.9007 5.02623 18.4355 5.56063L18.6051 4.10303C18.6534 4.10307 18.7 4.12058 18.7364 4.15235C18.7728 4.18411 18.7965 4.22797 18.8031 4.27583ZM5.0206 14.5432C5.05497 14.6023 5.11084 14.6626 5.1906 14.6953C5.25886 14.7233 5.3341 14.7264 5.40606 14.7026H8.97436C8.75869 16.5193 7.24102 17.903 5.40508 17.903C3.42034 17.903 1.80508 16.2878 1.80508 14.303L5.19228 14.2434L5.01847 14.1445C5.01842 14.1446 5.01837 14.1447 5.01831 14.1448C4.98375 14.2056 4.96577 14.2744 4.96619 14.3444C4.96661 14.4143 4.98538 14.4828 5.0206 14.5432ZM5.0206 14.5432L5.19348 14.4426L5.02088 14.5437C5.02079 14.5435 5.02069 14.5434 5.0206 14.5432ZM19.7794 14.1238L17.799 11.0851C18.2963 10.8344 18.8463 10.7031 19.4051 10.703C21.3898 10.703 23.0051 12.3183 23.0051 14.303C23.0051 16.2878 21.3898 17.903 19.4051 17.903C17.4203 17.903 15.8051 16.2878 15.8051 14.303C15.8051 13.183 16.3214 12.1826 17.1285 11.5216L19.1091 14.5606L19.1095 14.5612C19.1676 14.6497 19.2583 14.7115 19.3618 14.7333C19.4653 14.7552 19.5732 14.7352 19.662 14.6778L19.6633 14.677C19.7517 14.6189 19.8136 14.5282 19.8354 14.4247C19.8572 14.3213 19.8373 14.2133 19.7799 14.1245L19.7794 14.1238ZM6.94165 6.1676L6.94181 6.16812L6.94165 6.1676ZM14.7221 8.70303L12.2931 13.5156L9.41794 8.70303H14.7221ZM8.74762 9.18539L11.6142 13.9422H9.78531C9.73186 13.2943 9.53525 12.6655 9.20872 12.1015C8.882 11.5372 8.43422 11.0534 7.89854 10.6844L8.74762 9.18539ZM8.5171 12.5029C8.77281 12.945 8.93106 13.4357 8.98228 13.9422H6.05264L7.5025 11.383C7.91554 11.6798 8.26162 12.0613 8.5171 12.5029ZM6.90464 10.8158C6.96615 10.8424 7.02684 10.8706 7.08668 10.9002L6.98792 11.0745C6.92796 11.045 6.86712 11.0171 6.80545 10.9909L6.90464 10.8158ZM8.99268 14.5026H9.19308C9.18895 14.5698 9.18314 14.6365 9.17569 14.7026L8.99268 14.5026Z" fill="#0B6FC5" stroke="#0B6FC5" stroke-width="0.4"/>
</g>
<defs>
<clipPath id="clip0_52127_318858-018634">
<rect width="24" height="24" fill="white" transform="translate(0.405273 0.103027)"/>
</clipPath>
</defs>
</svg>
