<svg width="24" height="24" viewBox="0 0 24 24" fill="none" xmlns="http://www.w3.org/2000/svg">
<path d="M21.7536 17.5706L18.9212 14.7465C19.835 13.5823 20.3309 12.1446 20.329 10.6645C20.329 9.3464 19.9382 8.05789 19.2059 6.96191C18.4736 5.86594 17.4327 5.01173 16.2149 4.50731C14.9971 4.00289 13.6571 3.87091 12.3643 4.12806C11.0715 4.38521 9.88404 5.01995 8.952 5.952C8.01995 6.88404 7.38521 8.07155 7.12806 9.36434C6.87091 10.6571 7.00289 11.9971 7.50731 13.2149C8.01173 14.4327 8.86594 15.4736 9.96191 16.2059C11.0579 16.9382 12.3464 17.329 13.6645 17.329C15.1446 17.3309 16.5823 16.835 17.7465 15.9212L20.5706 18.7536C20.6481 18.8317 20.7402 18.8936 20.8417 18.9359C20.9432 18.9782 21.0521 19 21.1621 19C21.2721 19 21.381 18.9782 21.4825 18.9359C21.584 18.8936 21.6761 18.8317 21.7536 18.7536C21.8317 18.6761 21.8936 18.584 21.9359 18.4825C21.9782 18.381 22 18.2721 22 18.1621C22 18.0521 21.9782 17.9432 21.9359 17.8417C21.8936 17.7402 21.8317 17.6481 21.7536 17.5706V17.5706ZM8.66613 10.6645C8.66613 9.67593 8.95928 8.70955 9.50851 7.88757C10.0577 7.06558 10.8384 6.42493 11.7517 6.04661C12.6651 5.6683 13.6701 5.56931 14.6397 5.76218C15.6093 5.95504 16.4999 6.43109 17.1989 7.13013C17.898 7.82916 18.374 8.71979 18.5669 9.68938C18.7597 10.659 18.6607 11.664 18.2824 12.5773C17.9041 13.4907 17.2635 14.2713 16.4415 14.8205C15.6195 15.3698 14.6531 15.6629 13.6645 15.6629C12.3389 15.6629 11.0675 15.1363 10.1301 14.1989C9.19275 13.2615 8.66613 11.9902 8.66613 10.6645Z" fill="#0B6FC5"/>
<path d="M2 10.25C1.58579 10.25 1.25 10.5858 1.25 11C1.25 11.4142 1.58579 11.75 2 11.75L2 10.25ZM4 11.75C4.41421 11.75 4.75 11.4142 4.75 11C4.75 10.5858 4.41421 10.25 4 10.25L4 11.75ZM2 11.75L4 11.75L4 10.25L2 10.25L2 11.75Z" fill="#0B6FC5"/>
<path d="M2 14.25C1.58579 14.25 1.25 14.5858 1.25 15C1.25 15.4142 1.58579 15.75 2 15.75L2 14.25ZM6 15.75C6.41421 15.75 6.75 15.4142 6.75 15C6.75 14.5858 6.41421 14.25 6 14.25L6 15.75ZM2 15.75L6 15.75L6 14.25L2 14.25L2 15.75Z" fill="#0B6FC5"/>
<path d="M2 18.25C1.58579 18.25 1.25 18.5858 1.25 19C1.25 19.4142 1.58579 19.75 2 19.75L2 18.25ZM10 19.75C10.4142 19.75 10.75 19.4142 10.75 19C10.75 18.5858 10.4142 18.25 10 18.25L10 19.75ZM2 19.75L10 19.75L10 18.25L2 18.25L2 19.75Z" fill="#0B6FC5"/>
</svg>
