<svg width="25" height="25" viewBox="0 0 25 25" fill="none" xmlns="http://www.w3.org/2000/svg">
<path d="M19.7178 19.4241H5.09277C4.62695 19.4241 4.22925 19.2591 3.89966 18.9291C3.57007 18.5991 3.40527 18.2009 3.40527 17.7345V6.47184C3.40527 6.00543 3.57007 5.60723 3.89966 5.27723C4.22925 4.94723 4.62695 4.78223 5.09277 4.78223H19.7178C20.1836 4.78223 20.5813 4.94723 20.9109 5.27723C21.2405 5.60723 21.4053 6.00543 21.4053 6.47184V17.7345C21.4053 18.2009 21.2405 18.5991 20.9109 18.9291C20.5813 19.2591 20.1836 19.4241 19.7178 19.4241ZM13.8049 5.62703C13.572 5.62703 13.3743 5.70843 13.2117 5.87123C13.0491 6.03403 12.9678 6.23203 12.9678 6.46524C12.9678 6.69844 13.0491 6.89864 13.2117 7.06584C13.3743 7.23304 13.5742 7.31664 13.8115 7.31664C14.0488 7.31664 14.2488 7.23304 14.4114 7.06584C14.574 6.89864 14.6553 6.69844 14.6553 6.46524C14.6553 6.23203 14.5718 6.03403 14.4048 5.87123C14.2378 5.70843 14.0378 5.62703 13.8049 5.62703ZM16.3362 5.62703C16.1033 5.62703 15.9055 5.70843 15.7429 5.87123C15.5803 6.03403 15.499 6.23203 15.499 6.46524C15.499 6.69844 15.5803 6.89864 15.7429 7.06584C15.9055 7.23304 16.1033 7.31664 16.3362 7.31664C16.5691 7.31664 16.769 7.23304 16.936 7.06584C17.103 6.89864 17.1865 6.69844 17.1865 6.46524C17.1865 6.23203 17.103 6.03403 16.936 5.87123C16.769 5.70843 16.5691 5.62703 16.3362 5.62703ZM18.874 5.62703C18.6367 5.62703 18.4368 5.70843 18.2742 5.87123C18.1116 6.03403 18.0303 6.23203 18.0303 6.46524C18.0303 6.69844 18.1116 6.89864 18.2742 7.06584C18.4368 7.23304 18.6367 7.31664 18.874 7.31664C19.1113 7.31664 19.3113 7.23304 19.4739 7.06584C19.6365 6.89864 19.7178 6.69844 19.7178 6.46524C19.7178 6.23203 19.6365 6.03403 19.4739 5.87123C19.3113 5.70843 19.1113 5.62703 18.874 5.62703ZM19.7178 9.00625C19.7178 8.76865 19.6343 8.56845 19.4673 8.40565C19.3003 8.24285 19.1025 8.16145 18.874 8.16145H5.93652C5.69922 8.16145 5.49927 8.24285 5.33667 8.40565C5.17407 8.56845 5.09277 8.76865 5.09277 9.00625V16.8897C5.09277 17.1273 5.17407 17.3275 5.33667 17.4903C5.49927 17.6531 5.69922 17.7345 5.93652 17.7345H18.874C19.1025 17.7345 19.3003 17.6531 19.4673 17.4903C19.6343 17.3275 19.7178 17.1273 19.7178 16.8897V9.00625ZM12.3921 14.7747C12.3745 14.8715 12.335 14.9507 12.2734 15.0123L11.6802 15.6063C11.5923 15.6943 11.4824 15.7339 11.3506 15.7251C11.2188 15.7339 11.1089 15.6943 11.021 15.6063L10.4277 15.0123C10.3838 14.9683 10.3486 14.9199 10.3223 14.8671L8.30518 12.8607C8.22607 12.7815 8.18652 12.6825 8.18652 12.5637C8.18652 12.4449 8.22607 12.3459 8.30518 12.2667L8.91162 11.6595C8.99072 11.5803 9.0896 11.5407 9.20825 11.5407C9.3269 11.5407 9.42578 11.5803 9.50488 11.6595L11.311 13.4415L15.2925 9.12505C15.3804 9.04585 15.4836 9.00625 15.6023 9.00625C15.7209 9.00625 15.8198 9.04585 15.8989 9.12505L16.5054 9.73225C16.5845 9.81145 16.624 9.91045 16.624 10.0293C16.624 10.1481 16.5845 10.2471 16.5054 10.3263L12.3921 14.7747Z" fill="#0B6FC5"/>
</svg>
