<svg width="25" height="25" viewBox="0 0 25 25" fill="none" xmlns="http://www.w3.org/2000/svg">
<path d="M19.9053 15.103H15.4053V13.603H19.9053V15.103Z" fill="#0B6FC5"/>
<path d="M22.9053 21.103H18.4053V19.603H22.9053V21.103Z" fill="#0B6FC5"/>
<path d="M21.4053 18.103H16.9053V16.603H21.4053V18.103Z" fill="#0B6FC5"/>
<path d="M13.1578 15.103C13.1525 14.4702 12.9837 13.8495 12.6678 13.3011C12.3519 12.7527 11.8996 12.2953 11.3548 11.9733L16.9056 2.35303L15.6081 1.60303L9.92531 11.4475C9.22789 11.2917 8.50253 11.3133 7.81558 11.5102C7.12863 11.7071 6.50202 12.0731 5.99306 12.5748C3.18506 15.283 3.40256 21.6145 3.41306 21.883C3.42081 22.0767 3.50324 22.2598 3.64306 22.3941C3.78288 22.5283 3.96924 22.6032 4.16306 22.603H15.4063C15.5637 22.603 15.7171 22.5535 15.8448 22.4615C15.9725 22.3694 16.068 22.2395 16.1178 22.0902C16.1676 21.9409 16.1691 21.7797 16.1222 21.6294C16.0753 21.4791 15.9822 21.3475 15.8563 21.253C13.2013 19.261 13.1578 15.1435 13.1578 15.103ZM9.35306 12.8508C9.95334 12.8574 10.528 13.0952 10.9574 13.5147C11.3868 13.9342 11.6379 14.5031 11.6586 15.103C11.6586 15.1315 11.6601 15.259 11.6713 15.4548L7.24631 13.4868C7.53779 13.2464 7.87415 13.0664 8.23582 12.9572C8.5975 12.848 8.97727 12.8119 9.35306 12.8508ZM11.9931 21.103C11.3936 20.4926 11.0115 19.702 10.9056 18.853H9.40556C9.45928 19.6512 9.70861 20.424 10.1316 21.103H8.46431C8.15587 20.1297 7.96822 19.1221 7.90556 18.103H6.40556C6.45393 19.1191 6.62132 20.126 6.90431 21.103H4.90556C4.92881 19.726 5.12306 16.684 6.25781 14.6883L11.9076 17.2008C12.179 18.6103 12.7577 19.9426 13.6026 21.103H11.9931Z" fill="#0B6FC5"/>
</svg>
