<svg width="25" height="25" viewBox="0 0 25 25" fill="none" xmlns="http://www.w3.org/2000/svg">
<path d="M13.4051 2.13306V4.15306C17.7951 4.69306 20.9051 8.68306 20.3651 13.0731C19.9051 16.7131 17.0451 19.6031 13.4051 20.0331V22.0331C18.9051 21.4831 22.9051 16.6031 22.3551 11.1031C21.9051 6.35306 18.1351 2.60306 13.4051 2.13306V2.13306ZM11.4051 2.16306C9.45508 2.35306 7.59508 3.10306 6.07508 4.36306L7.50508 5.84306C8.62508 4.94306 9.97508 4.36306 11.4051 4.16306V2.16306V2.16306ZM4.66508 5.77306C3.41473 7.2904 2.64528 9.14614 2.45508 11.1031H4.45508C4.64508 9.68306 5.20508 8.33306 6.09508 7.20306L4.66508 5.77306ZM2.46508 13.1031C2.66508 15.0631 3.43508 16.9131 4.67508 18.4331L6.09508 17.0031C5.21201 15.8727 4.64903 14.5257 4.46508 13.1031H2.46508V13.1031ZM7.50508 18.4731L6.07508 19.8431C7.58986 21.1058 9.44435 21.8921 11.4051 22.1031V20.1031C9.98248 19.9191 8.63548 19.3561 7.50508 18.4731V18.4731ZM12.9051 7.10306V12.3531L17.4051 15.0231L16.6551 16.2531L11.4051 13.1031V7.10306H12.9051Z" fill="#0B6FC5"/>
</svg>
