<svg width="25" height="25" viewBox="0 0 25 25" fill="none" xmlns="http://www.w3.org/2000/svg">
<path d="M15.4776 4.10306C12.7489 4.10306 10.55 6.30201 10.55 9.03068C10.55 9.17543 10.5728 9.3713 10.5888 9.55054L5.3144 14.8243C5.0263 15.1106 4.79765 15.451 4.64162 15.8259C4.4856 16.2009 4.40527 16.603 4.40527 17.0091C4.40527 17.4152 4.4856 17.8174 4.64162 18.1923C4.79765 18.5673 5.0263 18.9077 5.3144 19.1939C5.60064 19.482 5.94103 19.7106 6.31599 19.8667C6.69095 20.0227 7.09306 20.103 7.49918 20.103C7.90531 20.103 8.30742 20.0227 8.68238 19.8667C9.05733 19.7106 9.39773 19.482 9.68397 19.1939L14.9578 13.9195C15.1364 13.9355 15.3335 13.9583 15.4776 13.9583C18.2063 13.9583 20.4052 11.7594 20.4052 9.03068C20.4085 8.23671 20.2097 7.45498 19.8275 6.75905C19.6355 6.40399 19.1506 6.33921 18.8654 6.62477L16.2088 9.26105L15.2466 8.29893L17.8829 5.64294C18.1687 5.35775 18.1045 4.8721 17.7492 4.68021C17.053 4.29876 16.2715 4.10019 15.4776 4.10306ZM15.4776 5.33496C15.777 5.33496 15.9999 5.46431 16.266 5.52776L13.9377 7.85606L13.9277 7.8661C13.69 8.10382 13.6945 8.49062 13.9377 8.7227L15.7856 10.5706C16.018 10.8137 16.405 10.8179 16.6425 10.5797L16.6516 10.5706L18.9812 8.24226C19.0446 8.50835 19.1733 8.73133 19.1733 9.03068C19.1733 11.1064 17.5534 12.7264 15.4776 12.7264C15.2312 12.7264 15.0341 12.7264 14.8801 12.6876L14.5537 12.5915L14.3036 12.8422L8.81732 18.3285C8.0597 19.0861 6.93867 19.0861 6.18105 18.3285L6.16134 18.3088C5.42219 17.5512 5.42835 16.4424 6.17981 15.691L11.6661 10.2053L11.9168 9.95522L11.8195 9.62877C11.7825 9.47478 11.7813 9.27768 11.7813 9.0313C11.7813 6.95554 13.4019 5.33496 15.4776 5.33496Z" fill="#0B6FC5"/>
</svg>
