<svg width="25" height="25" viewBox="0 0 25 25" fill="none" xmlns="http://www.w3.org/2000/svg">
<path fill-rule="evenodd" clip-rule="evenodd" d="M13.5352 2.20923C13.5352 2.00093 13.4525 1.80116 13.3052 1.65387C13.1579 1.50658 12.9581 1.42383 12.7498 1.42383C12.5415 1.42383 12.3417 1.50658 12.1945 1.65387C12.0472 1.80116 11.9644 2.00093 11.9644 2.20923V3.51823H8.93397C8.61458 3.51823 8.30146 3.602 8.02396 3.75908L6.67516 4.53087C6.63531 4.55367 6.59017 4.56559 6.54426 4.56543H4.20482C3.99652 4.56543 3.79675 4.64818 3.64946 4.79547C3.50216 4.94276 3.41942 5.14253 3.41942 5.35083C3.41942 5.55913 3.50216 5.7589 3.64946 5.90619C3.79675 6.05348 3.99652 6.13623 4.20482 6.13623H4.65302L2.44133 11.0497C2.37601 11.1951 2.35645 11.3568 2.38525 11.5136C2.41406 11.6703 2.48986 11.8146 2.6026 11.9272V11.9283L2.6047 11.9304L2.60679 11.9325L2.61307 11.9388L2.62983 11.9545L2.67695 11.9964C2.89719 12.181 3.13829 12.3391 3.39533 12.4676C4.05476 12.7891 4.78024 12.9519 5.51382 12.943C6.43535 12.943 7.14326 12.7126 7.6323 12.4676C7.88934 12.3391 8.13044 12.1809 8.35068 11.9964L8.39781 11.9545L8.41456 11.9388L8.42084 11.9325L8.42294 11.9304L8.42399 11.9283L7.87002 11.3722L8.42503 11.9272C8.53777 11.8146 8.61358 11.6703 8.64238 11.5136C8.67119 11.3568 8.65163 11.1951 8.5863 11.0497L6.37462 6.13623H6.54426C6.86366 6.13623 7.17677 6.05245 7.45428 5.89537L8.80412 5.12359C8.84366 5.10097 8.88842 5.08905 8.93397 5.08903H11.9644V21.0374H9.34642C9.13812 21.0374 8.93835 21.1202 8.79106 21.2675C8.64376 21.4148 8.56102 21.6145 8.56102 21.8228C8.56102 22.0311 8.64376 22.2309 8.79106 22.3782C8.93835 22.5255 9.13812 22.6082 9.34642 22.6082H16.1532C16.3615 22.6082 16.5613 22.5255 16.7086 22.3782C16.8559 22.2309 16.9386 22.0311 16.9386 21.8228C16.9386 21.6145 16.8559 21.4148 16.7086 21.2675C16.5613 21.1202 16.3615 21.0374 16.1532 21.0374H13.5352V5.08903H16.5657C16.6112 5.08905 16.656 5.10097 16.6955 5.12359L18.0464 5.89433C18.3229 6.0535 18.636 6.13623 18.9554 6.13623H19.125L16.9133 11.0497C16.848 11.1951 16.8284 11.3568 16.8573 11.5136C16.8861 11.6703 16.9619 11.8146 17.0746 11.9272V11.9283L17.0767 11.9304L17.0788 11.9325L17.0851 11.9388L17.1018 11.9545L17.149 11.9964C17.3692 12.1809 17.6103 12.3391 17.8673 12.4676C18.5268 12.7891 19.2522 12.9519 19.9858 12.943C20.9074 12.943 21.6153 12.7126 22.1043 12.4676C22.3614 12.3391 22.6025 12.181 22.8227 11.9964L22.8698 11.9545L22.8803 11.944L22.8866 11.9388L22.8928 11.9325L22.8949 11.9304L22.896 11.9283L22.342 11.3722L22.897 11.9272C23.0098 11.8146 23.0856 11.6703 23.1144 11.5136C23.1432 11.3568 23.1236 11.1951 23.0583 11.0497L20.8477 6.13623H21.2948C21.5031 6.13623 21.7029 6.05348 21.8502 5.90619C21.9975 5.7589 22.0802 5.55913 22.0802 5.35083C22.0802 5.14253 21.9975 4.94276 21.8502 4.79547C21.7029 4.64818 21.5031 4.56543 21.2948 4.56543H18.9554C18.9098 4.5654 18.8651 4.55349 18.8255 4.53087L17.4746 3.76013C17.1982 3.60196 16.8852 3.51859 16.5667 3.51823H13.5352V2.20923ZM4.14722 11.0863C4.44567 11.2277 4.89911 11.3722 5.51382 11.3722C6.12852 11.3722 6.58196 11.2277 6.88041 11.0863L5.51382 8.04946L4.14722 11.0863ZM18.6192 11.0863C18.9177 11.2277 19.3711 11.3722 19.9858 11.3722C20.6005 11.3722 21.054 11.2277 21.3524 11.0863L19.9858 8.04946L18.6192 11.0863Z" fill="#0B6FC5"/>
</svg>
