<svg width="25" height="25" viewBox="0 0 25 25" fill="none" xmlns="http://www.w3.org/2000/svg">
<path d="M3.75 12.766C3.75 12.3518 4.08579 12.016 4.5 12.016H12C12.4142 12.016 12.75 12.3518 12.75 12.766C12.75 13.1802 12.4142 13.516 12 13.516H4.5C4.08579 13.516 3.75 13.1802 3.75 12.766Z" fill="#0B6FC5"/>
<path d="M2.25 9.01599C2.25 8.60178 2.58579 8.26599 3 8.26599H9C9.41421 8.26599 9.75 8.60178 9.75 9.01599C9.75 9.4302 9.41421 9.76599 9 9.76599H3C2.58579 9.76599 2.25 9.4302 2.25 9.01599Z" fill="#0B6FC5"/>
<path d="M23.189 12.4705L20.939 7.22049C20.8813 7.08555 20.7852 6.97054 20.6626 6.88974C20.5401 6.80894 20.3965 6.76591 20.2498 6.76599H17.9998V5.26599C17.9998 5.06708 17.9207 4.87631 17.7801 4.73566C17.6394 4.59501 17.4487 4.51599 17.2498 4.51599H5.99976C5.58555 4.51599 5.24976 4.85178 5.24976 5.26599C5.24976 5.6802 5.58555 6.01599 5.99976 6.01599H16.4998V15.433C16.158 15.6314 15.8589 15.8956 15.6198 16.2102C15.3806 16.5248 15.2061 16.8836 15.1063 17.266H10.3933C10.2107 16.559 9.77659 15.9428 9.17226 15.533C8.56792 15.1232 7.83487 14.9479 7.11051 15.0399C6.38615 15.1319 5.72021 15.4849 5.23752 16.0328C4.75483 16.5807 4.48853 17.2858 4.48853 18.016C4.48853 18.7462 4.75483 19.4513 5.23752 19.9992C5.72021 20.547 6.38615 20.9001 7.11051 20.9921C7.83487 21.0841 8.56792 20.9088 9.17226 20.4989C9.77659 20.0891 10.2107 19.473 10.3933 18.766H15.1063C15.2694 19.4097 15.6425 19.9806 16.1666 20.3884C16.6907 20.7962 17.3357 21.0176 17.9998 21.0176C18.6638 21.0176 19.3089 20.7962 19.8329 20.3884C20.357 19.9806 20.7301 19.4097 20.8933 18.766H22.4998C22.6987 18.766 22.8894 18.687 23.0301 18.5463C23.1707 18.4057 23.2498 18.2149 23.2498 18.016V12.766C23.2498 12.6644 23.2291 12.5638 23.189 12.4705ZM7.49976 19.516C7.20309 19.516 6.91308 19.428 6.66641 19.2632C6.41973 19.0984 6.22747 18.8641 6.11394 18.59C6.00041 18.3159 5.97071 18.0143 6.02858 17.7234C6.08646 17.4324 6.22932 17.1651 6.4391 16.9553C6.64888 16.7456 6.91616 16.6027 7.20713 16.5448C7.4981 16.4869 7.7997 16.5166 8.07379 16.6302C8.34788 16.7437 8.58215 16.936 8.74697 17.1826C8.91179 17.4293 8.99976 17.7193 8.99976 18.016C8.99937 18.4137 8.8412 18.795 8.55998 19.0762C8.27877 19.3574 7.89747 19.5156 7.49976 19.516ZM17.9998 8.26599H19.7548L21.3628 12.016H17.9998V8.26599ZM17.9998 19.516C17.7031 19.516 17.4131 19.428 17.1664 19.2632C16.9197 19.0984 16.7275 18.8641 16.6139 18.59C16.5004 18.3159 16.4707 18.0143 16.5286 17.7234C16.5865 17.4324 16.7293 17.1651 16.9391 16.9553C17.1489 16.7456 17.4162 16.6027 17.7071 16.5448C17.9981 16.4869 18.2997 16.5166 18.5738 16.6302C18.8479 16.7437 19.0821 16.936 19.247 17.1826C19.4118 17.4293 19.4998 17.7193 19.4998 18.016C19.4994 18.4137 19.3412 18.795 19.06 19.0762C18.7788 19.3574 18.3975 19.5156 17.9998 19.516ZM21.7498 17.266H20.8933C20.7281 16.6236 20.3543 16.0541 19.8307 15.6469C19.307 15.2397 18.6631 15.0178 17.9998 15.016V13.516H21.7498V17.266Z" fill="#0B6FC5"/>
</svg>
