<svg width="25" height="25" viewBox="0 0 25 25" fill="none" xmlns="http://www.w3.org/2000/svg">
<path d="M3.40527 4.60303V6.10303H19.9053V18.103H9.40527V19.603H22.9053V18.103H21.4053V4.60303H3.40527ZM6.40677 6.85303C5.61184 6.85579 4.85023 7.1727 4.28798 7.73467C3.72573 8.29664 3.40844 9.05809 3.40527 9.85303C3.40527 11.5023 4.75827 12.853 6.40677 12.853C7.20131 12.8499 7.96238 12.5327 8.52407 11.9708C9.08576 11.4088 9.40251 10.6476 9.40527 9.85303C9.40527 8.20528 8.05377 6.85303 6.40677 6.85303ZM10.9053 7.60303V9.10303H14.6553V7.60303H10.9053ZM16.1553 7.60303V9.10303H18.4053V7.60303H16.1553ZM6.40677 8.35303C7.24227 8.35303 7.90527 9.01528 7.90527 9.85303C7.90527 10.693 7.24302 11.353 6.40677 11.353C5.56677 11.353 4.90527 10.693 4.90527 9.85303C4.90527 9.01528 5.56752 8.35303 6.40677 8.35303ZM10.9053 10.603V12.103H18.4053V10.603H10.9053ZM3.40527 13.603V19.603H4.90527V15.103H7.15527V19.603H8.65527V15.5965L10.2033 16.4155C10.642 16.648 11.1693 16.6473 11.6073 16.4155V16.417L14.2548 15.0168L13.555 13.6893L10.9068 15.0895L8.58477 13.864C8.26071 13.6928 7.89978 13.6032 7.53327 13.603H3.40527Z" fill="#0B6FC5"/>
</svg>
