<svg width="20" height="20" viewBox="0 0 20 20" fill="none" xmlns="http://www.w3.org/2000/svg">
<path fill-rule="evenodd" clip-rule="evenodd" d="M11.2708 2.24667C11.6241 1.89312 12.1971 1.89302 12.5505 2.24645L16.963 6.65888C17.3162 7.01211 17.3164 7.58474 16.9634 7.93822C16.7209 8.18106 16.3619 8.26583 16.0364 8.15712L15.8993 8.11135L11.1812 3.41804C11.1605 3.39746 11.1386 3.37888 11.1157 3.36228L11.0523 3.17209C10.9441 2.84714 11.0287 2.48894 11.2708 2.24667ZM10.382 4.16964L7.24573 7.30539L11.9032 11.9628L12.9453 10.9207L16.5669 14.543C16.8527 14.8288 17.316 14.8288 17.6017 14.543C17.8874 14.2573 17.8874 13.7941 17.6017 13.5083L13.9793 9.88594L15.0509 8.81565L10.407 4.19627C10.3983 4.18761 10.39 4.17873 10.382 4.16964ZM6.37173 7.98375L11.2254 12.8375L11.2647 12.9947C11.3444 13.3133 11.251 13.6504 11.0186 13.8826C10.6536 14.2474 10.0619 14.2473 9.69694 13.8823L5.32701 9.5124C4.96187 9.14726 4.96197 8.55522 5.32724 8.19021C5.55932 7.95829 5.896 7.86503 6.21433 7.94447L6.37173 7.98375Z" fill="#D75DC3"/>
<path d="M18.3655 15.0623L18.1248 15.2965C17.7365 15.6743 17.1181 15.6742 16.7299 15.2963L14.7162 13.3359C14.3106 12.9411 14.3133 12.2887 14.7221 11.8972L14.9167 11.7108C15.2991 11.3445 15.9008 11.3398 16.2888 11.7002L18.3486 13.6128C18.7679 14.0021 18.7756 14.6633 18.3655 15.0623Z" fill="#D75DC3"/>
<rect x="1.87695" y="16.2953" width="9.19471" height="1.68605" rx="0.843024" fill="#D75DC3"/>
</svg>
