<svg width="57" height="57" viewBox="0 0 57 57" fill="none" xmlns="http://www.w3.org/2000/svg">
<path opacity="0.3" d="M28.2904 56.5807C12.6475 56.5807 0 43.9333 0 28.2904C0 12.6475 12.6475 0 28.2904 0C43.9333 0 56.5808 12.6475 56.5808 28.2904C56.5808 43.9333 43.7669 56.5807 28.2904 56.5807Z" fill="#C4CDDF"/>
<path d="M38.7937 12.8103C38.7937 15.4669 36.5293 17.6205 33.7357 17.6205C30.9419 17.6205 28.6772 15.4669 28.6772 12.8103C28.6772 10.1536 30.9419 8 33.7357 8C36.5293 8 38.7937 10.1536 38.7937 12.8103Z" fill="#C4CDDF"/>
<path d="M13.7254 17.6571C13.1744 17.5745 12.9217 18.319 13.4091 18.5889L24.9628 24.9879L4.32849 50.7028C4.09753 50.9906 4.48925 51.3605 4.76335 51.1133L36.5359 22.4696C37.0646 21.993 36.8006 21.1161 36.0966 21.0106L13.7254 17.6571Z" fill="#C4CDDF"/>
<path d="M32.2414 29.6656L26.8962 34.4905L30.5045 39.0206L20.1592 44.6829C19.8467 44.8539 20.0397 45.3301 20.3831 45.2352L38.4072 40.2544C39.0844 40.0673 39.3626 39.2586 38.9438 38.6945L32.2414 29.6656Z" fill="#C4CDDF"/>
</svg>
