<svg width="20" height="20" viewBox="0 0 20 20" fill="none" xmlns="http://www.w3.org/2000/svg">
<path d="M8.42417 2.56228C8.55116 2.24842 8.76899 1.97963 9.04973 1.79037C9.33047 1.60111 9.66133 1.5 9.99991 1.5C10.3385 1.5 10.6694 1.60111 10.9501 1.79037C11.2308 1.97963 11.4487 2.24842 11.5756 2.56228C12.8325 2.90793 13.941 3.65659 14.7312 4.69329C15.5213 5.73 15.9492 6.99741 15.9493 8.30088V12.2929L17.5063 14.6285C17.5917 14.7565 17.6408 14.9052 17.6482 15.0589C17.6557 15.2126 17.6213 15.3655 17.5487 15.5011C17.4761 15.6368 17.3681 15.7502 17.2361 15.8293C17.1041 15.9083 16.9531 15.9501 16.7992 15.9501H12.9448C12.8425 16.6581 12.4885 17.3056 11.9476 17.7739C11.4068 18.2422 10.7153 18.5 9.99991 18.5C9.28449 18.5 8.59302 18.2422 8.05217 17.7739C7.51132 17.3056 7.1573 16.6581 7.05497 15.9501H3.20062C3.04675 15.9501 2.89576 15.9083 2.76376 15.8293C2.63176 15.7502 2.5237 15.6368 2.45111 15.5011C2.37852 15.3655 2.34412 15.2126 2.35159 15.0589C2.35905 14.9052 2.4081 14.7565 2.4935 14.6285L4.05053 12.2929V8.30088C4.05053 5.56077 5.90334 3.25241 8.42417 2.56228ZM8.44613 15.9501C8.60845 16.4783 8.84272 16.8012 9.09543 16.98C9.31075 17.1324 9.73657 17.2142 10.0003 17.2142C10.2641 17.2142 10.7206 17.1641 11.0433 16.9358C11.4529 16.646 11.5606 16.1988 11.6484 15.9501H8.44613ZM9.99991 3.56597C8.87286 3.56597 7.42034 4.10223 6.6234 4.89918C5.82645 5.69613 5.37873 7.17383 5.37873 8.30088V12.5504C5.37877 12.7183 5.32908 12.8825 5.23594 13.0221L4.05053 14.6285H15.9493L14.7553 13.0221C14.6624 12.8824 14.613 12.7182 14.6133 12.5504V8.30088C14.6133 7.17383 14.1656 5.69613 13.3687 4.89918C12.5717 4.10223 11.127 3.56597 9.99991 3.56597Z" fill="#606483"/>
</svg>
