<svg width="22" height="22" viewBox="0 0 22 22" fill="none" xmlns="http://www.w3.org/2000/svg">
<path d="M3.00437 6.01164L3.71955 5.64878C4.39098 5.30879 5.22007 5.5308 5.65921 6.16687L6.53149 7.43443C6.91128 7.98634 6.901 8.71405 6.50441 9.23335L5.40159 10.6785C5.62436 11.3922 6.0187 12.0646 6.5832 12.6959C7.12194 13.3081 7.78301 13.8114 8.52727 14.1761L10.0351 13.3868C10.6073 13.0882 11.314 13.1985 11.7887 13.66L12.8967 14.7349C13.4495 15.2719 13.5348 16.1278 13.096 16.7382L12.6255 17.3924C12.1574 18.0435 11.3746 18.3851 10.5711 18.2879C8.67364 18.0596 6.717 16.7521 4.70046 14.3655C2.68102 11.9753 1.71402 9.81842 1.8007 7.8975C1.83698 7.08917 2.29445 6.37149 3.00437 6.01164Z" stroke="#606483" stroke-width="1.4" stroke-linejoin="round"/>
<path d="M13.3834 10.4091L13.3957 10.385L13.3834 10.4091ZM13.3834 10.4091L13.3752 10.4253M13.3834 10.4091L13.3752 10.4253M13.3834 10.4091L13.3976 10.4002L13.3834 10.4091ZM13.3752 10.4253L13.3988 10.4253L13.4213 10.4253M13.3752 10.4253L13.3577 10.4253L13.4213 10.4253M13.4213 10.4253L13.4214 10.4256M13.4213 10.4253L13.3573 10.4256H13.375H13.3988M13.4213 10.4253H13.4217L13.4031 10.3967L13.4213 10.4253ZM13.4214 10.4256H13.3988M13.4214 10.4256H13.4219L13.6647 10.8089M13.4214 10.4256L13.6647 10.8089M13.3988 10.4256L13.4197 10.8856M13.3988 10.4256L13.4197 10.8856M13.4197 10.8856C13.5072 10.8816 13.5918 10.8551 13.6647 10.8089M13.4197 10.8856C13.3323 10.8895 13.2453 10.8709 13.1681 10.8315L13.6647 10.8089M16.4468 8.34331C16.314 8.34331 16.1839 8.3811 16.0717 8.45228L13.6126 10.0129V9.04331C13.6126 8.65671 13.2992 8.34331 12.9126 8.34331C12.574 8.34331 12.2557 8.21493 12.0263 7.9965C11.798 7.77918 11.6766 7.49201 11.6766 7.2003V3.51428C11.6766 3.22256 11.798 2.93539 12.0263 2.71807C12.2557 2.49964 12.574 2.37126 12.9126 2.37126H18.7206C19.0593 2.37126 19.3775 2.49964 19.607 2.71807C19.8352 2.93539 19.9567 3.22256 19.9567 3.51428V7.2003C19.9567 7.49201 19.8352 7.77918 19.607 7.9965C19.3775 8.21493 19.0593 8.34331 18.7206 8.34331H16.4468Z" stroke="#606483" stroke-width="1.4" stroke-linecap="round" stroke-linejoin="round"/>
</svg>
