<svg width="20" height="20" viewBox="0 0 20 20" fill="none" xmlns="http://www.w3.org/2000/svg">
<path fill-rule="evenodd" clip-rule="evenodd" d="M9.95132 13.2849H3.83756V14.6182C3.83756 14.7951 3.76733 14.9646 3.6423 15.0897C3.51728 15.2147 3.34771 15.2849 3.1709 15.2849H2.50423C2.32742 15.2849 2.15785 15.2147 2.03283 15.0897C1.9078 14.9646 1.83757 14.7951 1.83757 14.6182V13.1002C1.44023 12.8689 1.1709 12.4436 1.1709 11.9516V8.61825C1.1709 8.35535 1.24861 8.09833 1.39428 7.87948C1.53994 7.66063 1.74705 7.48972 1.98956 7.38825L2.90156 4.65225C3.03386 4.2539 3.28833 3.90738 3.62882 3.66192C3.96931 3.41646 4.37849 3.28454 4.79823 3.28491H10.8769C11.2966 3.28454 11.7058 3.41646 12.0463 3.66192C12.3868 3.90738 12.6413 4.2539 12.7736 4.65225L13.2715 6.14595C12.8448 6.30354 12.4426 6.51175 12.0722 6.76328L11.5089 5.07425C11.4182 4.80091 11.1636 4.61825 10.8762 4.61825H4.79823C4.65825 4.61821 4.52182 4.66224 4.40826 4.74409C4.29471 4.82593 4.2098 4.94144 4.16556 5.07425L3.4289 7.28491H11.4158C10.312 8.30538 9.62082 9.76574 9.62082 11.3875C9.62082 12.0537 9.73742 12.6925 9.95132 13.2849ZM3.12145 11.2086C3.2428 11.259 3.37287 11.2849 3.50423 11.2849C3.76954 11.285 4.02401 11.1797 4.21167 10.9922C4.39933 10.8046 4.50481 10.5502 4.5049 10.2849C4.50499 10.0196 4.39968 9.76513 4.21214 9.57747C4.02461 9.38981 3.7702 9.28433 3.5049 9.28425C3.37353 9.2842 3.24344 9.31003 3.12206 9.36026C3.00068 9.4105 2.89038 9.48414 2.79746 9.577C2.70454 9.66986 2.63082 9.78011 2.5805 9.90146C2.53019 10.0228 2.50428 10.1529 2.50423 10.2842C2.50419 10.4156 2.53002 10.5457 2.58025 10.6671C2.63048 10.7885 2.70413 10.8988 2.79699 10.9917C2.88985 11.0846 3.0001 11.1583 3.12145 11.2086Z" fill="#D75DC3"/>
<circle r="3.62698" transform="matrix(-1 0 0 1 15.2065 11.3876)" stroke="#D75DC3" stroke-width="1.5"/>
<path d="M12.4707 14.5292L9.99999 16.9999" stroke="#D75DC3" stroke-width="1.5" stroke-linecap="round"/>
</svg>
