<svg width="201" height="201" viewBox="0 0 201 201" fill="none" xmlns="http://www.w3.org/2000/svg">
<path d="M0.405273 100.103C0.405273 44.8746 45.1768 0.103027 100.405 0.103027C155.634 0.103027 200.405 44.8746 200.405 100.103C200.405 155.331 155.634 200.103 100.405 200.103C45.1768 200.103 0.405273 155.331 0.405273 100.103Z" fill="#E6F8FF"/>
<g opacity="0.8">
<path fill-rule="evenodd" clip-rule="evenodd" d="M93.8327 105.355C95.1876 105.621 96.071 106.934 95.8056 108.289L82.2166 177.681C81.9512 179.036 80.6377 179.92 79.2827 179.654C77.9277 179.389 77.0444 178.076 77.3098 176.721L90.8988 107.328C91.1642 105.973 92.4777 105.09 93.8327 105.355Z" fill="#FFD18E"/>
<path fill-rule="evenodd" clip-rule="evenodd" d="M106.319 105.355C107.674 105.09 108.987 105.973 109.253 107.328L122.842 176.721C123.107 178.076 122.224 179.389 120.869 179.654C119.514 179.92 118.2 179.036 117.935 177.681L104.346 108.289C104.081 106.934 104.964 105.621 106.319 105.355Z" fill="#FFD18E"/>
<path d="M141.279 26.0525H58.873C56.1116 26.0525 53.873 28.2911 53.873 31.0525V137.857C53.873 140.618 56.1116 142.857 58.8731 142.857H141.279C144.04 142.857 146.279 140.618 146.279 137.857V31.0525C146.279 28.2911 144.04 26.0525 141.279 26.0525Z" fill="white"/>
<path fill-rule="evenodd" clip-rule="evenodd" d="M141.279 27.7192H58.873C57.0321 27.7192 55.5397 29.2115 55.5397 31.0525V137.857C55.5397 139.698 57.0321 141.19 58.8731 141.19H141.279C143.119 141.19 144.612 139.698 144.612 137.857V31.0525C144.612 29.2115 143.119 27.7192 141.279 27.7192ZM58.873 26.0525H141.279C144.04 26.0525 146.279 28.2911 146.279 31.0525V137.857C146.279 140.618 144.04 142.857 141.279 142.857H58.8731C56.1116 142.857 53.873 140.618 53.873 137.857V31.0525C53.873 28.2911 56.1116 26.0525 58.873 26.0525Z" fill="#9AE1FF"/>
<path d="M53.873 38.704V31.0525C53.873 28.2911 56.1116 26.0525 58.873 26.0525H66.8898L53.873 38.704Z" fill="#3CA4F3"/>
<path d="M146.279 38.704V31.0525C146.279 28.2911 144.04 26.0525 141.279 26.0525H133.405L146.279 38.704Z" fill="#3CA4F3"/>
<path d="M53.873 130.333V137.856C53.873 140.618 56.1116 142.856 58.873 142.856H66.8898L53.873 130.333Z" fill="#3CA4F3"/>
<path d="M146.279 130.333V137.856C146.279 140.618 144.04 142.856 141.279 142.856H133.405L146.279 130.333Z" fill="#3CA4F3"/>
<path fill-rule="evenodd" clip-rule="evenodd" d="M71.9463 47.7775C71.9463 46.857 72.6925 46.1108 73.613 46.1108H126.538C127.459 46.1108 128.205 46.857 128.205 47.7775C128.205 48.698 127.459 49.4442 126.538 49.4442H73.613C72.6925 49.4442 71.9463 48.698 71.9463 47.7775Z" fill="#E8505B"/>
<path fill-rule="evenodd" clip-rule="evenodd" d="M71.1133 58.7673C71.1133 57.3866 72.2326 56.2673 73.6133 56.2673H126.538C127.919 56.2673 129.038 57.3866 129.038 58.7673C129.038 60.1481 127.919 61.2673 126.538 61.2673H73.6133C72.2326 61.2673 71.1133 60.1481 71.1133 58.7673Z" fill="#CBE2FF"/>
<path fill-rule="evenodd" clip-rule="evenodd" d="M71.9463 82.026C71.9463 81.1056 72.6925 80.3594 73.613 80.3594H106.8C107.72 80.3594 108.466 81.1056 108.466 82.026C108.466 82.9465 107.72 83.6927 106.8 83.6927H73.613C72.6925 83.6927 71.9463 82.9465 71.9463 82.026Z" fill="#CBE2FF"/>
<path fill-rule="evenodd" clip-rule="evenodd" d="M72.7793 76.0592C72.7793 75.5989 73.1524 75.2258 73.6126 75.2258H100.075C100.535 75.2258 100.909 75.5989 100.909 76.0592C100.909 76.5194 100.535 76.8925 100.075 76.8925H73.6126C73.1524 76.8925 72.7793 76.5194 72.7793 76.0592Z" fill="#E8505B" fill-opacity="0.9"/>
<path fill-rule="evenodd" clip-rule="evenodd" d="M72.7793 71.5691C72.7793 71.1088 73.1524 70.7357 73.6126 70.7357H113.457C113.917 70.7357 114.29 71.1088 114.29 71.5691C114.29 72.0293 113.917 72.4024 113.457 72.4024H73.6126C73.1524 72.4024 72.7793 72.0293 72.7793 71.5691Z" fill="#E8505B" fill-opacity="0.9"/>
<path fill-rule="evenodd" clip-rule="evenodd" d="M72.1133 93.017C72.1133 92.1885 72.7849 91.517 73.6133 91.517H126.538C127.367 91.517 128.038 92.1885 128.038 93.017C128.038 93.8454 127.367 94.517 126.538 94.517H73.6133C72.7849 94.517 72.1133 93.8454 72.1133 93.017Z" fill="#CBE2FF"/>
<path fill-rule="evenodd" clip-rule="evenodd" d="M71.9473 107.969C71.9473 107.048 72.6935 106.302 73.6139 106.302H96.9296C97.8501 106.302 98.5963 107.048 98.5963 107.969C98.5963 108.889 97.8501 109.635 96.9296 109.635H73.6139C72.6935 109.635 71.9473 108.889 71.9473 107.969Z" fill="#C4CDDF"/>
<path fill-rule="evenodd" clip-rule="evenodd" d="M104.79 107.969C104.79 107.048 105.536 106.302 106.457 106.302H129.772C130.693 106.302 131.439 107.048 131.439 107.969C131.439 108.889 130.693 109.635 129.772 109.635H106.457C105.536 109.635 104.79 108.889 104.79 107.969Z" fill="#C4CDDF"/>
<path d="M119.483 86.896C122.736 86.896 125.372 84.2617 125.372 81.0121C125.372 77.7626 122.736 75.1283 119.483 75.1283C116.231 75.1283 113.594 77.7626 113.594 81.0121C113.594 84.2617 116.231 86.896 119.483 86.896Z" fill="#BED8FB"/>
</g>
</svg>
