<svg width="200" height="200" viewBox="0 0 200 200" fill="none" xmlns="http://www.w3.org/2000/svg">
<circle opacity="0.6" cx="103.226" cy="99.5062" r="90.3226" fill="#F9E4FB"/>
<path d="M44.7041 70.7366H28.7776C25.7471 70.7366 23.2969 68.2082 23.2969 65.0811V50.6762C23.2969 47.9482 25.1668 45.686 27.6492 45.1537C27.746 45.1205 27.8427 45.0872 27.9072 45.0207L28.7132 44.4551H37.3534L37.9337 45.0207H44.7041C47.7346 45.0207 50.1848 47.549 50.1848 50.6762V65.0811C50.1848 68.2082 47.7346 70.7366 44.7041 70.7366Z" fill="#F58AFE"/>
<path d="M28.2619 44.3559V37.037C28.2619 36.1388 29.2935 35.7063 29.9061 36.3384L38.095 44.7884C38.2562 44.9547 38.4496 45.0212 38.6753 45.0212H27.9072C28.1007 44.8882 28.2619 44.6553 28.2619 44.3559Z" fill="#D75DC3"/>
<path d="M59.0191 70.7371H43.2539C46.2844 70.7371 48.7347 68.2087 48.7347 65.0816V50.6767C48.7347 47.5495 46.2844 45.0211 43.2539 45.0211H59.0191C62.0497 45.0211 64.4999 47.5495 64.4999 50.6767V65.0816C64.4999 68.2087 62.0497 70.7371 59.0191 70.7371Z" fill="#D75DC3"/>
<path d="M71.8337 61.0923H56.8541C54.0038 61.0923 51.6992 63.4703 51.6992 66.4116V79.96C51.6992 82.5258 53.458 84.6535 55.7928 85.1542C55.8838 85.1854 55.9748 85.2167 56.0354 85.2793L56.7935 85.8112H64.9201L65.4659 85.2793H71.8337C74.6841 85.2793 76.9886 82.9013 76.9886 79.96V66.4116C76.9886 63.4703 74.6841 61.0923 71.8337 61.0923Z" fill="#4A80AA"/>
<path d="M56.3677 85.9046V92.7884C56.3677 93.6332 57.3381 94.04 57.9142 93.4454L65.6162 85.4978C65.7678 85.3414 65.9498 85.2788 66.162 85.2788H56.0342C56.2161 85.404 56.3677 85.623 56.3677 85.9046Z" fill="#365E7D"/>
<path d="M85.2957 61.0918H70.4678C73.3181 61.0918 75.6227 63.4698 75.6227 66.4111V79.9595C75.6227 82.9008 73.3181 85.2788 70.4678 85.2788H85.2957C88.1461 85.2788 90.4506 82.9008 90.4506 79.9595V66.4111C90.4506 63.4698 88.1461 61.0918 85.2957 61.0918Z" fill="#365E7D"/>
<path d="M158.114 175.561V124.11C158.114 121.82 156.299 119.946 154.079 119.946H89.6398C87.4204 119.946 85.6045 121.82 85.6045 124.11V175.588H158.114V175.561Z" fill="#67B0EB"/>
<path d="M165.049 119.946H152.716C154.935 119.946 156.751 121.82 156.751 124.11V175.588H169.084V124.11C169.084 121.794 167.293 119.946 165.049 119.946Z" fill="#3490D1"/>
<path d="M158.112 127.988H96.0689C94.5809 127.988 93.3955 129.211 93.3955 130.747V173.037H158.112V127.988Z" fill="#CBE2FF"/>
<path d="M161.292 173.011V130.747C161.292 129.211 160.081 127.988 158.618 127.988H156.752V173.037H161.292V173.011Z" fill="#BED8FB"/>
<path d="M164.141 177.903V173.011H81.3665C80.0298 173.011 78.9453 174.13 78.9453 175.509C78.9453 180.454 82.8293 184.462 87.6213 184.462H157.786C161.291 184.488 164.141 181.547 164.141 177.903Z" fill="#67B0EB"/>
<path d="M173.322 173.011H163.41V177.903C163.41 181.521 160.56 184.462 157.055 184.462H167.067C171.859 184.462 175.743 180.454 175.743 175.509C175.743 174.13 174.659 173.011 173.322 173.011Z" fill="#3490D1"/>
<path d="M112.591 173.011C112.591 176.186 115.088 178.736 118.139 178.736H136.525C139.602 178.736 142.074 176.16 142.074 173.011H112.591Z" fill="#3490D1"/>
<path d="M128.782 130.668H123.334C120.636 130.668 118.441 132.932 118.441 135.717V140.583L119.425 141.312H129.211V131.422L128.782 130.668Z" fill="#4A80AA"/>
<path d="M139.501 156.953L132.515 154.845H121.595L114.608 156.953C112.112 157.708 110.396 160.076 110.396 162.783V173.036H143.738V162.783C143.713 160.076 141.998 157.708 139.501 156.953Z" fill="#F9FCFF"/>
<path d="M139.501 156.953L132.515 154.845H127.093L127.143 157.708L132.616 159.451C135.113 160.206 136.828 162.574 136.828 165.281V173.062H143.713V162.809C143.713 160.076 141.998 157.708 139.501 156.953Z" fill="#E5EDF2"/>
<path d="M128.125 161.794H126.007L124.09 172.985V173.011H130.042L128.125 161.794Z" fill="#4A80AA"/>
<path d="M130.902 155.313V148.963H123.235V155.313C123.235 157.5 127.069 157.682 127.069 157.682C127.069 157.682 130.902 157.5 130.902 155.313Z" fill="#FFDDCE"/>
<path d="M138.997 173.011V169.498C138.997 169.029 138.644 168.665 138.19 168.665C137.736 168.665 137.383 169.029 137.383 169.498V173.011H138.997Z" fill="#B9CBEA"/>
<path d="M133.549 133.609H133.473C133.07 133.609 132.767 133.27 132.767 132.88C132.767 131.683 131.809 130.694 130.649 130.694H128.782V141.338H134.684L135.668 140.609V135.821C135.668 134.598 134.709 133.609 133.549 133.609Z" fill="#365E7D"/>
<path d="M121.72 154.403L120.636 154.898C120.005 155.184 119.854 156.043 120.333 156.537L123.359 159.66C123.738 160.051 124.343 160.077 124.747 159.712L127.117 157.656L123.082 154.533C122.704 154.273 122.174 154.195 121.72 154.403Z" fill="#B9CBEA"/>
<path d="M131.001 154.585L127.117 157.682L129.337 159.66C129.74 160.024 130.345 159.998 130.749 159.608L133.776 156.563C134.28 156.068 134.129 155.21 133.498 154.923L132.388 154.403C131.934 154.195 131.405 154.273 131.001 154.585Z" fill="#B9CBEA"/>
<path d="M127.142 157.682L124.797 159.686L125.982 161.794H128.101L129.286 159.582L127.142 157.682Z" fill="#365E7D"/>
<path d="M116.754 173.011V169.498C116.754 169.029 116.401 168.665 115.947 168.665C115.493 168.665 115.14 169.029 115.14 169.498V173.011H116.754Z" fill="#B9CBEA"/>
<path d="M129.211 145.008V137.096C127.294 137.46 125.301 137.33 123.435 136.706C122.426 136.367 121.392 137.148 121.392 138.241V139.074C121.392 139.907 120.737 140.609 119.904 140.609H118.441V143.108C118.441 143.732 118.946 144.253 119.551 144.253C119.753 144.253 119.904 144.409 119.904 144.617C120.106 148.001 122.527 150.759 125.68 151.384C127.773 150.031 129.16 147.688 129.211 145.008Z" fill="#FFDDCE"/>
<path d="M134.205 140.583C133.397 140.583 132.716 139.906 132.716 139.048V138.215C132.716 137.122 131.682 136.341 130.674 136.679C130.043 136.888 129.413 137.044 128.782 137.148V144.877C128.732 147.584 127.269 149.952 125.125 151.201C125.73 151.384 126.386 151.462 127.042 151.462C130.825 151.462 133.927 148.417 134.179 144.565C134.179 144.357 134.356 144.201 134.532 144.201C135.138 144.201 135.642 143.68 135.642 143.055V140.583H134.205Z" fill="#FFCBBE"/>
<path d="M154.986 137.747C156.532 137.747 157.786 136.454 157.786 134.858C157.786 133.263 156.532 131.97 154.986 131.97C153.44 131.97 152.187 133.263 152.187 134.858C152.187 136.454 153.44 137.747 154.986 137.747Z" fill="#DD636E"/>
<path d="M132.011 114.429H128.808V119.92H132.011V114.429Z" fill="#7592A1"/>
<path d="M137.534 111.098C137.534 115.158 134.331 118.464 130.396 118.464C126.462 118.464 123.259 115.158 123.259 111.098C123.259 107.039 126.462 103.733 130.396 103.733C134.356 103.733 137.534 107.013 137.534 111.098Z" fill="#2B4D66"/>
<path d="M133.726 111.097C133.726 112.997 132.238 114.533 130.397 114.533C128.555 114.533 127.067 112.997 127.067 111.097C127.067 109.198 128.555 107.662 130.397 107.662C132.238 107.662 133.726 109.198 133.726 111.097Z" fill="#365E7D"/>
<path d="M131.985 111.097C131.985 112.008 131.279 112.737 130.397 112.737C129.514 112.737 128.808 112.008 128.808 111.097C128.808 110.186 129.514 109.458 130.397 109.458C131.279 109.458 131.985 110.186 131.985 111.097Z" fill="#0D3044"/>
<g opacity="0.5">
<g opacity="0.5">
<path opacity="0.5" d="M132.187 109.848C132.187 110.187 131.935 110.447 131.607 110.447C131.28 110.447 131.027 110.187 131.027 109.848C131.027 109.51 131.28 109.25 131.607 109.25C131.935 109.25 132.187 109.51 132.187 109.848Z" fill="white"/>
</g>
</g>
<g opacity="0.1">
<g opacity="0.1">
<path opacity="0.1" d="M137.534 111.098C137.534 107.038 134.331 103.733 130.396 103.733V118.463C134.356 118.463 137.534 115.158 137.534 111.098Z" fill="#2A5877"/>
</g>
</g>
<path d="M149.924 62.4155H128.022C126.434 62.4155 125.152 64.0391 125.152 66.0507V68.8812C125.152 69.226 125.368 69.499 125.64 69.499H152.306C152.578 69.499 152.793 69.226 152.793 68.8812V66.0507C152.805 64.0391 151.512 62.4155 149.924 62.4155Z" fill="#4A80AA"/>
<path d="M149.924 62.4155H148.982V64.0822C148.982 65.5334 148.052 66.6972 146.918 66.6972H125.64C125.368 66.6972 125.152 66.4242 125.152 66.0794V68.8812C125.152 69.226 125.368 69.499 125.64 69.499H148.971H152.294C152.567 69.499 152.782 69.226 152.782 68.8812V66.0794V66.065C152.805 64.0391 151.512 62.4155 149.924 62.4155Z" fill="#365E7D"/>
<path d="M146.578 35.952L143.888 39.0784L160.345 54.1662L163.036 51.0398L146.578 35.952Z" fill="#4A80AA"/>
<path d="M146.592 35.952L145.242 37.5208L161.699 52.6086L163.05 51.0398L146.592 35.952Z" fill="#365E7D"/>
<path d="M176.817 63.5908L174.041 66.8163C173.513 67.43 172.59 67.4846 171.979 66.9383L158.543 54.6062C157.946 54.0591 157.89 53.1067 158.417 52.4782L161.193 49.2526C161.721 48.6389 162.644 48.5843 163.255 49.1306L176.706 61.4618C177.289 62.0247 177.345 62.9771 176.817 63.5908Z" fill="#4A80AA"/>
<path d="M145.009 21.3268L129.631 39.1951L139.672 48.4005L155.05 30.5323L145.009 21.3268Z" fill="#67B0EB"/>
<path d="M152.922 28.5993L137.544 46.4675L139.665 48.4118L155.043 30.5436L152.922 28.5993Z" fill="#3490D1"/>
<path d="M141.668 49.9739L139.894 52.0351C139.299 52.7274 138.275 52.788 137.601 52.1707L126.234 41.7771C125.56 41.1599 125.498 40.1033 126.094 39.411L127.881 37.334C128.477 36.6417 129.501 36.5811 130.174 37.1984L141.528 47.6077C142.202 48.2249 142.264 49.2815 141.668 49.9739Z" fill="#4A80AA"/>
<path d="M158.582 30.3214L156.808 32.3826C156.212 33.0749 155.188 33.1355 154.515 32.5182L143.161 22.1089C142.487 21.4917 142.425 20.4351 143.021 19.7428L144.795 17.6815C145.39 16.9892 146.414 16.9287 147.088 17.5459L158.442 27.9552C159.115 28.5725 159.177 29.6291 158.582 30.3214Z" fill="#365E7D"/>
<path d="M152.325 36.8591L145.433 44.868C144.905 45.4817 144.01 45.5346 143.414 44.9875L132.472 34.9421C131.875 34.3949 131.821 33.4723 132.349 32.8586L139.241 24.8497C139.77 24.2361 140.664 24.1832 141.26 24.7303L152.217 34.7749C152.785 35.3237 152.839 36.2463 152.325 36.8591Z" fill="#4A80AA"/>
<path d="M161.193 49.267L159.797 50.8728L175.421 65.1961L176.802 63.5912C177.33 62.9775 177.274 62.0251 176.676 61.4631L163.226 49.1319C162.644 48.5988 161.721 48.6534 161.193 49.267Z" fill="#365E7D"/>
<path d="M139.242 24.8645L136.939 27.5245C137.029 27.5789 137.119 27.6333 137.197 27.7183L144.939 34.8169C145.75 35.5604 145.826 36.8402 145.108 37.6741L140.843 42.6305L143.413 44.9874C143.459 45.0294 143.49 45.0575 143.535 45.0847C143.58 45.1119 143.625 45.1391 143.67 45.1663C143.715 45.1935 143.775 45.2199 143.82 45.2471C143.82 45.2471 143.834 45.2462 143.835 45.2611C143.894 45.2875 143.939 45.2998 143.997 45.3112C144.027 45.3244 144.056 45.3227 144.1 45.335C144.114 45.3342 144.114 45.3342 144.129 45.3333C144.157 45.3316 144.187 45.3448 144.216 45.3431L144.23 45.3422L144.245 45.3414C144.274 45.3397 144.303 45.338 144.332 45.3512C144.347 45.3503 144.361 45.3494 144.376 45.3486C144.404 45.3469 144.433 45.3452 144.462 45.3435C144.477 45.3426 144.491 45.3418 144.505 45.3409C144.534 45.3392 144.563 45.3375 144.592 45.3358C144.606 45.3349 144.606 45.3349 144.621 45.3341C144.663 45.3167 144.735 45.3124 144.778 45.2949C144.792 45.2941 144.806 45.2932 144.82 45.2775C144.834 45.2767 144.862 45.2601 144.877 45.2592C144.905 45.2426 144.919 45.2418 144.947 45.2252C144.962 45.2243 144.975 45.2086 145.003 45.192C145.017 45.1912 145.017 45.1763 145.031 45.1754C145.045 45.1746 145.059 45.1588 145.073 45.158C145.087 45.1422 145.101 45.1414 145.115 45.1257C145.143 45.1091 145.156 45.0933 145.184 45.0768C145.198 45.061 145.212 45.0602 145.226 45.0444C145.254 45.0278 145.267 45.0121 145.294 44.9806C145.308 44.9649 145.322 44.9641 145.322 44.9492C145.349 44.9177 145.39 44.8854 145.417 44.8539L152.31 36.845C152.716 36.373 152.765 35.7279 152.517 35.205C152.435 35.0456 152.325 34.9027 152.188 34.7765L148.546 31.4376L141.247 24.7459C140.664 24.198 139.756 24.2517 139.242 24.8645Z" fill="#365E7D"/>
</svg>
