<svg width="201" height="200" viewBox="0 0 201 200" fill="none" xmlns="http://www.w3.org/2000/svg">
<path d="M0.405273 100C0.405273 44.7715 45.1768 0 100.405 0C155.634 0 200.405 44.7715 200.405 100C200.405 155.228 155.634 200 100.405 200C45.1768 200 0.405273 155.228 0.405273 100Z" fill="#FFF8DF"/>
<g opacity="0.8">
<path d="M122.32 78.6606C119.868 78.6606 117.876 76.6684 117.876 74.2164V59.1214C117.876 55.9031 115.271 53.3745 112.129 53.3745H88.6822C85.4639 53.3745 82.9353 55.9798 82.9353 59.1214V74.2164C82.9353 76.6684 80.9431 78.6606 78.4911 78.6606C76.0391 78.6606 74.0469 76.6684 74.0469 74.2164V59.1214C74.0469 51.0758 80.6366 44.4861 88.6822 44.4861H112.129C120.175 44.4861 126.765 51.0758 126.765 59.1214V74.2164C126.765 76.6684 124.772 78.6606 122.32 78.6606Z" fill="#E8B974"/>
<path d="M59.5649 105.861C47.305 105.861 37.3438 95.9001 37.3438 83.6401V143.254C37.3438 149.997 42.8607 155.514 49.6037 155.514H117.263C124.006 155.514 129.523 149.997 129.523 143.254V105.861H59.5649Z" fill="#F09562"/>
<path d="M141.246 105.861H126.074V143.254C126.074 149.997 120.557 155.514 113.814 155.514H151.207C157.95 155.514 163.467 149.997 163.467 143.254V83.6401C163.467 95.9001 153.506 105.861 141.246 105.861Z" fill="#DB8A5D"/>
<path d="M117.263 70.6134H49.6037C42.8607 70.6134 37.3438 76.1304 37.3438 82.8734V88.0838C37.3438 100.344 47.305 110.305 59.5649 110.305H129.523V82.7968C129.523 76.0538 124.006 70.6134 117.263 70.6134Z" fill="#E1814C"/>
<path d="M126.074 82.7984V110.23H141.246C153.506 110.23 163.467 100.269 163.467 88.0088V82.7984C163.467 76.0554 157.95 70.5384 151.207 70.5384H113.814C120.557 70.615 126.074 76.0554 126.074 82.7984Z" fill="#CB7545"/>
<path d="M67.4569 124.021C65.0049 124.021 63.0127 122.029 63.0127 119.577V100.957C63.0127 98.505 65.0049 96.5128 67.4569 96.5128C69.9089 96.5128 71.9011 98.505 71.9011 100.957V119.577C71.9011 122.029 69.9089 124.021 67.4569 124.021Z" fill="#FFD79D"/>
<path d="M133.354 124.021C130.902 124.021 128.91 122.029 128.91 119.577V100.957C128.91 98.505 130.902 96.5128 133.354 96.5128C135.806 96.5128 137.799 98.505 137.799 100.957V119.577C137.799 122.029 135.806 124.021 133.354 124.021Z" fill="#FFD79D"/>
</g>
</svg>
