<svg width="200" height="200" viewBox="0 0 200 200" fill="none" xmlns="http://www.w3.org/2000/svg">
<path d="M0 100C0 44.7715 44.7715 0 100 0C155.228 0 200 44.7715 200 100C200 155.228 155.228 200 100 200C44.7715 200 0 155.228 0 100Z" fill="#FFEFE7"/>
<path d="M103.658 50.8847C106.162 53.7182 111.038 52.7737 113.41 50.9896C115.651 49.2056 116.573 46.6869 117.496 44.2732C119.472 38.7112 121.449 32.9392 119.868 27.2722C119.472 25.5931 118.55 23.914 117.1 22.6547C115.651 21.3953 113.278 20.6607 111.17 21.0805C108.666 21.6052 107.216 23.5992 106.03 25.3832C102.867 30.8403 101.154 36.8222 101.154 42.804C101.286 45.6375 101.681 48.5759 103.658 50.8847Z" fill="#99C895"/>
<path d="M112.021 76.4268C116.106 74.3463 120.982 73.9562 125.595 74.7363C128.099 75.1264 130.602 75.7766 132.316 77.5971C134.029 79.4175 134.292 82.6683 132.447 84.2287C131.261 85.1389 129.68 85.269 128.23 85.269C124.672 85.269 120.719 84.6188 117.819 86.8294C116.238 87.9996 115.052 90.0802 113.207 90.7303C111.362 91.3805 109.122 90.2102 108.067 88.5198C107.013 86.8293 107.013 84.7488 107.408 82.7983C107.408 82.7983 107.804 78.5073 112.021 76.4268Z" fill="#99C895"/>
<path d="M94.9807 80.5289C91.6112 78.8129 87.5895 78.4912 83.7853 79.1347C81.7201 79.4564 79.655 79.9927 78.242 81.4941C76.829 82.9956 76.6116 85.6768 78.1333 86.9637C79.1115 87.7145 80.4158 87.8217 81.6114 87.8217C87.9609 87.8217 91.4351 89.5211 96.448 91.2876C102.914 93.5663 99.6353 82.8252 94.9807 80.5289Z" fill="#99C895"/>
<path d="M95.5509 63.5543C98.3184 60.3035 98.7138 55.6224 97.5277 51.5914C96.3416 47.5604 93.5742 44.1796 90.2795 41.4489C86.5896 38.1981 82.1089 35.7275 77.4964 34.0371C75.6515 33.3869 73.6747 32.8668 71.6979 33.1269C69.7212 33.3869 67.7444 34.2971 66.8219 35.9876C65.5041 38.5882 66.8219 41.5789 68.2715 44.0495C70.7754 48.4706 73.5429 52.6316 76.7058 56.6626C79.2097 59.9134 82.1089 63.0342 86.0624 64.4645C89.8842 65.8949 93.8377 65.6348 95.9463 63.0341" fill="#99C895"/>
<path d="M102.542 112.186C102.542 112.186 102.674 111.665 102.806 110.625C102.937 109.455 103.069 108.025 103.201 106.204C103.333 104.384 103.596 102.173 104.123 99.7025C104.651 97.3619 105.441 94.6313 106.496 92.0307C107.55 89.43 108.868 86.9594 110.449 85.139C112.03 83.1885 113.744 81.7582 115.457 80.978C117.17 80.1978 118.62 79.8077 119.674 79.6777C120.728 79.5476 121.255 79.4176 121.255 79.4176C121.255 79.4176 120.728 79.4176 119.542 79.4176C118.488 79.5476 116.907 79.8077 115.193 80.5879C113.48 81.3681 111.503 82.7984 109.922 84.7489C108.341 86.6994 106.891 89.17 105.837 91.7706C104.782 94.5012 103.992 97.1019 103.464 99.5725C102.937 102.043 102.806 104.254 102.674 106.074C102.542 107.894 102.542 109.455 102.542 110.495C102.542 111.535 102.542 112.186 102.542 112.186Z" fill="#3E7032"/>
<path d="M102.798 110.022C102.798 110.022 102.689 109.593 102.58 108.735C102.472 107.77 102.363 106.59 102.254 105.088C102.146 103.587 101.928 101.764 101.494 99.7261C101.059 97.7957 100.407 95.5435 99.5371 93.3986C98.6675 91.2536 97.5806 89.2159 96.2763 87.7145C94.972 86.1058 93.559 84.9261 92.1459 84.2826C90.7329 83.6391 89.5373 83.3174 88.6678 83.2101C87.7982 83.1029 87.3635 82.9956 87.3635 82.9956C87.3635 82.9956 87.7982 82.9956 88.7765 82.9956C89.646 83.1029 90.9503 83.3173 92.3633 83.9608C93.7763 84.6043 95.4067 85.784 96.711 87.3927C98.0154 89.0014 99.211 91.0391 100.081 93.1841C100.95 95.4362 101.602 97.5812 102.037 99.6189C102.472 101.657 102.58 103.48 102.689 104.981C102.798 106.483 102.798 107.77 102.798 108.628C102.798 109.486 102.798 110.022 102.798 110.022Z" fill="#3E7032"/>
<path d="M102.799 108.674C102.799 108.674 102.799 108.414 102.799 107.894C102.799 107.373 102.799 106.593 102.799 105.813C102.799 103.993 102.799 101.262 102.799 97.8812C102.93 91.2496 103.457 82.0174 104.512 72.0049C105.566 61.8625 107.016 52.7602 108.334 46.2586C108.597 44.5682 108.992 43.1379 109.256 41.8376C109.52 40.5373 109.783 39.497 110.047 38.5868C110.31 37.6766 110.442 37.0264 110.574 36.5063C110.706 35.9861 110.706 35.7261 110.706 35.7261C110.706 35.7261 110.574 35.9861 110.442 36.3762C110.31 36.8964 110.047 37.5465 109.783 38.4567C109.52 39.367 109.256 40.4072 108.861 41.7075C108.465 43.0079 108.202 44.4382 107.806 46.1286C106.357 52.6302 104.775 61.7324 103.721 71.8749C102.667 82.0174 102.14 91.2496 102.14 97.8812C102.14 101.262 102.271 103.863 102.271 105.813C102.271 106.723 102.403 107.373 102.403 107.894C102.799 108.414 102.799 108.674 102.799 108.674Z" fill="#3E7032"/>
<path d="M102.798 90.9911C102.798 90.9911 102.798 90.2109 102.798 88.7806C102.667 87.3502 102.535 85.2697 102.008 82.6691C101.612 80.0684 100.953 77.0777 99.8992 73.8269C98.9767 70.5761 97.6589 66.9352 96.0774 63.4244C92.9146 56.1426 88.6975 50.2912 85.0075 46.5203C84.085 45.6101 83.1626 44.8298 82.3719 44.1797C81.9765 43.7896 81.5812 43.5296 81.3176 43.2695C80.9222 43.0094 80.6587 42.7494 80.2633 42.6193C79.0773 41.8391 78.4183 41.319 78.2865 41.4491C78.1548 41.5791 81.054 43.2695 84.6122 46.9104C88.1704 50.6813 92.2557 56.5327 95.4185 63.6844C96.9999 67.3253 98.3178 70.8362 99.2403 74.087C100.295 77.3377 100.953 80.3285 101.481 82.7991C102.008 85.2697 102.271 87.3502 102.403 88.7806C102.667 90.2109 102.798 90.9911 102.798 90.9911Z" fill="#3E7032"/>
<path d="M138.638 119.037C138.621 119.266 137.092 142.25 130.921 168.732C130.75 169.462 130.23 169.998 129.602 170.097C129.552 170.104 127.613 170.401 124.445 170.769C119.302 171.364 110.921 172.137 102.14 172.137C87.9532 172.137 74.809 170.117 74.6784 170.097C74.0527 169.998 73.5344 169.467 73.3638 168.739C67.5764 144.381 65.6635 119.312 65.6445 119.06C65.6066 118.533 65.7541 118.01 66.0532 117.617C66.3524 117.226 66.7759 117.005 67.2183 117.005H137.062C137.503 117.005 137.922 117.224 138.221 117.609C138.52 117.994 138.672 118.513 138.638 119.037Z" fill="#FFCBB4"/>
<path d="M138.639 119.037C138.622 119.266 137.092 142.25 130.922 168.732C130.751 169.462 130.231 169.998 129.603 170.097C129.552 170.104 127.614 170.401 124.445 170.769C129.799 142.3 131.931 123.976 132.632 117.005H137.063C137.503 117.005 137.922 117.224 138.222 117.609C138.521 117.994 138.672 118.513 138.639 119.037Z" fill="#FFC2A8"/>
<path d="M143.756 118.725C143.712 119.684 143.071 120.453 142.266 120.508C142.195 120.513 138.645 120.745 132.213 120.981C125.286 121.238 115.013 121.503 102.141 121.503C77.3207 121.503 62.1667 120.518 62.015 120.508C61.2102 120.453 60.5697 119.684 60.5255 118.725C60.1231 109.883 60.5213 101.216 60.5255 101.131C60.5697 100.171 61.2123 99.403 62.015 99.3501C62.1667 99.34 77.3207 98.3553 102.141 98.3553C114.973 98.3553 125.223 98.6197 132.15 98.8741C138.622 99.1134 142.195 99.3451 142.266 99.3501C143.069 99.403 143.712 100.171 143.756 101.131C143.76 101.217 144.158 109.883 143.756 118.725Z" fill="#FFC2A8"/>
<path d="M143.756 118.725C143.711 119.684 143.071 120.452 142.266 120.508C142.195 120.513 138.645 120.745 132.213 120.981C132.543 110.643 132.278 102.055 132.149 98.8743C138.621 99.1135 142.195 99.3452 142.266 99.3503C143.069 99.4032 143.711 100.171 143.756 101.131C143.76 101.216 144.158 109.882 143.756 118.725Z" fill="#F6B599"/>
</svg>
