<svg width="201" height="200" viewBox="0 0 201 200" fill="none" xmlns="http://www.w3.org/2000/svg">
<g clip-path="url(#clip0_3979_370466)">
<path d="M0.905273 100C0.905273 44.7715 45.6768 0 100.905 0C156.134 0 200.905 44.7715 200.905 100C200.905 155.228 156.134 200 100.905 200C45.6768 200 0.905273 155.228 0.905273 100Z" fill="#E6F8FF"/>
<g opacity="0.7">
<path d="M124.855 43.8365L56.9225 78.4979L90.2223 247.124L161.976 234.909L124.855 43.8365Z" fill="#87DBFF"/>
<path d="M107.918 106.569C108.145 107.139 107.87 107.785 107.303 108.016C106.729 108.251 106.075 107.973 105.844 107.398L103.636 101.892C103.022 100.361 103.62 98.6106 105.043 97.7759L144.188 74.8125C145.611 73.9777 146.21 72.2276 145.595 70.6965L139.284 54.9609C138.6 53.2559 136.666 52.4256 134.959 53.1044L131.023 54.6693C130.452 54.8965 129.804 54.6208 129.572 54.0516C129.337 53.4757 129.616 52.8186 130.193 52.5878L136.212 50.1815C137.921 49.4985 139.86 50.329 140.544 52.037L148.402 71.651C149.015 73.182 148.417 74.9313 146.994 75.7658L107.842 98.733C106.422 99.5663 105.823 101.312 106.432 102.842L107.918 106.569Z" fill="#204E92"/>
<path d="M119.515 44.2117L55.8199 69.6798C52.4012 71.0467 50.7378 74.9262 52.1044 78.345L56.6871 89.809C58.0537 93.2277 61.9329 94.8911 65.3516 93.5242L129.046 68.0561C132.465 66.6892 134.128 62.8097 132.762 59.3909L128.179 47.9269C126.812 44.5081 122.933 42.8448 119.515 44.2117Z" fill="#128FF0"/>
<path opacity="0.5" d="M124.134 56.8577L61.1281 82.0502C58.3753 83.151 57.0312 86.2711 58.1225 89.0278C59.219 91.7974 62.3569 93.1491 65.1228 92.0431L128.129 66.8506C130.881 65.7498 132.225 62.6297 131.134 59.873C130.038 57.1034 126.9 55.7517 124.134 56.8577Z" fill="#073985"/>
<path opacity="0.37" d="M120.673 46.8689L89.5819 59.3003C88.9092 59.5693 88.5798 60.331 88.8445 61.0055C89.1116 61.6859 89.8814 62.0189 90.5602 61.7475L121.651 49.316C122.324 49.0471 122.653 48.2854 122.388 47.6109C122.121 46.9305 121.351 46.5975 120.673 46.8689Z" fill="white"/>
<path d="M136.943 169.172L113.896 109.524C112.778 106.63 109.525 105.19 106.631 106.309C103.737 107.427 102.297 110.68 103.415 113.574L126.462 173.221C127.581 176.116 130.833 177.555 133.728 176.437C136.622 175.319 138.061 172.066 136.943 169.172Z" fill="#FFD18E"/>
<path opacity="0.6" d="M135.977 172.569L111.181 108.397C111.021 107.982 110.555 107.776 110.141 107.936C109.727 108.096 109.52 108.562 109.681 108.977L134.476 173.149C134.636 173.563 135.102 173.769 135.516 173.609C135.931 173.449 136.137 172.983 135.977 172.569Z" fill="white"/>
</g>
</g>
<defs>
<clipPath id="clip0_3979_370466">
<path d="M0.905273 100C0.905273 44.7715 45.6768 0 100.905 0C156.134 0 200.905 44.7715 200.905 100C200.905 155.228 156.134 200 100.905 200C45.6768 200 0.905273 155.228 0.905273 100Z" fill="white"/>
</clipPath>
</defs>
</svg>
