<svg width="200" height="200" viewBox="0 0 200 200" fill="none" xmlns="http://www.w3.org/2000/svg">
<path d="M0 100C0 44.7715 44.7715 0 100 0C155.228 0 200 44.7715 200 100C200 155.228 155.228 200 100 200C44.7715 200 0 155.228 0 100Z" fill="#FFEFE7"/>
<path d="M90.6151 74.9435C90.6151 74.9435 86.4849 46.9802 91.0645 45.858C95.6441 44.7358 96.4402 44.9 99.3402 48.6464C102.24 52.3927 117.2 74.3511 117.2 74.3511" stroke="#FF5A50" stroke-width="0.505659" stroke-miterlimit="10" stroke-linecap="round"/>
<path d="M114.905 156.02L151.293 156.229L143.918 74.233L126.314 76.042L125.744 136.148L114.905 156.02Z" fill="#F7B599"/>
<path d="M127.383 73.0145L125.745 136.148L114.906 156.02L39.3071 156.084C39.3071 156.084 45.0916 135.884 45.2093 136.575C45.327 137.267 52.6656 78.149 52.6656 78.149C52.6656 78.149 106.296 71.389 127.383 73.0145Z" fill="#FFCBB4"/>
<path d="M125.744 136.148C126.158 137.03 151.293 156.229 151.293 156.229L114.905 156.02L125.744 136.148Z" fill="#FFC2A8"/>
<path d="M71.8492 84.1331C71.8492 84.1331 69.4881 82.6359 71.2819 79.2496C73.0758 75.8633 83.9985 50.2789 85.357 47.437C86.7154 44.5951 93.5905 46.2766 96.1082 48.6938C98.626 51.111 102.39 82.4914 103.198 82.5889" stroke="#FF5A50" stroke-width="0.505659" stroke-miterlimit="10" stroke-linecap="round"/>
<path d="M101.892 58.8834C101.892 58.8834 98.5656 52.3803 94.1521 48.8027C89.7386 45.225 89.4397 46.5361 89.2821 48.6068C89.1246 50.6775 84.4924 62.1762 84.4924 62.1762L78.8912 63.6422C78.8912 63.6422 85.3753 46.8421 86.591 45.6644C87.8067 44.4868 93.6317 41.198 95.0561 42.2337C96.4806 43.2695 106.457 55.8033 107.079 57.9764C107.701 60.1496 101.892 58.8834 101.892 58.8834Z" fill="#AFDDAB"/>
<g style="mix-blend-mode:multiply">
<path d="M69.1952 85.0788C69.1952 85.0788 71.8175 81.0565 72.5667 82.4606C73.3158 83.8648 73.8964 84.2785 73.1164 85.6897C72.3363 87.1009 69.6182 87.5635 69.1952 85.0788Z" fill="#B67E7F"/>
</g>
<g style="mix-blend-mode:multiply">
<path d="M101.145 82.9618C101.145 82.9618 103.768 78.9395 104.517 80.3437C105.266 81.7478 105.847 82.1615 105.067 83.5728C104.286 84.984 101.568 85.4467 101.145 82.9618Z" fill="#B67E7F"/>
</g>
<path d="M109.626 31.4709L109.23 39.72C109.23 39.72 97.5098 47.0812 93.4929 45.9743L97.4573 37.8896L109.626 31.4709Z" fill="#AFDDAB"/>
<path d="M73.5507 37.3301L77.7007 44.4702C77.7007 44.4702 91.4944 45.6074 94.5504 42.7752L87.3085 37.4241L73.5507 37.3301Z" fill="#AFDDAB"/>
</svg>
