<svg width="201" height="200" viewBox="0 0 201 200" fill="none" xmlns="http://www.w3.org/2000/svg">
<path d="M0.905273 100C0.905273 44.7715 45.6768 0 100.905 0C156.134 0 200.905 44.7715 200.905 100C200.905 155.228 156.134 200 100.905 200C45.6768 200 0.905273 155.228 0.905273 100Z" fill="#FFF8DF"/>
<path fill-rule="evenodd" clip-rule="evenodd" d="M162.435 38.7704L58.0558 12.3369C58.0558 12.3369 50.7467 49.973 44.8106 73.7974C37.2003 104.341 22.1388 151.147 22.1388 151.147L128.394 179.297C128.394 179.297 139.952 136.794 146.604 109.344C153.268 81.845 162.435 38.7704 162.435 38.7704Z" fill="#FFEEB5"/>
<path d="M101.829 28.6775L64.2148 18.8796L53.8778 58.563L91.4918 68.3609L101.829 28.6775Z" fill="#FFEEB5"/>
<path d="M121.603 51.7958L103.201 47.0024L102.369 50.1962L120.771 54.9896L121.603 51.7958Z" fill="#CCCCCC"/>
<path d="M151.927 67.6475L101.262 54.4498L99.4314 61.4763L150.097 74.6739L151.927 67.6475Z" fill="#CCCCCC"/>
<path d="M149.358 79.1709L98.2871 65.8676L97.2264 69.9397L148.297 83.243L149.358 79.1709Z" fill="#CCCCCC"/>
<path d="M147.359 86.8353L53.0811 62.277L52.0203 66.3492L146.298 90.9074L147.359 86.8353Z" fill="#CCCCCC"/>
<path d="M141.643 108.453L47.2842 83.8737L46.2234 87.9459L140.583 112.525L141.643 108.453Z" fill="#CCCCCC"/>
<path d="M139.647 116.118L45.2881 91.5386L44.2273 95.6108L138.587 120.19L139.647 116.118Z" fill="#CCCCCC"/>
<path d="M72.7353 115.443L42.391 107.539L33.7794 135.721L65.3135 143.935L72.7353 115.443Z" fill="#CCCCCC"/>
<path d="M93.8118 120.934L75.4102 116.14L68.0488 144.401L86.4504 149.194L93.8118 120.934Z" fill="#CCCCCC"/>
<path d="M114.724 126.381L96.3223 121.588L88.9609 149.848L107.363 154.641L114.724 126.381Z" fill="#CCCCCC"/>
<path d="M135.64 131.829L117.238 127.036L109.877 155.296L128.279 160.089L135.64 131.829Z" fill="#CCCCCC"/>
<path d="M77.9548 51.5327C73.3592 49.5682 72.2808 46.7294 72.2808 46.7294L79.5937 45.9059L74.3245 44.5333C73.2706 44.2588 72.1917 44.7452 71.9837 45.5436L70.9646 49.4561C70.7566 50.2545 71.4611 51.2054 72.515 51.4799L78.838 53.127C79.8918 53.4015 80.9707 52.9152 81.1787 52.1167L81.1995 52.0369C80.3867 52.1662 79.2705 52.1312 77.9548 51.5327Z" fill="#FDA470"/>
<path d="M80.5664 46.1593L79.5937 45.9059L71.9213 45.7832C71.9213 45.7832 72.4675 49.336 77.9548 51.5327C79.2913 52.0514 80.3867 52.1662 81.2203 51.957L82.2187 48.1244C82.4059 47.4058 81.7013 46.4549 80.5664 46.1593Z" fill="#FDA470"/>
<path d="M88.6036 40.5801C88.3812 40.4369 88.0153 40.5121 87.689 40.7681C87.7306 40.6084 87.7722 40.4487 87.8138 40.2891C89.0825 35.4185 86.3124 30.4337 81.6917 29.2301C76.99 28.0053 72.221 31.0263 70.9523 35.8969C70.9107 36.0566 70.8691 36.2162 70.8275 36.3759C70.6675 35.9932 70.3849 35.749 70.1209 35.7655C69.5118 35.7774 68.9151 37.0715 68.9252 38.6941C68.9353 40.3168 69.3737 41.6247 70.0639 41.6339C70.3278 41.6174 70.5316 41.4999 70.6958 41.2017C71.1983 45.2547 73.1017 49.2463 76.3443 50.091C79.5058 50.9145 83.1958 48.3799 85.6117 45.0871C85.6096 45.4276 85.7093 45.7093 85.9525 45.7727C86.4784 46.0802 87.5802 45.1735 88.3807 43.762C88.938 42.2872 89.1295 40.8876 88.6036 40.5801Z" fill="#FFBE88"/>
<path d="M79.2513 52.2126L72.604 50.4811C71.7123 50.2488 71.1699 49.3401 71.2365 48.4196C70.7293 48.3727 70.1411 48.3048 69.6339 48.2579L74.3261 57.4949L82.5024 51.6952C82.1178 51.5098 81.7333 51.3244 81.3488 51.139C80.9787 51.8952 80.0619 52.4238 79.2513 52.2126Z" fill="#FFBE88"/>
<path d="M74.3457 57.4146L69.6534 48.1776C69.3084 48.173 68.8823 48.1472 68.5372 48.1426L74.071 59.1336L83.4323 52.1079C83.1288 51.9435 82.8254 51.7792 82.5219 51.6149L74.3457 57.4146Z" fill="#C79462"/>
<path d="M83.8182 52.2936L73.9268 59.6929L68.0917 48.197C63.8284 48.2802 60.3901 49.5161 59.5997 52.5503L58.0089 56.9959L88.7323 64.999L89.5125 60.3422C90.2821 57.3879 87.7424 54.5095 83.8182 52.2936Z" fill="#9B7C5C"/>
<path d="M74.0722 59.134L68.5176 48.2229C68.3555 48.1807 68.1726 48.2183 68.0915 48.1972L73.9266 59.693L83.818 52.2937C83.6559 52.2515 83.5956 52.1505 83.4335 52.1083L74.0722 59.134Z" fill="#9B7C5C"/>
<path d="M74.5701 27.9714C71.5743 27.4468 71.2081 33.2346 70.742 36.3532C72.6651 33.9552 73.2378 33.318 76.3123 31.8168C79.4322 31.521 84.3175 31.8747 86.7894 32.6891C88.4374 35.3353 87.0135 37.6928 87.5826 40.8253C88.8594 37.9178 89.527 35.0222 89.0182 31.9907C86.1319 26.1231 80.0312 24.6192 74.5701 27.9714Z" fill="#49190A"/>
<path d="M84.8742 26.5633C81.9375 26.2314 76.5926 25.0068 76.5146 26.1611C73.8448 27.8094 76.0202 32.0219 76.0202 32.0219C77.2394 30.5673 83.3908 32.7822 85.0697 33.4904C86.047 33.591 87.8619 33.2077 88.3795 35.2414C88.4926 35.6856 89.8745 32.9505 89.8745 32.9505L89.4901 30.2448C88.6658 29.9275 88.5547 29.8894 87.964 29.1435C87.4919 28.5472 85.5186 26.7528 84.8742 26.5633Z" fill="#49190A"/>
<path d="M136.402 184.914L170.061 47.3187L73.6121 25.6861L27.8927 158.013L136.402 184.914Z" fill="#E8B974"/>
<path d="M168.854 40.7961L71.9181 16.8464L58.7179 26.8166L27.8274 153.113L134.929 179.597L168.854 40.7961Z" fill="#FFFBF4"/>
<path d="M100.015 49.3855L61.5918 39.911L51.596 80.4477L90.0187 89.9222L100.015 49.3855Z" fill="white"/>
<path d="M76.0136 72.9703C71.309 71.0315 70.1734 68.1558 70.1734 68.1558L77.6072 67.2201L72.2247 65.8929C71.1482 65.6274 70.0563 66.1369 69.8552 66.9525L68.8697 70.9491C68.6685 71.7647 69.3984 72.7234 70.4749 72.9889L76.9339 74.5816C78.0104 74.847 79.1023 74.3376 79.3034 73.5219L79.3235 73.4404C78.4978 73.5828 77.361 73.5621 76.0136 72.9703Z" fill="#FDA470"/>
<path d="M78.6009 67.4652L77.6072 67.2201L69.7948 67.1972C69.7948 67.1972 70.3981 70.8068 76.0136 72.9702C77.3811 73.4805 78.4978 73.5828 79.3437 73.3588L80.3091 69.4438C80.4901 68.7097 79.7602 67.7511 78.6009 67.4652Z" fill="#FDA470"/>
<path d="M86.7101 61.6783C86.4818 61.5355 86.1103 61.6169 85.7815 61.8819C85.8217 61.7188 85.8619 61.5556 85.9021 61.3925C87.129 56.4172 84.2426 51.3793 79.5226 50.2155C74.7198 49.0311 69.905 52.17 68.6781 57.1453C68.6379 57.3084 68.5977 57.4716 68.5575 57.6347C68.3895 57.2472 68.0985 57.0024 67.83 57.0227C67.2101 57.0429 66.6197 58.3682 66.6516 60.02C66.6836 61.6718 67.1472 62.9974 67.8499 62.9976C68.1185 62.9773 68.3243 62.8551 68.4876 62.5492C69.0529 66.6687 71.0438 70.707 74.3561 71.5238C77.5856 72.3201 81.3085 69.6907 83.7242 66.3064C83.7265 66.653 83.8318 66.9386 84.0802 66.9998C84.6197 67.3059 85.7293 66.3682 86.5255 64.9206C87.0732 63.4117 87.2495 61.9843 86.7101 61.6783Z" fill="#FFBE88"/>
<path d="M77.3427 73.6447L70.5524 71.9703C69.6416 71.7457 69.0773 70.8279 69.1329 69.8899C68.616 69.8489 68.0162 69.7875 67.4992 69.7466L72.3989 79.0878L80.6455 73.0748C80.2516 72.8911 79.8577 72.7075 79.4638 72.5238C79.097 73.2986 78.1707 73.8489 77.3427 73.6447Z" fill="#FFBE88"/>
<path d="M72.4195 79.0062L67.5199 69.6649C67.1685 69.6648 66.7344 69.6443 66.383 69.6442L72.1628 80.7598L81.5995 73.4829C81.2884 73.3196 80.9773 73.1564 80.6662 72.9932L72.4195 79.0062Z" fill="#C79462"/>
<path d="M81.9969 73.668L72.0254 81.3323L65.9322 69.7067C61.593 69.848 58.1092 71.152 57.3449 74.2514L55.7845 78.7983L87.1685 86.5372L87.9009 81.7861C88.6451 78.7683 86.0213 75.8717 81.9969 73.668Z" fill="#9B7C5C"/>
<path d="M72.1631 80.7597L66.3633 69.7256C66.1976 69.6848 66.0119 69.7255 65.9291 69.7051L72.0223 81.3307L81.9938 73.6664C81.8282 73.6256 81.7655 73.5236 81.5999 73.4828L72.1631 80.7597Z" fill="#9B7C5C"/>
<path d="M72.2581 49.03C69.2013 48.5358 68.9054 54.4329 68.4724 57.6139C70.3983 55.1471 70.9728 54.4908 74.0829 52.9216C77.2551 52.579 82.2333 52.8741 84.7606 53.6703C86.4735 56.3423 85.0553 58.7613 85.6763 61.9427C86.9374 58.9658 87.5786 56.0091 87.0203 52.9297C84.0039 46.9946 77.7732 45.5447 72.2581 49.03Z" fill="#7D5C3F"/>
<path d="M82.7286 47.4588C79.7345 47.16 74.2769 45.9843 74.2129 47.1605C71.5169 48.8741 73.7875 53.1336 73.7875 53.1336C75.0094 51.6365 81.3011 53.8096 83.0198 54.5082C84.0161 54.5977 85.8585 54.1833 86.4126 56.2468C86.5336 56.6975 87.9041 53.8947 87.9041 53.8947L87.4767 51.1453C86.6334 50.8332 86.5197 50.7959 85.9085 50.0445C85.4199 49.4437 83.3872 47.6431 82.7286 47.4588Z" fill="#7D5C3F"/>
<g style="mix-blend-mode:multiply">
<path d="M71.7478 16.8554L58.5476 26.8256L51.3119 56.4C75.6025 37.2906 107.857 32.3718 135.954 32.7375L71.7478 16.8554Z" fill="#F7F3E7"/>
</g>
<path d="M58.5485 26.826L72.3252 27.6314L71.7487 16.8558L58.5485 26.826Z" fill="white"/>
<path d="M148.839 62.0839L107.507 51.859L105.977 58.104L147.31 68.3289L148.839 62.0839Z" fill="#D6C6AE"/>
<path d="M146.227 73.5535L104.895 63.3286L104.426 65.2403L145.759 75.4652L146.227 73.5535Z" fill="#E8DAC4"/>
<path d="M144.612 79.8563L103.28 69.6315L102.812 71.5432L144.144 81.7681L144.612 79.8563Z" fill="#E8DAC4"/>
<path d="M143.01 86.1172L101.678 75.8923L101.21 77.8041L142.542 88.029L143.01 86.1172Z" fill="#E8DAC4"/>
<path d="M141.441 92.4313L100.108 82.2064L99.6402 84.1181L140.972 94.343L141.441 92.4313Z" fill="#E8DAC4"/>
<path d="M139.835 98.6918L98.5029 88.4669L98.0347 90.3786L139.367 100.604L139.835 98.6918Z" fill="#E8DAC4"/>
<path d="M85.0881 97.6211L50.629 89.6461L49.2293 95.9101L83.6884 103.885L85.0881 97.6211Z" fill="#D6C6AE"/>
<path d="M82.6525 109.156L48.2526 101.162L47.8007 103.094L82.2007 111.088L82.6525 109.156Z" fill="#E8DAC4"/>
<path d="M81.174 115.478L46.774 107.484L46.3222 109.416L80.7222 117.409L81.174 115.478Z" fill="#E8DAC4"/>
<path d="M79.6945 121.799L45.2555 113.785L44.8427 115.737L79.2426 123.731L79.6945 121.799Z" fill="#E8DAC4"/>
<path d="M78.216 128.121L43.777 120.107L43.3642 122.059L77.7641 130.052L78.216 128.121Z" fill="#E8DAC4"/>
<path d="M76.7375 134.442L42.2985 126.429L41.8857 128.38L76.2856 136.374L76.7375 134.442Z" fill="#E8DAC4"/>
<path d="M107.476 102.694L97.7188 100.42L95.4788 110.138L105.236 112.412L107.476 102.694Z" fill="#FFAB6D"/>
<path d="M106.968 104.867L96.7803 104.485L97.6861 100.426L107.501 102.682L106.968 104.867Z" fill="#FFAB6D"/>
<path d="M94.9448 111.115C94.515 110.893 94.2847 110.381 94.3879 109.893L96.6281 100.176C96.7714 99.6101 97.3644 99.2271 97.9324 99.3723L107.688 101.647C107.963 101.69 108.216 101.87 108.37 102.146C108.545 102.383 108.581 102.697 108.499 102.951L106.259 112.668C106.116 113.233 105.523 113.616 104.955 113.471L95.1992 111.197C95.101 111.195 95.0229 111.155 94.9448 111.115Z" fill="#FFAB6D"/>
<path d="M109.831 107.277C109.401 107.055 109.171 106.543 109.274 106.055C109.417 105.489 110.01 105.106 110.578 105.252L135.418 111.072C135.986 111.217 136.372 111.81 136.229 112.375C136.086 112.941 135.493 113.324 134.925 113.179L110.085 107.359C109.987 107.357 109.909 107.317 109.831 107.277Z" fill="#E8DAC4"/>
<path d="M109.052 110.515C108.622 110.294 108.392 109.782 108.495 109.294C108.638 108.728 109.231 108.345 109.799 108.49L131.504 113.58C132.072 113.725 132.459 114.318 132.316 114.884C132.172 115.449 131.579 115.832 131.011 115.687L109.306 110.597C109.228 110.557 109.13 110.556 109.052 110.515Z" fill="#E8DAC4"/>
<path d="M102.825 121.312L93.0684 119.038L90.8284 128.756L100.585 131.03L102.825 121.312Z" fill="#E8B974"/>
<path d="M90.3354 129.744C89.9057 129.522 89.6753 129.01 89.7785 128.522L92.0188 118.805C92.162 118.239 92.7551 117.856 93.323 118.002L103.079 120.276C103.353 120.319 103.607 120.499 103.761 120.775C103.935 121.013 103.971 121.327 103.89 121.58L101.65 131.297C101.507 131.863 100.914 132.246 100.346 132.1L90.5898 129.826C90.5117 129.786 90.4135 129.784 90.3354 129.744Z" fill="#E8B974"/>
<path d="M105.181 125.886C104.752 125.664 104.521 125.152 104.624 124.664C104.768 124.098 105.361 123.715 105.929 123.861L130.768 129.68C131.336 129.826 131.723 130.419 131.58 130.984C131.436 131.55 130.843 131.933 130.275 131.788L105.436 125.968C105.338 125.966 105.259 125.926 105.181 125.886Z" fill="#E8DAC4"/>
<path d="M104.462 129.106C104.032 128.884 103.802 128.372 103.905 127.884C104.048 127.318 104.641 126.935 105.209 127.08L126.914 132.17C127.482 132.315 127.869 132.908 127.726 133.474C127.582 134.039 126.989 134.422 126.421 134.277L104.716 129.188C104.618 129.186 104.54 129.146 104.462 129.106Z" fill="#E8DAC4"/>
<path d="M98.2316 139.899L88.4746 137.625L86.2347 147.343L95.9917 149.617L98.2316 139.899Z" fill="white"/>
<path d="M85.7446 148.335C85.3148 148.114 85.0845 147.601 85.1877 147.113L87.4279 137.396C87.5712 136.831 88.1642 136.448 88.7322 136.593L98.4879 138.867C98.7624 138.91 99.0158 139.09 99.1701 139.367C99.3444 139.604 99.3804 139.918 99.2993 140.171L97.059 149.888C96.9157 150.454 96.3227 150.837 95.7547 150.692L85.999 148.417C85.9008 148.416 85.8227 148.375 85.7446 148.335Z" fill="#BAAC9B"/>
<path d="M100.57 144.516C100.14 144.294 99.9098 143.782 100.013 143.294C100.156 142.729 100.749 142.346 101.317 142.491L126.157 148.311C126.725 148.456 127.112 149.049 126.968 149.614C126.825 150.18 126.232 150.563 125.664 150.418L100.824 144.598C100.746 144.558 100.648 144.556 100.57 144.516Z" fill="#E8DAC4"/>
<path d="M99.8485 147.736C99.4188 147.514 99.1884 147.002 99.2916 146.514C99.4349 145.948 100.028 145.565 100.596 145.71L122.301 150.8C122.869 150.945 123.256 151.538 123.112 152.104C122.969 152.669 122.376 153.052 121.808 152.907L100.103 147.818C100.005 147.816 99.9267 147.776 99.8485 147.736Z" fill="#E8DAC4"/>
<path d="M164.175 39.2661C164.067 38.3248 163.585 37.4369 162.806 36.8384C162.026 36.2398 161.087 35.9522 160.123 36.0949C159.179 36.1988 158.291 36.6754 157.694 37.4499L156.798 38.6116L157.719 38.8402L158.395 38.0081C158.833 37.4467 159.524 37.0651 160.212 36.9772C160.939 36.9093 161.684 37.0963 162.249 37.5351C162.814 37.9739 163.199 38.6647 163.29 39.3512C163.361 40.0766 163.177 40.8178 162.739 41.3793L157.188 48.4057L153.985 52.5098C153.408 53.2454 152.307 53.3666 151.567 52.7882C151.216 52.5091 150.985 52.0946 150.931 51.624C150.876 51.1534 150.999 50.7244 151.277 50.3761L157.107 43.0013L156.405 42.443L150.576 49.8178C150.138 50.3792 149.955 51.0226 150.046 51.7091C150.137 52.3956 150.465 53.0073 151.03 53.4461C151.166 53.5655 151.322 53.6461 151.439 53.7065C152.533 54.2704 153.911 53.9966 154.667 53.0091L158.208 48.5378L163.461 41.8986C164.018 41.2019 164.263 40.2462 164.175 39.2661Z" fill="#FF9040"/>
</svg>
