<svg width="17" height="17" viewBox="0 0 17 17" fill="none" xmlns="http://www.w3.org/2000/svg">
<path d="M8.37451 0.281006C12.7928 0.281006 16.3745 3.86273 16.3745 8.28101C16.3745 12.6993 12.7928 16.281 8.37451 16.281C3.95623 16.281 0.374512 12.6993 0.374512 8.28101C0.374512 3.86273 3.95623 0.281006 8.37451 0.281006ZM10.8402 4.54123L8.37451 7.00801L5.91021 4.54123C5.55874 4.18976 4.98889 4.18976 4.63742 4.54123C4.28595 4.8927 4.28595 5.46255 4.63742 5.81402L7.10251 8.28201L4.63742 10.751C4.28595 11.1025 4.28595 11.6723 4.63742 12.0238C4.98889 12.3753 5.55874 12.3753 5.91021 12.0238L8.37451 9.55601L10.8402 12.0238C11.1917 12.3753 11.7615 12.3753 12.113 12.0238C12.4645 11.6723 12.4645 11.1025 12.113 10.751L9.64651 8.28201L12.113 5.81402C12.4645 5.46255 12.4645 4.8927 12.113 4.54123C11.7615 4.18976 11.1917 4.18976 10.8402 4.54123Z" fill="#B6C2DA"/>
</svg>
