<svg width="17" height="17" viewBox="0 0 17 17" fill="none" xmlns="http://www.w3.org/2000/svg">
<path d="M8.37451 0.260742C12.7928 0.260742 16.3745 3.84246 16.3745 8.26074C16.3745 12.679 12.7928 16.2607 8.37451 16.2607C3.95623 16.2607 0.374512 12.679 0.374512 8.26074C0.374512 3.84246 3.95623 0.260742 8.37451 0.260742ZM10.8402 4.52097L8.37451 6.98774L5.91021 4.52097C5.55874 4.16949 4.98889 4.16949 4.63742 4.52097C4.28595 4.87244 4.28595 5.44229 4.63742 5.79376L7.10251 8.26174L4.63742 10.7307C4.28595 11.0822 4.28595 11.6521 4.63742 12.0035C4.98889 12.355 5.55874 12.355 5.91021 12.0035L8.37451 9.53574L10.8402 12.0035C11.1917 12.355 11.7615 12.355 12.113 12.0035C12.4645 11.6521 12.4645 11.0822 12.113 10.7307L9.64651 8.26174L12.113 5.79376C12.4645 5.44229 12.4645 4.87244 12.113 4.52097C11.7615 4.16949 11.1917 4.16949 10.8402 4.52097Z" fill="#C4CDDF"/>
</svg>
