<svg width="20" height="20" viewBox="0 0 20 20" fill="none" xmlns="http://www.w3.org/2000/svg">
<path d="M8.36292 3.43594C7.42319 3.43594 6.54489 3.63289 5.728 4.0268C4.91111 4.42071 4.26159 4.95476 3.77944 5.62895C3.29729 6.30313 3.05622 7.02656 3.05622 7.79923C3.05622 8.42039 3.21898 9.01883 3.54451 9.59454C3.87004 10.1703 4.32762 10.6702 4.91725 11.0944L5.81091 11.7307L5.48846 12.6852C5.69729 12.5337 5.88769 12.386 6.05967 12.2421L6.46504 11.8898L6.95333 12.0034C7.43241 12.1095 7.90227 12.1625 8.36292 12.1625C9.30265 12.1625 10.181 11.9656 10.9978 11.5717C11.8147 11.1778 12.4643 10.6437 12.9464 9.96951C13.4286 9.29532 13.6696 8.5719 13.6696 7.79923C13.6696 7.02656 13.4286 6.30313 12.9464 5.62895C12.4643 4.95476 11.8147 4.42071 10.9978 4.0268C10.181 3.63289 9.30265 3.43594 8.36292 3.43594ZM8.36292 1.98151C9.53605 1.98151 10.6216 2.24096 11.6197 2.75985C12.6178 3.27875 13.4055 3.98514 13.9829 4.879C14.5602 5.77287 14.8489 6.74628 14.8489 7.79923C14.8489 8.85218 14.5602 9.82558 13.9829 10.7195C13.4055 11.6133 12.6178 12.3197 11.6197 12.8386C10.6216 13.3575 9.53605 13.617 8.36292 13.617C7.83471 13.617 7.29421 13.5564 6.74143 13.4351C5.97982 14.1018 5.12608 14.5866 4.18021 14.8896C3.9591 14.9578 3.69499 15.0184 3.38789 15.0714H3.36025C3.29269 15.0714 3.22973 15.0411 3.17138 14.9805C3.11303 14.9199 3.07772 14.8403 3.06543 14.7419C3.05929 14.7191 3.05622 14.6945 3.05622 14.668C3.05622 14.6415 3.05776 14.6169 3.06083 14.5941C3.0639 14.5714 3.07004 14.5487 3.07925 14.526L3.10229 14.4692L3.13453 14.4067L3.17138 14.3498L3.21284 14.293L3.24969 14.2419C3.2804 14.1965 3.35104 14.1018 3.46159 13.9578C3.57215 13.8139 3.652 13.7022 3.70113 13.6226C3.75027 13.5431 3.81937 13.4333 3.90843 13.2931C3.99748 13.153 4.07426 13.0072 4.13875 12.8556C4.20324 12.7041 4.2662 12.5375 4.32762 12.3557C3.56601 11.8103 2.96716 11.1399 2.53108 10.3445C2.09499 9.54909 1.87695 8.70067 1.87695 7.79923C1.87695 6.74628 2.16563 5.77287 2.74298 4.879C3.32033 3.98514 4.10804 3.27875 5.10612 2.75985C6.1042 2.24096 7.1898 1.98151 8.36292 1.98151ZM15.936 15.2645C15.9974 15.4464 16.0604 15.613 16.1249 15.7645C16.1894 15.916 16.2662 16.0618 16.3552 16.202C16.4443 16.3421 16.5134 16.452 16.5625 16.5315C16.6117 16.611 16.6915 16.7228 16.8021 16.8667C16.9126 17.0106 16.9832 17.1053 17.014 17.1508C17.0201 17.1583 17.0324 17.1754 17.0508 17.2019C17.0692 17.2284 17.0831 17.2473 17.0923 17.2587C17.1015 17.2701 17.1138 17.289 17.1291 17.3155C17.1445 17.342 17.1552 17.3629 17.1614 17.378L17.1844 17.4348L17.2028 17.503L17.2074 17.5769L17.1982 17.6507C17.1798 17.7568 17.1399 17.8401 17.0784 17.9007C17.017 17.9613 16.9495 17.9878 16.8758 17.9802C16.5687 17.9272 16.3046 17.8666 16.0834 17.7984C15.1376 17.4954 14.2838 17.0106 13.5222 16.344C12.9694 16.4652 12.4289 16.5258 11.9007 16.5258C10.2362 16.5258 8.78672 16.0259 7.55218 15.0259C7.90841 15.0562 8.17866 15.0714 8.36292 15.0714C9.35179 15.0714 10.3007 14.9009 11.2097 14.5601C12.1188 14.2192 12.9295 13.7306 13.642 13.0943C14.4097 12.3974 14.9994 11.5944 15.4109 10.6854C15.8224 9.77635 16.0282 8.8143 16.0282 7.79923C16.0282 7.21594 15.9575 6.64023 15.8163 6.07209C16.6086 6.60993 17.2351 7.28412 17.6957 8.09466C18.1564 8.9052 18.3867 9.77635 18.3867 10.7081C18.3867 11.6171 18.1687 12.4674 17.7326 13.259C17.2965 14.0506 16.6976 14.7191 15.936 15.2645Z" fill="#D75DC3"/>
</svg>
