<svg width="16" height="16" viewBox="0 0 16 16" fill="none" xmlns="http://www.w3.org/2000/svg">
<mask id="path-1-inside-1_1159_2226" fill="white">
<path fill-rule="evenodd" clip-rule="evenodd" d="M9.21898 14.5155C9.86705 14.0121 10.4716 13.455 11.0263 12.8503C12.3323 11.4214 13.7126 9.2921 13.7126 6.65365C13.7126 3.41253 11.1477 0.941162 8.00008 0.941162C4.8525 0.941162 2.2876 3.41253 2.2876 6.65365C2.2876 9.2921 3.66788 11.4214 4.97389 12.8503C5.52832 13.455 6.13264 14.012 6.78047 14.5155C7.70065 15.2293 8.27278 15.2505 9.21898 14.5155ZM8.00008 3.73524C7.24256 3.73524 6.51607 4.03617 5.98042 4.57182C5.44477 5.10747 5.14384 5.83396 5.14384 6.59149C5.14384 7.34901 5.44477 8.07551 5.98042 8.61115C6.51607 9.1468 7.24256 9.44773 8.00008 9.44773C8.75761 9.44773 9.4841 9.1468 10.0198 8.61115C10.5554 8.07551 10.8563 7.34901 10.8563 6.59149C10.8563 5.83396 10.5554 5.10747 10.0198 4.57182C9.4841 4.03617 8.75761 3.73524 8.00008 3.73524Z"/>
</mask>
<path fill-rule="evenodd" clip-rule="evenodd" d="M9.21898 14.5155C9.86705 14.0121 10.4716 13.455 11.0263 12.8503C12.3323 11.4214 13.7126 9.2921 13.7126 6.65365C13.7126 3.41253 11.1477 0.941162 8.00008 0.941162C4.8525 0.941162 2.2876 3.41253 2.2876 6.65365C2.2876 9.2921 3.66788 11.4214 4.97389 12.8503C5.52832 13.455 6.13264 14.012 6.78047 14.5155C7.70065 15.2293 8.27278 15.2505 9.21898 14.5155ZM8.00008 3.73524C7.24256 3.73524 6.51607 4.03617 5.98042 4.57182C5.44477 5.10747 5.14384 5.83396 5.14384 6.59149C5.14384 7.34901 5.44477 8.07551 5.98042 8.61115C6.51607 9.1468 7.24256 9.44773 8.00008 9.44773C8.75761 9.44773 9.4841 9.1468 10.0198 8.61115C10.5554 8.07551 10.8563 7.34901 10.8563 6.59149C10.8563 5.83396 10.5554 5.10747 10.0198 4.57182C9.4841 4.03617 8.75761 3.73524 8.00008 3.73524Z" fill="#606483"/>
<path d="M11.0263 12.8503L11.9106 13.6614L11.912 13.6599L11.0263 12.8503ZM9.21898 14.5155L8.48286 13.5678L8.48283 13.5678L9.21898 14.5155ZM4.97389 12.8503L4.08815 13.6599L4.08937 13.6612L4.97389 12.8503ZM6.78047 14.5155L6.04414 15.463L6.04493 15.4636L6.78047 14.5155ZM5.98042 4.57182L5.13189 3.72329L5.13189 3.72329L5.98042 4.57182ZM10.0198 4.57182L10.8683 3.72329L10.8683 3.72329L10.0198 4.57182ZM10.1419 12.0392C9.63273 12.5943 9.07776 13.1057 8.48286 13.5678L9.95511 15.4631C10.6563 14.9185 11.3105 14.3157 11.9106 13.6614L10.1419 12.0392ZM12.5126 6.65365C12.5126 8.86394 11.3522 10.7151 10.1405 12.0407L11.912 13.6599C13.3124 12.1278 14.9126 9.72026 14.9126 6.65365H12.5126ZM8.00008 2.14116C10.4978 2.14116 12.5126 4.08809 12.5126 6.65365H14.9126C14.9126 2.73696 11.7975 -0.258838 8.00008 -0.258838V2.14116ZM3.4876 6.65365C3.4876 4.08809 5.50235 2.14116 8.00008 2.14116V-0.258838C4.20266 -0.258838 1.0876 2.73696 1.0876 6.65365H3.4876ZM5.85964 12.0407C4.64799 10.7151 3.4876 8.86394 3.4876 6.65365H1.0876C1.0876 9.72026 2.68776 12.1278 4.08815 13.6599L5.85964 12.0407ZM7.51679 13.5679C6.92211 13.1058 6.36737 12.5945 5.85842 12.0393L4.08937 13.6612C4.68928 14.3156 5.34317 14.9183 6.04414 15.463L7.51679 13.5679ZM8.48283 13.5678C8.07818 13.8821 7.96655 13.8586 7.99841 13.8588C8.02595 13.859 7.91618 13.8777 7.51601 13.5673L6.04493 15.4636C6.56494 15.867 7.20132 16.2533 7.98152 16.2588C8.76604 16.2643 9.41358 15.8838 9.95514 15.4631L8.48283 13.5678ZM6.82894 5.42035C7.13955 5.10974 7.56082 4.93524 8.00008 4.93524V2.53524C6.9243 2.53524 5.89258 2.9626 5.13189 3.72329L6.82894 5.42035ZM6.34384 6.59149C6.34384 6.15222 6.51834 5.73095 6.82894 5.42035L5.13189 3.72329C4.37119 4.48398 3.94384 5.5157 3.94384 6.59149H6.34384ZM6.82894 7.76263C6.51834 7.45202 6.34384 7.03075 6.34384 6.59149H3.94384C3.94384 7.66727 4.37119 8.69899 5.13189 9.45968L6.82894 7.76263ZM8.00008 8.24773C7.56082 8.24773 7.13955 8.07323 6.82894 7.76263L5.13189 9.45968C5.89258 10.2204 6.9243 10.6477 8.00008 10.6477V8.24773ZM9.17123 7.76263C8.86062 8.07323 8.43935 8.24773 8.00008 8.24773V10.6477C9.07587 10.6477 10.1076 10.2204 10.8683 9.45968L9.17123 7.76263ZM9.65633 6.59149C9.65633 7.03075 9.48183 7.45202 9.17123 7.76263L10.8683 9.45968C11.629 8.69899 12.0563 7.66727 12.0563 6.59149H9.65633ZM9.17123 5.42035C9.48183 5.73095 9.65633 6.15222 9.65633 6.59149H12.0563C12.0563 5.5157 11.629 4.48398 10.8683 3.72329L9.17123 5.42035ZM8.00008 4.93524C8.43935 4.93524 8.86062 5.10974 9.17123 5.42035L10.8683 3.72329C10.1076 2.9626 9.07587 2.53524 8.00008 2.53524V4.93524Z" fill="#606483" mask="url(#path-1-inside-1_1159_2226)"/>
</svg>
