<svg width="61" height="61" viewBox="0 0 61 61" fill="none" xmlns="http://www.w3.org/2000/svg">
<rect x="0.236816" y="0.255615" width="60" height="60" rx="4" fill="#FFF8DF"/>
<rect width="53" height="53" transform="translate(3.73682 3.75562)" fill="#FFF8DF"/>
<g opacity="0.75">
<path fill-rule="evenodd" clip-rule="evenodd" d="M45.2963 19.1666L21.901 14.0077L15.3607 16.928L14.5872 36.604C14.5508 37.2853 14.7358 37.9579 15.1202 38.542C15.5047 39.1261 16.0724 39.5972 16.7562 39.8995L38.5146 49.5429C38.5146 49.5429 42.9432 35.5137 45.2963 19.1666Z" fill="#C56F30"/>
<path fill-rule="evenodd" clip-rule="evenodd" d="M40.2985 20.8471L16.8719 13.509L24.881 13.3539L45.0614 19.1014L40.2985 20.8471Z" fill="#E2A761"/>
<path d="M26.5236 20.3699C25.9744 23.3612 25.6016 26.3728 25.4067 29.3925C25.3563 30.1501 25.3216 30.9088 25.3206 31.6697C25.3202 32.0521 25.3175 32.4326 25.3396 32.8158C25.3486 33.0135 25.3572 33.1993 25.3661 33.393L25.4246 33.9843C25.4463 34.1826 25.4823 34.3792 25.5322 34.573C25.5523 34.669 25.5756 34.7847 25.5972 34.8648C25.6188 34.9449 25.6473 35.0286 25.6597 35.1052C25.6932 35.2341 25.7031 35.3674 25.6891 35.4999C25.6903 35.5276 25.679 35.5242 25.6904 35.5295C25.7019 35.5349 25.6904 35.5295 25.69 35.5197C25.6972 35.5127 25.7037 35.505 25.7091 35.4969C25.7311 35.477 25.7581 35.462 25.7878 35.4531C25.8012 35.4524 25.8235 35.4512 25.8101 35.4519C25.6878 35.4351 25.571 35.3968 25.4665 35.3393C25.3052 35.2612 25.1512 35.172 25.006 35.0724C24.7078 34.865 24.4376 34.628 24.2004 34.3661C24.0946 34.2546 24.004 34.1324 23.9305 34.0019L23.9109 33.9653L23.9098 33.9416C23.9082 33.9324 23.9078 33.9232 23.9085 33.9139L23.9078 33.6544L23.9303 32.5318L23.9971 30.2754C24.0289 28.7699 24.0832 27.2652 24.1082 25.7581L24.1946 21.24C24.2173 19.733 24.2244 18.2268 24.2942 16.7173C23.9794 18.2101 23.8265 19.7141 23.6536 21.2231C23.4808 22.7321 23.357 24.2345 23.2467 25.7402C23.1365 27.2459 23.0443 28.7527 22.9521 30.2614C22.9082 31.0146 22.88 31.769 22.8497 32.5235L22.8144 33.6607L22.8128 33.9679C22.8134 33.9817 22.8137 33.9877 22.8148 34.0114L22.8181 34.0825C22.8232 34.1263 22.8327 34.1696 22.8464 34.2118L22.8851 34.3227C22.8978 34.3557 22.9126 34.3847 22.9275 34.4156C23.0355 34.6216 23.1731 34.8141 23.337 34.9883C23.6304 35.3078 23.9655 35.5953 24.3355 35.8449C24.5245 35.9764 24.7263 36.0931 24.9387 36.1934C25.1985 36.328 25.4928 36.4036 25.796 36.4136C25.9099 36.4127 26.0233 36.396 26.1321 36.3641C26.2617 36.3212 26.379 36.2526 26.4748 36.1637C26.5216 36.1238 26.5617 36.0783 26.5941 36.0286C26.6267 35.986 26.6532 35.94 26.673 35.8917C26.7087 35.8139 26.7336 35.7327 26.7471 35.65C26.7836 35.4075 26.9482 32.4742 26.8896 32.2367C26.8689 32.1268 26.8358 32.0414 26.8083 31.9299C26.7808 31.8185 26.769 31.7576 26.7471 31.6697C26.7017 31.5017 26.6662 31.3316 26.6408 31.1601C26.4339 29.7287 26.2783 30.9018 26.2613 29.4087C26.2915 26.4014 26.4334 23.3882 26.5236 20.3699Z" fill="#945142"/>
<path fill-rule="evenodd" clip-rule="evenodd" d="M44.3498 18.9925L40.919 19.4435C40.5402 19.5131 40.1963 19.6925 39.9418 19.9529C39.6873 20.2134 39.537 20.5401 39.5147 20.8809L37.4603 46.7945C37.3611 48.3947 38.2139 49.7385 39.365 49.7212L45.3157 49.141C46.5273 49.1205 47.4436 47.6969 47.3453 46.0418L45.8029 20.0847C45.8003 19.924 45.7593 19.7663 45.6828 19.6218C45.6062 19.4773 45.4958 19.3494 45.3586 19.2463C45.2215 19.1432 45.0607 19.0673 44.8869 19.0236C44.713 18.9799 44.53 18.9693 44.3498 18.9925Z" fill="#DC9562"/>
<path fill-rule="evenodd" clip-rule="evenodd" d="M44.2823 19.717L40.9647 20.1441C40.7795 20.1775 40.6114 20.2653 40.4878 20.3931C40.3642 20.5209 40.2925 20.6812 40.2843 20.8478L38.6132 46.6183C38.5788 47.3829 38.993 48.0089 39.5393 47.9958L45.1144 47.3879C45.6831 47.3756 46.1233 46.7124 46.0897 45.9296L44.9726 20.2551C44.9727 20.1776 44.9543 20.1012 44.9187 20.031C44.8831 19.9608 44.8311 19.8983 44.766 19.8475C44.7009 19.7968 44.6241 19.7589 44.5408 19.7364C44.4575 19.7139 44.3694 19.7073 44.2823 19.717Z" fill="#8A3927"/>
<g opacity="0.22">
<path d="M44.9378 45.6134C44.9545 43.4863 44.8574 41.3688 44.7401 39.2523L44.6405 37.6668L44.5186 36.0825C44.4786 35.5544 44.4387 35.0263 44.3854 34.4988L44.311 33.7074L44.2187 32.9169C43.9787 30.8104 43.6158 28.7138 43.378 26.6072C43.1401 24.5005 42.9805 22.388 42.8923 20.27L42.346 20.2815L41.864 23.6981C41.7085 24.8373 41.5666 25.9769 41.4381 27.117C41.1796 29.3972 40.8986 31.6768 40.6873 33.958C40.4759 36.2392 40.3005 38.5236 40.1655 40.8077C40.0304 43.0918 39.9268 45.3759 39.8793 47.664L39.9893 47.6686C40.3983 45.3943 40.7423 43.1234 41.0476 40.8373C41.3529 38.5512 41.623 36.279 41.868 33.9978C42.113 31.7166 42.2683 29.4349 42.4504 27.1518C42.5475 26.0111 42.6296 24.8695 42.6968 23.7269L42.887 20.3014L42.3385 20.3131C42.6291 22.4152 42.8454 24.5236 42.9872 26.6382C43.1268 28.7535 43.1413 30.8772 43.2786 32.9909L43.3284 33.7854L43.3939 34.5773C43.4361 35.1053 43.4893 35.631 43.5426 36.1584L43.7071 37.7404L43.8893 39.3198C44.1473 41.4254 44.4275 43.5281 44.8217 45.623L44.9378 45.6134Z" fill="#FFE8AE"/>
</g>
<path fill-rule="evenodd" clip-rule="evenodd" d="M24.2661 14.3333C24.2061 14.1932 24.179 14.0433 24.1865 13.8927L24.1878 11.9667C24.1899 10.4014 24.7013 10.0616 25.765 10.043C28.1413 10.3022 32.2111 11.1835 34.4189 11.6841L34.652 11.7315L34.7182 11.7577L34.7479 11.77C35.8971 12.2482 37.0101 12.7163 37.0085 14.7354L37.007 16.6554C37.017 16.8072 36.9919 16.9598 36.933 17.1039C36.8742 17.248 36.7829 17.3805 36.6647 17.4932C36.5466 17.6059 36.4041 17.6965 36.246 17.7593C36.0879 17.8222 35.9176 17.8561 35.7456 17.8588C35.5735 17.8616 35.4032 17.8331 35.2453 17.7753C35.0874 17.7174 34.9452 17.6314 34.8274 17.5225C34.7095 17.4135 34.6186 17.2839 34.5601 17.1417C34.5017 16.9995 34.4769 16.8477 34.4874 16.6955L34.4827 14.7838C34.4832 14.271 34.1087 14.1087 33.712 13.9369C33.7025 13.9328 33.693 13.9287 33.6835 13.9246L33.6538 13.9123L33.5898 13.884L33.4446 13.8544L26.707 12.5547L26.7081 13.8504C26.7155 14.0009 26.6883 14.1516 26.6282 14.2937C26.5681 14.4357 26.4764 14.5661 26.3585 14.6769C26.2407 14.7877 26.0992 14.8767 25.9425 14.9385C25.7858 15.0003 25.6172 15.0337 25.4469 15.0365C25.2766 15.0394 25.108 15.0117 24.9514 14.9551C24.7947 14.8986 24.6533 14.8143 24.5355 14.7074C24.4177 14.6006 24.3261 14.4733 24.2661 14.3333Z" fill="#9B542D"/>
<path opacity="0.64" fill-rule="evenodd" clip-rule="evenodd" d="M36.4636 19.2113L18.5553 14.4308C17.1352 13.9115 15.9736 14.6307 15.9727 16.0276L14.789 27.0805C14.7881 28.4774 15.9491 30.0427 17.3691 30.56L36.4518 37.5235C37.8719 38.0428 39.0334 37.3215 39.0344 35.9266L39.6413 20.7426C39.6414 20.5221 37.8836 19.7286 36.4636 19.2113Z" fill="#8A3927"/>
<path fill-rule="evenodd" clip-rule="evenodd" d="M36.4631 19.2113L17.9875 13.6702C16.5674 13.151 15.5315 13.8735 15.4049 15.2671L13.6597 25.2876C13.5197 26.6819 14.8197 28.2478 16.2376 28.7672L35.9274 36.1269C37.3474 36.6462 38.3699 35.9244 38.5099 34.53C38.5099 34.53 40.1688 21.2705 39.4887 20.5573C38.8086 19.844 37.8831 19.7286 36.4631 19.2113Z" fill="#C46C2C"/>
<path fill-rule="evenodd" clip-rule="evenodd" d="M25.5051 30.3278L24.1159 29.6998C23.8023 29.5579 23.5458 29.73 23.5473 30.1064L23.5433 34.2198C23.5457 34.4044 23.5988 34.5848 23.6979 34.7456C23.797 34.9063 23.9392 35.0426 24.1123 35.1428L25.5014 35.7687C25.8149 35.9106 26.0715 35.7385 26.0699 35.3622L26.074 31.2487C26.0712 31.0645 26.018 30.8845 25.9189 30.7241C25.8199 30.5637 25.6779 30.4277 25.5051 30.3278Z" fill="#E7B873"/>
</g>
</svg>
