<svg width="17" height="16" viewBox="0 0 17 16" fill="none" xmlns="http://www.w3.org/2000/svg">
<circle cx="8.94824" cy="8" r="7.35" stroke="#606483" stroke-width="1.3"/>
<path d="M8.18637 11.7654C8.18637 11.3495 8.52351 11.0124 8.93939 11.0124C9.35527 11.0124 9.6924 11.3495 9.6924 11.7654C9.6924 12.1813 9.35527 12.5184 8.93939 12.5184C8.52351 12.5184 8.18637 12.1813 8.18637 11.7654ZM9.39873 3.51233C7.84751 3.28642 6.47703 4.24275 6.06287 5.61324C5.92733 6.04999 6.25865 6.49427 6.71799 6.49427H6.86859C7.17733 6.49427 7.42583 6.27589 7.53125 5.98975C7.77221 5.31956 8.48758 4.86022 9.26318 5.02589C9.97855 5.17649 10.5057 5.87679 10.4454 6.60722C10.3701 7.61626 9.22553 7.83463 8.60053 8.7759C8.60053 8.78343 8.593 8.78344 8.593 8.79097C8.58547 8.80603 8.57794 8.81356 8.57041 8.82862C8.50264 8.94157 8.43487 9.06958 8.38216 9.20512C8.37463 9.22772 8.35957 9.24277 8.35204 9.26537C8.34451 9.28043 8.3445 9.29549 8.33697 9.31808C8.24661 9.5741 8.18637 9.88284 8.18637 10.2593H9.6924C9.6924 9.94308 9.77523 9.67952 9.90325 9.45362C9.91831 9.43103 9.92584 9.40844 9.9409 9.38585C10.0011 9.28043 10.0764 9.18253 10.1517 9.09217C10.1593 9.08464 10.1668 9.06958 10.1743 9.06205C10.2496 8.97169 10.3325 8.88886 10.4228 8.80603C11.1457 8.12078 12.1246 7.56355 11.9213 6.12529C11.7406 4.81504 10.709 3.70811 9.39873 3.51233Z" fill="#606483"/>
</svg>
