<svg width="21" height="20" viewBox="0 0 21 20" fill="none" xmlns="http://www.w3.org/2000/svg">
<path d="M0.39209 4C0.39209 1.79086 2.18295 0 4.39209 0H16.3921C18.6012 0 20.3921 1.79086 20.3921 4V16C20.3921 18.2091 18.6012 20 16.3921 20H4.39209C2.18295 20 0.39209 18.2091 0.39209 16V4Z" fill="#2F93E1"/>
<path d="M14.1908 5.61512H11.7684C11.6716 5.32732 11.4868 5.07718 11.2402 4.89997C10.9937 4.72277 10.6977 4.62744 10.394 4.62744C10.0904 4.62744 9.79437 4.72277 9.54778 4.89997C9.3012 5.07718 9.11647 5.32732 9.01964 5.61512H6.69144C6.60905 5.6032 6.52506 5.60889 6.44503 5.63182C6.365 5.65474 6.29074 5.69438 6.22715 5.74811C6.16356 5.80185 6.11209 5.86845 6.07613 5.94354C6.04018 6.01863 6.02055 6.10048 6.01855 6.18371V14.8034C6.019 14.8785 6.03423 14.9528 6.06338 15.022C6.09253 15.0913 6.13503 15.1541 6.18845 15.2069C6.24188 15.2597 6.30518 15.3014 6.37474 15.3298C6.4443 15.3581 6.51876 15.3724 6.59387 15.372H14.1908C14.2659 15.3724 14.3404 15.3581 14.4099 15.3298C14.4795 15.3014 14.5428 15.2597 14.5962 15.2069C14.6496 15.1541 14.6921 15.0913 14.7213 15.022C14.7504 14.9528 14.7657 14.8785 14.7661 14.8034V6.18371C14.7657 6.1086 14.7504 6.03431 14.7213 5.96509C14.6921 5.89586 14.6496 5.83306 14.5962 5.78026C14.5428 5.72746 14.4795 5.6857 14.4099 5.65737C14.3404 5.62903 14.2659 5.61468 14.1908 5.61512ZM8.13479 6.62445C8.13479 6.53522 8.17024 6.44965 8.23333 6.38655C8.29643 6.32346 8.382 6.28801 8.47123 6.28801H9.6286V6.07605C9.6286 5.86948 9.71066 5.67137 9.85673 5.52531C10.0028 5.37924 10.2009 5.29718 10.4075 5.29718C10.614 5.29718 10.8121 5.37924 10.9582 5.52531C11.1043 5.67137 11.1863 5.86948 11.1863 6.07605V6.30483H12.3437C12.4329 6.30483 12.5185 6.34028 12.5816 6.40337C12.6447 6.46647 12.6802 6.55204 12.6802 6.64128V7.24688H8.12133L8.13479 6.62445ZM13.02 9.72983L9.95159 12.7982L8.18862 11.0352C8.09939 10.946 8.04926 10.825 8.04926 10.6988C8.04926 10.5726 8.09939 10.4516 8.18862 10.3623C8.27785 10.2731 8.39887 10.223 8.52506 10.223C8.65126 10.223 8.77228 10.2731 8.86151 10.3623L9.95832 11.4592L12.3605 9.05695C12.4498 8.96772 12.5708 8.91759 12.697 8.91759C12.8232 8.91759 12.9442 8.96772 13.0334 9.05695C13.1227 9.14618 13.1728 9.2672 13.1728 9.39339C13.1728 9.51958 13.1227 9.6406 13.0334 9.72983H13.02Z" fill="white"/>
</svg>
