<svg width="21" height="20" viewBox="0 0 21 20" fill="none" xmlns="http://www.w3.org/2000/svg">
<path d="M0.39209 4C0.39209 1.79086 2.18295 0 4.39209 0H16.3921C18.6012 0 20.3921 1.79086 20.3921 4V16C20.3921 18.2091 18.6012 20 16.3921 20H4.39209C2.18295 20 0.39209 18.2091 0.39209 16V4Z" fill="#FFA438"/>
<path d="M15.0262 6.75454H12.9194V6.34886C12.919 6.0262 12.7858 5.71685 12.5488 5.4887C12.3119 5.26054 11.9906 5.1322 11.6556 5.13184H9.1279C8.79282 5.1322 8.47158 5.26054 8.23465 5.4887C7.99771 5.71685 7.86444 6.0262 7.86406 6.34886V6.75454H5.75809C5.5347 6.75478 5.32054 6.84034 5.16258 6.99245C5.00463 7.14455 4.91578 7.35078 4.91553 7.56589V14.0567C4.91578 14.2718 5.00463 14.4781 5.16258 14.6302C5.32054 14.7823 5.5347 14.8678 5.75809 14.8681H15.0262C15.2496 14.8678 15.4638 14.7823 15.6217 14.6302C15.7797 14.4781 15.8685 14.2718 15.8688 14.0567V7.56589C15.8685 7.35078 15.7797 7.14455 15.6217 6.99245C15.4638 6.84034 15.2496 6.75478 15.0262 6.75454ZM8.70662 8.78292C8.70662 8.89051 8.66223 8.9937 8.58323 9.06978C8.50422 9.14586 8.39707 9.1886 8.28534 9.1886C8.17361 9.1886 8.06646 9.14586 7.98745 9.06978C7.90844 8.9937 7.86406 8.89051 7.86406 8.78292V7.97157C7.86406 7.86398 7.90844 7.76079 7.98745 7.68471C8.06646 7.60863 8.17361 7.56589 8.28534 7.56589C8.39707 7.56589 8.50422 7.60863 8.58323 7.68471C8.66223 7.76079 8.70662 7.86398 8.70662 7.97157V8.78292ZM8.70662 6.34886C8.70676 6.24131 8.75119 6.13821 8.83016 6.06216C8.90914 5.98611 9.01621 5.94332 9.1279 5.94319H11.6556C11.7673 5.94332 11.8743 5.98611 11.9533 6.06216C12.0323 6.13821 12.0767 6.24131 12.0769 6.34886V6.75454H8.70662V6.34886ZM12.9194 8.78292C12.9194 8.89051 12.875 8.9937 12.796 9.06978C12.717 9.14586 12.6099 9.1886 12.4981 9.1886C12.3864 9.1886 12.2792 9.14586 12.2002 9.06978C12.1212 8.9937 12.0769 8.89051 12.0769 8.78292V7.97157C12.0769 7.86398 12.1212 7.76079 12.2002 7.68471C12.2792 7.60863 12.3864 7.56589 12.4981 7.56589C12.6099 7.56589 12.717 7.60863 12.796 7.68471C12.875 7.76079 12.9194 7.86398 12.9194 7.97157V8.78292Z" fill="white"/>
</svg>
