<svg width="22" height="22" viewBox="0 0 22 22" fill="none" xmlns="http://www.w3.org/2000/svg">
<path d="M3.00437 6.76164L3.71955 6.39878C4.39098 6.05879 5.22007 6.2808 5.65921 6.91687L6.53149 8.18443C6.91128 8.73634 6.901 9.46405 6.50441 9.98335L5.40159 11.4285C5.62436 12.1422 6.0187 12.8146 6.5832 13.4459C7.12194 14.0581 7.78301 14.5614 8.52727 14.9261L10.0351 14.1368C10.6073 13.8382 11.314 13.9485 11.7887 14.41L12.8967 15.4849C13.4495 16.0219 13.5348 16.8778 13.096 17.4882L12.6255 18.1424C12.1574 18.7935 11.3746 19.1351 10.5711 19.0379C8.67364 18.8096 6.717 17.5021 4.70046 15.1155C2.68102 12.7253 1.71402 10.5684 1.8007 8.6475C1.83698 7.83917 2.29445 7.12149 3.00437 6.76164Z" stroke="#232056" stroke-width="1.4" stroke-linejoin="round"/>
<path d="M16.4468 9.09331C16.314 9.09331 16.1839 9.1311 16.0717 9.20228L13.6126 10.7629V9.79331C13.6126 9.40671 13.2992 9.09331 12.9126 9.09331C12.574 9.09331 12.2557 8.96493 12.0263 8.7465C11.798 8.52918 11.6766 8.24201 11.6766 7.9503V4.26428C11.6766 3.97256 11.798 3.68539 12.0263 3.46807C12.2557 3.24964 12.574 3.12126 12.9126 3.12126H18.7206C19.0593 3.12126 19.3775 3.24964 19.607 3.46807C19.8352 3.68539 19.9567 3.97256 19.9567 4.26428V7.9503C19.9567 8.24201 19.8352 8.52918 19.607 8.7465C19.3775 8.96493 19.0593 9.09331 18.7206 9.09331H16.4468Z" stroke="#232056" stroke-width="1.4" stroke-linecap="round" stroke-linejoin="round"/>
</svg>
