<svg width="20" height="20" viewBox="0 0 20 20" fill="none" xmlns="http://www.w3.org/2000/svg">
<path fill-rule="evenodd" clip-rule="evenodd" d="M10 3C9.39625 3 8.38738 3.23188 7.438 3.49C6.46675 3.7525 5.48763 4.06312 4.91188 4.25125C4.67116 4.33074 4.45775 4.47653 4.29616 4.67186C4.13457 4.8672 4.03136 5.10415 3.99838 5.3555C3.47688 9.27288 4.687 12.1761 6.15525 14.0968C6.77789 14.9183 7.52028 15.6419 8.35763 16.2431C8.69538 16.482 9.00863 16.6649 9.27463 16.79C9.51963 16.9055 9.783 17 10 17C10.217 17 10.4795 16.9055 10.7254 16.79C11.0461 16.6341 11.3528 16.4512 11.6424 16.2431C12.4797 15.6419 13.2221 14.9184 13.8448 14.0968C15.313 12.1761 16.5231 9.27288 16.0016 5.3555C15.9687 5.10403 15.8655 4.86694 15.7039 4.67145C15.5424 4.47597 15.3289 4.33003 15.0881 4.25038C14.2523 3.97634 13.41 3.72251 12.562 3.48913C11.6126 3.23275 10.6038 3 10 3ZM10 7.375C10.31 7.37454 10.6101 7.48379 10.8472 7.6834C11.0843 7.88302 11.2432 8.16011 11.2956 8.46561C11.348 8.77111 11.2906 9.08529 11.1335 9.35252C10.9765 9.61975 10.7299 9.82277 10.4375 9.92562L10.7744 11.6669C10.7866 11.7302 10.7847 11.7955 10.7688 11.858C10.7529 11.9205 10.7233 11.9787 10.6823 12.0285C10.6412 12.0782 10.5897 12.1183 10.5313 12.1458C10.473 12.1733 10.4093 12.1875 10.3448 12.1875H9.65525C9.59082 12.1874 9.52721 12.173 9.46896 12.1455C9.41072 12.1179 9.35928 12.0779 9.31832 12.0281C9.27735 11.9784 9.24789 11.9202 9.23201 11.8578C9.21614 11.7953 9.21426 11.7301 9.2265 11.6669L9.5625 9.92562C9.27011 9.82277 9.02355 9.61975 8.8665 9.35252C8.70945 9.08529 8.65204 8.77111 8.70444 8.46561C8.75684 8.16011 8.91567 7.88302 9.1528 7.6834C9.38992 7.48379 9.69005 7.37454 10 7.375Z" fill="#D75DC3"/>
</svg>
