<svg width="20" height="20" viewBox="0 0 20 20" fill="none" xmlns="http://www.w3.org/2000/svg">
<path d="M9.46705 4.78587L10 5.41172L10.5329 4.78587C11.2764 3.91279 12.4199 3.36003 13.6 3.36003C15.6774 3.36003 17.3 4.98263 17.3 7.06003C17.3 8.3421 16.7297 9.56007 15.5832 10.9618C14.4286 12.3735 12.7639 13.8847 10.6898 15.7655L10.6888 15.7664L9.99821 16.395L9.31077 15.774C9.3105 15.7737 9.31022 15.7735 9.30995 15.7732C7.23609 13.8886 5.5716 12.3756 4.41698 10.963C3.27027 9.56011 2.7 8.34211 2.7 7.06003C2.7 4.98263 4.3226 3.36003 6.4 3.36003C7.58005 3.36003 8.72357 3.91279 9.46705 4.78587Z" stroke="#606483" stroke-width="1.4"/>
</svg>
