<svg width="10" height="10" viewBox="0 0 10 10" fill="none" xmlns="http://www.w3.org/2000/svg">
<path d="M9.70649 0.757277C9.79947 0.85015 9.87323 0.960438 9.92355 1.08184C9.97388 1.20323 9.99978 1.33336 9.99978 1.46478C9.99978 1.59619 9.97388 1.72632 9.92355 1.84772C9.87323 1.96912 9.79947 2.0794 9.70649 2.17228L6.72449 5.15328L9.40049 7.82828C9.58813 8.01592 9.69355 8.27041 9.69355 8.53578C9.69355 8.80114 9.58813 9.05564 9.40049 9.24328C9.21285 9.43092 8.95835 9.53633 8.69299 9.53633C8.42763 9.53633 8.17313 9.43092 7.98549 9.24328L5.31049 6.56728L2.63549 9.24328C2.44785 9.43092 2.19336 9.53633 1.92799 9.53633C1.66263 9.53633 1.40813 9.43092 1.22049 9.24328C1.03285 9.05564 0.927435 8.80114 0.927435 8.53578C0.927435 8.27041 1.03285 8.01592 1.22049 7.82828L3.89649 5.15328L0.914492 2.17228C0.821581 2.0793 0.747894 1.96894 0.697636 1.84748C0.647379 1.72603 0.621536 1.59587 0.621582 1.46442C0.621629 1.33298 0.647564 1.20284 0.697907 1.08142C0.74825 0.96 0.822016 0.849687 0.914991 0.756777C1.00797 0.663867 1.11833 0.590179 1.23979 0.539922C1.36124 0.489664 1.4914 0.463821 1.62284 0.463867C1.75429 0.463914 1.88443 0.489849 2.00585 0.540193C2.12727 0.590536 2.23758 0.664301 2.33049 0.757277L5.31049 3.74028L8.29149 0.758277C8.38436 0.665301 8.49465 0.591542 8.61605 0.541217C8.73745 0.490893 8.86758 0.464991 8.99899 0.464991C9.13041 0.464991 9.26053 0.490893 9.38193 0.541217C9.50333 0.591542 9.61362 0.665301 9.70649 0.758277V0.757277Z" fill="#606483"/>
</svg>
