<svg width="13" height="16" viewBox="0 0 13 16" fill="none" xmlns="http://www.w3.org/2000/svg">
<path d="M7.45682 14.8709L7.45684 14.8709C8.16243 14.3228 8.82066 13.7163 9.42456 13.0579C10.8534 11.4945 12.2983 9.23215 12.2983 6.47415C12.2983 3.16681 9.68941 0.65 6.47415 0.65C3.25889 0.65 0.65 3.16681 0.65 6.47415C0.65 9.23221 2.09493 11.4946 3.52382 13.058C4.12743 13.7163 4.78535 14.3228 5.49063 14.8708L7.45682 14.8709ZM7.45682 14.8709C6.95771 15.2586 6.67266 15.3514 6.46726 15.35M7.45682 14.8709L6.46726 15.35M6.46726 15.35C6.25957 15.3485 5.97948 15.25 5.49076 14.8709L6.46726 15.35Z" stroke="#606483" stroke-width="1.3"/>
<path d="M4.6092 5.03901C5.10374 4.54446 5.7745 4.26663 6.47389 4.26663C7.17329 4.26663 7.84404 4.54446 8.33858 5.03901C8.83313 5.53355 9.11097 6.2043 9.11097 6.9037C9.11097 7.6031 8.83313 8.27385 8.33858 8.76839C7.84404 9.26294 7.17329 9.54078 6.47389 9.54078C5.7745 9.54078 5.10374 9.26294 4.6092 8.76839C4.11465 8.27385 3.83682 7.6031 3.83682 6.9037C3.83682 6.2043 4.11465 5.53355 4.6092 5.03901Z" stroke="#606483" stroke-width="1.2"/>
</svg>
