<svg width="141" height="39" viewBox="0 0 141 39" fill="none" xmlns="http://www.w3.org/2000/svg">
<path fill-rule="evenodd" clip-rule="evenodd" d="M68.3518 18.5882L71.6942 7.94169C71.9559 7.10801 72.7286 6.54075 73.6024 6.54075H74.5757C75.9259 6.54075 76.8882 7.85119 76.4839 9.13951L72.385 22.2028C70.953 25.6635 66.0595 25.6875 64.5937 22.2409L60.2481 10.4433C59.7753 9.15978 60.186 7.71782 61.2641 6.87593C62.3926 5.99465 64.0528 6.47808 64.5319 7.82743L68.3518 18.5882Z" fill="#EF1C31"/>
<path fill-rule="evenodd" clip-rule="evenodd" d="M56.4511 18.542L53.2864 7.96733C53.033 7.12072 52.2541 6.54075 51.3704 6.54075H50.4178C49.0675 6.54075 48.1053 7.85119 48.5095 9.13951L52.6084 22.2028C54.0405 25.6635 58.934 25.6875 60.3998 22.2409L64.5865 10.4088C65.0406 9.1255 64.6235 7.69559 63.5506 6.85775C62.4153 5.97124 60.7452 6.45726 60.263 7.81449L56.4511 18.542Z" fill="#EF1C31"/>
<path d="M32.6514 10.3787V9.30298C32.6514 8.19841 31.7559 7.30298 30.6514 7.30298H26.6721C25.5675 7.30298 24.6721 8.19841 24.6721 9.30298V10.3787C24.6721 11.4832 25.5675 12.3787 26.6721 12.3787H30.6514C31.7559 12.3787 32.6514 11.4832 32.6514 10.3787Z" fill="#334866"/>
<path d="M122.739 2H121.577C120.472 2 119.577 2.89543 119.577 4V22.8118C119.577 23.9163 120.472 24.8118 121.577 24.8118H122.739C123.844 24.8118 124.739 23.9163 124.739 22.8118V4C124.739 2.89543 123.844 2 122.739 2Z" fill="#EF1C31"/>
<path d="M132.187 7.38529C132.567 6.94318 133.121 6.68884 133.704 6.68884L134.654 6.68884C136.361 6.68884 137.283 8.69047 136.174 9.98835L123.769 24.5013L120.637 20.8252L132.187 7.38529Z" fill="#EF1C31"/>
<path d="M128.581 19.3043C127.645 18.3331 127.919 16.7324 129.125 16.1281L129.851 15.7642C130.65 15.3637 131.618 15.5424 132.222 16.2019L137.741 22.2304C138.621 23.1927 137.939 24.7432 136.634 24.7432H134.675C134.132 24.7432 133.612 24.5223 133.235 24.1313L128.581 19.3043Z" fill="#EF1C31"/>
<path d="M38.7637 14.5324V15.3983C38.7637 16.5028 39.6591 17.3983 40.7637 17.3983H43.8303C44.9349 17.3983 45.8303 16.5028 45.8303 15.3983V14.5324C45.8303 13.4278 44.9349 12.5324 43.8303 12.5324L40.7637 12.5323C39.6591 12.5323 38.7637 13.4278 38.7637 14.5324Z" fill="#334866"/>
<path fill-rule="evenodd" clip-rule="evenodd" d="M85.1636 6.5249C81.8499 6.5249 79.1636 9.21119 79.1636 12.5249V19.0001C79.1636 22.3138 81.8499 25.0001 85.1636 25.0001H93.2645C96.5782 25.0001 99.2645 22.3138 99.2645 19.0001V12.5249C99.2645 9.21119 96.5782 6.5249 93.2645 6.5249H85.1636ZM86.4663 11.0681C85.3617 11.0681 84.4663 11.9635 84.4663 13.0681V18.458C84.4663 19.5626 85.3617 20.458 86.4663 20.458H91.9615C93.0661 20.458 93.9615 19.5626 93.9615 18.458V13.0681C93.9615 11.9635 93.0661 11.0681 91.9615 11.0681H86.4663Z" fill="#EF1C31"/>
<path fill-rule="evenodd" clip-rule="evenodd" d="M0 12.5249C0 9.21119 2.6863 6.5249 6 6.5249H15.0311C17.831 6.5249 20.1007 8.79464 20.1007 11.5945V23.0001C20.1007 24.1046 19.2053 25.0001 18.1007 25.0001H16.821C15.7164 25.0001 14.821 24.1046 14.821 23.0001V13.4661C14.821 12.3615 13.9255 11.4661 12.821 11.4661H7.29574C6.19117 11.4661 5.29574 12.3615 5.29574 13.4661L5.29573 18.0589C5.29573 19.1634 6.19117 20.0589 7.29574 20.0589H10.1984C11.303 20.0589 12.1984 20.9543 12.1984 22.0589V23.0001C12.1984 24.1046 11.303 25.0001 10.1984 25.0001H6C2.68629 25.0001 0 22.3138 0 19.0001C0 16.8417 0 14.6833 0 12.5249Z" fill="#334866"/>
<path fill-rule="evenodd" clip-rule="evenodd" d="M27.1331 2C28.2376 2 29.1331 2.89543 29.1331 4V16.3628C29.1331 18.2294 30.6462 19.7426 32.5128 19.7426H34.0178C35.1224 19.7426 36.0178 20.638 36.0178 21.7426V22.8122C36.0178 23.9167 35.1224 24.8122 34.0178 24.8122H32.5128C27.8464 24.8122 24.0635 21.0293 24.0635 16.3628V4C24.0635 2.89543 24.9589 2 26.0635 2H27.1331Z" fill="#334866"/>
<path fill-rule="evenodd" clip-rule="evenodd" d="M106.567 25C107.671 25 108.567 24.1046 108.567 23V14.8367C108.567 13.0005 110.08 11.512 111.946 11.512H113.451C114.556 11.512 115.451 10.6165 115.451 9.51195V8.52484C115.451 7.42027 114.556 6.52484 113.451 6.52484H111.946C107.28 6.52484 103.497 10.2462 103.497 14.8367V23C103.497 24.1046 104.393 25 105.497 25H106.567Z" fill="#EF1C31"/>
<path d="M2.64815 31.1134C2.45308 31.1158 2.25678 31.1658 2.05927 31.2633C1.86419 31.3609 1.70082 31.4901 1.56914 31.651C1.4399 31.8095 1.37528 31.9863 1.37528 32.1814H0.526705C0.526705 31.9375 0.585227 31.7035 0.702273 31.4791C0.819318 31.2548 0.976598 31.0548 1.17411 30.8793C1.37406 30.7037 1.60084 30.5647 1.85444 30.4623C2.11048 30.3599 2.37505 30.3087 2.64815 30.3087C3.16023 30.3087 3.59427 30.4379 3.95028 30.6964C4.30874 30.9549 4.58062 31.2962 4.76594 31.7205C4.95371 32.1448 5.04759 32.6057 5.04759 33.1031V33.308C5.04759 33.803 4.95371 34.2638 4.76594 34.6906C4.58062 35.1148 4.30874 35.4562 3.95028 35.7147C3.59427 35.9732 3.16023 36.1024 2.64815 36.1024C2.23849 36.1024 1.87395 36.0122 1.55451 35.8317C1.23507 35.6489 0.983913 35.405 0.80103 35.1002C0.618146 34.7954 0.526705 34.4565 0.526705 34.0834H1.37528C1.37528 34.2955 1.43503 34.4943 1.55451 34.6796C1.67643 34.8625 1.83371 35.0112 2.02635 35.1258C2.22143 35.238 2.42869 35.2953 2.64815 35.2977C2.97491 35.2953 3.25289 35.1929 3.4821 34.9905C3.71132 34.7881 3.88567 34.5345 4.00515 34.2297C4.12463 33.9249 4.18438 33.6176 4.18438 33.308V33.1031C4.18438 32.7861 4.12463 32.4764 4.00515 32.1741C3.8881 31.8693 3.71497 31.6169 3.48576 31.4169C3.25898 31.217 2.97978 31.1158 2.64815 31.1134ZM4.53551 32.7666V33.5713H2.07756V32.7666H4.53551ZM6.36252 36V30.3818H7.22573V32.8251H7.79632L9.81536 30.3818H10.9273L8.65954 33.0885L10.9566 36H9.84462L8.00115 33.6298H7.22573V36H6.36252ZM13.9458 36.117C13.4386 36.117 12.9936 35.9963 12.6107 35.7549C12.2303 35.5135 11.9328 35.1758 11.7183 34.7418C11.5061 34.3077 11.4 33.8005 11.4 33.2202C11.4 32.6349 11.5061 32.1241 11.7183 31.6876C11.9328 31.2511 12.2303 30.9122 12.6107 30.6708C12.9936 30.4294 13.4386 30.3087 13.9458 30.3087C14.453 30.3087 14.8968 30.4294 15.2772 30.6708C15.66 30.9122 15.9575 31.2511 16.1696 31.6876C16.3842 32.1241 16.4915 32.6349 16.4915 33.2202C16.4915 33.8005 16.3842 34.3077 16.1696 34.7418C15.9575 35.1758 15.66 35.5135 15.2772 35.7549C14.8968 35.9963 14.453 36.117 13.9458 36.117ZM13.9458 35.3416C14.3311 35.3416 14.6481 35.2429 14.8968 35.0453C15.1455 34.8478 15.3296 34.5881 15.4491 34.2663C15.5686 33.9444 15.6283 33.5957 15.6283 33.2202C15.6283 32.8446 15.5686 32.4947 15.4491 32.1704C15.3296 31.8461 15.1455 31.584 14.8968 31.384C14.6481 31.1841 14.3311 31.0841 13.9458 31.0841C13.5605 31.0841 13.2435 31.1841 12.9948 31.384C12.7461 31.584 12.562 31.8461 12.4425 32.1704C12.323 32.4947 12.2633 32.8446 12.2633 33.2202C12.2633 33.5957 12.323 33.9444 12.4425 34.2663C12.562 34.5881 12.7461 34.8478 12.9948 35.0453C13.2435 35.2429 13.5605 35.3416 13.9458 35.3416ZM20.0916 36.117C19.5649 36.117 19.1113 35.9927 18.7309 35.744C18.3505 35.4952 18.0579 35.1526 17.8531 34.7162C17.6483 34.2797 17.5458 33.781 17.5458 33.2202C17.5458 32.6496 17.6507 32.146 17.8604 31.7096C18.0726 31.2706 18.3676 30.928 18.7456 30.6817C19.126 30.433 19.5698 30.3087 20.077 30.3087C20.472 30.3087 20.828 30.3818 21.145 30.5281C21.462 30.6744 21.7217 30.8793 21.9241 31.1426C22.1265 31.406 22.252 31.7132 22.3008 32.0643H21.4376C21.3718 31.8083 21.2255 31.5815 20.9987 31.384C20.7744 31.1841 20.472 31.0841 20.0916 31.0841C19.7551 31.0841 19.46 31.1719 19.2064 31.3474C18.9553 31.5206 18.759 31.7656 18.6175 32.0826C18.4786 32.3972 18.4091 32.7666 18.4091 33.1909C18.4091 33.625 18.4773 34.0029 18.6139 34.3248C18.7529 34.6467 18.948 34.8966 19.1991 35.0746C19.4527 35.2526 19.7502 35.3416 20.0916 35.3416C20.3159 35.3416 20.5195 35.3026 20.7024 35.2246C20.8853 35.1465 21.0401 35.0344 21.1669 34.8881C21.2937 34.7418 21.384 34.5662 21.4376 34.3614H22.3008C22.252 34.693 22.1313 34.9917 21.9387 35.2575C21.7485 35.5208 21.4961 35.7306 21.1816 35.8866C20.8695 36.0402 20.5061 36.117 20.0916 36.117ZM24.4259 34.7271L27.1326 30.3818H28.1275V36H27.2643V31.6547L24.5722 36H23.5627V30.3818H24.4259V34.7271ZM31.9909 36.117C31.4642 36.117 31.0106 35.9927 30.6302 35.744C30.2498 35.4952 29.9572 35.1526 29.7524 34.7162C29.5476 34.2797 29.4452 33.781 29.4452 33.2202C29.4452 32.6496 29.55 32.146 29.7597 31.7096C29.9719 31.2706 30.2669 30.928 30.6449 30.6817C31.0253 30.433 31.4691 30.3087 31.9763 30.3087C32.3713 30.3087 32.7273 30.3818 33.0443 30.5281C33.3613 30.6744 33.621 30.8793 33.8234 31.1426C34.0258 31.406 34.1514 31.7132 34.2001 32.0643H33.3369C33.2711 31.8083 33.1248 31.5815 32.898 31.384C32.6737 31.1841 32.3713 31.0841 31.9909 31.0841C31.6544 31.0841 31.3593 31.1719 31.1057 31.3474C30.8546 31.5206 30.6583 31.7656 30.5169 32.0826C30.3779 32.3972 30.3084 32.7666 30.3084 33.1909C30.3084 33.625 30.3766 34.0029 30.5132 34.3248C30.6522 34.6467 30.8473 34.8966 31.0984 35.0746C31.352 35.2526 31.6495 35.3416 31.9909 35.3416C32.2152 35.3416 32.4188 35.3026 32.6017 35.2246C32.7846 35.1465 32.9395 35.0344 33.0663 34.8881C33.1931 34.7418 33.2833 34.5662 33.3369 34.3614H34.2001C34.1514 34.693 34.0307 34.9917 33.838 35.2575C33.6478 35.5208 33.3954 35.7306 33.0809 35.8866C32.7688 36.0402 32.4054 36.117 31.9909 36.117ZM35.0195 31.1865V30.3818H39.5842V31.1865H37.7408V36H36.8775V31.1865H35.0195ZM42.9072 36.117C42.3659 36.117 41.8989 35.9976 41.5063 35.7586C41.1162 35.5172 40.815 35.1807 40.6029 34.7491C40.3932 34.315 40.2883 33.8103 40.2883 33.2348C40.2883 32.6593 40.3932 32.1521 40.6029 31.7132C40.815 31.2719 41.1101 30.928 41.488 30.6817C41.8684 30.433 42.3122 30.3087 42.8194 30.3087C43.112 30.3087 43.401 30.3574 43.6863 30.455C43.9716 30.5525 44.2313 30.711 44.4654 30.9305C44.6995 31.1475 44.886 31.4352 45.025 31.7937C45.164 32.1521 45.2335 32.5935 45.2335 33.1178V33.4835H40.9028V32.7374H44.3557C44.3557 32.4204 44.2923 32.1375 44.1655 31.8888C44.0411 31.6401 43.8631 31.4438 43.6314 31.2999C43.4022 31.156 43.1316 31.0841 42.8194 31.0841C42.4756 31.0841 42.1781 31.1694 41.927 31.3401C41.6782 31.5084 41.4868 31.7278 41.3527 31.9985C41.2186 32.2692 41.1515 32.5594 41.1515 32.869V33.3665C41.1515 33.7908 41.2247 34.1504 41.371 34.4455C41.5197 34.7381 41.7258 34.9612 41.9891 35.1148C42.2525 35.266 42.5585 35.3416 42.9072 35.3416C43.134 35.3416 43.3388 35.3099 43.5217 35.2465C43.707 35.1807 43.8667 35.0831 44.0009 34.9539C44.135 34.8222 44.2386 34.6589 44.3118 34.4638L45.1457 34.6979C45.0579 34.9807 44.9104 35.2295 44.7031 35.444C44.4959 35.6562 44.2398 35.822 43.935 35.9415C43.6302 36.0585 43.2876 36.117 42.9072 36.117ZM49.619 34.8295L51.5796 30.3818H52.3989L49.9702 36H49.2679L46.8831 30.3818H47.6878L49.619 34.8295ZM47.4098 30.3818V36H46.5466V30.3818H47.4098ZM51.8283 36V30.3818H52.6915V36H51.8283ZM55.9249 36.1317C55.5689 36.1317 55.2458 36.0646 54.9556 35.9305C54.6654 35.794 54.435 35.5977 54.2643 35.3416C54.0936 35.0831 54.0082 34.771 54.0082 34.4053C54.0082 34.0834 54.0716 33.8225 54.1984 33.6225C54.3252 33.4201 54.4947 33.2616 54.7069 33.147C54.919 33.0324 55.1531 32.9471 55.4091 32.891C55.6676 32.8325 55.9273 32.7861 56.1882 32.752C56.5296 32.7081 56.8064 32.6752 57.0185 32.6532C57.2331 32.6288 57.3892 32.5886 57.4867 32.5325C57.5867 32.4764 57.6367 32.3789 57.6367 32.2399V32.2107C57.6367 31.8498 57.5379 31.5693 57.3404 31.3694C57.1453 31.1694 56.849 31.0695 56.4516 31.0695C56.0395 31.0695 55.7164 31.1597 55.4823 31.3401C55.2482 31.5206 55.0836 31.7132 54.9885 31.918L54.1692 31.6254C54.3155 31.284 54.5106 31.0183 54.7544 30.8281C55.0007 30.6354 55.2689 30.5013 55.5591 30.4257C55.8517 30.3477 56.1395 30.3087 56.4223 30.3087C56.6028 30.3087 56.81 30.3306 57.0441 30.3745C57.2806 30.416 57.5086 30.5025 57.7281 30.6342C57.95 30.7659 58.1341 30.9646 58.2804 31.2304C58.4267 31.4962 58.4999 31.8522 58.4999 32.2984V36H57.6367V35.2392H57.5928C57.5342 35.3611 57.4367 35.4916 57.3002 35.6306C57.1636 35.7696 56.9819 35.8878 56.7552 35.9854C56.5284 36.0829 56.2516 36.1317 55.9249 36.1317ZM56.0565 35.3562C56.3979 35.3562 56.6857 35.2892 56.9198 35.1551C57.1563 35.021 57.3343 34.8478 57.4538 34.6357C57.5757 34.4235 57.6367 34.2004 57.6367 33.9663V33.1763C57.6001 33.2202 57.5196 33.2604 57.3953 33.297C57.2733 33.3311 57.1319 33.3616 56.971 33.3884C56.8125 33.4128 56.6576 33.4348 56.5064 33.4543C56.3577 33.4713 56.237 33.486 56.1443 33.4982C55.92 33.5274 55.7103 33.575 55.5152 33.6408C55.3226 33.7042 55.1665 33.8005 55.047 33.9298C54.93 34.0566 54.8715 34.2297 54.8715 34.4491C54.8715 34.7491 54.9824 34.9759 55.2043 35.1295C55.4286 35.2807 55.7127 35.3562 56.0565 35.3562ZM62.9723 36V30.3818H65.2693C65.874 30.3818 66.3544 30.5184 66.7104 30.7915C67.0664 31.0646 67.2444 31.4255 67.2444 31.8741C67.2444 32.2155 67.1432 32.4801 66.9409 32.6679C66.7385 32.8532 66.4788 32.9788 66.1618 33.0446C66.369 33.0739 66.5702 33.147 66.7653 33.2641C66.9628 33.3811 67.1262 33.542 67.2554 33.7469C67.3847 33.9493 67.4493 34.198 67.4493 34.493C67.4493 34.7808 67.3761 35.038 67.2298 35.2648C67.0835 35.4916 66.8738 35.6708 66.6007 35.8025C66.3276 35.9342 66.0008 36 65.6204 36H62.9723ZM63.7916 35.2099H65.6204C65.9179 35.2099 66.1508 35.1392 66.3191 34.9978C66.4873 34.8564 66.5714 34.6637 66.5714 34.4199C66.5714 34.1297 66.4873 33.9017 66.3191 33.7359C66.1508 33.5676 65.9179 33.4835 65.6204 33.4835H63.7916V35.2099ZM63.7916 32.7374H65.2693C65.501 32.7374 65.6997 32.7057 65.8655 32.6423C66.0313 32.5764 66.1581 32.4838 66.2459 32.3643C66.3361 32.2424 66.3812 32.0985 66.3812 31.9327C66.3812 31.6961 66.2825 31.5108 66.085 31.3767C65.8874 31.2402 65.6156 31.1719 65.2693 31.1719H63.7916V32.7374ZM71.0384 36.117C70.5312 36.117 70.0861 35.9963 69.7033 35.7549C69.3229 35.5135 69.0254 35.1758 68.8108 34.7418C68.5987 34.3077 68.4926 33.8005 68.4926 33.2202C68.4926 32.6349 68.5987 32.1241 68.8108 31.6876C69.0254 31.2511 69.3229 30.9122 69.7033 30.6708C70.0861 30.4294 70.5312 30.3087 71.0384 30.3087C71.5456 30.3087 71.9894 30.4294 72.3698 30.6708C72.7526 30.9122 73.0501 31.2511 73.2622 31.6876C73.4768 32.1241 73.5841 32.6349 73.5841 33.2202C73.5841 33.8005 73.4768 34.3077 73.2622 34.7418C73.0501 35.1758 72.7526 35.5135 72.3698 35.7549C71.9894 35.9963 71.5456 36.117 71.0384 36.117ZM71.0384 35.3416C71.4236 35.3416 71.7406 35.2429 71.9894 35.0453C72.2381 34.8478 72.4222 34.5881 72.5417 34.2663C72.6611 33.9444 72.7209 33.5957 72.7209 33.2202C72.7209 32.8446 72.6611 32.4947 72.5417 32.1704C72.4222 31.8461 72.2381 31.584 71.9894 31.384C71.7406 31.1841 71.4236 31.0841 71.0384 31.0841C70.6531 31.0841 70.3361 31.1841 70.0874 31.384C69.8386 31.584 69.6545 31.8461 69.5351 32.1704C69.4156 32.4947 69.3558 32.8446 69.3558 33.2202C69.3558 33.5957 69.4156 33.9444 69.5351 34.2663C69.6545 34.5881 69.8386 34.8478 70.0874 35.0453C70.3361 35.2429 70.6531 35.3416 71.0384 35.3416ZM74.5506 34.5662H75.4724C75.4919 34.8198 75.6065 35.0124 75.8162 35.1441C76.0283 35.2758 76.3039 35.3416 76.6428 35.3416C76.9891 35.3416 77.2854 35.2709 77.5316 35.1295C77.7779 34.9856 77.9011 34.754 77.9011 34.4345C77.9011 34.2468 77.8547 34.0834 77.7621 33.9444C77.6694 33.803 77.539 33.6932 77.3707 33.6152C77.2024 33.5372 77.0037 33.4982 76.7745 33.4982H75.8089V32.7227H76.7745C77.1183 32.7227 77.3719 32.6447 77.5353 32.4886C77.7011 32.3326 77.784 32.1375 77.784 31.9034C77.784 31.6522 77.695 31.4511 77.517 31.2999C77.339 31.1463 77.0866 31.0695 76.7599 31.0695C76.4307 31.0695 76.1564 31.1438 75.9369 31.2926C75.7174 31.4389 75.6016 31.6279 75.5894 31.8595H74.6823C74.6921 31.5571 74.7847 31.2901 74.9603 31.0585C75.1359 30.8244 75.3748 30.6415 75.6772 30.5098C75.9796 30.3757 76.3258 30.3087 76.716 30.3087C77.111 30.3087 77.4536 30.3782 77.7438 30.5172C78.0364 30.6537 78.262 30.8402 78.4205 31.0768C78.5814 31.3109 78.6619 31.5767 78.6619 31.8741C78.6619 32.1911 78.5729 32.4472 78.3948 32.6423C78.2168 32.8373 77.9937 32.9763 77.7255 33.0592V33.1178C77.9376 33.1324 78.1217 33.2007 78.2778 33.3226C78.4363 33.4421 78.5594 33.5993 78.6472 33.7944C78.735 33.9871 78.7789 34.2004 78.7789 34.4345C78.7789 34.7759 78.6875 35.0734 78.5046 35.327C78.3217 35.5781 78.0705 35.7732 77.7511 35.9122C77.4317 36.0488 77.0671 36.117 76.6575 36.117C76.26 36.117 75.904 36.0524 75.5894 35.9232C75.2749 35.7915 75.0249 35.6098 74.8396 35.3782C74.6567 35.1441 74.5604 34.8734 74.5506 34.5662ZM83.0639 34.8295L85.0244 30.3818H85.8437L83.415 36H82.7127L80.3279 30.3818H81.1326L83.0639 34.8295ZM80.8546 30.3818V36H79.9914V30.3818H80.8546ZM85.2731 36V30.3818H86.1363V36H85.2731ZM89.9988 36.117C89.4916 36.117 89.0466 35.9963 88.6638 35.7549C88.2834 35.5135 87.9859 35.1758 87.7713 34.7418C87.5591 34.3077 87.4531 33.8005 87.4531 33.2202C87.4531 32.6349 87.5591 32.1241 87.7713 31.6876C87.9859 31.2511 88.2834 30.9122 88.6638 30.6708C89.0466 30.4294 89.4916 30.3087 89.9988 30.3087C90.506 30.3087 90.9498 30.4294 91.3302 30.6708C91.713 30.9122 92.0105 31.2511 92.2227 31.6876C92.4373 32.1241 92.5446 32.6349 92.5446 33.2202C92.5446 33.8005 92.4373 34.3077 92.2227 34.7418C92.0105 35.1758 91.713 35.5135 91.3302 35.7549C90.9498 35.9963 90.506 36.117 89.9988 36.117ZM89.9988 35.3416C90.3841 35.3416 90.7011 35.2429 90.9498 35.0453C91.1985 34.8478 91.3826 34.5881 91.5021 34.2663C91.6216 33.9444 91.6813 33.5957 91.6813 33.2202C91.6813 32.8446 91.6216 32.4947 91.5021 32.1704C91.3826 31.8461 91.1985 31.584 90.9498 31.384C90.7011 31.1841 90.3841 31.0841 89.9988 31.0841C89.6135 31.0841 89.2965 31.1841 89.0478 31.384C88.7991 31.584 88.615 31.8461 88.4955 32.1704C88.376 32.4947 88.3163 32.8446 88.3163 33.2202C88.3163 33.5957 88.376 33.9444 88.4955 34.2663C88.615 34.5881 88.7991 34.8478 89.0478 35.0453C89.2965 35.2429 89.6135 35.3416 89.9988 35.3416ZM93.2797 36L95.5621 33.147L93.309 30.3818H94.3331L96.2059 32.7812H96.6741V30.3818H97.5373V32.7812H97.9908L99.8635 30.3818H100.888L98.6492 33.147L100.917 36H99.8782L97.9762 33.5859H97.5373V36H96.6741V33.5859H96.2351L94.3185 36H93.2797ZM105.911 32.7959V33.6006H102.809V32.7959H105.911ZM103.014 30.3818V36H102.151V30.3818H103.014ZM106.569 30.3818V36H105.706V30.3818H106.569ZM110.428 36.117C109.921 36.117 109.476 35.9963 109.093 35.7549C108.712 35.5135 108.415 35.1758 108.2 34.7418C107.988 34.3077 107.882 33.8005 107.882 33.2202C107.882 32.6349 107.988 32.1241 108.2 31.6876C108.415 31.2511 108.712 30.9122 109.093 30.6708C109.476 30.4294 109.921 30.3087 110.428 30.3087C110.935 30.3087 111.379 30.4294 111.759 30.6708C112.142 30.9122 112.44 31.2511 112.652 31.6876C112.866 32.1241 112.974 32.6349 112.974 33.2202C112.974 33.8005 112.866 34.3077 112.652 34.7418C112.44 35.1758 112.142 35.5135 111.759 35.7549C111.379 35.9963 110.935 36.117 110.428 36.117ZM110.428 35.3416C110.813 35.3416 111.13 35.2429 111.379 35.0453C111.628 34.8478 111.812 34.5881 111.931 34.2663C112.051 33.9444 112.11 33.5957 112.11 33.2202C112.11 32.8446 112.051 32.4947 111.931 32.1704C111.812 31.8461 111.628 31.584 111.379 31.384C111.13 31.1841 110.813 31.0841 110.428 31.0841C110.043 31.0841 109.726 31.1841 109.477 31.384C109.228 31.584 109.044 31.8461 108.925 32.1704C108.805 32.4947 108.745 32.8446 108.745 33.2202C108.745 33.5957 108.805 33.9444 108.925 34.2663C109.044 34.5881 109.228 34.8478 109.477 35.0453C109.726 35.2429 110.043 35.3416 110.428 35.3416ZM116.574 36.117C116.047 36.117 115.593 35.9927 115.213 35.744C114.833 35.4952 114.54 35.1526 114.335 34.7162C114.13 34.2797 114.028 33.781 114.028 33.2202C114.028 32.6496 114.133 32.146 114.342 31.7096C114.555 31.2706 114.85 30.928 115.228 30.6817C115.608 30.433 116.052 30.3087 116.559 30.3087C116.954 30.3087 117.31 30.3818 117.627 30.5281C117.944 30.6744 118.204 30.8793 118.406 31.1426C118.609 31.406 118.734 31.7132 118.783 32.0643H117.92C117.854 31.8083 117.707 31.5815 117.481 31.384C117.256 31.1841 116.954 31.0841 116.574 31.0841C116.237 31.0841 115.942 31.1719 115.688 31.3474C115.437 31.5206 115.241 31.7656 115.1 32.0826C114.961 32.3972 114.891 32.7666 114.891 33.1909C114.891 33.625 114.959 34.0029 115.096 34.3248C115.235 34.6467 115.43 34.8966 115.681 35.0746C115.935 35.2526 116.232 35.3416 116.574 35.3416C116.798 35.3416 117.002 35.3026 117.184 35.2246C117.367 35.1465 117.522 35.0344 117.649 34.8881C117.776 34.7418 117.866 34.5662 117.92 34.3614H118.783C118.734 34.693 118.613 34.9917 118.421 35.2575C118.231 35.5208 117.978 35.7306 117.664 35.8866C117.351 36.0402 116.988 36.117 116.574 36.117ZM119.602 31.1865V30.3818H124.167V31.1865H122.323V36H121.46V31.1865H119.602ZM127.49 36.117C126.949 36.117 126.482 35.9976 126.089 35.7586C125.699 35.5172 125.398 35.1807 125.186 34.7491C124.976 34.315 124.871 33.8103 124.871 33.2348C124.871 32.6593 124.976 32.1521 125.186 31.7132C125.398 31.2719 125.693 30.928 126.071 30.6817C126.451 30.433 126.895 30.3087 127.402 30.3087C127.695 30.3087 127.984 30.3574 128.269 30.455C128.554 30.5525 128.814 30.711 129.048 30.9305C129.282 31.1475 129.469 31.4352 129.608 31.7937C129.747 32.1521 129.816 32.5935 129.816 33.1178V33.4835H125.486V32.7374H128.938C128.938 32.4204 128.875 32.1375 128.748 31.8888C128.624 31.6401 128.446 31.4438 128.214 31.2999C127.985 31.156 127.714 31.0841 127.402 31.0841C127.058 31.0841 126.761 31.1694 126.51 31.3401C126.261 31.5084 126.07 31.7278 125.935 31.9985C125.801 32.2692 125.734 32.5594 125.734 32.869V33.3665C125.734 33.7908 125.807 34.1504 125.954 34.4455C126.102 34.7381 126.309 34.9612 126.572 35.1148C126.835 35.266 127.141 35.3416 127.49 35.3416C127.717 35.3416 127.922 35.3099 128.104 35.2465C128.29 35.1807 128.449 35.0831 128.584 34.9539C128.718 34.8222 128.821 34.6589 128.894 34.4638L129.728 34.6979C129.641 34.9807 129.493 35.2295 129.286 35.444C129.079 35.6562 128.823 35.822 128.518 35.9415C128.213 36.0585 127.87 36.117 127.49 36.117ZM131.993 34.7271L134.699 30.3818H135.694V36H134.831V31.6547L132.139 36H131.129V30.3818H131.993V34.7271ZM134.129 28.5091H134.933C134.933 28.9041 134.797 29.2272 134.524 29.4784C134.251 29.7295 133.88 29.8551 133.412 29.8551C132.951 29.8551 132.584 29.7295 132.311 29.4784C132.04 29.2272 131.905 28.9041 131.905 28.5091H132.709C132.709 28.6993 132.762 28.8663 132.867 29.0102C132.974 29.1541 133.156 29.226 133.412 29.226C133.668 29.226 133.851 29.1541 133.96 29.0102C134.073 28.8663 134.129 28.6993 134.129 28.5091Z" fill="#606483"/>
</svg>
