<svg width="36" height="36" viewBox="0 0 36 36" fill="none" xmlns="http://www.w3.org/2000/svg">
<rect width="36" height="36" rx="18" fill="white"/>
<path d="M10.1458 13.0776C9.99988 13.2006 9.99992 13.3876 9.99988 13.5593V24.9124C9.99988 25.1554 10.1935 25.3369 10.4135 25.3423C10.5272 25.3452 10.6249 25.2728 10.7101 25.1973L13.9041 22.3666C14.1183 22.1768 14.2409 21.9044 14.2409 21.6182V10.7883C14.2409 10.3667 13.7512 10.1343 13.4245 10.4007C12.0934 11.4865 10.2643 12.9778 10.1458 13.0776ZM16.1622 9.83639C15.8357 9.60623 15.3915 9.84269 15.3915 10.2422V21.5222C15.3915 21.8623 15.5644 22.1791 15.8504 22.3632L19.7101 24.8465C20.0429 25.0606 20.4807 24.8217 20.4807 24.426V13.5733C20.4807 13.261 20.3343 12.9664 20.0859 12.777C18.3855 11.4811 17.2447 10.5994 16.1622 9.83639ZM25.5864 9.70361C25.4726 9.70079 25.3749 9.77315 25.2897 9.84863L22.0957 12.6793C21.8816 12.8691 21.759 13.1416 21.759 13.4277V24.2819C21.759 24.7047 22.251 24.9367 22.5771 24.6677L25.3481 22.3821C25.4267 22.3173 25.5171 22.2687 25.6031 22.214C25.7022 22.1509 25.7878 22.0674 25.8541 21.9683C25.9491 21.8261 25.9999 21.6584 25.9999 21.4867V10.1335C25.9999 9.89059 25.8063 9.70907 25.5864 9.70361Z" fill="#107EDC"/>
</svg>
