<svg width="36" height="37" viewBox="0 0 36 37" fill="none" xmlns="http://www.w3.org/2000/svg">
<rect y="0.849609" width="36" height="36" rx="18" fill="#107EDC"/>
<path d="M10.1458 13.9273C9.99988 14.0502 9.99992 14.2372 9.99988 14.4089V25.762C9.99988 26.005 10.1935 26.1865 10.4135 26.1919C10.5272 26.1948 10.6249 26.1224 10.7101 26.0469L13.9041 23.2162C14.1183 23.0264 14.2409 22.754 14.2409 22.4678V11.6379C14.2409 11.2163 13.7512 10.9839 13.4245 11.2503C12.0934 12.3361 10.2643 13.8274 10.1458 13.9273ZM16.1622 10.686C15.8357 10.4558 15.3915 10.6923 15.3915 11.0918V22.3718C15.3915 22.7119 15.5644 23.0287 15.8504 23.2128L19.7101 25.6961C20.0429 25.9102 20.4807 25.6713 20.4807 25.2756V14.4229C20.4807 14.1106 20.3343 13.816 20.0859 13.6266C18.3855 12.3307 17.2447 11.449 16.1622 10.686ZM25.5864 10.5532C25.4726 10.5504 25.3749 10.6228 25.2897 10.6982L22.0957 13.5289C21.8816 13.7187 21.759 13.9912 21.759 14.2773V25.1316C21.759 25.5543 22.251 25.7863 22.5771 25.5173L25.3481 23.2317C25.4267 23.1669 25.5171 23.1183 25.6031 23.0636C25.7022 23.0005 25.7878 22.917 25.8541 22.8179C25.9491 22.6758 25.9999 22.508 25.9999 22.3363V10.9831C25.9999 10.7402 25.8063 10.5587 25.5864 10.5532Z" fill="white"/>
</svg>
