<svg width="60" height="60" viewBox="0 0 60 60" fill="none" xmlns="http://www.w3.org/2000/svg">
<rect width="60" height="60" rx="4" fill="#E6F8FF"/>
<rect width="53" height="53" transform="translate(3.5 3.5)" fill="#E6F8FF"/>
<g opacity="0.8">
<path fill-rule="evenodd" clip-rule="evenodd" d="M28.2582 31.3917C28.6173 31.4621 28.8514 31.8101 28.7811 32.1692L25.18 50.5582C25.1096 50.9173 24.7616 51.1514 24.4025 51.0811C24.0434 51.0107 23.8093 50.6627 23.8797 50.3036L27.4808 31.9146C27.5511 31.5555 27.8992 31.3214 28.2582 31.3917Z" fill="#FFD18E"/>
<path fill-rule="evenodd" clip-rule="evenodd" d="M31.567 31.3917C31.9261 31.3214 32.2742 31.5555 32.3445 31.9146L35.9456 50.3036C36.0159 50.6627 35.7818 51.0107 35.4228 51.0811C35.0637 51.1514 34.7156 50.9173 34.6453 50.5582L31.0442 32.1692C30.9739 31.8101 31.208 31.4621 31.567 31.3917Z" fill="#FFD18E"/>
<path d="M40.8314 10.3766H18.9939C18.2622 10.3766 17.6689 10.9698 17.6689 11.7016V40.0047C17.6689 40.7365 18.2622 41.3297 18.9939 41.3297H40.8314C41.5632 41.3297 42.1564 40.7365 42.1564 40.0047V11.7016C42.1564 10.9698 41.5632 10.3766 40.8314 10.3766Z" fill="white"/>
<path fill-rule="evenodd" clip-rule="evenodd" d="M40.8314 10.8183H18.9939C18.5061 10.8183 18.1106 11.2137 18.1106 11.7016V40.0047C18.1106 40.4926 18.5061 40.888 18.9939 40.888H40.8314C41.3192 40.888 41.7147 40.4926 41.7147 40.0047V11.7016C41.7147 11.2137 41.3192 10.8183 40.8314 10.8183ZM18.9939 10.3766H40.8314C41.5632 10.3766 42.1564 10.9698 42.1564 11.7016V40.0047C42.1564 40.7365 41.5632 41.3297 40.8314 41.3297H18.9939C18.2622 41.3297 17.6689 40.7365 17.6689 40.0047V11.7016C17.6689 10.9698 18.2622 10.3766 18.9939 10.3766Z" fill="#9AE1FF"/>
<path d="M17.6689 13.7292V11.7016C17.6689 10.9698 18.2622 10.3766 18.9939 10.3766H21.1184L17.6689 13.7292Z" fill="#3CA4F3"/>
<path d="M42.1562 13.7292V11.7016C42.1562 10.9698 41.5629 10.3766 40.8312 10.3766H38.7446L42.1562 13.7292Z" fill="#3CA4F3"/>
<path d="M17.6689 38.0109V40.0047C17.6689 40.7364 18.2622 41.3297 18.9939 41.3297H21.1184L17.6689 38.0109Z" fill="#3CA4F3"/>
<path d="M42.1562 38.0109V40.0047C42.1562 40.7364 41.5629 41.3297 40.8312 41.3297H38.7446L42.1562 38.0109Z" fill="#3CA4F3"/>
<path fill-rule="evenodd" clip-rule="evenodd" d="M22.4585 16.1337C22.4585 15.8898 22.6562 15.692 22.9002 15.692H36.9253C37.1693 15.692 37.367 15.8898 37.367 16.1337C37.367 16.3776 37.1693 16.5753 36.9253 16.5753H22.9002C22.6562 16.5753 22.4585 16.3776 22.4585 16.1337Z" fill="#E8505B"/>
<path fill-rule="evenodd" clip-rule="evenodd" d="M22.2373 19.046C22.2373 18.6802 22.5339 18.3835 22.8998 18.3835H36.925C37.2909 18.3835 37.5875 18.6802 37.5875 19.046C37.5875 19.4119 37.2909 19.7085 36.925 19.7085H22.8998C22.5339 19.7085 22.2373 19.4119 22.2373 19.046Z" fill="#CBE2FF"/>
<path fill-rule="evenodd" clip-rule="evenodd" d="M22.4585 25.2096C22.4585 24.9657 22.6562 24.7679 22.9002 24.7679H31.6946C31.9385 24.7679 32.1363 24.9657 32.1363 25.2096C32.1363 25.4535 31.9385 25.6513 31.6946 25.6513H22.9002C22.6562 25.6513 22.4585 25.4535 22.4585 25.2096Z" fill="#CBE2FF"/>
<path fill-rule="evenodd" clip-rule="evenodd" d="M22.6792 23.6284C22.6792 23.5065 22.7781 23.4076 22.9 23.4076H29.9126C30.0346 23.4076 30.1334 23.5065 30.1334 23.6284C30.1334 23.7504 30.0346 23.8493 29.9126 23.8493H22.9C22.7781 23.8493 22.6792 23.7504 22.6792 23.6284Z" fill="#E8505B" fill-opacity="0.9"/>
<path fill-rule="evenodd" clip-rule="evenodd" d="M22.6792 22.4385C22.6792 22.3165 22.7781 22.2177 22.9 22.2177H33.4588C33.5807 22.2177 33.6796 22.3165 33.6796 22.4385C33.6796 22.5604 33.5807 22.6593 33.4588 22.6593H22.9C22.7781 22.6593 22.6792 22.5604 22.6792 22.4385Z" fill="#E8505B" fill-opacity="0.9"/>
<path fill-rule="evenodd" clip-rule="evenodd" d="M22.5024 28.1222C22.5024 27.9027 22.6804 27.7247 22.8999 27.7247H36.9251C37.1446 27.7247 37.3226 27.9027 37.3226 28.1222C37.3226 28.3418 37.1446 28.5197 36.9251 28.5197H22.8999C22.6804 28.5197 22.5024 28.3418 22.5024 28.1222Z" fill="#CBE2FF"/>
<path fill-rule="evenodd" clip-rule="evenodd" d="M22.4585 32.0844C22.4585 31.8404 22.6562 31.6427 22.9002 31.6427H29.0788C29.3227 31.6427 29.5205 31.8404 29.5205 32.0844C29.5205 32.3283 29.3227 32.526 29.0788 32.526H22.9002C22.6562 32.526 22.4585 32.3283 22.4585 32.0844Z" fill="#C4CDDF"/>
<path fill-rule="evenodd" clip-rule="evenodd" d="M31.1621 32.0844C31.1621 31.8404 31.3599 31.6427 31.6038 31.6427H37.7824C38.0263 31.6427 38.2241 31.8404 38.2241 32.0844C38.2241 32.3283 38.0263 32.526 37.7824 32.526H31.6038C31.3599 32.526 31.1621 32.3283 31.1621 32.0844Z" fill="#C4CDDF"/>
<path d="M35.0558 26.5001C35.9177 26.5001 36.6165 25.8021 36.6165 24.9409C36.6165 24.0798 35.9177 23.3817 35.0558 23.3817C34.1939 23.3817 33.4951 24.0798 33.4951 24.9409C33.4951 25.8021 34.1939 26.5001 35.0558 26.5001Z" fill="#BED8FB"/>
</g>
</svg>
