<svg width="60" height="60" viewBox="0 0 60 60" fill="none" xmlns="http://www.w3.org/2000/svg">
<rect width="60" height="60" rx="4" fill="#FFF8DF"/>
<rect width="53" height="53" transform="translate(3.5 3.5)" fill="#FFF8DF"/>
<g opacity="0.8">
<path d="M35.8071 24.3451C35.1573 24.3451 34.6294 23.8171 34.6294 23.1674V19.1672C34.6294 18.3143 33.939 17.6443 33.1065 17.6443H26.893C26.0402 17.6443 25.3701 18.3346 25.3701 19.1672V23.1674C25.3701 23.8171 24.8421 24.3451 24.1924 24.3451C23.5426 24.3451 23.0146 23.8171 23.0146 23.1674V19.1672C23.0146 17.0351 24.7609 15.2888 26.893 15.2888H33.1065C35.2386 15.2888 36.9848 17.0351 36.9848 19.1672V23.1674C36.9848 23.8171 36.4569 24.3451 35.8071 24.3451Z" fill="#E8B974"/>
<path d="M19.1772 31.5533C15.9283 31.5533 13.2886 28.9136 13.2886 25.6647V41.4624C13.2886 43.2493 14.7506 44.7113 16.5375 44.7113H34.4672C36.2541 44.7113 37.7161 43.2493 37.7161 41.4624V31.5533H19.1772Z" fill="#F09562"/>
<path d="M40.8226 31.5533H36.8021V41.4624C36.8021 43.2493 35.3401 44.7113 33.5532 44.7113H43.4623C45.2492 44.7113 46.7112 43.2493 46.7112 41.4624V25.6647C46.7112 28.9136 44.0715 31.5533 40.8226 31.5533Z" fill="#DB8A5D"/>
<path d="M34.4672 22.2125H16.5375C14.7506 22.2125 13.2886 23.6745 13.2886 25.4614V26.8422C13.2886 30.0911 15.9283 32.7308 19.1772 32.7308H37.7161V25.4411C37.7161 23.6542 36.2541 22.2125 34.4672 22.2125Z" fill="#E1814C"/>
<path d="M36.8021 25.4416V32.711H40.8226C44.0715 32.711 46.7112 30.0713 46.7112 26.8224V25.4416C46.7112 23.6547 45.2492 22.1927 43.4623 22.1927H33.5532C35.3401 22.2131 36.8021 23.6547 36.8021 25.4416Z" fill="#CB7545"/>
<path d="M21.2685 36.3656C20.6188 36.3656 20.0908 35.8377 20.0908 35.1879V30.2536C20.0908 29.6039 20.6188 29.0759 21.2685 29.0759C21.9183 29.0759 22.4463 29.6039 22.4463 30.2536V35.1879C22.4463 35.8377 21.9183 36.3656 21.2685 36.3656Z" fill="#FFD79D"/>
<path d="M38.7314 36.3656C38.0817 36.3656 37.5537 35.8377 37.5537 35.1879V30.2536C37.5537 29.6039 38.0817 29.0759 38.7314 29.0759C39.3812 29.0759 39.9092 29.6039 39.9092 30.2536V35.1879C39.9092 35.8377 39.3812 36.3656 38.7314 36.3656Z" fill="#FFD79D"/>
</g>
</svg>
