<svg width="17" height="16" viewBox="0 0 17 16" fill="none" xmlns="http://www.w3.org/2000/svg">
<path d="M16.2982 7.99994C16.2982 3.94774 13.0004 0.649878 8.94805 0.649878C4.89573 0.649878 1.59799 3.94773 1.59799 7.99994C1.59799 12.0522 4.89573 15.35 8.94805 15.35C13.0004 15.35 16.2982 12.0521 16.2982 7.99994Z" stroke="#606483" stroke-width="1.3"/>
<path d="M8.51352 13.0183V2.83643H9.16579V13.0183H8.51352ZM10.5539 5.99441C10.5114 5.61789 10.3364 5.32622 10.0289 5.1194C9.72129 4.90993 9.33417 4.80519 8.8675 4.80519C8.5334 4.80519 8.24439 4.85822 8.00044 4.96428C7.7565 5.06769 7.56692 5.21088 7.43169 5.39383C7.29911 5.57414 7.23282 5.77963 7.23282 6.01031C7.23282 6.20388 7.2779 6.37092 7.36805 6.51145C7.46086 6.65199 7.5815 6.76998 7.72999 6.86543C7.88112 6.95824 8.04287 7.03646 8.21522 7.1001C8.38757 7.16108 8.55329 7.21146 8.71238 7.25123L9.50784 7.45805C9.76769 7.52169 10.0342 7.60786 10.3073 7.71658C10.5804 7.82529 10.8336 7.96847 11.0669 8.14613C11.3003 8.32378 11.4885 8.54386 11.6317 8.80636C11.7776 9.06886 11.8505 9.38307 11.8505 9.74898C11.8505 10.2103 11.7312 10.62 11.4925 10.978C11.2565 11.3359 10.9132 11.6183 10.4624 11.8251C10.0143 12.032 9.47205 12.1354 8.83568 12.1354C8.22582 12.1354 7.69817 12.0386 7.25271 11.845C6.80725 11.6515 6.45858 11.377 6.20668 11.0217C5.95478 10.6638 5.81558 10.2395 5.78906 9.74898H7.02203C7.04589 10.0433 7.14135 10.2886 7.30839 10.4848C7.47809 10.6783 7.69419 10.8229 7.95669 10.9183C8.22185 11.0111 8.51219 11.0575 8.82772 11.0575C9.17507 11.0575 9.48398 11.0032 9.75444 10.8944C10.0275 10.7831 10.2423 10.6293 10.3988 10.4331C10.5552 10.2342 10.6334 10.0022 10.6334 9.73705C10.6334 9.49576 10.5645 9.29822 10.4266 9.14443C10.2914 8.99064 10.1071 8.86337 9.87375 8.76261C9.64307 8.66185 9.38189 8.57302 9.09023 8.49613L8.12772 8.23363C7.47544 8.05597 6.95839 7.7948 6.57657 7.4501C6.1974 7.1054 6.00781 6.64933 6.00781 6.08191C6.00781 5.61258 6.13509 5.20292 6.38964 4.85292C6.64418 4.50292 6.98888 4.23113 7.42373 4.03757C7.85859 3.84136 8.34912 3.74325 8.89534 3.74325C9.44686 3.74325 9.93341 3.84003 10.355 4.03359C10.7793 4.22716 11.1133 4.49364 11.3573 4.83303C11.6012 5.16978 11.7285 5.5569 11.7391 5.99441H10.5539Z" fill="#606483"/>
</svg>
