<svg width="20" height="20" viewBox="0 0 20 20" fill="none" xmlns="http://www.w3.org/2000/svg">
<path d="M7.2489 10.477C7.10716 10.5801 7.02974 10.7499 7.04486 10.9245C7.05998 11.0991 7.16543 11.2531 7.32279 11.3303C8.10538 11.7142 8.82347 12.4329 9.1874 13.0913C9.32624 13.3425 9.43964 13.7605 9.52142 14.198C9.56418 14.4267 9.38374 14.675 9.07685 14.675H1.62743C1.48608 14.675 1.36557 14.6165 1.29229 14.5386C1.22407 14.4661 1.19796 14.3815 1.21824 14.2864C1.49442 12.9909 2.36401 11.9075 3.52925 11.3293C3.68588 11.2516 3.79053 11.0977 3.80523 10.9234C3.81993 10.7492 3.74255 10.58 3.60117 10.4771C3.20641 10.1899 2.88507 9.81349 2.66331 9.37858C2.44159 8.94376 2.32567 8.46273 2.325 7.97464C2.3252 6.26975 3.72006 4.875 5.425 4.875C7.13001 4.875 8.52492 6.26986 8.525 7.97485C8.52439 8.46288 8.40852 8.94387 8.18682 9.37865C7.96507 9.81355 7.6437 10.1899 7.2489 10.477Z" stroke="#D75DC3" stroke-linejoin="round"/>
<path d="M17.425 7.975C17.425 5.9938 15.8062 4.375 13.825 4.375C11.8438 4.375 10.225 5.9938 10.225 7.975C10.2256 8.54194 10.3602 9.10071 10.6177 9.60578C10.8753 10.1108 11.2485 10.5479 11.707 10.8814C11.3235 11.0695 11.0381 11.3267 10.8385 11.5566C10.575 11.8599 10.6471 12.2953 10.8503 12.6419C10.9869 12.8749 11.1256 13.169 11.2016 13.4945C11.2618 13.7523 11.3107 14.0215 11.3492 14.2669C11.4297 14.7788 11.8664 15.175 12.3846 15.175H17.6227C18.175 15.175 18.6359 14.7223 18.5208 14.1822C18.2117 12.7325 17.2404 11.5252 15.943 10.8814C16.4014 10.5479 16.7746 10.1108 17.0321 9.60571C17.2897 9.10066 17.4243 8.54192 17.425 7.975Z" fill="#D75DC3"/>
</svg>
