<svg width="24" height="25" viewBox="0 0 24 25" fill="none" xmlns="http://www.w3.org/2000/svg">
<path fill-rule="evenodd" clip-rule="evenodd" d="M15.9689 1.88434L20.9272 6.84265C21.9096 7.82507 21.9102 9.41772 20.9284 10.4008C20.4201 10.9099 19.7277 11.1692 19.0298 11.1366L18.6357 11.5302L21.6449 14.5395C22.5518 15.4463 22.5518 16.9166 21.6449 17.8235C20.738 18.7304 19.2676 18.7304 18.3608 17.8234L15.3517 14.8138L15.0162 15.1493C15.0818 15.8142 14.8481 16.4811 14.3674 16.9614L14.0347 17.2939C13.1559 18.1721 11.7317 18.1718 10.8533 17.2934L5.7304 12.1705C4.73415 11.1743 4.73444 9.55894 5.73103 8.56305C6.24 8.05444 6.93334 7.79025 7.63687 7.81871L11.6752 3.78099C11.6428 3.08424 11.9014 2.39298 12.4091 1.88497C13.3918 0.901543 14.9858 0.901263 15.9689 1.88434ZM13.3166 4.26108L8.14086 9.43596L7.78815 9.34794C7.43044 9.25867 7.05211 9.36348 6.79132 9.62408C6.38086 10.0343 6.38074 10.6995 6.79106 11.1098L11.9139 16.2327C12.2068 16.5255 12.6815 16.5256 12.9744 16.2329L13.3072 15.9004C13.4936 15.7141 13.5685 15.4436 13.5046 15.188L13.3749 14.6692L15.3518 12.6924L19.4215 16.7628C19.7426 17.0839 20.2632 17.0839 20.5843 16.7628C20.9054 16.4418 20.9054 15.9212 20.5843 15.6001L16.5138 11.5296L18.5506 9.49517L18.8253 9.58691C19.1911 9.70907 19.5945 9.6138 19.867 9.34092C20.2637 8.94371 20.2635 8.30024 19.8665 7.90331L14.9082 2.945C14.5111 2.54786 13.8671 2.54797 13.4701 2.94526C13.1981 3.2175 13.1031 3.62001 13.2247 3.98516L13.3166 4.26108Z" fill="#D75DC3"/>
<path fill-rule="evenodd" clip-rule="evenodd" d="M12.1693 4.29986C12.5011 3.96632 12.9658 3.89066 13.2073 4.13087L18.6544 9.54928C18.8959 9.7895 18.8227 10.2546 18.4909 10.5882C18.1591 10.9217 17.6944 10.9974 17.4529 10.7572L12.0058 5.33875C11.7643 5.09854 11.8375 4.63341 12.1693 4.29986Z" fill="#D75DC3"/>
<path fill-rule="evenodd" clip-rule="evenodd" d="M8.25178 8.37396C8.58357 8.04041 9.0483 7.96475 9.28979 8.20497L14.7369 13.6234C14.9784 13.8636 14.9052 14.3287 14.5734 14.6623C14.2416 14.9958 13.7769 15.0715 13.5354 14.8313L8.08828 9.41285C7.84679 9.17263 7.91999 8.70751 8.25178 8.37396Z" fill="#D75DC3"/>
<path d="M1.63965 21.9009C1.63965 21.4305 2.02104 21.0491 2.4915 21.0491H13.6756C14.146 21.0491 14.5274 21.4305 14.5274 21.9009V21.9009C14.5274 22.3714 14.146 22.7528 13.6756 22.7528H2.4915C2.02104 22.7528 1.63965 22.3714 1.63965 21.9009V21.9009Z" fill="#D75DC3"/>
</svg>
