<svg width="24" height="25" viewBox="0 0 24 25" fill="none" xmlns="http://www.w3.org/2000/svg">
<path fill-rule="evenodd" clip-rule="evenodd" d="M15.1515 5.46849C14.8605 5.05812 14.2931 4.95906 13.8803 5.24655C13.4734 5.52988 13.3657 6.0854 13.6372 6.50026L16.0143 10.1332H11.5542C11.1362 10.1332 10.7974 9.79439 10.7974 9.37638C10.7974 8.95838 11.1362 8.61952 11.5542 8.61952H13.2149L12.3705 7.32907C11.6506 6.22891 11.9363 4.75573 13.0152 4.00437C14.1099 3.24196 15.6146 3.50467 16.3863 4.59292L19.2414 8.61952H20.5546C21.7326 8.61952 22.6876 9.57448 22.6876 10.7525V11.5458C22.6876 12.361 22.2238 13.0992 21.5023 13.4567L20.8685 18.531C20.6655 19.9162 19.4773 20.943 18.0773 20.943H11.5542C11.1362 20.943 10.7974 20.6041 10.7974 20.1861C10.7974 19.7681 11.1362 19.4293 11.5542 19.4293H18.0773C18.7261 19.4293 19.2767 18.9534 19.3708 18.3115L20.13 12.3811L20.7835 12.1212C21.0192 12.0274 21.1739 11.7994 21.1739 11.5458V10.7525C21.1739 10.4105 20.8966 10.1332 20.5546 10.1332H18.4591L15.1515 5.46849Z" fill="#FF5A50"/>
<path fill-rule="evenodd" clip-rule="evenodd" d="M8.84852 5.46849C9.1395 5.05812 9.70691 4.95906 10.1197 5.24655C10.5266 5.52988 10.6343 6.0854 10.3628 6.50026L7.9857 10.1332H11.6958C12.1138 10.1332 12.4526 9.79438 12.4526 9.37638C12.4526 8.95838 12.1138 8.61952 11.6958 8.61952H10.7851L11.6295 7.32907C12.3494 6.22891 12.0637 4.75573 10.9848 4.00437C9.89005 3.24196 8.38536 3.50467 7.61371 4.59292L4.75859 8.61952H3.44538C2.26736 8.61952 1.3124 9.57448 1.3124 10.7525V11.464C1.3124 12.273 1.76822 13.0003 2.46947 13.3608L3.12833 18.5373C3.33409 19.9197 4.52102 20.943 5.91863 20.943H11.6958C12.1138 20.943 12.4526 20.6041 12.4526 20.1861C12.4526 19.7681 12.1138 19.4293 11.6958 19.4293H5.91863C5.27096 19.4293 4.72092 18.955 4.62556 18.3144L3.83177 12.2314L3.26271 12.0557C3.00316 11.9756 2.82612 11.7357 2.82612 11.464V10.7525C2.82612 10.4105 3.10337 10.1332 3.44538 10.1332H5.5409L8.84852 5.46849Z" fill="#FF5A50"/>
<path fill-rule="evenodd" clip-rule="evenodd" d="M15.6528 12.0776C16.0886 12.0776 16.4419 12.4486 16.4419 12.9061L16.4419 16.4992C16.4419 16.9567 16.0886 17.3276 15.6528 17.3276C15.217 17.3276 14.8637 16.9567 14.8637 16.4992L14.8637 12.9061C14.8637 12.4486 15.217 12.0776 15.6528 12.0776Z" fill="#FF5A50"/>
<path fill-rule="evenodd" clip-rule="evenodd" d="M12 12.0776C12.4358 12.0776 12.7891 12.4486 12.7891 12.9061L12.7891 16.4992C12.7891 16.9567 12.4358 17.3276 12 17.3276C11.5642 17.3276 11.2109 16.9567 11.2109 16.4992L11.2109 12.9061C11.2109 12.4486 11.5642 12.0776 12 12.0776Z" fill="#FF5A50"/>
<path fill-rule="evenodd" clip-rule="evenodd" d="M8.34667 12.0776C8.78246 12.0776 9.13574 12.4486 9.13574 12.9061L9.13574 16.4992C9.13574 16.9567 8.78246 17.3276 8.34667 17.3276C7.91087 17.3276 7.55759 16.9567 7.55759 16.4992L7.55759 12.9061C7.55759 12.4486 7.91087 12.0776 8.34667 12.0776Z" fill="#FF5A50"/>
</svg>
