<svg width="24" height="25" viewBox="0 0 24 25" fill="none" xmlns="http://www.w3.org/2000/svg">
<path fill-rule="evenodd" clip-rule="evenodd" d="M9.78936 4.54177L9.56824 5.01054H5.70147C5.12157 5.01054 4.65146 5.48064 4.65146 6.06054V20.2824C4.65146 20.8623 5.12157 21.3324 5.70147 21.3324H18.299C18.8789 21.3324 19.349 20.8623 19.349 20.2824V6.06054C19.349 5.48064 18.8789 5.01054 18.299 5.01054H14.458L14.2278 4.57487L14.2257 4.57102C14.2221 4.56477 14.2151 4.5526 14.2046 4.53534C14.1836 4.50072 14.149 4.4463 14.1007 4.37866C14.0033 4.24223 13.8552 4.0587 13.6573 3.87629C13.2621 3.51205 12.7008 3.17881 11.9484 3.17881C11.2005 3.17881 10.6704 3.50797 10.3073 3.86112C10.124 4.03937 9.98927 4.21893 9.90151 4.35245C9.85804 4.4186 9.82727 4.47165 9.80883 4.50509C9.79965 4.52176 9.79363 4.53337 9.79071 4.53909L9.78936 4.54177ZM9.15696 2.67823C9.73561 2.11551 10.6571 1.52881 11.9484 1.52881C13.2351 1.52881 14.1771 2.11143 14.7756 2.66305C15.0467 2.91296 15.254 3.16192 15.4005 3.36054H18.299C19.7901 3.36054 20.999 4.56937 20.999 6.06054V20.2824C20.999 21.7736 19.7901 22.9824 18.299 22.9824H5.70147C4.2103 22.9824 3.00146 21.7736 3.00146 20.2824V6.06054C3.00146 4.56937 4.2103 3.36054 5.70147 3.36054H8.5804C8.71654 3.16349 8.90695 2.92135 9.15696 2.67823ZM16.7714 10.6657C17.0864 10.9949 17.0749 11.5172 16.7457 11.8322L11.3586 16.9867L8.33411 13.9622C8.01194 13.64 8.01194 13.1176 8.33413 12.7955C8.65631 12.4733 9.17867 12.4733 9.50085 12.7955L11.3841 14.6787L15.605 10.64C15.9342 10.325 16.4564 10.3365 16.7714 10.6657ZM13.3136 5.63714C13.3136 5.73519 13.3028 5.83072 13.2824 5.92263L15.0829 5.92263C15.5385 5.92263 15.9079 6.292 15.9079 6.74764C15.9079 7.20327 15.5385 7.57263 15.0829 7.57263L8.91748 7.57261C8.46185 7.57261 8.09248 7.20324 8.09248 6.74761C8.09248 6.29197 8.46185 5.92261 8.91749 5.92261L10.718 5.92262C10.6976 5.83071 10.6869 5.73518 10.6869 5.63714C10.6869 4.91182 11.2749 4.32382 12.0002 4.32382C12.7256 4.32382 13.3136 4.91182 13.3136 5.63714Z" fill="#0B6FC5"/>
</svg>
