<svg width="24" height="25" viewBox="0 0 24 25" fill="none" xmlns="http://www.w3.org/2000/svg">
<path fill-rule="evenodd" clip-rule="evenodd" d="M11.384 7.8882L15.3199 3.97952C16.4045 2.92089 18.0569 3.09133 19.0207 4.05027L19.0219 4.05145L20.6197 5.63736C21.1036 6.12039 21.4014 6.76716 21.3957 7.47697C21.3902 8.16066 21.0903 8.83495 20.5922 9.30315L15.9651 13.8522L16.2406 14.2109C17.1839 14.2926 17.8476 14.6641 18.351 15.1675C18.7493 15.5658 19.1447 16.639 19.6755 16.8013C20.3153 16.9969 20.7197 16.6661 21.1966 17.3088C22.4377 18.9815 19.6704 20.8186 18.3914 21.0654C17.0132 21.3313 15.6747 21.0875 14.6599 20.387C13.7261 19.7424 13.1088 18.7368 13.003 17.5106L12.3177 16.9327C11.9176 17.441 11.4358 17.8986 10.998 18.3746C10.849 18.5366 10.6677 18.6656 10.4659 18.7532L5.60616 21.0654C4.59638 21.5601 3.73599 20.9702 3.422 20.6498C3.07667 20.2975 2.61749 19.5268 2.95446 18.6103L5.30868 13.611C5.38106 13.4445 5.4817 13.2917 5.60615 13.1595L6.59603 12.1077L3.75004 9.68081C2.14226 8.32499 2.06213 5.87542 3.57787 4.41742C5.1005 2.9528 7.55828 3.13725 8.84525 4.81274L11.384 7.8882ZM12.3349 9.2068L16.41 5.11596C16.8091 4.71695 17.4812 4.73925 17.9105 5.16693L19.5073 6.75181C19.9358 7.17949 19.9135 7.7561 19.5137 8.1559L14.9914 12.6725L12.3349 9.2068ZM4.76513 8.47708C3.87169 7.72366 3.82717 6.36244 4.66945 5.55224C5.51557 4.73836 6.88135 4.84086 7.59651 5.77192L15.4516 15.7686H15.8396C16.5756 15.7686 16.956 15.9992 17.2376 16.2809C17.6258 16.6691 17.8754 17.1742 18.2061 17.6082C18.6935 18.2479 19.3654 18.3945 19.91 18.4187C19.5066 18.9856 18.9153 19.3606 18.093 19.5193C17.0686 19.717 16.1731 19.5182 15.5545 19.0912C14.9496 18.6737 14.5615 18.009 14.5615 17.131V16.7651C11.2897 14.0061 8.02673 11.2499 4.76513 8.47708ZM7.80155 13.1243L6.7528 14.2386L4.43235 19.1536C4.3328 19.4244 4.67606 19.7676 4.91339 19.6514L9.83894 17.3088L11.0803 15.9588L7.80155 13.1243Z" fill="#0B6FC5"/>
<path fill-rule="evenodd" clip-rule="evenodd" d="M15.8997 6.41849C16.1924 6.12541 16.662 6.11983 16.9486 6.40603L18.2258 7.68161C18.5124 7.96781 18.5074 8.43741 18.2147 8.73049C17.922 9.02357 17.4524 9.02915 17.1658 8.74295L15.8886 7.46737C15.602 7.18117 15.607 6.71157 15.8997 6.41849Z" fill="#0B6FC5"/>
</svg>
