<svg width="24" height="25" viewBox="0 0 24 25" fill="none" xmlns="http://www.w3.org/2000/svg">
<path fill-rule="evenodd" clip-rule="evenodd" d="M4 8.00562C3.30964 8.00562 2.75 8.56526 2.75 9.25562V19.2556C2.75 19.946 3.30964 20.5056 4 20.5056H20C20.6904 20.5056 21.25 19.946 21.25 19.2556V9.25562C21.25 8.56526 20.6904 8.00562 20 8.00562H4ZM1.25 9.25562C1.25 7.73683 2.48122 6.50562 4 6.50562H20C21.5188 6.50562 22.75 7.73683 22.75 9.25562V19.2556C22.75 20.7744 21.5188 22.0056 20 22.0056H4C2.48122 22.0056 1.25 20.7744 1.25 19.2556V9.25562Z" fill="#FF9316"/>
<path fill-rule="evenodd" clip-rule="evenodd" d="M8.05546 3.31107C8.57118 2.79535 9.27065 2.50562 10 2.50562H14C14.7293 2.50562 15.4288 2.79535 15.9445 3.31107C16.4603 3.8268 16.75 4.52627 16.75 5.25562V7.5423H15.25V5.25562C15.25 4.92409 15.1183 4.60615 14.8839 4.37173C14.6495 4.13731 14.3315 4.00562 14 4.00562H10C9.66848 4.00562 9.35054 4.13731 9.11612 4.37173C8.8817 4.60615 8.75 4.92409 8.75 5.25562V7.5423H7.25V5.25562C7.25 4.52627 7.53973 3.8268 8.05546 3.31107Z" fill="#FF9316"/>
<path fill-rule="evenodd" clip-rule="evenodd" d="M5.11606 12.3421C5.94459 12.8069 7.02282 13.0477 8.11216 13.0477H15.7033C16.7926 13.0477 17.8708 12.8069 18.6994 12.3421C19.5087 11.8882 20.1577 11.162 20.1577 10.2319V7.79773H18.84V10.2319C18.84 10.4312 18.6892 10.7881 18.0749 11.1326C17.4798 11.4664 16.6272 11.6742 15.7033 11.6742H8.11216C7.1882 11.6742 6.3356 11.4664 5.74052 11.1326C5.12623 10.7881 4.97548 10.4312 4.97548 10.2319V7.79773H3.65771V10.2319C3.65771 11.162 4.30674 11.8882 5.11606 12.3421Z" fill="#FF9316"/>
<path fill-rule="evenodd" clip-rule="evenodd" d="M9.6875 15.0056C9.6875 14.5914 10.0233 14.2556 10.4375 14.2556H13.5625C13.9767 14.2556 14.3125 14.5914 14.3125 15.0056C14.3125 15.4198 13.9767 15.7556 13.5625 15.7556H10.4375C10.0233 15.7556 9.6875 15.4198 9.6875 15.0056Z" fill="#FF9316"/>
</svg>
