<svg width="24" height="25" viewBox="0 0 24 25" fill="none" xmlns="http://www.w3.org/2000/svg">
<path fill-rule="evenodd" clip-rule="evenodd" d="M9.56824 3.7197H5.70147C5.12157 3.7197 4.65146 4.1898 4.65146 4.7697V19.7416C4.65146 20.3215 5.12157 20.7916 5.70147 20.7916H18.299C18.8789 20.7916 19.349 20.3215 19.349 19.7416V4.7697C19.349 4.1898 18.8789 3.7197 18.299 3.7197H14.458H9.56824ZM15.4005 2.0697H18.299C19.7901 2.0697 20.999 3.27853 20.999 4.7697V19.7416C20.999 21.2327 19.7901 22.4416 18.299 22.4416H5.70147C4.2103 22.4416 3.00146 21.2327 3.00146 19.7416V4.7697C3.00146 3.27853 4.2103 2.0697 5.70147 2.0697H8.5804H15.4005Z" fill="#FF9316"/>
<path fill-rule="evenodd" clip-rule="evenodd" d="M12.7397 13.1892C12.7397 12.775 12.404 12.4392 11.9897 12.4392C10.8768 12.4392 9.70676 12.8715 8.80405 13.5834C7.89855 14.2975 7.18866 15.3561 7.16144 16.638C7.15264 17.0521 7.48122 17.395 7.89534 17.4037C8.30946 17.4125 8.6523 17.084 8.6611 16.6698C8.6763 15.9537 9.07505 15.28 9.73288 14.7612C10.3935 14.2402 11.2415 13.9392 11.9897 13.9392C12.404 13.9392 12.7397 13.6034 12.7397 13.1892Z" fill="#FF9316"/>
<path fill-rule="evenodd" clip-rule="evenodd" d="M11.2603 13.1892C11.2603 12.775 11.596 12.4392 12.0103 12.4392C13.1232 12.4392 14.2932 12.8715 15.1959 13.5834C16.1015 14.2975 16.8113 15.3561 16.8386 16.638C16.8474 17.0521 16.5188 17.395 16.1047 17.4037C15.6905 17.4125 15.3477 17.084 15.3389 16.6698C15.3237 15.9537 14.9249 15.28 14.2671 14.7612C13.6065 14.2402 12.7585 13.9392 12.0103 13.9392C11.596 13.9392 11.2603 13.6034 11.2603 13.1892Z" fill="#FF9316"/>
<path fill-rule="evenodd" clip-rule="evenodd" d="M11.9117 11.8923C12.732 11.8923 13.3971 11.2273 13.3971 10.4069C13.3971 9.58654 12.732 8.92151 11.9117 8.92151C11.0913 8.92151 10.4263 9.58654 10.4263 10.4069C10.4263 11.2273 11.0913 11.8923 11.9117 11.8923ZM11.9117 13.3923C13.5605 13.3923 14.8971 12.0557 14.8971 10.4069C14.8971 8.75812 13.5605 7.42151 11.9117 7.42151C10.2629 7.42151 8.92627 8.75812 8.92627 10.4069C8.92627 12.0557 10.2629 13.3923 11.9117 13.3923Z" fill="#FF9316"/>
<path fill-rule="evenodd" clip-rule="evenodd" d="M16.8101 16.8307C16.8101 17.2449 16.4942 17.5807 16.1046 17.5807H7.90087C7.51127 17.5807 7.19544 17.2449 7.19544 16.8307C7.19544 16.4165 7.51127 16.0807 7.90087 16.0807H16.1046C16.4942 16.0807 16.8101 16.4165 16.8101 16.8307Z" fill="#FF9316"/>
</svg>
