<svg width="24" height="25" viewBox="0 0 24 25" fill="none" xmlns="http://www.w3.org/2000/svg">
<path fill-rule="evenodd" clip-rule="evenodd" d="M17.4881 7.1644L16.7382 6.48418C16.6753 6.42087 16.5948 6.36427 16.5049 6.31707C16.2876 6.20301 16.0151 6.14393 15.8029 6.17804L12.9305 6.68837C12.5812 6.75977 12.2576 6.92425 11.9941 7.1644L4.55192 14.5704C4.3789 14.7432 4.28139 14.9775 4.28072 15.222C4.28006 15.4665 4.37631 15.7013 4.54839 15.875L9.96154 21.3263C10.3211 21.6866 10.7733 21.5572 11.1348 21.1993L18.5768 13.7924C18.7905 13.578 19.0075 13.1578 19.0575 12.8566L19.4664 9.86497C19.5166 9.56467 19.3814 9.14322 19.1665 8.92687L18.428 8.18452C19.8636 6.62925 19.553 3.37092 17.7395 2.1109C17.6865 2.07403 17.6269 2.0464 17.5632 2.02981C17.4253 1.99389 17.2789 2.01251 17.1544 2.0818C17.0299 2.15109 16.9369 2.26571 16.8948 2.40182C16.8526 2.53792 16.8646 2.68504 16.9281 2.81256C18.4921 4.62118 18.5892 5.98189 17.4881 7.1644ZM20.992 10.09C21.0605 9.64429 20.9887 9.22015 20.8845 8.89447C20.8416 8.76032 20.4354 8.26703 20.3615 8.12138C21.5179 5.99731 20.7006 3.22098 19.1218 1.33754C18.8375 0.944424 18.4244 0.660703 17.9519 0.537612C17.43 0.401646 16.8758 0.472133 16.4045 0.734401C15.9333 0.996667 15.5813 1.43053 15.4218 1.94573C15.2622 2.46093 15.3075 3.0178 15.5481 3.50047C15.7601 3.92588 16.1394 4.24657 16.3756 4.66525C16.1254 4.6222 15.8461 4.60929 15.5582 4.65558L15.5457 4.6576L12.6412 5.17362L12.6217 5.1776C12.0001 5.30466 11.4244 5.59732 10.9555 6.02465L10.9304 6.04748L3.46422 13.4774L3.46238 13.4792C3.0007 13.9402 2.74049 14.5654 2.73873 15.2178C2.73696 15.8702 2.99378 16.4968 3.45296 16.9602L8.86687 22.4123L8.87006 22.4155C9.38639 22.9329 10.0798 23.167 10.7877 23.0553C11.4147 22.9564 11.8979 22.6138 12.2197 22.2951L19.6646 14.8853L19.6691 14.8809C19.9231 14.626 20.1166 14.3212 20.2497 14.0625C20.3827 13.804 20.5192 13.4674 20.5787 13.1092L20.5823 13.0873L20.992 10.09ZM17.7833 9.56767C17.7876 9.52168 17.7898 9.47558 17.7897 9.4295C17.7897 9.40759 17.7892 9.38569 17.7882 9.36381C17.7876 9.34987 17.7868 9.33594 17.7858 9.32202C17.785 9.31236 17.7842 9.3027 17.7833 9.29305C17.7784 9.24045 17.7707 9.18808 17.7602 9.13618C17.7489 9.08057 17.7343 9.02549 17.7166 8.97124C17.7154 8.9674 17.7141 8.96356 17.7128 8.95973C17.7109 8.95404 17.7089 8.94836 17.707 8.94269C17.7041 8.94516 17.7012 8.94763 17.6983 8.95009C17.6476 8.99328 17.5974 9.03485 17.5478 9.07485C17.4689 9.13833 17.3914 9.19786 17.3158 9.2536L17.3141 9.25487C17.277 9.28222 17.2403 9.30866 17.2041 9.33421C17.2029 9.3351 17.2016 9.33599 17.2003 9.33689C17.1894 9.34451 17.1783 9.35173 17.1671 9.35853C17.1074 9.39462 17.0431 9.41891 16.9778 9.43021C16.8539 9.45128 16.7265 9.42964 16.6165 9.36884C16.6005 9.35999 16.585 9.35039 16.5701 9.34009C16.5145 9.30176 16.4665 9.25369 16.4283 9.19838C16.4063 9.16637 16.3875 9.13194 16.3724 9.09557C16.3244 8.97945 16.3172 8.85045 16.352 8.7297C16.3825 8.62421 16.4434 8.53049 16.5267 8.46005L16.5285 8.45858C16.5394 8.44942 16.5507 8.44067 16.5624 8.43233L16.5643 8.43099L16.5656 8.4301C16.5873 8.41566 16.6632 8.35897 16.7763 8.26644L16.7795 8.26387C16.834 8.2192 16.8971 8.1663 16.9668 8.1059C16.8926 8.06933 16.8158 8.03927 16.7373 8.01584C16.7358 8.01538 16.7342 8.01493 16.7327 8.01447C16.6837 8.00002 16.634 7.98815 16.5839 7.97889C16.5604 7.97454 16.5367 7.97077 16.513 7.96757C16.498 7.96555 16.4829 7.96376 16.4678 7.9622C16.4321 7.95851 16.3963 7.95612 16.3604 7.95505C16.352 7.9548 16.3436 7.95463 16.3353 7.95452C16.3086 7.95418 16.282 7.95457 16.2553 7.95568C16.2464 7.95605 16.2375 7.95651 16.2285 7.95705C16.1786 7.96005 16.1287 7.9656 16.079 7.97374L16.0761 7.97422C16.0674 7.97567 16.0587 7.97719 16.05 7.97878C15.9049 8.00553 15.7655 8.05381 15.6361 8.12139C15.5056 8.18949 15.3853 8.27719 15.2797 8.3822C15.27 8.39195 15.2603 8.40183 15.2508 8.41183C15.0034 8.67257 14.8597 9.01459 14.8463 9.37355C14.8457 9.39049 14.8454 9.40748 14.8453 9.42449C14.8443 9.81575 14.9985 10.1914 15.2742 10.4691C15.4104 10.6063 15.5723 10.7153 15.7506 10.79C15.9289 10.8646 16.1202 10.9034 16.3135 10.9041C16.3175 10.9041 16.3214 10.9041 16.3254 10.904C16.5147 10.9032 16.702 10.8658 16.8772 10.794C16.985 10.7497 17.087 10.6929 17.181 10.625L17.1842 10.6226C17.245 10.5784 17.3023 10.5296 17.3558 10.4764C17.4035 10.4289 17.4476 10.3783 17.4881 10.3251C17.562 10.2279 17.6236 10.122 17.6714 10.0099L17.6727 10.0067C17.7063 9.92735 17.7331 9.84489 17.7525 9.76017C17.758 9.73612 17.7629 9.71196 17.7672 9.68774L17.7678 9.68416C17.7745 9.64548 17.7797 9.60662 17.7833 9.56767ZM11.7493 10.9939C11.4453 10.6968 10.958 10.7025 10.6609 11.0065C10.3639 11.3105 10.3695 11.7978 10.6735 12.0948L13.4627 14.8343C13.7667 15.1314 14.254 15.1257 14.5511 14.8217C14.8482 14.5177 14.8425 14.0305 14.5385 13.7334L11.7493 10.9939ZM12.2103 16.0228C12.5143 16.3199 12.5199 16.8071 12.2228 17.1111C11.9258 17.4151 11.4385 17.4208 11.1345 17.1237L8.34526 14.3842C8.04125 14.0872 8.03562 13.5999 8.33269 13.2959C8.62976 12.9919 9.11703 12.9862 9.42104 13.2833L12.2103 16.0228Z" fill="#FF5A50"/>
</svg>
