<svg width="27" height="20" viewBox="0 0 27 20" fill="none" xmlns="http://www.w3.org/2000/svg">
<g opacity="0.5">
<path d="M0 2.75C0 1.64543 0.895431 0.75 2 0.75H25C26.1046 0.75 27 1.64543 27 2.75V17.75C27 18.8546 26.1046 19.75 25 19.75H2C0.895431 19.75 0 18.8546 0 17.75V2.75Z" fill="#232056"/>
<path d="M3.41006 14.75V6.902H5.88206C6.46606 6.902 6.98606 6.978 7.44206 7.13C7.89806 7.282 8.25806 7.534 8.52206 7.886C8.78606 8.238 8.91806 8.718 8.91806 9.326C8.91806 9.902 8.78606 10.378 8.52206 10.754C8.25806 11.13 7.90206 11.41 7.45406 11.594C7.00606 11.778 6.49806 11.87 5.93006 11.87H4.80206V14.75H3.41006ZM4.80206 10.754H5.82206C6.97406 10.754 7.55006 10.278 7.55006 9.326C7.55006 8.83 7.39806 8.49 7.09406 8.306C6.79806 8.114 6.35806 8.018 5.77406 8.018H4.80206V10.754ZM10.3944 14.75V6.902H13.0464C13.5904 6.902 14.0784 6.974 14.5104 7.118C14.9504 7.262 15.2944 7.506 15.5424 7.85C15.7984 8.186 15.9264 8.646 15.9264 9.23C15.9264 9.83 15.7824 10.314 15.4944 10.682C15.2144 11.05 14.8384 11.314 14.3664 11.474L16.2384 14.75H14.6784L12.9864 11.678H11.7864V14.75H10.3944ZM11.7864 10.574H12.9024C13.4384 10.574 13.8464 10.462 14.1264 10.238C14.4144 10.006 14.5584 9.67 14.5584 9.23C14.5584 8.782 14.4144 8.47 14.1264 8.294C13.8464 8.11 13.4384 8.018 12.9024 8.018H11.7864V10.574ZM20.544 14.894C19.864 14.894 19.264 14.73 18.744 14.402C18.224 14.066 17.816 13.594 17.52 12.986C17.232 12.37 17.088 11.638 17.088 10.79C17.088 9.942 17.232 9.218 17.52 8.618C17.816 8.018 18.224 7.558 18.744 7.238C19.264 6.918 19.864 6.758 20.544 6.758C21.232 6.758 21.836 6.918 22.356 7.238C22.876 7.558 23.28 8.018 23.568 8.618C23.864 9.218 24.012 9.942 24.012 10.79C24.012 11.638 23.864 12.37 23.568 12.986C23.28 13.594 22.876 14.066 22.356 14.402C21.836 14.73 21.232 14.894 20.544 14.894ZM20.544 13.682C21.16 13.682 21.652 13.422 22.02 12.902C22.388 12.374 22.572 11.67 22.572 10.79C22.572 9.91 22.388 9.222 22.02 8.726C21.652 8.222 21.16 7.97 20.544 7.97C19.928 7.97 19.436 8.222 19.068 8.726C18.7 9.222 18.516 9.91 18.516 10.79C18.516 11.67 18.7 12.374 19.068 12.902C19.436 13.422 19.928 13.682 20.544 13.682Z" fill="#EEF2F4"/>
</g>
</svg>
