<svg width="24" height="24" viewBox="0 0 24 24" fill="none" xmlns="http://www.w3.org/2000/svg">
<path d="M4 6.00013C4 5.46969 4.21071 4.96098 4.58579 4.58591C4.96086 4.21084 5.46957 4.00012 6 4.00012H16C16.2652 4.00012 16.5196 4.10548 16.7071 4.29302C16.8947 4.48055 17 4.73491 17 5.00012V8.00013L18.7071 8.29302M4 6.00013C4 6.53056 4.21071 7.03927 4.58579 7.41434C4.96086 7.78942 5.46957 8.00013 6 8.00013H18C18.2652 8.00013 18.5196 8.10549 18.7071 8.29302M4 6.00013V18.0002C4 18.5306 4.21071 19.0393 4.58579 19.4144C4.96086 19.7894 5.46957 20.0002 6 20.0002H18C18.2652 20.0002 18.5196 19.8948 18.7071 19.7073C18.8947 19.5197 19 19.2654 19 19.0002V16.0001M18.7071 8.29302C18.8947 8.48056 19 8.73492 19 9.00013V12.0001L18.7071 8.29302Z" stroke="#606483" stroke-width="2" stroke-linecap="round" stroke-linejoin="round"/>
<path d="M20 12.0001V16.0001H16C15.4696 16.0001 14.9609 15.7894 14.5858 15.4143C14.2107 15.0393 14 14.5306 14 14.0001C14 13.4697 14.2107 12.961 14.5858 12.5859C14.9609 12.2108 15.4696 12.0001 16 12.0001H20Z" stroke="#606483" stroke-width="2" stroke-linecap="round" stroke-linejoin="round"/>
</svg>
