<svg width="24" height="24" viewBox="0 0 24 24" fill="none" xmlns="http://www.w3.org/2000/svg">
<path d="M20.25 9.14404H14.638L15.761 5.77704C15.963 5.16904 15.861 4.49504 15.486 3.97504C15.111 3.45504 14.503 3.14404 13.862 3.14404H12.25C11.953 3.14404 11.672 3.27604 11.481 3.50404L6.781 9.14404H4.25C3.147 9.14404 2.25 10.041 2.25 11.144V20.144C2.25 21.247 3.147 22.144 4.25 22.144H17.557C17.9639 22.1427 18.3608 22.0179 18.6952 21.7861C19.0296 21.5544 19.2859 21.2265 19.43 20.846L22.187 13.495C22.2289 13.3828 22.2502 13.2639 22.25 13.144V11.144C22.25 10.041 21.353 9.14404 20.25 9.14404ZM4.25 11.144H6.25V20.144H4.25V11.144ZM20.25 12.963L17.557 20.144H8.25V10.506L12.718 5.14404H13.864L12.302 9.82704C12.2513 9.97736 12.2371 10.1376 12.2607 10.2945C12.2843 10.4513 12.345 10.6003 12.4377 10.7291C12.5303 10.8578 12.6524 10.9626 12.7936 11.0348C12.9349 11.107 13.0914 11.1444 13.25 11.144H20.25V12.963Z" fill="#606483"/>
</svg>
