<svg width="24" height="24" viewBox="0 0 24 24" fill="none" xmlns="http://www.w3.org/2000/svg">
<path d="M4.58447 17.1759H16.1028C16.5935 17.1759 17.0117 16.8199 17.09 16.3356L18.8807 5.26412L20.0828 2.48822C20.2412 2.1224 20.6018 1.88562 21.0005 1.88562H21.8366" stroke="#606483" stroke-width="2" stroke-linecap="round" stroke-linejoin="round"/>
<path d="M18.1885 5.10565H3.58338C2.93901 5.10565 2.46284 5.70616 2.6097 6.33358L4.49881 14.4037H14.0947" stroke="#606483" stroke-width="2" stroke-linecap="round" stroke-linejoin="round"/>
<path d="M8.4651 19.685C8.08776 19.3076 7.62956 19.119 7.09051 19.119C6.55145 19.119 6.09325 19.3076 5.71591 19.685C5.33857 20.0623 5.1499 20.5205 5.1499 21.0596C5.1499 21.5986 5.33857 22.0568 5.71591 22.4342C6.09325 22.8115 6.55145 23.0002 7.09051 23.0002C7.62956 23.0002 8.08776 22.8115 8.4651 22.4342C8.84244 22.0568 9.03111 21.5986 9.03111 21.0596C9.03111 20.5205 8.84244 20.0623 8.4651 19.685Z" fill="#606483"/>
<path d="M14.9838 19.685C14.6064 19.3076 14.1482 19.119 13.6092 19.119C13.0701 19.119 12.6119 19.3076 12.2346 19.685C11.8572 20.0623 11.6686 20.5205 11.6686 21.0596C11.6686 21.5986 11.8572 22.0568 12.2346 22.4342C12.6119 22.8115 13.0701 23.0002 13.6092 23.0002C14.1482 23.0002 14.6064 22.8115 14.9838 22.4342C15.3611 22.0568 15.5498 21.5986 15.5498 21.0596C15.5498 20.5205 15.3611 20.0623 14.9838 19.685Z" fill="#606483"/>
</svg>
