<svg width="25" height="25" viewBox="0 0 25 25" fill="none" xmlns="http://www.w3.org/2000/svg">
<path d="M19.6768 13.7782L18.6869 13.6367L18.6044 14.2141L19.0663 14.5702L19.6768 13.7782ZM21.8742 15.472L22.5327 14.7194L22.5094 14.699L22.4848 14.68L21.8742 15.472ZM21.9887 16.1129L21.1566 15.5582L21.1395 15.584L21.1239 15.6108L21.9887 16.1129ZM19.9286 19.6608L20.7861 20.1753L20.7898 20.1692L20.7934 20.163L19.9286 19.6608ZM19.2877 19.8897L18.9149 20.8176L18.9163 20.8182L19.2877 19.8897ZM16.7241 18.8597L17.0969 17.9318L16.5483 17.7114L16.0908 18.0857L16.7241 18.8597ZM15.0073 19.8668L14.6012 18.953L14.0963 19.1774L14.0175 19.7242L15.0073 19.8668ZM14.6182 22.5678L13.6284 22.4252L13.6247 22.4512L13.6223 22.4773L14.6182 22.5678ZM9.5138 22.5678L8.52402 22.7104L8.52664 22.7286L8.52993 22.7467L9.5138 22.5678ZM9.12467 19.8668L10.1145 19.7242L10.0315 19.1487L9.49032 18.9361L9.12467 19.8668ZM7.38505 18.8597L8.00136 18.0722L7.54564 17.7155L7.00935 17.9329L7.38505 18.8597ZM4.84429 19.8897L5.10741 20.8545L5.16484 20.8388L5.22 20.8165L4.84429 19.8897ZM4.20338 19.6608L5.09781 19.2136L5.08385 19.1857L5.06817 19.1587L4.20338 19.6608ZM2.14331 16.1129L3.00809 15.6108L3.00449 15.6046L3.0008 15.5984L2.14331 16.1129ZM2.25776 15.4491L1.64324 14.6602L1.62073 14.6777L1.59925 14.6965L2.25776 15.4491ZM4.43228 13.7553L5.04679 14.5442L5.50342 14.1885L5.42244 13.6154L4.43228 13.7553ZM4.43228 11.741L5.42244 11.8809L5.50342 11.3078L5.04679 10.9521L4.43228 11.741ZM2.25776 10.0471L2.87227 9.25823L2.8717 9.25778L2.25776 10.0471ZM2.14331 9.38333L1.27852 8.8812L1.26284 8.9082L1.24888 8.93612L2.14331 9.38333ZM4.20338 5.83543L5.06817 6.33756L5.06871 6.33662L4.20338 5.83543ZM4.84429 5.60653L5.22 4.67979L5.20823 4.67502L5.19635 4.67055L4.84429 5.60653ZM7.38505 6.63657L7.00935 7.56331L7.54564 7.78073L8.00136 7.42407L7.38505 6.63657ZM9.12467 5.62942L9.53081 6.54323L10.0357 6.31885L10.1145 5.77202L9.12467 5.62942ZM9.5138 2.92843L10.5036 3.07103L10.5073 3.04508L10.5097 3.01897L9.5138 2.92843ZM14.1146 2.49353L14.1397 1.49384L14.1272 1.49353H14.1146V2.49353ZM14.4432 2.62977L13.7536 3.3539L13.7536 3.35391L14.4432 2.62977ZM14.5953 2.95132L13.598 3.02508L13.6006 3.05963L13.6055 3.09392L14.5953 2.95132ZM14.9844 5.65231L13.9947 5.79491L14.0776 6.37044L14.6188 6.58306L14.9844 5.65231ZM16.7241 6.65946L16.1078 7.44696L16.5635 7.80361L17.0998 7.5862L16.7241 6.65946ZM19.2648 5.62942L19.0017 4.66466L18.9443 4.68032L18.8891 4.70268L19.2648 5.62942ZM19.9057 5.85832L19.0113 6.30553L19.0253 6.33345L19.0409 6.36045L19.9057 5.85832ZM21.9658 9.40622L21.101 9.90836L21.1046 9.91457L21.1083 9.92072L21.9658 9.40622ZM21.8514 10.07L22.4659 10.8589L22.4884 10.8414L22.5099 10.8226L21.8514 10.07ZM19.6768 11.7639L19.0623 10.975L18.5676 11.3603L18.699 11.9734L19.6768 11.7639ZM19.0663 14.5702L21.2637 16.264L22.4848 14.68L20.2873 12.9862L19.0663 14.5702ZM21.2157 16.2246C21.1452 16.1629 21.0923 16.0775 21.0711 15.9714C21.0483 15.8578 21.061 15.7017 21.1566 15.5582L22.8207 16.6676C23.2984 15.9512 23.0031 15.1309 22.5327 14.7194L21.2157 16.2246ZM21.1239 15.6108L19.0638 19.1587L20.7934 20.163L22.8535 16.6151L21.1239 15.6108ZM19.0711 19.1463C19.1757 18.9721 19.4133 18.8629 19.6591 18.9612L18.9163 20.8182C19.6199 21.0996 20.4069 20.8073 20.7861 20.1753L19.0711 19.1463ZM19.6605 18.9618L17.0969 17.9318L16.3512 19.7876L18.9149 20.8176L19.6605 18.9618ZM16.0908 18.0857C15.6847 18.418 15.1796 18.6959 14.6012 18.953L15.4135 20.7806C16.0711 20.4884 16.7563 20.1254 17.3573 19.6336L16.0908 18.0857ZM14.0175 19.7242L13.6284 22.4252L15.608 22.7104L15.9971 20.0094L14.0175 19.7242ZM13.6223 22.4773C13.6525 22.145 13.9215 22.0027 14.1146 22.0027V24.0027C14.8113 24.0027 15.5381 23.4942 15.6141 22.6584L13.6223 22.4773ZM14.1146 22.0027H10.0174V24.0027H14.1146V22.0027ZM10.0174 22.0027C10.285 22.0027 10.4636 22.2017 10.4977 22.3889L8.52993 22.7467C8.65553 23.4375 9.24617 24.0027 10.0174 24.0027V22.0027ZM10.5036 22.4252L10.1145 19.7242L8.13489 20.0094L8.52402 22.7104L10.5036 22.4252ZM9.49032 18.9361C8.95098 18.7242 8.46205 18.4327 8.00136 18.0722L6.76874 19.6472C7.36098 20.1107 8.01654 20.5059 8.75902 20.7976L9.49032 18.9361ZM7.00935 17.9329L4.46859 18.963L5.22 20.8165L7.76076 19.7864L7.00935 17.9329ZM4.58118 18.925C4.61795 18.9149 4.68707 18.9052 4.78142 18.9358C4.8882 18.9705 5.02038 19.0588 5.09781 19.2136L3.30895 20.108C3.71302 20.9162 4.58351 20.9974 5.10741 20.8545L4.58118 18.925ZM5.06817 19.1587L3.00809 15.6108L1.27852 16.6151L3.33859 20.163L5.06817 19.1587ZM3.0008 15.5984C3.14467 15.8382 3.04791 16.0865 2.91626 16.2017L1.59925 14.6965C1.10136 15.1322 0.867266 15.9298 1.28581 16.6274L3.0008 15.5984ZM2.87227 16.238L5.04679 14.5442L3.81776 12.9664L1.64324 14.6602L2.87227 16.238ZM5.42244 13.6154C5.34115 13.0401 5.34115 12.4562 5.42244 11.8809L3.44211 11.6011C3.3346 12.362 3.3346 13.1343 3.44211 13.8952L5.42244 13.6154ZM5.04679 10.9521L2.87227 9.25823L1.64324 10.836L3.81776 12.5299L5.04679 10.9521ZM2.8717 9.25778C2.98666 9.3472 3.05235 9.47681 3.06982 9.59618C3.08553 9.70353 3.0614 9.78321 3.03773 9.83055L1.24888 8.93612C0.983972 9.46593 0.96086 10.3053 1.64382 10.8365L2.8717 9.25778ZM3.00809 9.88547L5.06817 6.33756L3.33859 5.33329L1.27852 8.8812L3.00809 9.88547ZM5.06871 6.33662C5.01253 6.43363 4.92376 6.50754 4.81822 6.54524L4.14554 4.66176C3.80528 4.78328 3.51914 5.02156 3.33805 5.33423L5.06871 6.33662ZM4.81822 6.54524C4.71266 6.58294 4.59715 6.58197 4.49224 6.54251L5.19635 4.67055C4.85816 4.54335 4.48581 4.54023 4.14554 4.66176L4.81822 6.54524ZM4.46859 6.53327L7.00935 7.56331L7.76076 5.70983L5.22 4.67979L4.46859 6.53327ZM8.00136 7.42407C8.4402 7.08063 8.95529 6.79902 9.53081 6.54323L8.71853 4.71561C8.05801 5.00917 7.38283 5.36848 6.76874 5.84906L8.00136 7.42407ZM10.1145 5.77202L10.5036 3.07103L8.52402 2.78584L8.13489 5.48683L10.1145 5.77202ZM10.5097 3.01897C10.4795 3.35124 10.2105 3.49353 10.0174 3.49353V1.49353C9.32068 1.49353 8.59389 2.00205 8.5179 2.8379L10.5097 3.01897ZM10.0174 3.49353H14.1146V1.49353H10.0174V3.49353ZM14.0896 3.49322C13.9642 3.49007 13.8444 3.44042 13.7536 3.3539L15.1329 1.90563C14.8644 1.6499 14.5104 1.50313 14.1397 1.49384L14.0896 3.49322ZM13.7536 3.35391C13.6627 3.2674 13.6073 3.1502 13.598 3.02508L15.5926 2.87757C15.5652 2.50776 15.4014 2.16135 15.1329 1.90563L13.7536 3.35391ZM13.6055 3.09392L13.9947 5.79491L15.9742 5.50972L15.5851 2.80873L13.6055 3.09392ZM14.6188 6.58306C15.1581 6.79495 15.6471 7.08642 16.1078 7.44696L17.3404 5.87195C16.7481 5.40846 16.0926 5.01325 15.3501 4.72156L14.6188 6.58306ZM17.0998 7.5862L19.6405 6.55616L18.8891 4.70268L16.3484 5.73272L17.0998 7.5862ZM19.5279 6.59418C19.4912 6.60421 19.4221 6.61398 19.3277 6.58332C19.2209 6.54861 19.0887 6.46038 19.0113 6.30553L20.8002 5.4111C20.3961 4.60296 19.5256 4.52178 19.0017 4.66466L19.5279 6.59418ZM19.0409 6.36045L21.101 9.90836L22.8306 8.90409L20.7705 5.35618L19.0409 6.36045ZM21.1083 9.92072C20.9644 9.68094 21.0612 9.43264 21.1929 9.31745L22.5099 10.8226C23.0077 10.387 23.2418 9.58931 22.8233 8.89173L21.1083 9.92072ZM21.2368 9.28112L19.0623 10.975L20.2913 12.5528L22.4659 10.8589L21.2368 9.28112ZM18.699 11.9734C18.7476 12.2002 18.7684 12.4672 18.7684 12.771H20.7684C20.7684 12.3882 20.7434 11.9685 20.6546 11.5543L18.699 11.9734ZM18.7684 12.771C18.7684 13.0351 18.7329 13.3143 18.6869 13.6367L20.6668 13.9196C20.7123 13.6011 20.7684 13.1936 20.7684 12.771H18.7684Z" fill="#606483"/>
<path d="M15.1185 12.7482C15.1185 14.4348 13.7512 15.8021 12.0646 15.8021C10.378 15.8021 9.01074 14.4348 9.01074 12.7482C9.01074 11.0616 10.378 9.69434 12.0646 9.69434C13.7512 9.69434 15.1185 11.0616 15.1185 12.7482Z" stroke="#606483" stroke-width="2"/>
</svg>
