<svg width="17" height="16" viewBox="0 0 17 16" fill="none" xmlns="http://www.w3.org/2000/svg">
<path d="M2.05713 7.99998C2.05713 11.1159 3.48548 14.2706 6.21467 14.2706C8.94387 14.2706 10.3722 11.1159 10.3722 7.99998C10.3722 4.88346 8.94387 1.72933 6.21467 1.72933C3.48548 1.72933 2.05713 4.88346 2.05713 7.99998ZM11.2388 11.1353L14.0105 11.1353C14.2868 10.3596 14.4558 9.5018 14.5104 8.62704L11.7387 8.62704C11.6902 9.47203 11.5228 10.3119 11.2388 11.1353ZM11.7377 7.37291L14.5094 7.37291C14.4619 6.52787 14.2945 5.6879 14.0096 4.86465L11.2379 4.86465C11.5228 5.6879 11.6902 6.52787 11.7377 7.37291ZM10.6466 3.61052L13.4183 3.61052C12.7208 2.48118 11.7026 1.72933 10.3722 1.72933L7.60052 1.72933C8.93093 1.72933 9.94907 2.48118 10.6466 3.61052ZM13.4183 12.3894L10.6466 12.3894C9.94907 13.5182 8.93001 14.2706 7.60052 14.2706L10.3722 14.2706C11.7017 14.2706 12.7208 13.5182 13.4183 12.3894Z" fill="#767D86"/>
</svg>
