<svg width="17" height="11" viewBox="0 0 17 11" fill="none" xmlns="http://www.w3.org/2000/svg">
<path fill-rule="evenodd" clip-rule="evenodd" d="M11.1338 1.09659L4.57008 8.31238L1.68756 5.42986L1.60344 5.35724C1.30983 5.13938 0.893163 5.16359 0.626896 5.42986C0.334003 5.72275 0.334003 6.19762 0.626896 6.49052L4.06544 9.92906L4.15245 10.0038C4.45634 10.2271 4.88867 10.1913 5.15057 9.9034L12.2434 2.10593L12.312 2.01848C12.5157 1.7149 12.4718 1.29984 12.1933 1.04646C11.8869 0.767736 11.4125 0.790182 11.1338 1.09659ZM15.6953 1.09659L8.60242 8.89406L8.53386 8.98151C8.33013 9.28509 8.374 9.70015 8.65256 9.95353C8.95897 10.2323 9.43331 10.2098 9.71203 9.9034L16.8049 2.10593L16.8734 2.01848C17.0772 1.7149 17.0333 1.29984 16.7548 1.04646C16.4483 0.767736 15.974 0.790182 15.6953 1.09659Z" fill="#107EDC"/>
</svg>
