<svg width="20" height="20" viewBox="0 0 20 20" fill="none" xmlns="http://www.w3.org/2000/svg">
<path d="M10.2406 11.7719C9.91192 12.1274 9.51332 12.4133 9.07276 12.591V17.9814C9.07276 18.5337 8.62504 18.9814 8.07276 18.9814H7.97486C7.42257 18.9814 6.97486 18.5337 6.97486 17.9814V17.436H5.87695C5.32467 17.436 4.87695 16.9883 4.87695 16.436V16.1178C4.87695 15.5655 5.32467 15.1178 5.87695 15.1178H6.97486V12.5833C5.75807 12.1042 4.87695 10.8369 4.87695 9.32235C4.87695 7.39054 6.27555 5.84508 8.02381 5.84508H8.09374C7.76507 6.57917 7.61821 7.39054 7.69513 8.22508C7.28255 8.37963 6.97486 8.81235 6.97486 9.32235C6.97486 9.96372 7.44339 10.4814 8.02381 10.4814C8.18465 10.4814 8.33849 10.4351 8.47835 10.3655C8.9259 11.0146 9.54129 11.5014 10.2406 11.7719ZM15.543 15.359C15.7311 15.8497 15.5071 16.4023 15.0304 16.6237L14.9182 16.6758C14.3928 16.9198 13.7708 16.6678 13.5633 16.127L13.4014 15.7051L12.4455 16.1528C11.9194 16.3993 11.2947 16.147 11.0873 15.6043L10.9866 15.3411C10.7989 14.85 11.0236 14.2973 11.5008 14.0765L12.5902 13.5724L11.7021 11.2542C10.4084 11.316 9.14968 10.5201 8.61821 9.12917C7.94688 7.35963 8.70213 5.31963 10.3035 4.57008C10.4714 4.49281 10.6532 4.43872 10.821 4.39235C10.3595 3.42645 9.42241 2.75417 8.37346 2.75417C6.828 2.75417 5.57625 4.13735 5.57625 5.84508V6.03054C5.36646 6.23144 5.15667 6.47872 4.98185 6.73372C4.91891 6.44781 4.87695 6.15417 4.87695 5.84508C4.87695 3.71235 6.44339 1.98145 8.37346 1.98145C10.3035 1.98145 11.87 3.71235 11.87 5.84508C11.87 6.94235 11.4504 7.90826 10.786 8.60372C11.0798 8.93599 11.5203 9.03645 11.9259 8.84326C12.4644 8.59599 12.7091 7.91599 12.4853 7.32872C12.4625 7.25646 12.4295 7.18865 12.3874 7.12781C12.4993 6.71826 12.5693 6.29326 12.5693 5.84508C12.5693 5.35826 12.4993 4.8869 12.3735 4.44645C13.2686 4.72463 14.0378 5.41235 14.4224 6.43235C14.9539 7.82326 14.5902 9.37645 13.6182 10.3346L15.543 15.359ZM10.4714 7.85417C10.7301 7.53735 10.9259 7.16644 11.0448 6.7569C10.6672 6.96554 10.4504 7.39054 10.4714 7.85417Z" fill="#D75DC3"/>
</svg>
