<svg width="14" height="14" viewBox="0 0 14 14" fill="none" xmlns="http://www.w3.org/2000/svg">
<path d="M1.26152 1.26154C0.773928 1.74915 0.5 2.41049 0.5 3.10007V8.3002C0.5 8.98978 0.773928 9.65112 1.26152 10.1387C1.74912 10.6263 2.41044 10.9003 3.1 10.9003V12.8503C3.10006 12.9679 3.13201 13.0833 3.19245 13.1841C3.25289 13.285 3.33955 13.3675 3.4432 13.423C3.54685 13.4785 3.66362 13.5049 3.78106 13.4993C3.8985 13.4936 4.01222 13.4563 4.1101 13.3911L7.8463 10.9003H10.9C11.5896 10.9003 12.2509 10.6263 12.7385 10.1387C13.2261 9.65112 13.5 8.98978 13.5 8.3002V3.10007C13.5 2.41049 13.2261 1.74915 12.7385 1.26154C12.2509 0.773935 11.5896 0.5 10.9 0.5H3.1C2.41044 0.5 1.74912 0.773935 1.26152 1.26154Z" fill="#767D86"/>
</svg>
