<svg width="30" height="30" viewBox="0 0 30 30" fill="none" xmlns="http://www.w3.org/2000/svg">
<path fill-rule="evenodd" clip-rule="evenodd" d="M8.64251 10.1431L7.42651 8.92707C7.39155 8.89202 7.34696 8.86814 7.29841 8.85846C7.24985 8.84877 7.19952 8.85372 7.15378 8.87268C7.10804 8.89164 7.06897 8.92375 7.0415 8.96495C7.01404 9.00614 6.99942 9.05456 6.99951 9.10407V12.7501C6.99951 12.8881 7.11151 13.0001 7.24951 13.0001H10.8955C10.945 13.0002 10.9934 12.9855 11.0346 12.9581C11.0758 12.9306 11.1079 12.8915 11.1269 12.8458C11.1459 12.8001 11.1508 12.7497 11.1411 12.7012C11.1314 12.6526 11.1076 12.608 11.0725 12.5731L9.71451 11.2151C10.5997 9.97872 11.8904 9.09186 13.362 8.70878C14.8335 8.32571 16.3928 8.47067 17.7685 9.11845C19.1442 9.76623 20.2493 10.8758 20.8914 12.2542C21.5336 13.6325 21.6722 15.1924 21.2831 16.6624C20.894 18.1323 20.0019 19.4194 18.7619 20.2995C17.5219 21.1797 16.0126 21.5973 14.4966 21.4797C12.9806 21.362 11.5537 20.7166 10.4644 19.6557C9.37508 18.5947 8.69217 17.1855 8.53451 15.6731C8.51409 15.4751 8.41586 15.2933 8.26142 15.1678C8.10698 15.0422 7.909 14.9832 7.71101 15.0036C7.51303 15.024 7.33127 15.1222 7.20571 15.2767C7.08015 15.4311 7.02109 15.6291 7.04151 15.8271C7.2339 17.6783 8.06566 19.4046 9.39362 20.7087C10.7216 22.0127 12.4626 22.8131 14.317 22.9719C16.1715 23.1307 18.0232 22.638 19.5536 21.5786C21.0839 20.5193 22.197 18.9596 22.7013 17.168C23.2057 15.3764 23.0696 13.4651 22.3166 11.763C21.5636 10.0609 20.2407 8.67459 18.5758 7.84271C16.9108 7.01082 15.0079 6.78541 13.1947 7.20528C11.3815 7.62515 9.77135 8.66403 8.64151 10.1431H8.64251ZM14.7495 11.0001C14.9484 11.0001 15.1392 11.0791 15.2798 11.2197C15.4205 11.3604 15.4995 11.5512 15.4995 11.7501V14.7421L17.5275 15.5541C17.7062 15.632 17.8476 15.7764 17.9216 15.9568C17.9957 16.1371 17.9966 16.3392 17.9241 16.5202C17.8517 16.7012 17.7116 16.8469 17.5336 16.9264C17.3556 17.0059 17.1536 17.013 16.9705 16.9461L14.4705 15.9461C14.3315 15.8904 14.2123 15.7943 14.1284 15.6702C14.0444 15.5462 13.9995 15.3999 13.9995 15.2501V11.7501C13.9995 11.5512 14.0785 11.3604 14.2192 11.2197C14.3598 11.0791 14.5506 11.0001 14.7495 11.0001Z" fill="#C4CDDF"/>
</svg>
