<svg width="25" height="24" viewBox="0 0 25 24" fill="none" xmlns="http://www.w3.org/2000/svg">
<path fill-rule="evenodd" clip-rule="evenodd" d="M6.15586 5.24998V9.14997H10.0559V5.24998H6.15586ZM5.25586 3.59998C4.84165 3.59998 4.50586 3.93576 4.50586 4.34998V10.05C4.50586 10.4642 4.84165 10.8 5.25586 10.8H10.9559C11.3701 10.8 11.7059 10.4642 11.7059 10.05V4.34998C11.7059 3.93576 11.3701 3.59998 10.9559 3.59998H5.25586Z" fill="#D75DC3"/>
<path fill-rule="evenodd" clip-rule="evenodd" d="M6.15586 14.85V18.75H10.0559V14.85H6.15586ZM5.25586 13.2C4.84165 13.2 4.50586 13.5357 4.50586 13.95V19.65C4.50586 20.0642 4.84165 20.4 5.25586 20.4H10.9559C11.3701 20.4 11.7059 20.0642 11.7059 19.65V13.95C11.7059 13.5357 11.3701 13.2 10.9559 13.2H5.25586Z" fill="#D75DC3"/>
<path fill-rule="evenodd" clip-rule="evenodd" d="M15.7555 5.24998V9.14997H19.6555V5.24998H15.7555ZM14.8555 3.59998C14.4413 3.59998 14.1055 3.93576 14.1055 4.34998V10.05C14.1055 10.4642 14.4413 10.8 14.8555 10.8H20.5555C20.9697 10.8 21.3055 10.4642 21.3055 10.05V4.34998C21.3055 3.93576 20.9697 3.59998 20.5555 3.59998H14.8555Z" fill="#D75DC3"/>
<path fill-rule="evenodd" clip-rule="evenodd" d="M15.7555 14.85V18.75H19.6555V14.85H15.7555ZM14.8555 13.2C14.4413 13.2 14.1055 13.5357 14.1055 13.95V19.65C14.1055 20.0642 14.4413 20.4 14.8555 20.4H20.5555C20.9697 20.4 21.3055 20.0642 21.3055 19.65V13.95C21.3055 13.5357 20.9697 13.2 20.5555 13.2H14.8555Z" fill="#D75DC3"/>
</svg>
