<svg width="20" height="20" viewBox="0 0 20 20" fill="none" xmlns="http://www.w3.org/2000/svg">
<path d="M12.8675 5.33167H10.72C10.52 5.33167 10.3275 5.40458 10.18 5.53583L7.7225 7.72333C7.72 7.72576 7.7175 7.73062 7.715 7.73305C7.3 8.11222 7.3075 8.71743 7.6625 9.09417C7.98 9.43201 8.6475 9.52194 9.065 9.15979C9.0675 9.15736 9.0725 9.15736 9.075 9.15493L11.0725 7.37576C11.235 7.23236 11.49 7.24208 11.6375 7.40007C11.7875 7.55805 11.775 7.80354 11.6125 7.94937L10.96 8.53028L14.6 11.4032C14.6725 11.4615 14.7375 11.5247 14.7975 11.5903V6.88722L13.4325 5.56014C13.285 5.4143 13.08 5.33167 12.8675 5.33167ZM15.6 6.89208V12.3341C15.6 12.7643 15.9575 13.1119 16.4 13.1119H18V6.89208H15.6ZM16.8 12.3341C16.58 12.3341 16.4 12.1591 16.4 11.9452C16.4 11.7313 16.58 11.5563 16.8 11.5563C17.02 11.5563 17.2 11.7313 17.2 11.9452C17.2 12.1591 17.02 12.3341 16.8 12.3341ZM2 13.1094H3.6C4.0425 13.1094 4.4 12.7619 4.4 12.3317V6.89208H2V13.1094ZM3.2 11.5563C3.42 11.5563 3.6 11.7313 3.6 11.9452C3.6 12.1591 3.42 12.3341 3.2 12.3341C2.98 12.3341 2.8 12.1591 2.8 11.9452C2.8 11.7289 2.98 11.5563 3.2 11.5563ZM14.0975 12.0084L10.365 9.06257L9.615 9.73097C8.8725 10.3897 7.735 10.3265 7.0725 9.62403C6.4 8.90944 6.4525 7.80354 7.1825 7.15215L9.2275 5.33167H7.1325C6.92 5.33167 6.7175 5.4143 6.5675 5.56014L5.2 6.88722V12.3292H5.6575L7.92 14.3199C8.605 14.8619 9.6125 14.7598 10.17 14.0938L10.175 14.089L10.6225 14.4657C11.02 14.7817 11.6075 14.7209 11.93 14.3344L12.715 13.3962L12.85 13.5032C13.1925 13.773 13.6975 13.7244 13.975 13.389L14.2125 13.1046C14.4925 12.7692 14.44 12.2806 14.0975 12.0084Z" fill="#D75DC3"/>
</svg>
