<svg width="20" height="20" viewBox="0 0 20 20" fill="none" xmlns="http://www.w3.org/2000/svg">
<path d="M16.5205 10.0075C16.6589 9.75761 16.8787 9.56264 17.1433 9.45507C17.408 9.34749 17.7014 9.33379 17.9749 9.41625L18.423 9.55125L18.543 9.59125C18.9143 9.72706 19.2417 9.96091 19.4907 10.2679C19.7396 10.575 19.9007 10.9437 19.9568 11.335C20.1424 12.6275 19.7274 14.1388 18.7268 15.8719C17.7287 17.6006 16.6299 18.7144 15.4205 19.2019C15.032 19.3585 14.6066 19.4002 14.195 19.3221C13.7834 19.244 13.4029 19.0493 13.0987 18.7613L12.7599 18.44L12.6837 18.3613C12.4953 18.1487 12.3849 17.8783 12.3707 17.5947C12.3565 17.311 12.4393 17.0309 12.6056 16.8006L13.4537 15.6256L13.5106 15.5544C13.6297 15.4194 13.7851 15.3216 13.9584 15.2726C14.1316 15.2236 14.3153 15.2255 14.4874 15.2781L15.7693 15.67L15.8024 15.6763H15.8293C15.9824 15.6594 16.2937 15.35 16.6762 14.6875C17.1012 13.9513 17.1887 13.5206 17.0718 13.4094L16.4199 12.8019L16.3368 12.7188C16.1293 12.4939 15.9925 12.2129 15.9433 11.9109C15.8942 11.6089 15.935 11.2991 16.0605 11.02L16.4743 10.1006L16.5205 10.0075Z" fill="#D75DC3"/>
<g clip-path="url(#clip0_54176_78712)">
<path fill-rule="evenodd" clip-rule="evenodd" d="M10.0385 7.70204C10.1484 7.89773 10.2587 8.0794 10.3692 8.24704L9.73781 8.66796C9.56549 8.78285 9.51892 9.01567 9.6338 9.18799C9.74868 9.36032 9.98151 9.40688 10.1538 9.292L10.8181 8.84914C10.9716 9.02823 11.1257 9.18062 11.2803 9.3063L10.7378 9.66796C10.5655 9.78285 10.5189 10.0157 10.6338 10.188C10.7487 10.3603 10.9815 10.4069 11.1538 10.292L12.0298 9.70803C12.0307 9.7074 12.0317 9.70676 12.0326 9.70613C12.1482 9.73537 12.2642 9.74999 12.3804 9.74999C12.8291 9.74999 13.2233 9.83652 13.5631 10.0096C13.9028 10.1827 14.1592 10.4006 14.3323 10.6634C14.5054 10.9263 14.6336 11.1891 14.7169 11.4519C14.8002 11.7147 14.8419 11.9679 14.8419 12.2115V12.8541C14.8419 13.072 14.7618 13.2611 14.6015 13.4214C14.4413 13.5816 14.2458 13.6617 14.015 13.6617H5.82268C5.59191 13.6617 5.3964 13.5816 5.23614 13.4214C5.07588 13.2611 4.99576 13.072 4.99576 12.8541V12.2115H5.2073C4.80986 10.8525 4.90601 9.81409 5.49576 9.09614C5.71371 8.71152 5.82268 7.96793 5.82268 6.86537C5.82268 6.64742 5.90281 6.45832 6.06306 6.29806C6.22332 6.13781 6.41242 6.05768 6.63037 6.05768H8.68806C9.00858 6.05768 9.25217 6.19229 9.41883 6.46152C9.43165 6.48717 9.44768 6.52563 9.46691 6.57691C9.48614 6.62819 9.50537 6.67306 9.5246 6.71152C9.54383 6.74999 9.56627 6.78845 9.59191 6.82691C9.62621 6.90033 9.66053 6.97237 9.69488 7.04303C9.66687 7.05312 9.63963 7.06673 9.61374 7.08399L8.73778 7.66796C8.56546 7.78285 8.51889 8.01567 8.63377 8.18799C8.74866 8.36032 8.98148 8.40688 9.15381 8.292L10.0298 7.70803L10.0385 7.70204ZM8.34179 10.75C8.34179 11.1642 8.006 11.5 7.59179 11.5C7.17757 11.5 6.84179 11.1642 6.84179 10.75C6.84179 10.3358 7.17757 10 7.59179 10C8.006 10 8.34179 10.3358 8.34179 10.75Z" fill="#D75DC3"/>
</g>
<path fill-rule="evenodd" clip-rule="evenodd" d="M1.35986 4.79901C1.35986 3.4183 2.47915 2.29901 3.85986 2.29901H15.9296C17.3103 2.29901 18.4296 3.4183 18.4296 4.79901V7.43903H17.4296V4.79901C17.4296 3.97058 16.7581 3.29901 15.9296 3.29901H3.85986C3.03144 3.29901 2.35986 3.97058 2.35986 4.79901V13.6879C2.35986 14.5164 3.03144 15.1879 3.85986 15.1879H11.3965V16.1879H3.85986C2.47915 16.1879 1.35986 15.0687 1.35986 13.6879V4.79901Z" fill="#D75DC3"/>
<defs>
<clipPath id="clip0_54176_78712">
<rect width="10" height="10" fill="white" transform="translate(4.8418 5)"/>
</clipPath>
</defs>
</svg>
