<svg width="20" height="20" viewBox="0 0 20 20" fill="none" xmlns="http://www.w3.org/2000/svg">
<path d="M15.8897 10.0075C16.0281 9.75761 16.2479 9.56264 16.5125 9.45507C16.7771 9.34749 17.0706 9.33379 17.3441 9.41625L17.7922 9.55125L17.9122 9.59125C18.2834 9.72706 18.6109 9.96091 18.8598 10.2679C19.1087 10.575 19.2698 10.9437 19.3259 11.335C19.5116 12.6275 19.0966 14.1388 18.0959 15.8719C17.0978 17.6006 15.9991 18.7144 14.7897 19.2019C14.4011 19.3585 13.9757 19.4002 13.5641 19.3221C13.1525 19.244 12.772 19.0493 12.4678 18.7613L12.1291 18.44L12.0528 18.3613C11.8644 18.1487 11.754 17.8783 11.7398 17.5947C11.7256 17.311 11.8085 17.0309 11.9747 16.8006L12.8228 15.6256L12.8797 15.5544C12.9988 15.4194 13.1543 15.3216 13.3275 15.2726C13.5007 15.2236 13.6844 15.2255 13.8566 15.2781L15.1384 15.67L15.1716 15.6763H15.1984C15.3516 15.6594 15.6628 15.35 16.0453 14.6875C16.4703 13.9513 16.5578 13.5206 16.4409 13.4094L15.7891 12.8019L15.7059 12.7188C15.4984 12.4939 15.3616 12.2129 15.3125 11.9109C15.2634 11.6089 15.3041 11.2991 15.4297 11.02L15.8434 10.1006L15.8897 10.0075Z" fill="#D75DC3"/>
<path d="M5.46191 16.2562H10.0613C10.6136 16.2562 11.0357 15.7795 11.3063 15.2981C11.6987 14.6 12.472 14.211 12.9449 13.8038C14.2425 12.6864 12.4483 11.0943 10.7359 11.0943H7.46191C5.80506 11.0943 4.46191 12.4374 4.46191 14.0943V15.2562C4.46191 15.8085 4.90963 16.2562 5.46191 16.2562Z" fill="#D75DC3"/>
<path fill-rule="evenodd" clip-rule="evenodd" d="M1.3623 4.82599C1.3623 3.44528 2.48159 2.32599 3.8623 2.32599H15.9321C17.3128 2.32599 18.4321 3.44528 18.4321 4.82599V7.466H17.4321V4.82599C17.4321 3.99756 16.7605 3.32599 15.9321 3.32599H3.8623C3.03388 3.32599 2.3623 3.99756 2.3623 4.82599V13.7149C2.3623 14.5434 3.03388 15.2149 3.8623 15.2149H7.39894V16.2149H3.8623C2.48159 16.2149 1.3623 15.0956 1.3623 13.7149V4.82599Z" fill="#D75DC3"/>
<circle cx="8.92165" cy="7.45918" r="2.54079" fill="#D75DC3"/>
</svg>
